
<svg width="1200" height="675" viewBox="0 0 1200 675" fill="none" xmlns="http://www.w3.org/2000/svg">
<g clip-path="url(#clip0_1_2)">
<rect width="1200" height="675" fill="white"/>
<path fill-rule="evenodd" clip-rule="evenodd" d="M471.249 -338.043C487.229 -340.749 503.29 -342.951 519.408 -344.645L569.506 132H550.86L471.249 -338.043ZM482.779 132H550.86L574.25 270.098C577.446 269.556 580.658 269.116 583.882 268.777L569.506 132H632.477L617.154 268.89C620.375 269.25 623.584 269.712 626.776 270.275L651.158 132H719.507L658.729 279.554C661.726 280.789 664.684 282.118 667.597 283.539L741.507 132H777.585C800.06 132 816.124 132 828.049 134.273L695.754 301.265C698.295 303.278 700.771 305.371 703.18 307.54L849.591 144.934C861.155 157.222 861.155 176.912 861.155 215.57V235.075L725.36 332.341C727.248 334.976 729.052 337.67 730.769 340.419L861.155 258.945V328.94L745.254 370.241C746.342 373.294 747.333 376.381 748.227 379.497L861.155 347.115V375.112C861.155 386.908 861.155 396.938 860.826 405.531L753.894 412.283C754.098 415.518 754.2 418.759 754.2 422H859.48C857.905 432.829 854.848 440.512 848.917 446.443C836.678 458.682 816.981 458.682 777.585 458.682H422.414C383.019 458.682 363.322 458.682 351.083 446.443C344.86 440.22 341.801 432.068 340.298 420.379L445.803 421.091C445.825 417.85 445.949 414.61 446.175 411.377L339.115 403.89C338.845 395.668 338.845 386.165 338.845 375.112V345.335L452.064 378.629C452.978 375.52 453.99 372.439 455.099 369.394L338.845 327.08V256.482L469.786 339.538C471.522 336.801 473.344 334.119 475.249 331.497L338.845 232.393V215.57C338.845 176.175 338.845 156.477 351.083 144.239C351.451 143.87 351.827 143.513 352.209 143.166L497.596 306.846C500.02 304.693 502.51 302.617 505.065 300.622L374.726 133.795C386.34 132 401.638 132 422.414 132H460.911L533.341 283.085C536.264 281.684 539.23 280.375 542.235 279.161L482.779 132ZM482.779 132H460.911L266.704 -273.107C281.319 -280.113 296.151 -286.656 311.178 -292.728L482.779 132ZM374.726 133.795L125.324 -185.425C112.552 -175.447 100.099 -165.068 87.9812 -154.305L352.209 143.166C357.828 138.072 364.98 135.302 374.726 133.795ZM338.845 232.393L-23.7537 -31.0504C-33.2801 -17.9384 -42.3907 -4.5293 -51.0719 9.15698L338.845 256.482V232.393ZM338.845 327.08L-124.505 158.435C-130.048 173.665 -135.11 189.065 -139.682 204.614L338.845 345.335V327.08ZM339.115 403.89L-169.124 368.351C-170.254 384.518 -170.875 400.718 -170.984 416.925L340.298 420.379C339.674 415.53 339.318 410.072 339.115 403.89ZM859.48 422H1371C1371 405.793 1370.49 389.59 1369.47 373.414L860.826 405.531C860.59 411.727 860.182 417.176 859.48 422ZM861.155 347.115L1341.13 209.484C1336.67 193.905 1331.71 178.47 1326.27 163.203L861.155 328.94V347.115ZM861.155 258.945L1253.85 13.5641C1245.26 -0.180389 1236.24 -13.6507 1226.8 -26.8267L861.155 235.075V258.945ZM849.591 144.934L1115.9 -150.833C1103.86 -161.678 1091.47 -172.14 1078.77 -182.205L828.049 134.273C837.027 135.983 843.66 138.982 848.917 144.239C849.146 144.468 849.37 144.7 849.591 144.934ZM741.507 132L937.985 -270.839C923.418 -277.944 908.631 -284.587 893.645 -290.76L719.507 132H741.507ZM651.158 132L733.883 -337.156C717.922 -339.97 701.876 -342.281 685.769 -344.083L632.477 132H651.158ZM678.489 343.511C699.305 364.328 711 392.561 711 422H600H489C489 392.561 500.695 364.328 521.511 343.511C542.328 322.695 570.561 311 600 311C629.439 311 657.672 322.695 678.489 343.511ZM328.345 486.328C333.454 476.111 336.008 471.003 340.598 468.166C345.187 465.33 350.899 465.33 362.321 465.33H837.678C849.101 465.33 854.812 465.33 859.402 468.166C863.991 471.003 866.545 476.11 871.653 486.325L871.654 486.327L871.654 486.328L874.503 492.026C886.823 516.665 892.983 528.984 887.415 537.992C881.848 547 868.075 547 840.527 547H359.472C331.925 547 318.152 547 312.584 537.992C307.017 528.984 313.177 516.665 325.496 492.026L328.345 486.328Z" fill="#42BB69"/>
<path fill-rule="evenodd" clip-rule="evenodd" d="M51.5545 472.174C47.6805 472.174 43.959 472.827 40.4941 474.029C57.3047 482.998 70.9046 497.194 79.1232 514.447C79.6989 516.655 80.4926 518.774 81.4798 520.781C81.5399 520.624 81.6005 520.468 81.6616 520.311C81.7226 520.468 81.7832 520.624 81.8434 520.781C82.8306 518.774 83.6242 516.655 84.1999 514.447C92.4186 497.194 106.018 482.998 122.829 474.029C119.364 472.827 115.643 472.174 111.769 472.174C98.6194 472.174 87.2272 479.697 81.6616 490.674C76.0959 479.697 64.7037 472.174 51.5545 472.174Z" fill="#42BB69"/>
<path fill-rule="evenodd" clip-rule="evenodd" d="M915.554 472.174C911.68 472.174 907.959 472.827 904.494 474.029C921.305 482.998 934.905 497.194 943.123 514.447C943.699 516.655 944.493 518.774 945.48 520.781C945.54 520.624 945.601 520.468 945.662 520.311C945.723 520.468 945.783 520.624 945.843 520.781C946.831 518.774 947.624 516.655 948.2 514.447C956.419 497.194 970.018 482.998 986.829 474.029C983.364 472.827 979.643 472.174 975.769 472.174C962.619 472.174 951.227 479.697 945.662 490.674C940.096 479.697 928.704 472.174 915.554 472.174Z" fill="#42BB69"/>
<path fill-rule="evenodd" clip-rule="evenodd" d="M138.554 525.174C134.68 525.174 130.959 525.827 127.494 527.029C144.305 535.998 157.905 550.194 166.123 567.447C166.699 569.655 167.493 571.774 168.48 573.781C168.54 573.624 168.601 573.468 168.662 573.311C168.723 573.468 168.783 573.624 168.843 573.781C169.831 571.774 170.624 569.655 171.2 567.447C179.419 550.194 193.018 535.998 209.829 527.029C206.364 525.827 202.643 525.174 198.769 525.174C185.619 525.174 174.227 532.697 168.662 543.674C163.096 532.697 151.704 525.174 138.554 525.174Z" fill="#42BB69"/>
<path fill-rule="evenodd" clip-rule="evenodd" d="M998.554 525.174C994.68 525.174 990.959 525.827 987.494 527.029C1004.3 535.998 1017.9 550.194 1026.12 567.447C1026.7 569.655 1027.49 571.774 1028.48 573.781C1028.54 573.624 1028.6 573.468 1028.66 573.311C1028.72 573.468 1028.78 573.624 1028.84 573.781C1029.83 571.774 1030.62 569.655 1031.2 567.447C1039.42 550.194 1053.02 535.998 1069.83 527.029C1066.36 525.827 1062.64 525.174 1058.77 525.174C1045.62 525.174 1034.23 532.697 1028.66 543.674C1023.1 532.697 1011.7 525.174 998.554 525.174Z" fill="#42BB69"/>
<path fill-rule="evenodd" clip-rule="evenodd" d="M50.5545 587.174C46.6805 587.174 42.959 587.827 39.4941 589.029C56.3047 597.998 69.9046 612.194 78.1232 629.447C78.6989 631.655 79.4926 633.774 80.4798 635.781C80.5399 635.624 80.6005 635.468 80.6616 635.311C80.7226 635.468 80.7832 635.624 80.8434 635.781C81.8306 633.774 82.6242 631.655 83.1999 629.447C91.4186 612.194 105.018 597.998 121.829 589.029C118.364 587.827 114.643 587.174 110.769 587.174C97.6194 587.174 86.2272 594.697 80.6616 605.674C75.0959 594.697 63.7037 587.174 50.5545 587.174Z" fill="#42BB69"/>
<path fill-rule="evenodd" clip-rule="evenodd" d="M223.554 587.174C219.68 587.174 215.959 587.827 212.494 589.029C229.305 597.998 242.905 612.194 251.123 629.447C251.699 631.655 252.493 633.774 253.48 635.781C253.54 635.624 253.601 635.468 253.662 635.311C253.723 635.468 253.783 635.624 253.843 635.781C254.831 633.774 255.624 631.655 256.2 629.447C264.419 612.194 278.018 597.998 294.829 589.029C291.364 587.827 287.643 587.174 283.769 587.174C270.619 587.174 259.227 594.697 253.662 605.674C248.096 594.697 236.704 587.174 223.554 587.174Z" fill="#42BB69"/>
<path fill-rule="evenodd" clip-rule="evenodd" d="M396.554 587.174C392.68 587.174 388.959 587.827 385.494 589.029C402.305 597.998 415.905 612.194 424.123 629.447C424.699 631.655 425.493 633.774 426.48 635.781C426.54 635.624 426.601 635.468 426.662 635.311C426.723 635.468 426.783 635.624 426.843 635.781C427.831 633.774 428.624 631.655 429.2 629.447C437.419 612.194 451.018 597.998 467.829 589.029C464.364 587.827 460.643 587.174 456.769 587.174C443.619 587.174 432.227 594.697 426.662 605.674C421.096 594.697 409.704 587.174 396.554 587.174Z" fill="#42BB69"/>
<path fill-rule="evenodd" clip-rule="evenodd" d="M569.554 587.174C565.68 587.174 561.959 587.827 558.494 589.029C575.305 597.998 588.905 612.194 597.123 629.447C597.699 631.655 598.493 633.774 599.48 635.781C599.54 635.624 599.601 635.468 599.662 635.311C599.723 635.468 599.783 635.624 599.843 635.781C600.831 633.774 601.624 631.655 602.2 629.447C610.419 612.194 624.018 597.998 640.829 589.029C637.364 587.827 633.643 587.174 629.769 587.174C616.619 587.174 605.227 594.697 599.662 605.674C594.096 594.697 582.704 587.174 569.554 587.174Z" fill="#42BB69"/>
<path fill-rule="evenodd" clip-rule="evenodd" d="M742.554 587.174C738.68 587.174 734.959 587.827 731.494 589.029C748.305 597.998 761.905 612.194 770.123 629.447C770.699 631.655 771.493 633.774 772.48 635.781C772.54 635.624 772.601 635.468 772.662 635.311C772.723 635.468 772.783 635.624 772.843 635.781C773.831 633.774 774.624 631.655 775.2 629.447C783.419 612.194 797.018 597.998 813.829 589.029C810.364 587.827 806.643 587.174 802.769 587.174C789.619 587.174 778.227 594.697 772.662 605.674C767.096 594.697 755.704 587.174 742.554 587.174Z" fill="#42BB69"/>
<path fill-rule="evenodd" clip-rule="evenodd" d="M915.554 587.174C911.68 587.174 907.959 587.827 904.494 589.029C921.305 597.998 934.905 612.194 943.123 629.447C943.699 631.655 944.493 633.774 945.48 635.781C945.54 635.624 945.601 635.468 945.662 635.311C945.723 635.468 945.783 635.624 945.843 635.781C946.831 633.774 947.624 631.655 948.2 629.447C956.419 612.194 970.018 597.998 986.829 589.029C983.364 587.827 979.643 587.174 975.769 587.174C962.619 587.174 951.227 594.697 945.662 605.674C940.096 594.697 928.704 587.174 915.554 587.174Z" fill="#42BB69"/>
<path fill-rule="evenodd" clip-rule="evenodd" d="M1088.55 587.174C1084.68 587.174 1080.96 587.827 1077.49 589.029C1094.3 597.998 1107.9 612.194 1116.12 629.447C1116.7 631.655 1117.49 633.774 1118.48 635.781C1118.54 635.624 1118.6 635.468 1118.66 635.311C1118.72 635.468 1118.78 635.624 1118.84 635.781C1119.83 633.774 1120.62 631.655 1121.2 629.447C1129.42 612.194 1143.02 597.998 1159.83 589.029C1156.36 587.827 1152.64 587.174 1148.77 587.174C1135.62 587.174 1124.23 594.697 1118.66 605.674C1113.1 594.697 1101.7 587.174 1088.55 587.174Z" fill="#42BB69"/>
<path fill-rule="evenodd" clip-rule="evenodd" d="M223.554 472.174C219.68 472.174 215.959 472.827 212.494 474.029C229.305 482.998 242.905 497.194 251.123 514.447C251.699 516.655 252.493 518.774 253.48 520.781C253.54 520.624 253.601 520.468 253.662 520.311C253.723 520.468 253.783 520.624 253.843 520.781C254.831 518.774 255.624 516.655 256.2 514.447C264.419 497.194 278.018 482.998 294.829 474.029C291.364 472.827 287.643 472.174 283.769 472.174C270.619 472.174 259.227 479.697 253.662 490.674C248.096 479.697 236.704 472.174 223.554 472.174Z" fill="#42BB69"/>
<path fill-rule="evenodd" clip-rule="evenodd" d="M1087.55 472.174C1083.68 472.174 1079.96 472.827 1076.49 474.029C1093.3 482.998 1106.9 497.194 1115.12 514.447C1115.7 516.655 1116.49 518.774 1117.48 520.781C1117.54 520.624 1117.6 520.468 1117.66 520.311C1117.72 520.468 1117.78 520.624 1117.84 520.781C1118.83 518.774 1119.62 516.655 1120.2 514.447C1128.42 497.194 1142.02 482.998 1158.83 474.029C1155.36 472.827 1151.64 472.174 1147.77 472.174C1134.62 472.174 1123.23 479.697 1117.66 490.674C1112.1 479.697 1100.7 472.174 1087.55 472.174Z" fill="#42BB69"/>
</g>
<defs>
<clipPath id="clip0_1_2">
<rect width="1200" height="675" fill="white"/>
</clipPath>
</defs>
</svg>
