<svg width="1200" height="675" viewBox="0 0 1200 675" fill="none" xmlns="http://www.w3.org/2000/svg">
<g clip-path="url(#clip0_3_3294)">
<rect width="1200" height="675" fill="white"/>
<path fill-rule="evenodd" clip-rule="evenodd" d="M628.759 270.962C664.286 268.49 698.835 262.469 732.055 253.252V348.283C729.042 346.211 725.729 344.486 722.19 343.164C714.139 340.157 705.279 339.371 696.732 340.904C688.184 342.437 680.333 346.22 674.17 351.777C668.008 357.333 663.811 364.412 662.111 372.119C660.411 379.825 661.284 387.814 664.619 395.073C667.954 402.333 673.601 408.538 680.848 412.903C688.094 417.269 696.613 419.599 705.328 419.599C706.669 419.599 707.34 419.599 707.907 419.587C738.535 418.978 763.218 394.295 763.827 363.668C763.838 363.1 763.838 362.43 763.838 361.088V350.976L763.838 243.325V215.896V174.488C710.746 195.974 652.714 207.805 591.919 207.805C557.171 207.805 523.326 203.94 490.79 196.617V221.675V262.469V349.005C487.777 346.933 484.464 345.208 480.926 343.887C472.874 340.88 464.014 340.093 455.467 341.626C446.92 343.159 439.068 346.943 432.906 352.499C426.743 358.055 422.547 365.134 420.847 372.841C419.146 380.548 420.019 388.536 423.354 395.796C426.689 403.055 432.337 409.26 439.583 413.625C446.829 417.991 455.348 420.321 464.063 420.321C465.405 420.321 466.075 420.321 466.643 420.31C497.27 419.701 521.953 395.018 522.562 364.39C522.569 364.076 522.571 363.73 522.573 363.255H522.574V362.289L522.574 361.811V351.698L522.574 267.682C545.262 270.688 568.409 272.239 591.919 272.239C593.606 272.239 595.292 272.231 596.975 272.215V434.965C593.963 432.892 590.65 431.168 587.111 429.846C579.059 426.839 570.2 426.053 561.652 427.585C553.105 429.118 545.254 432.902 539.091 438.459C532.929 444.015 528.732 451.094 527.032 458.801C525.332 466.507 526.204 474.495 529.539 481.755C532.874 489.015 538.522 495.219 545.768 499.585C553.015 503.95 561.534 506.281 570.249 506.281C571.59 506.281 572.261 506.281 572.828 506.269C603.456 505.66 628.139 480.977 628.748 450.35C628.759 449.782 628.759 449.112 628.759 447.77V437.657L628.759 270.962Z" fill="#3313F7"/>
<path d="M571.624 649.556L571.46 650.874C570.874 655.393 570.027 658.949 568.919 661.541C567.784 664.129 566.352 666.156 564.623 667.621C562.893 669.086 560.872 670.358 558.561 671.436C556.83 672.271 555.263 673.166 553.859 674.12C552.455 675.075 551.295 676.177 550.379 677.428C549.46 678.705 548.896 680.184 548.688 681.864C548.467 683.647 548.7 685.263 549.386 686.713C550.073 688.162 551.094 689.339 552.452 690.241C553.784 691.141 555.316 691.698 557.047 691.913C558.727 692.121 560.363 691.943 561.955 691.379C563.543 690.842 564.905 689.908 566.041 688.579C567.173 687.276 567.909 685.57 568.249 683.461L584.066 685.42C583.296 690.573 581.528 694.684 578.759 697.752C575.988 700.846 572.562 702.98 568.48 704.154C564.396 705.353 560.014 705.663 555.336 705.084C550.194 704.447 545.751 703.03 542.008 700.835C538.262 698.665 535.463 695.838 533.612 692.355C531.76 688.872 531.115 684.869 531.675 680.346C532.05 677.322 532.887 674.697 534.186 672.47C535.456 670.266 537.095 668.37 539.103 666.781C541.107 665.219 543.413 663.865 546.022 662.719C548.214 661.757 550.051 660.699 551.532 659.544C552.988 658.386 554.146 656.981 555.006 655.33C555.841 653.675 556.428 651.583 556.768 649.053L556.931 647.735L571.624 649.556ZM567.022 623.794C569.606 624.115 571.704 625.293 573.315 627.329C574.897 629.388 575.516 631.696 575.173 634.251C574.885 636.787 573.725 638.847 571.691 640.432C569.632 642.014 567.311 642.645 564.726 642.325C562.271 642.02 560.225 640.848 558.588 638.809C556.952 636.769 556.277 634.481 556.565 631.946C556.803 630.243 557.449 628.735 558.503 627.423C559.529 626.133 560.793 625.148 562.294 624.468C563.792 623.814 565.368 623.589 567.022 623.794Z" fill="#3313F7"/>
<path d="M471.794 623.349L471.212 624.543C469.19 628.627 467.234 631.715 465.344 633.807C463.431 635.887 461.419 637.339 459.307 638.163C457.195 638.987 454.871 639.533 452.335 639.803C450.427 640.031 448.654 640.368 447.016 640.815C445.378 641.262 443.923 641.928 442.65 642.814C441.366 643.723 440.353 644.938 439.611 646.46C438.823 648.074 438.518 649.679 438.697 651.273C438.875 652.867 439.46 654.311 440.451 655.606C441.418 656.889 442.686 657.913 444.254 658.679C445.775 659.421 447.38 659.784 449.069 659.768C450.746 659.775 452.337 659.334 453.843 658.446C455.337 657.581 456.587 656.207 457.594 654.322L471.917 661.311C469.516 665.935 466.508 669.248 462.894 671.251C459.268 673.278 455.335 674.184 451.093 673.969C446.84 673.777 442.596 672.647 438.36 670.58C433.702 668.308 429.96 665.526 427.133 662.234C424.294 658.965 422.565 655.383 421.945 651.487C421.325 647.592 422.014 643.596 424.013 639.5C425.349 636.762 426.993 634.551 428.945 632.866C430.862 631.194 433.028 629.933 435.442 629.082C437.845 628.255 440.466 627.723 443.306 627.486C445.691 627.288 447.772 626.884 449.548 626.273C451.301 625.65 452.852 624.698 454.202 623.415C455.529 622.121 456.764 620.333 457.907 618.051L458.489 616.857L471.794 623.349ZM475.807 597.49C478.147 598.632 479.748 600.427 480.611 602.877C481.438 605.338 481.275 607.721 480.121 610.027C479.025 612.332 477.258 613.904 474.821 614.742C472.359 615.57 469.959 615.413 467.618 614.271C465.395 613.186 463.84 611.413 462.955 608.952C462.069 606.492 462.174 604.109 463.27 601.804C464.047 600.271 465.147 599.055 466.571 598.156C467.96 597.269 469.475 596.748 471.116 596.592C472.745 596.46 474.309 596.759 475.807 597.49Z" fill="#3313F7"/>
<path d="M385.883 566.148L384.945 567.088C381.706 570.295 378.854 572.58 376.387 573.945C373.903 575.291 371.528 576.011 369.263 576.104C366.998 576.198 364.622 575.961 362.136 575.392C360.257 574.988 358.471 574.731 356.777 574.622C355.083 574.513 353.49 574.671 351.999 575.095C350.489 575.538 349.136 576.359 347.94 577.557C346.67 578.828 345.861 580.247 345.513 581.812C345.164 583.377 345.248 584.933 345.765 586.48C346.263 588.008 347.129 589.388 348.364 590.621C349.562 591.817 350.962 592.682 352.564 593.214C354.149 593.766 355.797 593.866 357.509 593.515C359.203 593.182 360.832 592.288 362.396 590.832L373.674 602.093C369.901 605.686 365.981 607.844 361.912 608.565C357.824 609.305 353.81 608.884 349.868 607.303C345.908 605.741 342.26 603.295 338.925 599.964C335.257 596.302 332.621 592.456 331.016 588.424C329.393 584.411 328.92 580.462 329.599 576.576C330.277 572.69 332.227 569.134 335.447 565.91C337.6 563.753 339.873 562.196 342.266 561.236C344.622 560.277 347.08 559.787 349.64 559.767C352.181 559.765 354.833 560.113 357.595 560.811C359.916 561.398 362.015 561.691 363.894 561.69C365.753 561.67 367.53 561.273 369.224 560.498C370.899 559.705 372.647 558.415 374.469 556.628L375.407 555.688L385.883 566.148ZM398.075 542.993C399.918 544.833 400.849 547.051 400.87 549.647C400.853 552.244 399.925 554.445 398.085 556.251C396.3 558.075 394.119 558.988 391.541 558.99C388.944 558.974 386.725 558.046 384.882 556.206C383.131 554.457 382.236 552.276 382.198 549.661C382.159 547.046 383.032 544.827 384.817 543.003C386.05 541.805 387.485 541.012 389.124 540.624C390.726 540.236 392.328 540.235 393.93 540.62C395.514 541.024 396.896 541.815 398.075 542.993Z" fill="#3313F7"/>
<path d="M323.2 484.152L322.007 484.736C317.903 486.717 314.463 487.952 311.687 488.442C308.9 488.908 306.42 488.818 304.247 488.171C302.075 487.525 299.905 486.529 297.738 485.183C296.092 484.191 294.486 483.369 292.919 482.715C291.352 482.062 289.795 481.694 288.246 481.611C286.675 481.54 285.129 481.877 283.608 482.621C281.995 483.412 280.769 484.491 279.931 485.858C279.093 487.225 278.667 488.724 278.653 490.355C278.629 491.962 279 493.549 279.767 495.116C280.512 496.636 281.556 497.908 282.898 498.932C284.217 499.968 285.744 500.598 287.477 500.822C289.187 501.057 291.018 500.74 292.971 499.871L299.981 514.184C295.246 516.358 290.837 517.125 286.755 516.486C282.649 515.859 278.988 514.157 275.773 511.382C272.535 508.619 269.879 505.121 267.806 500.887C265.526 496.233 264.282 491.739 264.073 487.405C263.84 483.082 264.676 479.193 266.579 475.738C268.483 472.283 271.481 469.553 275.574 467.549C278.31 466.209 280.966 465.473 283.541 465.343C286.081 465.201 288.565 465.536 290.992 466.348C293.396 467.171 295.791 468.361 298.178 469.918C300.182 471.227 302.072 472.186 303.849 472.795C305.615 473.38 307.424 473.581 309.278 473.398C311.119 473.192 313.192 472.539 315.495 471.44L316.688 470.856L323.2 484.152ZM342.25 466.209C343.395 468.548 343.556 470.948 342.732 473.411C341.874 475.861 340.281 477.642 337.954 478.752C335.674 479.898 333.314 480.053 330.875 479.218C328.425 478.36 326.627 476.761 325.481 474.422C324.393 472.2 324.255 469.847 325.067 467.361C325.88 464.875 327.426 463.059 329.707 461.913C331.262 461.181 332.877 460.897 334.553 461.062C336.194 461.215 337.709 461.735 339.1 462.619C340.467 463.516 341.517 464.712 342.25 466.209Z" fill="#3313F7"/>
<path d="M290.538 386.244L289.22 386.41C284.695 386.951 281.04 387.002 278.256 386.564C275.468 386.1 273.151 385.21 271.307 383.892C269.462 382.575 267.733 380.929 266.12 378.952C264.886 377.48 263.634 376.18 262.364 375.054C261.094 373.927 259.74 373.073 258.303 372.492C256.839 371.915 255.268 371.731 253.588 371.942C251.805 372.165 250.295 372.788 249.059 373.809C247.822 374.83 246.933 376.109 246.391 377.647C245.845 379.159 245.681 380.781 245.898 382.512C246.109 384.191 246.683 385.734 247.62 387.138C248.532 388.546 249.771 389.637 251.338 390.412C252.879 391.19 254.713 391.485 256.842 391.297L258.825 407.11C253.641 407.629 249.222 406.923 245.568 404.993C241.888 403.066 238.978 400.269 236.839 396.6C234.673 392.935 233.297 388.764 232.711 384.087C232.066 378.945 232.348 374.29 233.558 370.123C234.742 365.959 236.795 362.552 239.717 359.902C242.639 357.252 246.361 355.644 250.883 355.077C253.906 354.698 256.656 354.865 259.134 355.578C261.583 356.268 263.823 357.391 265.856 358.947C267.862 360.506 269.741 362.41 271.493 364.657C272.963 366.546 274.44 368.067 275.923 369.22C277.403 370.346 279.049 371.124 280.861 371.553C282.67 371.956 284.842 372.012 287.378 371.72L288.696 371.555L290.538 386.244ZM314.381 375.459C314.705 378.043 314.078 380.366 312.499 382.427C310.891 384.466 308.807 385.633 306.245 385.928C303.716 386.271 301.434 385.652 299.399 384.07C297.36 382.463 296.178 380.367 295.854 377.783C295.546 375.328 296.18 373.057 297.756 370.97C299.331 368.883 301.383 367.667 303.912 367.324C305.621 367.136 307.241 367.392 308.772 368.092C310.275 368.77 311.54 369.753 312.567 371.041C313.569 372.333 314.174 373.806 314.381 375.459Z" fill="#3313F7"/>
<path d="M291.436 283.037L290.135 282.765C285.68 281.807 282.206 280.67 279.715 279.351C277.229 278.007 275.327 276.412 274.01 274.568C272.693 272.723 271.592 270.604 270.709 268.211C270.019 266.418 269.257 264.782 268.422 263.304C267.587 261.826 266.583 260.579 265.412 259.563C264.216 258.541 262.789 257.857 261.132 257.511C259.373 257.144 257.743 257.242 256.242 257.807C254.74 258.371 253.484 259.292 252.472 260.571C251.465 261.823 250.784 263.304 250.427 265.012C250.081 266.669 250.123 268.314 250.553 269.947C250.958 271.574 251.776 273.009 253.006 274.25C254.211 275.486 255.851 276.361 257.925 276.874L254.666 292.475C249.594 291.282 245.644 289.18 242.815 286.168C239.96 283.151 238.116 279.56 237.283 275.395C236.425 271.225 236.478 266.833 237.442 262.219C238.502 257.147 240.28 252.836 242.778 249.287C245.249 245.733 248.297 243.177 251.921 241.62C255.546 240.063 259.588 239.75 264.049 240.682C267.032 241.305 269.579 242.356 271.691 243.835C273.783 245.283 275.537 247.072 276.954 249.204C278.346 251.33 279.505 253.741 280.432 256.435C281.209 258.699 282.112 260.617 283.141 262.189C284.174 263.735 285.479 265.005 287.053 265.999C288.634 266.968 290.67 267.726 293.163 268.273L294.463 268.545L291.436 283.037ZM317.489 280.578C316.956 283.127 315.609 285.12 313.446 286.557C311.264 287.964 308.913 288.39 306.395 287.838C303.891 287.341 301.934 286.014 300.522 283.857C299.116 281.675 298.679 279.309 299.212 276.76C299.717 274.338 301.054 272.396 303.222 270.933C305.39 269.471 307.726 268.987 310.229 269.484C311.906 269.861 313.355 270.629 314.576 271.789C315.777 272.918 316.654 274.258 317.208 275.81C317.736 277.357 317.83 278.946 317.489 280.578Z" fill="#3313F7"/>
<path d="M325.796 185.712L324.655 185.033C320.752 182.681 317.836 180.477 315.908 178.421C313.993 176.342 312.712 174.217 312.065 172.044C311.418 169.872 311.065 167.51 311.007 164.96C310.937 163.04 310.747 161.246 310.437 159.576C310.127 157.907 309.583 156.402 308.805 155.061C308.005 153.706 306.878 152.596 305.423 151.73C303.879 150.812 302.305 150.376 300.702 150.422C299.099 150.468 297.611 150.931 296.239 151.812C294.88 152.67 293.754 153.849 292.862 155.349C291.997 156.803 291.503 158.373 291.379 160.057C291.234 161.728 291.541 163.35 292.302 164.924C293.041 166.484 294.307 167.844 296.103 169.003L287.955 182.7C283.545 179.925 280.491 176.654 278.793 172.887C277.073 169.106 276.495 165.111 277.06 160.902C277.602 156.679 279.078 152.542 281.488 148.491C284.137 144.038 287.219 140.538 290.733 137.992C294.225 135.433 297.938 134.006 301.871 133.71C305.805 133.413 309.73 134.43 313.647 136.76C316.265 138.318 318.333 140.139 319.851 142.223C321.359 144.272 322.437 146.535 323.085 149.011C323.711 151.474 324.025 154.13 324.026 156.979C324.027 159.373 324.258 161.48 324.72 163.301C325.196 165.099 326.017 166.724 327.184 168.175C328.364 169.604 330.044 170.982 332.224 172.31L333.365 172.989L325.796 185.712ZM351.236 191.846C349.905 194.084 347.983 195.532 345.471 196.189C342.95 196.81 340.589 196.451 338.386 195.11C336.18 193.828 334.759 191.938 334.124 189.439C333.503 186.918 333.858 184.538 335.189 182.3C336.454 180.174 338.349 178.771 340.874 178.092C343.4 177.412 345.766 177.714 347.972 178.996C349.436 179.897 350.557 181.094 351.335 182.588C352.105 184.045 352.499 185.598 352.519 187.246C352.516 188.88 352.089 190.414 351.236 191.846Z" fill="#3313F7"/>
<path d="M389.896 104.818L389.037 103.805C386.109 100.313 384.067 97.2815 382.911 94.7107C381.775 92.1231 381.253 89.6969 381.347 87.432C381.44 85.1671 381.873 82.8193 382.646 80.3884C383.203 78.5496 383.606 76.7905 383.855 75.1111C384.104 73.4317 384.078 71.8314 383.778 70.3102C383.461 68.7692 382.755 67.3532 381.661 66.0623C380.498 64.692 379.151 63.7684 377.62 63.2916C376.089 62.8148 374.531 62.7701 372.947 63.1574C371.383 63.5278 369.936 64.2773 368.606 65.406C367.315 66.5009 366.338 67.8249 365.674 69.3778C364.994 70.9109 364.758 72.5452 364.967 74.2806C365.158 75.9962 365.915 77.6934 367.237 79.3725L355.083 89.6818C351.813 85.6257 349.987 81.5403 349.604 77.4256C349.205 73.2911 349.955 69.3249 351.856 65.5271C353.74 61.7094 356.479 58.2761 360.074 55.2271C364.026 51.8748 368.077 49.5654 372.227 48.2988C376.361 47.0123 380.336 46.8676 384.153 47.8646C387.969 48.8617 391.351 51.0979 394.299 54.5733C396.27 56.8969 397.635 59.2908 398.393 61.755C399.155 64.1824 399.44 66.6724 399.249 69.2249C399.041 71.7576 398.475 74.3717 397.552 77.0673C396.775 79.3315 396.309 81.3995 396.155 83.2715C396.021 85.1266 396.271 86.93 396.903 88.6817C397.555 90.4166 398.696 92.2656 400.327 94.2287L401.186 95.2415L389.896 104.818ZM411.966 118.88C409.98 120.565 407.693 121.31 405.103 121.116C402.517 120.885 400.4 119.778 398.752 117.795C397.082 115.866 396.352 113.616 396.563 111.047C396.794 108.461 397.902 106.325 399.888 104.641C401.775 103.041 404.022 102.329 406.632 102.506C409.241 102.684 411.38 103.737 413.051 105.666C414.143 106.994 414.815 108.49 415.066 110.155C415.32 111.784 415.189 113.38 414.673 114.945C414.139 116.49 413.237 117.802 411.966 118.88Z" fill="#3313F7"/>
<path d="M476.789 49.1204L476.305 47.8835C474.67 43.6297 473.723 40.0993 473.464 37.2925C473.229 34.4761 473.524 32.0121 474.348 29.9003C475.172 27.7885 476.344 25.7085 477.864 23.6601C478.988 22.1019 479.941 20.5691 480.721 19.0614C481.502 17.5538 481.997 16.0319 482.207 14.4957C482.408 12.9352 482.2 11.3668 481.584 9.79033C480.929 8.11686 479.955 6.80603 478.662 5.85785C477.368 4.90966 475.909 4.36158 474.286 4.21361C472.686 4.05616 471.074 4.29515 469.449 4.9306C467.873 5.54708 466.519 6.48203 465.387 7.73546C464.246 8.96464 463.492 10.4338 463.126 12.1429C462.75 13.8277 462.915 15.6787 463.62 17.696L448.777 23.5003C447.001 18.6023 446.6 14.1453 447.574 10.1293C448.539 6.08904 450.537 2.5815 453.568 -0.39335C456.589 -3.39245 460.295 -5.75032 464.685 -7.46698C469.511 -9.35435 474.093 -10.2232 478.429 -10.0736C482.757 -9.94824 486.563 -8.79443 489.849 -6.61216C493.135 -4.4299 495.608 -1.21662 497.268 3.02769C498.378 5.86531 498.891 8.57259 498.808 11.1495C498.74 13.6927 498.202 16.1404 497.192 18.4925C496.173 20.8204 494.789 23.1092 493.04 25.3589C491.57 27.248 490.458 29.0529 489.705 30.7735C488.976 32.4847 488.626 34.2713 488.655 36.1333C488.709 37.9859 489.188 40.1054 490.093 42.4916L490.577 43.7286L476.789 49.1204ZM493.097 69.5866C490.672 70.535 488.266 70.4971 485.88 69.4727C483.509 68.4147 481.866 66.6803 480.952 64.2698C479.998 61.9025 480.038 59.538 481.072 57.1764C482.13 54.8053 483.872 53.1455 486.297 52.1971C488.601 51.2961 490.958 51.353 493.368 52.3678C495.778 53.3827 497.46 55.0738 498.414 57.4411C499.016 59.0513 499.165 60.6846 498.862 62.341C498.574 63.9636 497.931 65.4312 496.935 66.7437C495.929 68.032 494.649 68.9796 493.097 69.5866Z" fill="#3313F7"/>
<path d="M576.781 24.4328L576.726 23.1059C576.56 18.5515 576.81 14.905 577.477 12.1662C578.17 9.42627 579.248 7.19142 580.713 5.4616C582.178 3.73178 583.962 2.14492 586.065 0.701039C587.634 -0.407621 589.033 -1.54819 590.261 -2.72066C591.488 -3.89314 592.451 -5.17174 593.149 -6.55647C593.845 -7.96723 594.158 -9.51821 594.087 -11.2094C594.011 -13.0047 593.515 -14.5608 592.6 -15.8776C591.684 -17.1944 590.483 -18.1864 588.995 -18.8536C587.533 -19.5219 585.931 -19.8193 584.187 -19.7459C582.496 -19.6747 580.912 -19.2301 579.435 -18.412C577.956 -17.6199 576.766 -16.4751 575.865 -14.9776C574.963 -13.506 574.517 -11.7018 574.529 -9.565L558.606 -8.89462C558.517 -14.1038 559.585 -18.4495 561.81 -21.9316C564.034 -25.4397 567.063 -28.1085 570.895 -29.938C574.727 -31.7935 578.998 -32.8204 583.707 -33.0187C588.885 -33.2367 593.5 -32.5708 597.553 -31.0212C601.605 -29.4976 604.831 -27.1703 607.23 -24.0393C609.63 -20.9083 610.925 -17.0661 611.117 -12.5129C611.245 -9.46869 610.852 -6.7414 609.937 -4.33098C609.047 -1.94768 607.742 0.192414 606.024 2.0893C604.304 3.96017 602.252 5.6756 599.868 7.23561C597.864 8.54503 596.226 9.89114 594.955 11.274C593.71 12.6557 592.799 14.2318 592.222 16.0025C591.671 17.772 591.436 19.9322 591.517 22.4832L591.573 23.8101L576.781 24.4328ZM585.56 49.0854C582.959 49.1949 580.696 48.3779 578.772 46.6344C576.873 44.8638 575.882 42.69 575.799 40.113C575.666 37.5643 576.472 35.3409 578.216 33.443C579.987 31.5439 582.173 30.5396 584.775 30.43C587.247 30.326 589.458 31.1452 591.408 32.8876C593.358 34.63 594.399 36.7756 594.533 39.3243C594.579 41.0427 594.19 42.636 593.366 44.1042C592.566 45.5454 591.482 46.7248 590.113 47.6426C588.743 48.5344 587.226 49.0153 585.56 49.0854Z" fill="#3313F7"/>
<path d="M679.841 34.0721L680.219 32.7989C681.541 28.4375 682.962 25.0699 684.482 22.6959C686.026 20.3294 687.772 18.5659 689.72 17.4055C691.667 16.2451 693.869 15.3234 696.327 14.6405C698.171 14.1014 699.864 13.4768 701.406 12.7665C702.948 12.0562 704.274 11.1595 705.383 10.0763C706.5 8.96813 707.299 7.6027 707.781 5.98C708.293 4.25745 708.329 2.62479 707.891 1.08204C707.452 -0.460724 706.638 -1.78915 705.448 -2.90324C704.282 -4.00992 702.863 -4.81156 701.19 -5.30818C699.568 -5.78997 697.925 -5.88384 696.262 -5.58977C694.606 -5.32067 693.109 -4.62424 691.771 -3.50048C690.439 -2.40168 689.432 -0.839852 688.75 1.185L673.471 -3.35126C675.078 -8.30711 677.5 -12.0705 680.735 -14.6413C683.978 -17.2372 687.709 -18.7781 691.928 -19.264C696.154 -19.7748 700.527 -19.3595 705.045 -18.0179C710.013 -16.5428 714.163 -14.4145 717.493 -11.6327C720.831 -8.87597 723.126 -5.62736 724.379 -1.88689C725.632 1.85357 725.609 5.90819 724.312 10.277C723.445 13.1978 722.187 15.6496 720.539 17.6323C718.924 19.5975 716.995 21.1981 714.754 22.4341C712.52 23.6453 710.022 24.6014 707.26 25.3027C704.939 25.8905 702.953 26.632 701.302 27.5271C699.676 28.4297 698.303 29.6247 697.182 31.112C696.086 32.6067 695.162 34.5736 694.411 37.0127L694.033 38.2859L679.841 34.0721ZM680.139 60.2395C677.643 59.4982 675.768 57.9907 674.514 55.717C673.293 53.4256 673.062 51.0479 673.821 48.5838C674.522 46.1299 676.006 44.2886 678.272 43.0599C680.564 41.8387 682.958 41.5987 685.454 42.3399C687.826 43.0441 689.651 44.5367 690.929 46.8179C692.208 49.0991 692.497 51.4667 691.795 53.9206C691.281 55.5609 690.396 56.9415 689.139 58.0625C687.915 59.166 686.507 59.9296 684.914 60.3531C683.329 60.7517 681.737 60.7138 680.139 60.2395Z" fill="#3313F7"/>
<path d="M773.995 76.3524L774.766 75.2709C777.432 71.5751 779.87 68.8513 782.078 67.0995C784.308 65.3627 786.532 64.2617 788.75 63.7965C790.969 63.3312 793.351 63.1746 795.897 63.3266C797.816 63.4156 799.621 63.3746 801.31 63.2035C802.999 63.0324 804.544 62.6147 805.945 61.9504C807.361 61.2649 808.56 60.233 809.543 58.8546C810.586 57.3915 811.151 55.8592 811.237 54.2576C811.323 52.6561 810.984 51.1352 810.22 49.695C809.477 48.2698 808.395 47.0508 806.974 46.038C805.596 45.0554 804.073 44.4332 802.404 44.1714C800.751 43.8884 799.109 44.061 797.478 44.6892C795.862 45.2961 794.402 46.4464 793.099 48.1398L780.122 38.8885C783.251 34.7231 786.763 31.9498 790.658 30.5687C794.568 29.1665 798.597 28.9205 802.745 29.8309C806.909 30.72 810.909 32.5326 814.747 35.2687C818.967 38.2769 822.2 41.6372 824.447 45.3496C826.709 49.0408 827.825 52.8586 827.795 56.8032C827.766 60.7478 826.428 64.5755 823.783 68.2864C822.014 70.7674 820.029 72.678 817.826 74.0181C815.66 75.3521 813.316 76.2398 810.795 76.6811C808.289 77.1013 805.616 77.1946 802.776 76.9611C800.39 76.7635 798.271 76.82 796.419 77.1305C794.587 77.4562 792.9 78.1404 791.357 79.1832C789.836 80.2412 788.323 81.8017 786.821 83.8646L786.05 84.9461L773.995 76.3524ZM765.781 101.199C763.66 99.6873 762.376 97.6526 761.929 95.095C761.518 92.5313 762.071 90.2073 763.589 88.1231C765.049 86.0299 767.05 84.7702 769.593 84.344C772.157 83.9329 774.499 84.4832 776.619 85.9948C778.634 87.4309 779.875 89.4353 780.344 92.0081C780.813 94.5808 780.317 96.9138 778.857 99.007C777.838 100.391 776.552 101.41 775 102.062C773.484 102.708 771.904 102.973 770.26 102.857C768.631 102.719 767.138 102.166 765.781 101.199Z" fill="#3313F7"/>
<path d="M849.32 146.914L850.4 146.141C854.122 143.511 857.312 141.727 859.969 140.787C862.642 139.868 865.103 139.549 867.352 139.829C869.602 140.109 871.906 140.735 874.265 141.705C876.051 142.413 877.771 142.96 879.424 143.346C881.077 143.733 882.674 143.84 884.215 143.666C885.777 143.478 887.246 142.891 888.623 141.906C890.085 140.861 891.116 139.595 891.718 138.109C892.32 136.622 892.493 135.073 892.238 133.463C891.998 131.874 891.37 130.369 890.355 128.95C889.371 127.573 888.132 126.49 886.639 125.701C885.167 124.896 883.558 124.526 881.811 124.591C880.086 124.64 878.332 125.254 876.55 126.433L867.279 113.469C871.591 110.545 875.814 109.063 879.946 109.021C884.099 108.964 887.99 110.04 891.618 112.248C895.267 114.441 898.462 117.454 901.204 121.288C904.218 125.504 906.185 129.732 907.105 133.973C908.046 138.198 907.862 142.171 906.553 145.893C905.244 149.614 902.736 152.8 899.029 155.451C896.551 157.223 894.052 158.386 891.534 158.938C889.052 159.496 886.547 159.575 884.019 159.173C881.512 158.757 878.954 157.977 876.343 156.835C874.151 155.873 872.129 155.238 870.276 154.931C868.438 154.644 866.62 154.743 864.822 155.229C863.039 155.735 861.103 156.72 859.011 158.183L857.931 158.956L849.32 146.914ZM833.483 167.747C831.968 165.629 831.415 163.287 831.822 160.723C832.265 158.165 833.543 156.146 835.656 154.668C837.716 153.162 840.018 152.62 842.561 153.043C845.12 153.487 847.156 154.768 848.671 156.886C850.11 158.898 850.634 161.197 850.241 163.783C849.849 166.368 848.623 168.414 846.562 169.919C845.149 170.898 843.602 171.444 841.922 171.557C840.278 171.676 838.698 171.413 837.181 170.769C835.685 170.11 834.452 169.103 833.483 167.747Z" fill="#3313F7"/>
<path d="M897.652 238.109L898.924 237.73C903.298 236.451 906.895 235.799 909.714 235.772C912.54 235.771 914.971 236.268 917.008 237.264C919.044 238.26 921.02 239.599 922.936 241.283C924.396 242.532 925.845 243.608 927.283 244.51C928.721 245.413 930.197 246.032 931.711 246.368C933.249 246.697 934.829 246.62 936.451 246.135C938.173 245.621 939.56 244.759 940.612 243.548C941.663 242.337 942.33 240.929 942.612 239.323C942.901 237.742 942.796 236.116 942.297 234.444C941.812 232.822 940.992 231.395 939.837 230.164C938.706 228.925 937.304 228.053 935.631 227.546C933.983 227.033 932.125 227.044 930.056 227.58L925.497 212.308C930.525 210.943 935 210.912 938.922 212.214C942.869 213.509 946.199 215.79 948.914 219.056C951.653 222.315 953.697 226.203 955.045 230.719C956.528 235.685 957.015 240.323 956.508 244.632C956.026 248.934 954.561 252.633 952.115 255.728C949.669 258.822 946.263 261.021 941.896 262.325C938.976 263.196 936.236 263.484 933.674 263.189C931.145 262.911 928.751 262.172 926.49 260.972C924.254 259.764 922.087 258.196 919.99 256.267C918.229 254.646 916.522 253.389 914.869 252.497C913.224 251.629 911.472 251.132 909.614 251.008C907.764 250.908 905.612 251.211 903.159 251.916L901.886 252.296L897.652 238.109ZM875.909 252.672C875.164 250.176 875.4 247.782 876.618 245.489C877.868 243.213 879.732 241.719 882.21 241.007C884.648 240.252 887.001 240.487 889.269 241.712C891.545 242.963 893.055 244.835 893.8 247.331C894.508 249.701 894.256 252.046 893.046 254.364C891.836 256.682 890.011 258.218 887.573 258.973C885.919 259.44 884.279 259.454 882.653 259.015C881.06 258.594 879.65 257.833 878.425 256.731C877.224 255.622 876.385 254.269 875.909 252.672Z" fill="#3313F7"/>
<path d="M913.753 340.058L915.08 340.111C919.633 340.322 923.246 340.873 925.921 341.764C928.594 342.68 930.732 343.94 932.335 345.543C933.938 347.146 935.372 349.054 936.637 351.269C937.613 352.925 938.634 354.413 939.701 355.733C940.768 357.053 941.963 358.118 943.285 358.928C944.634 359.739 946.153 360.178 947.845 360.247C949.64 360.32 951.232 359.954 952.62 359.151C954.008 358.347 955.095 357.231 955.883 355.804C956.67 354.402 957.099 352.83 957.17 351.087C957.238 349.395 956.926 347.78 956.233 346.24C955.565 344.701 954.523 343.421 953.105 342.399C951.713 341.378 949.951 340.785 947.821 340.62L948.468 324.696C953.667 325.037 957.909 326.461 961.196 328.966C964.508 331.472 966.918 334.711 968.424 338.682C969.957 342.653 970.628 346.994 970.437 351.704C970.226 356.882 969.182 361.426 967.303 365.338C965.45 369.25 962.864 372.273 959.545 374.405C956.227 376.538 952.291 377.512 947.737 377.327C944.693 377.203 942.008 376.586 939.681 375.475C937.379 374.391 935.354 372.914 933.606 371.045C931.883 369.177 930.343 366.99 928.985 364.485C927.846 362.38 926.64 360.637 925.366 359.256C924.092 357.901 922.597 356.863 920.88 356.141C919.162 355.446 917.028 355.034 914.479 354.904L913.152 354.85L913.753 340.058ZM888.46 346.771C888.566 344.169 889.567 341.981 891.463 340.208C893.385 338.461 895.633 337.653 898.208 337.784C900.759 337.862 902.908 338.848 904.655 340.744C906.402 342.665 907.222 344.927 907.116 347.529C907.016 350.001 906.017 352.136 904.12 353.936C902.222 355.735 899.998 356.596 897.447 356.519C895.73 356.423 894.175 355.904 892.78 354.961C891.409 354.045 890.323 352.867 889.522 351.427C888.746 349.988 888.392 348.436 888.46 346.771Z" fill="#3313F7"/>
<path d="M895.881 441.71L897.118 442.192C901.356 443.87 904.594 445.564 906.835 447.274C909.066 449.009 910.679 450.895 911.675 452.931C912.67 454.968 913.407 457.239 913.884 459.744C914.269 461.627 914.752 463.366 915.333 464.961C915.913 466.557 916.697 467.952 917.685 469.147C918.697 470.351 919.992 471.261 921.569 471.875C923.244 472.527 924.868 472.698 926.442 472.389C928.015 472.079 929.406 471.377 930.615 470.283C931.814 469.213 932.73 467.865 933.363 466.239C933.978 464.661 934.207 463.032 934.051 461.35C933.92 459.678 933.349 458.129 932.34 456.702C931.355 455.284 929.881 454.152 927.92 453.304L933.702 438.453C938.508 440.464 942.059 443.187 944.354 446.624C946.673 450.07 947.901 453.915 948.036 458.16C948.196 462.414 947.421 466.738 945.711 471.13C943.831 475.959 941.367 479.919 938.32 483.008C935.297 486.107 931.87 488.126 928.039 489.065C924.208 490.005 920.169 489.648 915.922 487.995C913.083 486.889 910.743 485.433 908.903 483.627C907.078 481.855 905.643 479.8 904.596 477.465C903.573 475.138 902.827 472.57 902.356 469.76C901.962 467.398 901.387 465.358 900.631 463.639C899.866 461.943 898.788 460.476 897.399 459.236C896 458.021 894.116 456.938 891.747 455.988L890.509 455.506L895.881 441.71ZM869.778 439.847C870.723 437.42 872.38 435.676 874.75 434.614C877.134 433.587 879.523 433.552 881.916 434.512C884.303 435.414 886.016 437.045 887.053 439.405C888.081 441.789 888.122 444.195 887.178 446.621C886.28 448.927 884.642 450.622 882.263 451.708C879.884 452.794 877.5 452.886 875.113 451.984C873.521 451.337 872.218 450.34 871.204 448.996C870.206 447.684 869.561 446.218 869.27 444.596C869.004 442.983 869.173 441.4 869.778 439.847Z" fill="#3313F7"/>
<path d="M845.969 532.051L846.984 532.909C850.447 535.872 852.96 538.526 854.523 540.871C856.07 543.236 856.984 545.544 857.264 547.793C857.544 550.042 857.504 552.43 857.142 554.954C856.895 556.86 856.787 558.661 856.818 560.359C856.849 562.056 857.138 563.63 857.684 565.082C858.25 566.549 859.179 567.83 860.472 568.923C861.844 570.083 863.324 570.773 864.913 570.991C866.502 571.209 868.046 570.997 869.544 570.354C871.026 569.731 872.33 568.754 873.457 567.422C874.55 566.129 875.296 564.662 875.694 563.021C876.113 561.397 876.077 559.746 875.585 558.069C875.114 556.408 874.088 554.859 872.508 553.42L882.799 541.251C886.692 544.714 889.166 548.443 890.221 552.438C891.295 556.451 891.208 560.486 889.958 564.545C888.728 568.621 886.591 572.458 883.547 576.057C880.201 580.014 876.585 582.959 872.7 584.892C868.835 586.841 864.938 587.638 861.009 587.283C857.08 586.927 853.376 585.278 849.896 582.336C847.57 580.368 845.83 578.231 844.676 575.926C843.526 573.657 842.835 571.248 842.603 568.698C842.391 566.166 842.519 563.495 842.986 560.684C843.38 558.322 843.499 556.206 843.342 554.334C843.169 552.482 842.626 550.745 841.714 549.121C840.786 547.517 839.356 545.881 837.424 544.213L836.41 543.356L845.969 532.051ZM821.886 521.814C823.568 519.825 825.701 518.714 828.287 518.479C830.876 518.281 833.147 519.024 835.098 520.709C837.064 522.337 838.154 524.436 838.369 527.005C838.567 529.594 837.825 531.882 836.143 533.871C834.546 535.76 832.446 536.831 829.843 537.086C827.24 537.341 824.956 536.654 822.991 535.026C821.695 533.896 820.786 532.531 820.265 530.93C819.746 529.365 819.612 527.769 819.864 526.14C820.136 524.528 820.81 523.086 821.886 521.814Z" fill="#3313F7"/>
<path d="M769.429 601.292L770.11 602.432C772.423 606.359 773.938 609.685 774.655 612.411C775.35 615.15 775.465 617.629 775 619.848C774.535 622.066 773.721 624.311 772.559 626.581C771.707 628.303 771.02 629.972 770.498 631.588C769.976 633.203 769.738 634.786 769.784 636.336C769.843 637.908 770.306 639.421 771.173 640.874C772.094 642.417 773.271 643.55 774.703 644.272C776.135 644.995 777.664 645.295 779.29 645.174C780.893 645.066 782.444 644.565 783.942 643.67C785.396 642.803 786.577 641.658 787.487 640.235C788.411 638.835 788.912 637.262 788.992 635.516C789.085 633.792 788.618 631.993 787.591 630.12L801.276 621.951C803.834 626.49 804.963 630.821 804.663 634.942C804.376 639.086 802.983 642.875 800.483 646.308C797.996 649.763 794.729 652.699 790.682 655.115C786.232 657.771 781.856 659.382 777.554 659.948C773.265 660.537 769.32 660.025 765.72 658.414C762.12 656.802 759.151 654.04 756.816 650.126C755.254 647.51 754.302 644.924 753.96 642.369C753.608 639.849 753.737 637.346 754.345 634.86C754.967 632.396 755.956 629.911 757.31 627.404C758.449 625.298 759.249 623.335 759.709 621.514C760.146 619.706 760.197 617.886 759.862 616.055C759.504 614.236 758.683 612.224 757.397 610.02L756.716 608.879L769.429 601.292ZM749.975 583.789C752.211 582.454 754.59 582.095 757.112 582.713C759.625 583.366 761.531 584.807 762.83 587.034C764.16 589.212 764.51 591.551 763.879 594.05C763.225 596.563 761.78 598.487 759.544 599.822C757.42 601.09 755.086 601.421 752.541 600.817C749.997 600.213 748.06 598.822 746.729 596.644C745.871 595.154 745.455 593.568 745.481 591.884C745.498 590.236 745.89 588.683 746.657 587.224C747.438 585.788 748.543 584.643 749.975 583.789Z" fill="#3313F7"/>
<path d="M674.553 641.928L674.827 643.227C675.74 647.692 676.093 651.33 675.886 654.141C675.654 656.958 674.958 659.34 673.797 661.287C672.637 663.235 671.139 665.093 669.302 666.864C667.937 668.216 666.745 669.571 665.727 670.929C664.709 672.288 663.97 673.708 663.51 675.188C663.055 676.694 663.002 678.276 663.351 679.932C663.721 681.69 664.466 683.144 665.585 684.292C666.705 685.44 668.054 686.221 669.631 686.634C671.183 687.052 672.812 687.082 674.52 686.723C676.176 686.374 677.666 685.675 678.988 684.625C680.316 683.6 681.301 682.275 681.944 680.65C682.592 679.05 682.734 677.197 682.371 675.091L697.967 671.809C698.912 676.932 698.573 681.395 696.952 685.195C695.335 689.022 692.787 692.153 689.308 694.588C685.834 697.049 681.791 698.765 677.178 699.735C672.107 700.803 667.445 700.906 663.192 700.044C658.945 699.208 655.38 697.444 652.498 694.75C649.616 692.057 647.705 688.48 646.767 684.021C646.139 681.039 646.079 678.284 646.584 675.756C647.07 673.259 648.004 670.933 649.387 668.779C650.776 666.651 652.517 664.621 654.612 662.69C656.374 661.069 657.767 659.471 658.793 657.898C659.794 656.33 660.433 654.626 660.711 652.784C660.963 650.948 660.839 648.779 660.339 646.276L660.066 644.976L674.553 641.928ZM661.836 619.056C664.384 618.52 666.751 618.953 668.936 620.356C671.1 621.79 672.435 623.771 672.941 626.3C673.492 628.792 673.063 631.117 671.655 633.277C670.221 635.441 668.23 636.792 665.681 637.328C663.26 637.837 660.945 637.393 658.735 635.996C656.524 634.598 655.144 632.653 654.593 630.161C654.264 628.474 654.386 626.838 654.957 625.254C655.509 623.701 656.384 622.359 657.583 621.229C658.787 620.124 660.205 619.399 661.836 619.056Z" fill="#3313F7"/>
<path d="M301.938 725.739L343.533 672.257L357.462 682.495L318.873 738.187L301.938 725.739ZM368.399 653.02C370.911 654.866 372.415 657.339 372.911 660.439C373.388 663.564 372.691 666.374 370.819 668.867C369.017 671.372 366.563 672.85 363.456 673.302C360.35 673.754 357.54 673.057 355.029 671.211C352.619 669.439 351.153 666.994 350.631 663.876C350.11 660.757 350.75 657.945 352.552 655.44C353.809 653.785 355.381 652.576 357.269 651.815C359.113 651.06 361.028 650.767 363.013 650.937C364.98 651.132 366.775 651.827 368.399 653.02Z" fill="#3313F7"/>
<path d="M192.001 607.769L248.708 570.691L258.558 584.896L203.977 625.041L192.001 607.769ZM278.473 560.57C280.249 563.132 280.869 565.959 280.331 569.052C279.768 572.163 278.197 574.594 275.617 576.344C273.099 578.128 270.298 578.729 267.213 578.148C264.128 577.567 261.697 575.996 259.921 573.434C258.216 570.976 257.624 568.187 258.143 565.068C258.663 561.949 260.181 559.498 262.699 557.714C264.425 556.556 266.304 555.923 268.337 555.816C270.327 555.701 272.233 556.046 274.056 556.851C275.852 557.674 277.325 558.914 278.473 560.57Z" fill="#3313F7"/>
<path d="M126.326 460.495L192 443.838L196.703 460.472L132.045 480.719L126.326 460.495ZM223.438 443.93C224.286 446.93 223.954 449.805 222.442 452.556C220.899 455.315 218.623 457.104 215.615 457.922C212.654 458.792 209.809 458.451 207.08 456.9C204.351 455.348 202.562 453.073 201.714 450.073C200.9 447.195 201.245 444.365 202.749 441.584C204.253 438.802 206.486 436.977 209.446 436.107C211.455 435.572 213.438 435.584 215.395 436.143C217.314 436.68 219.005 437.625 220.467 438.978C221.9 440.34 222.89 441.991 223.438 443.93Z" fill="#3313F7"/>
<path d="M112.029 299.875L179.553 305.445L178.601 322.705L110.871 320.86L112.029 299.875ZM209.258 315.74C209.086 318.853 207.839 321.464 205.515 323.575C203.159 325.684 200.426 326.637 197.316 326.434C194.233 326.295 191.653 325.049 189.575 322.696C187.498 320.342 186.545 317.609 186.716 314.496C186.881 311.51 188.126 308.945 190.452 306.803C192.778 304.661 195.482 303.659 198.565 303.798C200.638 303.944 202.51 304.599 204.18 305.763C205.82 306.894 207.112 308.337 208.056 310.092C208.968 311.845 209.369 313.728 209.258 315.74Z" fill="#3313F7"/>
<path d="M150.66 143.316L212.716 170.509L206.211 186.525L142.751 162.789L150.66 143.316ZM237.469 189.892C236.296 192.78 234.268 194.845 231.385 196.087C228.472 197.317 225.578 197.331 222.702 196.128C219.831 194.996 217.795 192.98 216.594 190.079C215.394 187.179 215.38 184.284 216.553 181.396C217.678 178.625 219.689 176.604 222.584 175.333C225.479 174.062 228.362 173.992 231.233 175.124C233.146 175.936 234.704 177.163 235.905 178.806C237.09 180.409 237.843 182.193 238.166 184.16C238.46 186.114 238.227 188.025 237.469 189.892Z" fill="#3313F7"/>
<path d="M238.032 7.78353L287.896 53.6531L276.543 66.6887L224.229 23.6329L238.032 7.78353ZM305.014 80.0227C302.967 82.3734 300.378 83.6679 297.248 83.9062C294.094 84.1239 291.352 83.1972 289.022 81.1263C286.674 79.1235 285.404 76.5554 285.21 73.422C285.016 70.2886 285.942 67.5466 287.99 65.1959C289.954 62.9402 292.512 61.6813 295.663 61.4192C298.814 61.1572 301.563 62.0275 303.911 64.0303C305.457 65.4189 306.532 67.0855 307.135 69.0301C307.735 70.9304 307.868 72.8628 307.535 74.8274C307.178 76.7713 306.338 78.5031 305.014 80.0227Z" fill="#3313F7"/>
<path d="M364.77 -91.3809L397.039 -31.8058L382.069 -23.1627L346.569 -80.8722L364.77 -91.3809ZM404.668 -1.30664C401.968 0.251955 399.099 0.635751 396.061 -0.155252C393.007 -0.973523 390.715 -2.74031 389.183 -5.45562C387.613 -8.11217 387.245 -10.9537 388.079 -13.9803C388.913 -17.0069 390.68 -19.2994 393.38 -20.858C395.97 -22.3536 398.798 -22.7138 401.863 -21.9386C404.929 -21.1633 407.246 -19.4474 408.817 -16.7908C409.828 -14.9754 410.304 -13.0502 410.242 -11.0151C410.193 -9.0231 409.691 -7.15209 408.738 -5.40209C407.77 -3.67937 406.413 -2.31421 404.668 -1.30664Z" fill="#3313F7"/>
<path d="M958.813 3.38391L908.983 49.2901L896.929 36.8997L944.158 -11.681L958.813 3.38391ZM881.289 64.1723C879.116 61.9379 878.039 59.2511 878.06 56.1118C878.104 52.9505 879.254 50.2944 881.51 48.1434C883.7 45.9691 886.364 44.9148 889.503 44.9803C892.642 45.0458 895.298 46.1958 897.471 48.4301C899.557 50.5742 900.601 53.2271 900.602 56.389C900.603 59.5509 899.508 62.2189 897.318 64.3931C895.807 65.8196 894.057 66.753 892.069 67.1932C890.126 67.634 888.189 67.6073 886.259 67.1131C884.351 66.597 882.695 65.6167 881.289 64.1723Z" fill="#3313F7"/>
<path d="M1047.83 137.84L985.797 165.079L978.419 149.446L1038.86 118.833L1047.83 137.84ZM954.772 170.163C953.441 167.344 953.296 164.453 954.335 161.491C955.403 158.515 957.353 156.376 960.185 155.074C962.962 153.729 965.825 153.597 968.772 154.678C971.719 155.759 973.858 157.709 975.189 160.528C976.465 163.233 976.591 166.081 975.565 169.072C974.539 172.063 972.638 174.231 969.86 175.577C967.968 176.435 966.01 176.75 963.987 176.521C962.006 176.307 960.182 175.652 958.517 174.558C956.88 173.451 955.632 171.986 954.772 170.163Z" fill="#3313F7"/>
<path d="M1088.37 293.916L1020.85 299.536L1018.95 282.354L1086.06 273.026L1088.37 293.916ZM989.858 294.27C989.515 291.172 990.316 288.391 992.261 285.926C994.237 283.458 996.776 282.068 999.878 281.757C1002.94 281.386 1005.69 282.19 1008.13 284.17C1010.56 286.149 1011.95 288.688 1012.3 291.787C1012.63 294.76 1011.82 297.494 1009.88 299.99C1007.94 302.486 1005.44 303.919 1002.37 304.29C1000.3 304.487 998.349 304.149 996.51 303.275C994.705 302.43 993.193 301.219 991.974 299.643C990.785 298.064 990.08 296.273 989.858 294.27Z" fill="#3313F7"/>
<path d="M1076.04 454.698L1010.35 438.09L1014.13 421.222L1080.63 434.189L1076.04 454.698ZM982.746 423.046C983.428 420.004 985.088 417.633 987.728 415.934C990.398 414.241 993.251 413.751 996.286 414.464C999.303 415.108 1001.64 416.761 1003.31 419.425C1004.97 422.088 1005.46 424.941 1004.78 427.983C1004.12 430.901 1002.47 433.226 999.825 434.956C997.178 436.686 994.346 437.229 991.328 436.585C989.307 436.1 987.569 435.146 986.113 433.723C984.681 432.337 983.644 430.701 983.002 428.814C982.391 426.935 982.305 425.012 982.746 423.046Z" fill="#3313F7"/>
<path d="M1012.16 602.763L955.43 565.727L964.483 551L1023.17 584.858L1012.16 602.763ZM934.205 542.534C935.838 539.879 938.178 538.176 941.226 537.425C944.302 536.692 947.159 537.154 949.798 538.813C952.443 540.403 954.119 542.726 954.826 545.785C955.533 548.844 955.07 551.701 953.438 554.357C951.872 556.905 949.556 558.568 946.491 559.345C943.426 560.122 940.571 559.716 937.926 558.127C936.172 557.012 934.838 555.545 933.923 553.726C933.019 551.95 932.569 550.066 932.574 548.074C932.606 546.097 933.15 544.251 934.205 542.534Z" fill="#3313F7"/>
<path d="M903.676 722.067L862.041 668.615L875.385 657.626L919.899 708.705L903.676 722.067ZM849.497 639.788C851.903 637.806 854.67 636.955 857.796 637.235C860.943 637.54 863.495 638.905 865.453 641.331C867.439 643.693 868.269 646.435 867.945 649.558C867.62 652.681 866.255 655.233 863.849 657.214C861.54 659.116 858.81 659.937 855.659 659.677C852.508 659.416 849.939 658.105 847.953 655.744C846.656 654.119 845.871 652.299 845.596 650.281C845.317 648.308 845.504 646.38 846.156 644.497C846.828 642.639 847.941 641.069 849.497 639.788Z" fill="#3313F7"/>
<path d="M275.397 673.854L274.2 675.031C270.069 679.043 266.436 681.896 263.303 683.59C260.147 685.261 257.137 686.142 254.274 686.233C251.411 686.324 248.413 685.995 245.278 685.245C242.909 684.713 240.655 684.367 238.515 684.208C236.376 684.05 234.362 684.23 232.472 684.748C230.559 685.29 228.84 686.31 227.314 687.809C225.694 689.4 224.655 691.183 224.195 693.156C223.735 695.13 223.823 697.097 224.457 699.058C225.068 700.994 226.146 702.749 227.691 704.322C229.19 705.848 230.949 706.957 232.967 707.65C234.962 708.366 237.043 708.512 239.211 708.089C241.356 707.689 243.425 706.579 245.419 704.758L259.533 719.125C254.722 723.62 249.742 726.298 244.592 727.16C239.418 728.045 234.351 727.465 229.389 725.42C224.404 723.397 219.824 720.262 215.65 716.013C211.061 711.342 207.777 706.449 205.798 701.336C203.795 696.245 203.246 691.249 204.15 686.347C205.055 681.445 207.561 676.976 211.669 672.94C214.415 670.242 217.306 668.301 220.342 667.118C223.331 665.935 226.443 665.346 229.677 665.351C232.888 665.38 236.235 665.851 239.717 666.766C242.642 667.537 245.292 667.933 247.665 667.954C250.015 667.951 252.265 667.471 254.414 666.513C256.541 665.531 258.766 663.922 261.089 661.685L262.286 660.509L275.397 673.854ZM291.083 644.743C293.389 647.091 294.539 649.905 294.533 653.186C294.481 656.467 293.281 659.237 290.934 661.496C288.657 663.78 285.889 664.907 282.632 664.878C279.351 664.826 276.558 663.626 274.252 661.279C272.061 659.048 270.957 656.281 270.94 652.977C270.922 649.672 272.053 646.878 274.33 644.595C275.902 643.096 277.726 642.112 279.801 641.641C281.83 641.171 283.854 641.189 285.874 641.695C287.871 642.225 289.607 643.241 291.083 644.743Z" fill="#3313F7"/>
<path d="M183.611 550.109L182.097 550.833C176.887 553.286 172.525 554.806 169.012 555.391C165.484 555.946 162.351 555.802 159.614 554.958C156.876 554.115 154.147 552.83 151.425 551.103C149.358 549.83 147.338 548.771 145.366 547.927C143.394 547.082 141.43 546.598 139.475 546.475C137.49 546.366 135.532 546.773 133.603 547.695C131.554 548.674 129.992 550.022 128.916 551.74C127.84 553.458 127.284 555.347 127.248 557.407C127.197 559.437 127.647 561.447 128.597 563.436C129.52 565.366 130.823 566.986 132.507 568.297C134.161 569.621 136.082 570.436 138.27 570.74C140.428 571.058 142.746 570.679 145.223 569.605L153.907 587.776C147.898 590.465 142.318 591.381 137.167 590.524C131.986 589.681 127.382 587.487 123.353 583.942C119.294 580.41 115.981 575.958 113.413 570.584C110.589 564.675 109.071 558.982 108.86 553.502C108.618 548.037 109.721 543.134 112.169 538.791C114.616 534.448 118.437 531.035 123.633 528.552C127.107 526.892 130.471 525.995 133.726 525.862C136.938 525.713 140.072 526.166 143.13 527.221C146.157 528.291 149.17 529.824 152.166 531.82C154.683 533.499 157.06 534.733 159.298 535.524C161.521 536.285 163.805 536.561 166.149 536.352C168.479 536.114 171.106 535.315 174.03 533.954L175.544 533.23L183.611 550.109ZM207.9 527.669C209.319 530.638 209.493 533.673 208.422 536.774C207.307 539.86 205.273 542.09 202.319 543.466C199.424 544.886 196.44 545.054 193.369 543.969C190.283 542.854 188.03 540.812 186.611 537.843C185.263 535.022 185.118 532.046 186.174 528.915C187.231 525.784 189.207 523.509 192.103 522.088C194.076 521.182 196.121 520.843 198.236 521.072C200.308 521.285 202.217 521.959 203.963 523.095C205.679 524.244 206.991 525.768 207.9 527.669Z" fill="#3313F7"/>
<path d="M136.979 403.266L135.312 403.459C129.587 404.088 124.969 404.109 121.456 403.521C117.939 402.901 115.023 401.747 112.707 400.061C110.392 398.374 108.228 396.272 106.214 393.756C104.672 391.88 103.106 390.223 101.515 388.784C99.9241 387.345 98.2239 386.249 96.4144 385.498C94.5722 384.75 92.5887 384.499 90.4639 384.745C88.2084 385.006 86.2931 385.774 84.718 387.049C83.1429 388.325 82.0036 389.931 81.3 391.867C80.5926 393.771 80.3656 395.818 80.6189 398.008C80.8646 400.133 81.5711 402.088 82.7384 403.875C83.873 405.665 85.4255 407.059 87.396 408.057C89.3338 409.058 91.6486 409.453 94.3405 409.241L96.6543 429.247C90.0975 429.839 84.5223 428.894 79.9287 426.411C75.3023 423.932 71.6596 420.361 69.0003 415.7C66.3084 411.042 64.6203 405.755 63.936 399.838C63.1837 393.333 63.597 387.455 65.1761 382.204C66.7224 376.957 69.3579 372.677 73.0824 369.364C76.807 366.051 81.5296 364.064 87.2502 363.402C91.0748 362.96 94.5483 363.204 97.6704 364.135C100.756 365.037 103.574 366.483 106.123 368.474C108.639 370.469 110.99 372.897 113.176 375.758C115.011 378.163 116.859 380.102 118.719 381.577C120.575 383.018 122.645 384.021 124.93 384.585C127.211 385.116 129.955 385.213 133.163 384.875L134.83 384.682L136.979 403.266ZM167.238 389.928C167.616 393.197 166.795 396.124 164.775 398.71C162.719 401.266 160.071 402.716 156.831 403.057C153.631 403.46 150.755 402.65 148.202 400.627C145.645 398.57 144.178 395.908 143.8 392.639C143.44 389.533 144.269 386.671 146.285 384.053C148.301 381.435 150.909 379.924 154.109 379.521C156.27 379.304 158.314 379.647 160.24 380.551C162.13 381.425 163.717 382.683 165 384.323C166.25 385.968 166.996 387.836 167.238 389.928Z" fill="#3313F7"/>
<path d="M140.553 249.238L138.914 248.879C133.295 247.615 128.92 246.135 125.788 244.439C122.663 242.71 120.28 240.672 118.638 238.325C116.996 235.978 115.631 233.288 114.544 230.254C113.694 227.979 112.751 225.903 111.713 224.025C110.676 222.147 109.423 220.559 107.956 219.261C106.456 217.956 104.662 217.074 102.572 216.617C100.354 216.131 98.2934 216.236 96.3896 216.931C94.4857 217.625 92.8867 218.774 91.5924 220.377C90.3053 221.948 89.4259 223.811 88.9543 225.964C88.4968 228.054 88.5301 230.133 89.0541 232.202C89.5459 234.263 90.5617 236.086 92.1015 237.669C93.6091 239.246 95.6703 240.371 98.2851 241.044L93.9776 260.717C87.5837 259.149 82.6175 256.445 79.079 252.604C75.5084 248.757 73.2224 244.197 72.2208 238.925C71.1871 233.646 71.3072 228.097 72.5811 222.278C73.9818 215.882 76.2813 210.456 79.4798 206.002C82.6461 201.542 86.5285 198.349 91.1269 196.425C95.7253 194.501 100.837 194.155 106.463 195.387C110.224 196.21 113.43 197.569 116.08 199.463C118.706 201.318 120.901 203.601 122.666 206.312C124.398 209.016 125.834 212.076 126.972 215.491C127.927 218.362 129.045 220.796 130.325 222.794C131.613 224.761 133.245 226.381 135.223 227.657C137.208 228.9 139.772 229.882 142.915 230.604L144.555 230.963L140.553 249.238ZM173.504 246.447C172.8 249.662 171.073 252.164 168.323 253.954C165.548 255.704 162.573 256.215 159.397 255.486C156.24 254.828 153.783 253.128 152.025 250.385C150.275 247.61 149.751 244.615 150.455 241.401C151.124 238.347 152.837 235.909 155.594 234.087C158.351 232.266 161.308 231.684 164.465 232.341C166.58 232.838 168.401 233.826 169.93 235.306C171.434 236.747 172.526 238.452 173.206 240.42C173.855 242.381 173.954 244.39 173.504 246.447Z" fill="#3313F7"/>
<path d="M193.947 104.716L192.513 103.844C187.609 100.824 183.952 98.0038 181.54 95.3824C179.146 92.7329 177.553 90.0316 176.762 87.2785C175.971 84.5254 175.554 81.5375 175.511 78.3148C175.446 75.8876 175.228 73.6176 174.856 71.5047C174.485 69.3919 173.816 67.4832 172.849 65.7789C171.855 64.0574 170.444 62.6411 168.616 61.5299C166.676 60.3504 164.692 59.7801 162.666 59.8191C160.64 59.8581 158.754 60.4256 157.01 61.5216C155.282 62.5895 153.846 64.0654 152.7 65.9493C151.589 67.777 150.946 69.7542 150.77 71.8808C150.566 73.9904 150.935 76.044 151.877 78.0417C152.791 80.0223 154.375 81.7556 156.629 83.2417L146.167 100.45C140.629 96.8908 136.81 92.7205 134.71 87.9394C132.582 83.1412 131.901 78.0861 132.665 72.7743C133.402 67.4453 135.317 62.2361 138.411 57.1467C141.813 51.5511 145.75 47.1663 150.221 43.9924C154.664 40.8014 159.373 39.0427 164.347 38.7161C169.321 38.3895 174.268 39.722 179.189 42.7136C182.479 44.7137 185.07 47.0398 186.962 49.6921C188.843 52.2991 190.178 55.171 190.967 58.3078C191.727 61.4275 192.091 64.7876 192.059 68.3881C192.03 71.4129 192.297 74.0782 192.859 76.3841C193.438 78.6619 194.456 80.7249 195.913 82.5732C197.387 84.3934 199.493 86.1552 202.231 87.8586L203.665 88.7304L193.947 104.716ZM226.018 112.776C224.308 115.587 221.863 117.393 218.681 118.193C215.488 118.948 212.508 118.465 209.741 116.744C206.968 115.097 205.196 112.691 204.425 109.526C203.67 106.333 204.147 103.33 205.857 100.519C207.481 97.8474 209.892 96.0978 213.092 95.2699C216.291 94.442 219.277 94.8516 222.049 96.4988C223.888 97.6551 225.29 99.1814 226.255 101.078C227.21 102.929 227.689 104.895 227.694 106.978C227.671 109.043 227.112 110.976 226.018 112.776Z" fill="#3313F7"/>
<path d="M291.373 -14.6386L290.3 -15.9288C286.643 -20.3771 284.099 -24.2325 282.669 -27.4949C281.265 -30.7783 280.636 -33.8504 280.781 -36.7111C280.927 -39.5718 281.503 -42.5333 282.508 -45.5955C283.235 -47.9122 283.766 -50.13 284.1 -52.2491C284.435 -54.3681 284.422 -56.3905 284.062 -58.3163C283.68 -60.2674 282.805 -62.0652 281.437 -63.7096C279.985 -65.4552 278.294 -66.6385 276.365 -67.2596C274.436 -67.8806 272.469 -67.9561 270.463 -67.486C268.482 -67.0369 266.644 -66.1073 264.949 -64.6974C263.305 -63.3295 262.054 -61.6684 261.197 -59.7142C260.319 -57.7852 260.001 -55.7231 260.244 -53.5277C260.465 -51.3577 261.401 -49.2038 263.05 -47.0662L247.568 -34.187C243.485 -39.352 241.227 -44.5364 240.794 -49.7402C240.339 -54.9694 241.336 -59.9718 243.783 -64.7476C246.21 -69.5487 249.713 -73.8537 254.292 -77.6628C259.327 -81.8506 264.474 -84.7196 269.733 -86.2697C274.972 -87.845 279.997 -87.9797 284.807 -86.6735C289.617 -85.3673 293.864 -82.5006 297.547 -78.0734C300.009 -75.1135 301.704 -72.0721 302.633 -68.9492C303.565 -65.8726 303.895 -62.7228 303.623 -59.4999C303.329 -56.3022 302.583 -53.0059 301.383 -49.611C300.374 -46.7595 299.761 -44.152 299.544 -41.7885C299.352 -39.446 299.645 -37.1643 300.422 -34.9432C301.225 -32.7431 302.645 -30.3929 304.682 -27.8926L305.755 -26.6024L291.373 -14.6386ZM319.09 3.39779C316.56 5.50223 313.66 6.41608 310.391 6.13934C307.126 5.81625 304.464 4.3919 302.406 1.8663C300.318 -0.59191 299.424 -3.44302 299.721 -6.68703C300.044 -9.95208 301.471 -12.6368 304.001 -14.7413C306.404 -16.7405 309.253 -17.6122 312.548 -17.3565C315.842 -17.1008 318.533 -15.7439 320.621 -13.2857C321.985 -11.5949 322.815 -9.69609 323.112 -7.58916C323.414 -5.52857 323.229 -3.51265 322.557 -1.5414C321.865 0.404553 320.709 2.05095 319.09 3.39779Z" fill="#3313F7"/>
<path d="M865.294 -48.8114L866.281 -50.1685C869.695 -54.8061 872.808 -58.2182 875.62 -60.405C878.458 -62.5724 881.282 -63.9366 884.091 -64.4976C886.9 -65.0585 889.912 -65.2275 893.127 -65.0046C895.551 -64.8688 897.832 -64.8987 899.968 -65.0945C902.104 -65.2902 904.062 -65.7992 905.84 -66.6216C907.638 -67.4706 909.166 -68.7599 910.424 -70.4896C911.76 -72.3258 912.492 -74.2551 912.62 -76.2777C912.749 -78.3003 912.339 -80.2262 911.391 -82.0554C910.469 -83.8652 909.117 -85.4186 907.334 -86.7156C905.604 -87.9739 903.687 -88.7786 901.582 -89.1296C899.497 -89.5073 897.42 -89.3092 895.351 -88.5352C893.302 -87.7879 891.443 -86.3522 889.776 -84.2282L873.49 -96.0755C877.495 -101.301 881.966 -104.762 886.905 -106.46C891.862 -108.185 896.956 -108.447 902.187 -107.246C907.437 -106.072 912.47 -103.733 917.286 -100.229C922.582 -96.3768 926.627 -92.0916 929.421 -87.3734C932.234 -82.6819 933.598 -77.8442 933.512 -72.8602C933.427 -67.8763 931.691 -63.0559 928.303 -58.399C926.038 -55.2855 923.506 -52.8955 920.706 -51.2289C917.953 -49.5695 914.981 -48.4763 911.789 -47.9492C908.617 -47.4488 905.239 -47.3633 901.653 -47.6928C898.641 -47.9714 895.963 -47.9258 893.619 -47.5559C891.301 -47.1667 889.161 -46.3225 887.198 -45.0236C885.263 -43.7052 883.333 -41.7518 881.409 -39.1633L880.422 -37.8062L865.294 -48.8114ZM854.613 -17.5155C851.952 -19.4513 850.354 -22.0378 849.82 -25.275C849.332 -28.5195 850.059 -31.4493 852.002 -34.0644C853.873 -36.6916 856.417 -38.2591 859.635 -38.7668C862.879 -39.2551 865.832 -38.5313 868.493 -36.5955C871.021 -34.7565 872.566 -32.2087 873.126 -28.9521C873.687 -25.6955 873.033 -22.7536 871.162 -20.1264C869.858 -18.3895 868.221 -17.1183 866.251 -16.3129C864.328 -15.5147 862.328 -15.1992 860.252 -15.3664C858.196 -15.5602 856.316 -16.2766 854.613 -17.5155Z" fill="#3313F7"/>
<path d="M976.196 58.1387L977.57 57.1757C982.305 53.898 986.357 51.6815 989.727 50.5261C993.115 49.3977 996.228 49.0242 999.067 49.4058C1001.91 49.7873 1004.81 50.6055 1007.78 51.8604C1010.03 52.776 1012.19 53.488 1014.28 53.9966C1016.36 54.5051 1018.38 54.6592 1020.33 54.4588C1022.3 54.2396 1024.17 53.5162 1025.92 52.2888C1027.78 50.9859 1029.1 49.3987 1029.88 47.5274C1030.65 45.6562 1030.89 43.7015 1030.59 41.6636C1030.31 39.6526 1029.53 37.7443 1028.27 35.9387C1027.04 34.1869 1025.49 32.8033 1023.61 31.7878C1021.76 30.7535 1019.73 30.2664 1017.52 30.3268C1015.34 30.3682 1013.12 31.1227 1010.85 32.5903L999.295 16.0969C1004.78 12.455 1010.13 10.6328 1015.35 10.6304C1020.6 10.6092 1025.51 12.0155 1030.06 14.8495C1034.65 17.6645 1038.65 21.511 1042.07 26.389C1045.82 31.752 1048.26 37.1184 1049.37 42.488C1050.51 47.8388 1050.23 52.8573 1048.53 57.5435C1046.83 62.2296 1043.62 66.225 1038.9 69.5296C1035.75 71.739 1032.58 73.1773 1029.39 73.8447C1026.25 74.5201 1023.08 74.5889 1019.89 74.0512C1016.73 73.4946 1013.51 72.4784 1010.22 71.0026C1007.46 69.7611 1004.92 68.9346 1002.58 68.5232C1000.26 68.1388 997.961 68.2423 995.684 68.8337C993.425 69.4521 990.965 70.6731 988.305 72.4967L986.931 73.4598L976.196 58.1387ZM955.932 84.2709C954.044 81.5759 953.372 78.6108 953.918 75.3755C954.51 72.1483 956.149 69.6134 958.836 67.7709C961.458 65.8934 964.374 65.2369 967.582 65.8016C970.809 66.3932 973.367 68.0365 975.255 70.7315C977.049 73.2918 977.683 76.203 977.156 79.4652C976.629 82.7275 975.054 85.2974 972.432 87.1749C970.634 88.3942 968.674 89.0651 966.549 89.1873C964.471 89.3177 962.477 88.9668 960.568 88.1347C958.686 87.2836 957.141 85.9957 955.932 84.2709Z" fill="#3313F7"/>
<path d="M1046.36 195.304L1047.97 194.839C1053.52 193.276 1058.07 192.496 1061.63 192.497C1065.2 192.53 1068.27 193.188 1070.83 194.47C1073.39 195.753 1075.87 197.47 1078.27 199.62C1080.1 201.217 1081.92 202.594 1083.73 203.751C1085.53 204.909 1087.39 205.71 1089.3 206.153C1091.24 206.587 1093.23 206.508 1095.29 205.916C1097.47 205.287 1099.24 204.215 1100.58 202.697C1101.92 201.18 1102.78 199.409 1103.16 197.383C1103.54 195.388 1103.43 193.332 1102.82 191.213C1102.23 189.158 1101.21 187.345 1099.76 185.776C1098.35 184.197 1096.59 183.077 1094.48 182.417C1092.4 181.748 1090.06 181.74 1087.43 182.392L1081.86 163.04C1088.23 161.376 1093.88 161.391 1098.82 163.084C1103.8 164.768 1107.98 167.691 1111.37 171.851C1114.79 176.002 1117.32 180.939 1118.97 186.662C1120.79 192.955 1121.34 198.821 1120.65 204.26C1119.99 209.69 1118.09 214.346 1114.97 218.226C1111.84 222.107 1107.51 224.844 1101.97 226.439C1098.27 227.504 1094.81 227.835 1091.57 227.431C1088.38 227.049 1085.37 226.086 1082.52 224.542C1079.71 222.989 1076.99 220.981 1074.37 218.519C1072.16 216.449 1070.02 214.84 1067.94 213.692C1065.87 212.575 1063.67 211.927 1061.32 211.747C1058.98 211.598 1056.26 211.955 1053.15 212.816L1051.54 213.28L1046.36 195.304ZM1018.71 213.44C1017.8 210.278 1018.13 207.256 1019.69 204.373C1021.3 201.513 1023.68 199.647 1026.81 198.777C1029.9 197.853 1032.87 198.179 1035.73 199.754C1038.59 201.362 1040.47 203.747 1041.38 206.909C1042.25 209.913 1041.9 212.872 1040.34 215.786C1038.79 218.701 1036.46 220.62 1033.37 221.544C1031.28 222.114 1029.2 222.112 1027.16 221.538C1025.15 220.986 1023.38 220.007 1021.84 218.6C1020.34 217.184 1019.29 215.464 1018.71 213.44Z" fill="#3313F7"/>
<path d="M1068.19 347.819L1069.86 347.904C1075.61 348.226 1080.17 348.965 1083.54 350.123C1086.91 351.314 1089.59 352.931 1091.6 354.976C1093.61 357.021 1095.4 359.45 1096.97 362.264C1098.18 364.368 1099.45 366.26 1100.78 367.942C1102.12 369.623 1103.61 370.983 1105.27 372.022C1106.97 373.063 1108.88 373.637 1111.02 373.744C1113.29 373.858 1115.3 373.416 1117.07 372.417C1118.83 371.418 1120.22 370.022 1121.23 368.228C1122.24 366.466 1122.8 364.484 1122.91 362.282C1123.02 360.146 1122.65 358.101 1121.79 356.147C1120.96 354.194 1119.66 352.564 1117.88 351.255C1116.14 349.949 1113.92 349.178 1111.23 348.944L1112.24 328.83C1118.8 329.325 1124.15 331.175 1128.27 334.38C1132.42 337.588 1135.43 341.709 1137.29 346.744C1139.17 351.782 1139.97 357.275 1139.67 363.223C1139.34 369.764 1137.97 375.493 1135.54 380.413C1133.16 385.334 1129.85 389.122 1125.63 391.776C1121.41 394.431 1116.43 395.614 1110.68 395.325C1106.83 395.132 1103.45 394.319 1100.52 392.887C1097.62 391.489 1095.08 389.599 1092.9 387.216C1090.74 384.834 1088.82 382.052 1087.14 378.87C1085.72 376.196 1084.22 373.979 1082.63 372.219C1081.04 370.491 1079.16 369.161 1077 368.229C1074.84 367.33 1072.14 366.783 1068.93 366.588L1067.25 366.504L1068.19 347.819ZM1036.15 355.995C1036.31 352.709 1037.6 349.956 1040.02 347.739C1042.47 345.555 1045.32 344.562 1048.57 344.758C1051.79 344.887 1054.5 346.16 1056.68 348.576C1058.87 351.025 1059.88 353.893 1059.71 357.179C1059.55 360.302 1058.27 362.988 1055.85 365.239C1053.43 367.49 1050.61 368.55 1047.38 368.421C1045.22 368.28 1043.26 367.605 1041.5 366.396C1039.78 365.223 1038.43 363.721 1037.43 361.892C1036.47 360.064 1036.04 358.099 1036.15 355.995Z" fill="#3313F7"/>
<path d="M1039.31 499.159L1040.87 499.783C1046.2 501.954 1050.27 504.134 1053.08 506.323C1055.88 508.542 1057.9 510.944 1059.13 513.53C1060.36 516.115 1061.27 518.993 1061.84 522.165C1062.3 524.548 1062.89 526.752 1063.61 528.775C1064.32 530.797 1065.3 532.57 1066.53 534.092C1067.79 535.626 1069.42 536.791 1071.4 537.586C1073.51 538.43 1075.56 538.666 1077.55 538.294C1079.55 537.922 1081.31 537.052 1082.85 535.684C1084.38 534.346 1085.56 532.654 1086.38 530.607C1087.17 528.622 1087.48 526.566 1087.3 524.439C1087.16 522.325 1086.46 520.36 1085.2 518.544C1083.97 516.741 1082.12 515.292 1079.65 514.198L1087.14 495.502C1093.19 498.101 1097.64 501.586 1100.5 505.956C1103.39 510.339 1104.89 515.213 1105.01 520.578C1105.16 525.955 1104.13 531.409 1101.92 536.938C1099.48 543.017 1096.32 547.99 1092.43 551.857C1088.58 555.736 1084.22 558.245 1079.37 559.386C1074.52 560.527 1069.42 560.027 1064.07 557.886C1060.5 556.455 1057.56 554.587 1055.26 552.282C1052.97 550.02 1051.18 547.407 1049.89 544.443C1048.62 541.491 1047.71 538.237 1047.15 534.68C1046.68 531.692 1045.98 529.107 1045.05 526.925C1044.1 524.774 1042.76 522.906 1041.02 521.323C1039.26 519.77 1036.9 518.379 1033.91 517.15L1032.36 516.526L1039.31 499.159ZM1006.35 496.488C1007.57 493.433 1009.69 491.249 1012.7 489.936C1015.72 488.666 1018.74 488.652 1021.75 489.894C1024.76 491.062 1026.9 493.144 1028.18 496.139C1029.45 499.164 1029.48 502.204 1028.25 505.259C1027.09 508.161 1025 510.284 1021.98 511.627C1018.96 512.97 1015.95 513.057 1012.94 511.889C1010.94 511.051 1009.31 509.776 1008.04 508.065C1006.8 506.396 1006 504.535 1005.65 502.482C1005.33 500.441 1005.57 498.443 1006.35 496.488Z" fill="#3313F7"/>
<path d="M962.858 632.921L964.129 634.017C968.469 637.803 971.612 641.187 973.559 644.169C975.485 647.177 976.611 650.103 976.938 652.949C977.265 655.795 977.185 658.811 976.697 661.997C976.362 664.401 976.203 666.676 976.222 668.822C976.241 670.967 976.586 672.959 977.259 674.8C977.957 676.661 979.115 678.291 980.735 679.687C982.455 681.17 984.317 682.059 986.322 682.354C988.327 682.649 990.28 682.4 992.182 681.606C994.061 680.837 995.721 679.618 997.161 677.948C998.558 676.328 999.518 674.484 1000.04 672.415C1000.59 670.368 1000.56 668.282 999.964 666.156C999.388 664.052 998.111 662.082 996.132 660.245L1009.28 644.993C1014.16 649.415 1017.24 654.157 1018.53 659.219C1019.83 664.302 1019.67 669.4 1018.05 674.514C1016.44 679.649 1013.7 684.472 1009.81 688.982C1005.53 693.942 1000.93 697.619 995.993 700.013C991.085 702.43 986.151 703.389 981.191 702.893C976.231 702.396 971.571 700.268 967.209 696.507C964.294 693.993 962.121 691.272 960.691 688.344C959.265 685.463 958.421 682.411 958.159 679.187C957.922 675.984 958.116 672.61 958.741 669.064C959.267 666.085 959.443 663.412 959.268 661.045C959.071 658.703 958.407 656.501 957.274 654.438C956.12 652.4 954.333 650.316 951.912 648.185L950.641 647.089L962.858 632.921ZM932.551 619.693C934.7 617.201 937.409 615.822 940.68 615.557C943.953 615.338 946.813 616.305 949.259 618.457C951.723 620.538 953.075 623.203 953.315 626.452C953.534 629.726 952.569 632.609 950.42 635.101C948.378 637.468 945.711 638.797 942.42 639.087C939.128 639.377 936.25 638.482 933.786 636.401C932.163 634.957 931.031 633.221 930.391 631.192C929.755 629.209 929.605 627.19 929.943 625.135C930.306 623.102 931.176 621.288 932.551 619.693Z" fill="#3313F7"/>
<path d="M45.7362 620.906L43.71 621.875C36.7383 625.158 30.9017 627.191 26.2001 627.974C21.4796 628.717 17.2878 628.524 13.6248 627.395C9.96182 626.267 6.30934 624.547 2.66738 622.237C-0.0990741 620.533 -2.8017 619.116 -5.44049 617.986C-8.07929 616.856 -10.707 616.208 -13.3236 616.043C-15.9799 615.898 -18.5993 616.442 -21.1817 617.676C-23.9231 618.986 -26.0134 620.791 -27.4528 623.089C-28.8921 625.387 -29.6363 627.915 -29.6854 630.671C-29.7535 633.388 -29.1515 636.078 -27.8793 638.74C-26.645 641.322 -24.9012 643.49 -22.6477 645.244C-20.434 647.016 -17.8634 648.106 -14.936 648.513C-12.0483 648.938 -8.94702 648.432 -5.63221 646.994L5.9885 671.309C-2.05239 674.908 -9.51923 676.134 -16.412 674.987C-23.3445 673.859 -29.5062 670.923 -34.8972 666.179C-40.3278 661.454 -44.7616 655.495 -48.1984 648.304C-51.977 640.398 -54.0079 632.779 -54.2909 625.447C-54.6136 618.134 -53.1377 611.572 -49.8632 605.761C-46.5887 599.95 -41.4751 595.383 -34.5224 592.06C-29.874 589.839 -25.3718 588.639 -21.0159 588.46C-16.7186 588.261 -12.5244 588.868 -8.43314 590.28C-4.38161 591.711 -0.35097 593.762 3.65878 596.433C7.02614 598.68 10.2071 600.332 13.2017 601.39C16.1774 602.408 19.2335 602.777 22.3701 602.498C25.4877 602.18 29.0027 601.11 32.9152 599.289L34.9414 598.32L45.7362 620.906ZM78.2373 590.878C80.1361 594.851 80.369 598.913 78.9361 603.063C77.4445 607.192 74.7225 610.177 70.7703 612.017C66.8958 613.917 62.9034 614.141 58.7931 612.69C54.6639 611.198 51.6499 608.466 49.751 604.493C47.9472 600.718 47.7522 596.736 49.1661 592.547C50.5801 588.357 53.2243 585.312 57.0989 583.411C59.74 582.198 62.4759 581.744 65.3067 582.051C68.0787 582.336 70.6329 583.239 72.9694 584.757C75.2661 586.295 77.022 588.335 78.2373 590.878Z" fill="#3313F7"/>
<path d="M-16.3596 425.467L-18.5904 425.725C-26.2504 426.566 -32.4309 426.594 -37.1319 425.808C-41.838 424.978 -45.74 423.435 -48.838 421.178C-51.936 418.921 -54.8323 416.108 -57.5268 412.741C-59.5901 410.231 -61.6862 408.013 -63.8151 406.087C-65.9439 404.162 -68.2189 402.696 -70.6403 401.691C-73.1053 400.69 -75.7595 400.354 -78.6028 400.683C-81.621 401.032 -84.1839 402.06 -86.2916 403.767C-88.3993 405.473 -89.9238 407.622 -90.8653 410.213C-91.8119 412.761 -92.1157 415.5 -91.7767 418.431C-91.4479 421.274 -90.5025 423.891 -88.9405 426.281C-87.4223 428.677 -85.3448 430.542 -82.708 431.877C-80.115 433.217 -77.0175 433.746 -73.4154 433.462L-70.3193 460.232C-79.0931 461.025 -86.5534 459.761 -92.7003 456.438C-98.891 453.12 -103.765 448.342 -107.324 442.104C-110.926 435.872 -113.185 428.797 -114.101 420.88C-115.107 412.175 -114.554 404.309 -112.441 397.283C-110.372 390.261 -106.845 384.534 -101.861 380.101C-96.8775 375.668 -90.5581 373.009 -82.9032 372.124C-77.7853 371.532 -73.1374 371.859 -68.9596 373.104C-64.8305 374.311 -61.0604 376.247 -57.6494 378.911C-54.2821 381.58 -51.1358 384.829 -48.2107 388.657C-45.7552 391.875 -43.2829 394.471 -40.7941 396.443C-38.3102 398.373 -35.5397 399.714 -32.4825 400.469C-29.4303 401.18 -25.7583 401.309 -21.4665 400.857L-19.2356 400.599L-16.3596 425.467ZM24.1307 407.619C24.6366 411.993 23.5382 415.91 20.8354 419.37C18.0838 422.791 14.5402 424.73 10.2047 425.187C5.92295 425.727 2.07404 424.643 -1.34206 421.935C-4.76323 419.183 -6.72677 415.62 -7.23267 411.246C-7.71328 407.09 -6.60472 403.261 -3.907 399.757C-1.20928 396.254 2.28044 394.232 6.56215 393.693C9.45421 393.402 12.1892 393.862 14.767 395.071C17.2961 396.241 19.4189 397.924 21.1356 400.119C22.8086 402.319 23.8069 404.819 24.1307 407.619Z" fill="#3313F7"/>
<path d="M-11.6318 220.454L-13.8255 219.973C-21.3437 218.282 -27.1984 216.302 -31.3894 214.032C-35.571 211.719 -38.7604 208.992 -40.9577 205.851C-43.155 202.711 -44.9812 199.11 -46.4363 195.05C-47.5729 192.007 -48.8354 189.228 -50.2235 186.716C-51.6117 184.203 -53.2876 182.078 -55.2512 180.341C-57.2579 178.594 -59.6592 177.415 -62.4552 176.803C-65.4232 176.153 -68.1811 176.293 -70.7286 177.223C-73.2762 178.152 -75.416 179.69 -77.1478 181.835C-78.8702 183.937 -80.0469 186.429 -80.678 189.311C-81.2902 192.107 -81.2457 194.889 -80.5445 197.657C-79.8863 200.416 -78.527 202.854 -76.4667 204.973C-74.4493 207.083 -71.6911 208.588 -68.1922 209.49L-73.9561 235.815C-82.5121 233.716 -89.1575 230.097 -93.8924 224.959C-98.6703 219.811 -101.729 213.709 -103.07 206.654C-104.453 199.59 -104.292 192.164 -102.587 184.379C-100.713 175.819 -97.6361 168.559 -93.3561 162.599C-89.1191 156.63 -83.924 152.358 -77.7707 149.784C-71.6175 147.209 -64.777 146.746 -57.2494 148.394C-52.2166 149.496 -47.9267 151.315 -44.3797 153.849C-40.8662 156.331 -37.9289 159.386 -35.5677 163.014C-33.2495 166.631 -31.3286 170.726 -29.8051 175.297C-28.5274 179.137 -27.0319 182.395 -25.3184 185.069C-23.5956 187.7 -21.4109 189.869 -18.7643 191.575C-16.1083 193.239 -12.6773 194.553 -8.47125 195.519L-6.27748 196L-11.6318 220.454ZM32.46 216.72C31.5181 221.021 29.2073 224.369 25.5276 226.764C21.8142 229.107 17.833 229.79 13.584 228.815C9.35906 227.935 6.07072 225.66 3.71894 221.989C1.37658 218.276 0.676309 214.268 1.61813 209.967C2.51287 205.881 4.80482 202.618 8.49399 200.181C12.1832 197.743 16.1402 196.964 20.3651 197.844C23.1947 198.508 25.6323 199.831 27.6779 201.812C29.6899 203.74 31.1513 206.02 32.0623 208.654C32.9302 211.278 33.0627 213.967 32.46 216.72Z" fill="#3313F7"/>
<path d="M59.4076 28.0841L57.4887 26.9175C50.927 22.8768 46.0326 19.1025 42.8058 15.5947C39.6017 12.0493 37.4705 8.43466 36.412 4.75072C35.3536 1.06677 34.7954 -2.93145 34.7374 -7.24393C34.6506 -10.4918 34.3587 -13.5293 33.8616 -16.3566C33.3646 -19.1839 32.4694 -21.7379 31.1762 -24.0186C29.8454 -26.3221 27.9571 -28.2173 25.5114 -29.7042C22.9152 -31.2826 20.2614 -32.0457 17.5499 -31.9935C14.8385 -31.9413 12.3155 -31.1819 9.98098 -29.7154C7.66932 -28.2864 5.74718 -26.3115 4.21456 -23.7905C2.72769 -21.3448 1.86647 -18.6991 1.63089 -15.8534C1.35768 -13.0306 1.85143 -10.2826 3.11213 -7.60939C4.33521 -4.95909 6.45511 -2.63964 9.47185 -0.651014L-4.5276 22.3763C-11.9385 17.6132 -17.0488 12.0328 -19.8586 5.63502C-22.7061 -0.785585 -23.6182 -7.54986 -22.5951 -14.6578C-21.6095 -21.7886 -19.0466 -28.7592 -14.9062 -35.5696C-10.3541 -43.0572 -5.08647 -48.9246 0.896728 -53.1717C6.8423 -57.4416 13.143 -59.7951 19.7988 -60.2321C26.4545 -60.6691 33.0747 -58.886 39.6593 -54.8829C44.0616 -52.2066 47.5287 -49.0939 50.0606 -45.5448C52.5777 -42.0563 54.364 -38.2133 55.4195 -34.0158C56.4373 -29.8412 56.9246 -25.345 56.8815 -20.5271C56.8428 -16.4795 57.1996 -12.913 57.9519 -9.82739C58.7271 -6.77945 60.0893 -4.01885 62.0384 -1.54557C64.0103 0.890081 66.8286 3.24759 70.4931 5.52696L72.412 6.69358L59.4076 28.0841ZM102.323 38.869C100.035 42.6317 96.7625 45.0481 92.5046 46.1183C88.2319 47.128 84.2444 46.4818 80.5423 44.1795C76.832 41.9754 74.4606 38.7558 73.428 34.5207C72.4183 30.248 73.0572 26.2304 75.3447 22.4677C77.5178 18.8932 80.7448 16.5521 85.0256 15.4442C89.3064 14.3363 93.302 14.8845 97.0122 17.0886C99.4727 18.636 101.349 20.6784 102.64 23.2158C103.917 25.6927 104.559 28.3245 104.566 31.1112C104.534 33.875 103.787 36.461 102.323 38.869Z" fill="#3313F7"/>
<path d="M1100.57 -34.0608L1102.41 -35.3495C1108.75 -39.7354 1114.17 -42.7014 1118.68 -44.2474C1123.22 -45.7574 1127.38 -46.2571 1131.18 -45.7466C1134.98 -45.2361 1138.86 -44.1412 1142.84 -42.462C1145.85 -41.2368 1148.75 -40.284 1151.53 -39.6035C1154.32 -38.923 1157.02 -38.7168 1159.63 -38.9849C1162.27 -39.2783 1164.77 -40.2463 1167.11 -41.8887C1169.6 -43.6322 1171.37 -45.756 1172.41 -48.26C1173.45 -50.7641 1173.77 -53.3796 1173.36 -56.1066C1172.98 -58.7976 1171.94 -61.3511 1170.25 -63.7673C1168.61 -66.1114 1166.53 -67.9628 1164.02 -69.3217C1161.55 -70.7058 1158.83 -71.3575 1155.88 -71.2768C1152.96 -71.2213 1149.98 -70.2117 1146.95 -68.2479L1131.48 -90.3181C1138.82 -95.1915 1145.99 -97.6298 1152.97 -97.633C1160 -97.6615 1166.56 -95.7796 1172.66 -91.9874C1178.79 -88.2205 1184.15 -83.0733 1188.72 -76.546C1193.75 -69.3696 1197 -62.1887 1198.49 -55.0034C1200.01 -47.8434 1199.64 -41.128 1197.36 -34.8573C1195.09 -28.5866 1190.8 -23.2402 1184.49 -18.8183C1180.27 -15.8618 1176.02 -13.9371 1171.76 -13.0442C1167.55 -12.1404 1163.31 -12.0482 1159.05 -12.7678C1154.81 -13.5126 1150.5 -14.8724 1146.11 -16.8472C1142.42 -18.5086 1139.01 -19.6145 1135.88 -20.165C1132.78 -20.6794 1129.7 -20.5409 1126.65 -19.7495C1123.63 -18.922 1120.34 -17.2882 1116.78 -14.8479L1114.94 -13.5592L1100.57 -34.0608ZM1073.46 0.907485C1070.93 -2.69877 1070.03 -6.66651 1070.76 -10.9957C1071.56 -15.3142 1073.75 -18.7062 1077.35 -21.1717C1080.85 -23.684 1084.76 -24.5624 1089.05 -23.8068C1093.37 -23.0152 1096.79 -20.8162 1099.32 -17.21C1101.72 -13.784 1102.56 -9.88842 1101.86 -5.52312C1101.15 -1.15783 1099.05 2.281 1095.54 4.79337C1093.13 6.42503 1090.51 7.32267 1087.67 7.48631C1084.89 7.66074 1082.22 7.19119 1079.66 6.07767C1077.14 4.93889 1075.08 3.21549 1073.46 0.907485Z" fill="#3313F7"/>
<path d="M1193.99 148.493L1196.15 147.871C1203.57 145.78 1209.66 144.736 1214.43 144.737C1219.2 144.781 1223.31 145.661 1226.73 147.378C1230.16 149.094 1233.48 151.391 1236.69 154.269C1239.14 156.405 1241.57 158.248 1243.99 159.797C1246.41 161.346 1248.89 162.417 1251.45 163.01C1254.04 163.591 1256.72 163.486 1259.47 162.693C1262.39 161.852 1264.74 160.417 1266.54 158.387C1268.34 156.356 1269.49 153.986 1269.99 151.275C1270.51 148.606 1270.36 145.855 1269.54 143.02C1268.75 140.269 1267.38 137.844 1265.45 135.743C1263.56 133.63 1261.2 132.132 1258.38 131.249C1255.6 130.354 1252.46 130.343 1248.95 131.216L1241.49 105.32C1250.02 103.093 1257.58 103.113 1264.19 105.379C1270.85 107.633 1276.44 111.543 1280.98 117.11C1285.56 122.664 1288.95 129.271 1291.16 136.93C1293.58 145.35 1294.33 153.199 1293.4 160.478C1292.52 167.744 1289.98 173.974 1285.79 179.167C1281.61 184.359 1275.81 188.022 1268.41 190.156C1263.46 191.582 1258.82 192.024 1254.49 191.483C1250.22 190.973 1246.18 189.684 1242.38 187.618C1238.62 185.539 1234.98 182.853 1231.47 179.558C1228.52 176.788 1225.65 174.635 1222.87 173.099C1220.1 171.605 1217.15 170.737 1214.01 170.496C1210.88 170.297 1207.24 170.774 1203.08 171.926L1200.92 172.548L1193.99 148.493ZM1156.99 172.762C1155.77 168.531 1156.21 164.486 1158.31 160.629C1160.46 156.801 1163.64 154.305 1167.84 153.141C1171.97 151.904 1175.95 152.34 1179.76 154.448C1183.59 156.599 1186.11 159.791 1187.33 164.022C1188.49 168.042 1188.03 172.001 1185.94 175.901C1183.86 179.801 1180.75 182.37 1176.61 183.606C1173.81 184.369 1171.03 184.366 1168.29 183.597C1165.61 182.859 1163.24 181.549 1161.18 179.666C1159.17 177.771 1157.77 175.47 1156.99 172.762Z" fill="#3313F7"/>
<path d="M1223.07 351.488L1225.32 351.601C1233.01 352.031 1239.11 353.021 1243.62 354.57C1248.12 356.164 1251.72 358.328 1254.4 361.064C1257.09 363.8 1259.48 367.051 1261.58 370.816C1263.21 373.631 1264.91 376.164 1266.69 378.414C1268.47 380.664 1270.48 382.484 1272.7 383.874C1274.97 385.267 1277.53 386.035 1280.39 386.178C1283.42 386.331 1286.12 385.739 1288.48 384.403C1290.84 383.066 1292.7 381.197 1294.05 378.797C1295.4 376.44 1296.15 373.788 1296.3 370.841C1296.45 367.983 1295.94 365.246 1294.8 362.631C1293.69 360.018 1291.95 357.837 1289.57 356.086C1287.23 354.337 1284.27 353.306 1280.67 352.993L1282.02 326.078C1290.8 326.74 1297.95 329.215 1303.47 333.505C1309.03 337.796 1313.05 343.311 1315.53 350.049C1318.06 356.79 1319.13 364.14 1318.73 372.1C1318.29 380.852 1316.45 388.519 1313.2 395.102C1310.01 401.687 1305.59 406.756 1299.94 410.308C1294.3 413.86 1287.62 415.443 1279.93 415.056C1274.78 414.798 1270.25 413.71 1266.34 411.794C1262.46 409.924 1259.06 407.394 1256.14 404.205C1253.25 401.018 1250.69 397.296 1248.43 393.038C1246.54 389.46 1244.53 386.493 1242.4 384.137C1240.26 381.826 1237.75 380.046 1234.86 378.799C1231.97 377.595 1228.37 376.863 1224.06 376.602L1221.82 376.49L1223.07 351.488ZM1180.2 362.428C1180.42 358.03 1182.15 354.347 1185.38 351.38C1188.66 348.458 1192.47 347.129 1196.82 347.391C1201.14 347.564 1204.75 349.267 1207.68 352.5C1210.6 355.777 1211.95 359.615 1211.73 364.013C1211.52 368.191 1209.8 371.785 1206.56 374.797C1203.32 377.809 1199.55 379.229 1195.23 379.056C1192.33 378.866 1189.71 377.963 1187.37 376.346C1185.07 374.775 1183.25 372.766 1181.92 370.318C1180.63 367.873 1180.06 365.243 1180.2 362.428Z" fill="#3313F7"/>
<path d="M1184.67 552.926L1186.75 553.761C1193.89 556.667 1199.34 559.584 1203.1 562.513C1206.84 565.483 1209.54 568.697 1211.19 572.157C1212.84 575.616 1214.05 579.468 1214.81 583.712C1215.44 586.901 1216.22 589.849 1217.18 592.556C1218.13 595.263 1219.44 597.635 1221.09 599.672C1222.78 601.725 1224.95 603.283 1227.61 604.347C1230.43 605.477 1233.18 605.793 1235.84 605.295C1238.51 604.797 1240.87 603.633 1242.93 601.802C1244.98 600.012 1246.55 597.748 1247.64 595.009C1248.71 592.352 1249.12 589.601 1248.89 586.755C1248.69 583.926 1247.75 581.296 1246.07 578.867C1244.43 576.454 1241.95 574.516 1238.65 573.051L1248.67 548.033C1256.76 551.511 1262.72 556.175 1266.55 562.023C1270.41 567.887 1272.42 574.409 1272.59 581.588C1272.79 588.784 1271.41 596.081 1268.44 603.48C1265.19 611.615 1260.96 618.269 1255.75 623.443C1250.59 628.634 1244.76 631.992 1238.27 633.519C1231.78 635.045 1224.95 634.376 1217.8 631.512C1213.02 629.596 1209.09 627.097 1206 624.013C1202.95 620.986 1200.55 617.49 1198.82 613.523C1197.13 609.573 1195.91 605.218 1195.16 600.459C1194.53 596.46 1193.59 593.001 1192.34 590.081C1191.08 587.203 1189.28 584.704 1186.95 582.585C1184.6 580.507 1181.43 578.646 1177.44 577.001L1175.36 576.166L1184.67 552.926ZM1140.56 549.352C1142.2 545.264 1145.03 542.342 1149.05 540.586C1153.1 538.887 1157.14 538.868 1161.17 540.529C1165.19 542.093 1168.06 544.878 1169.78 548.885C1171.48 552.934 1171.51 557.002 1169.87 561.089C1168.32 564.973 1165.52 567.813 1161.48 569.611C1157.44 571.408 1153.41 571.525 1149.38 569.962C1146.7 568.84 1144.52 567.135 1142.82 564.844C1141.16 562.611 1140.09 560.121 1139.63 557.373C1139.2 554.642 1139.51 551.968 1140.56 549.352Z" fill="#3313F7"/>
<path d="M34.7995 712.604L109.414 663.817L122.374 682.509L50.5572 735.33L34.7995 712.604ZM148.578 650.5C150.915 653.871 151.73 657.591 151.023 661.661C150.282 665.754 148.214 668.952 144.82 671.255C141.507 673.603 137.821 674.394 133.762 673.629C129.703 672.865 126.504 670.797 124.167 667.426C121.925 664.192 121.145 660.523 121.828 656.419C122.512 652.315 124.51 649.09 127.823 646.742C130.094 645.218 132.567 644.386 135.242 644.245C137.859 644.094 140.367 644.548 142.766 645.607C145.13 646.69 147.067 648.321 148.578 650.5Z" fill="#3313F7"/>
<path d="M-56.4563 508.564L29.9564 486.647L36.1454 508.534L-48.9314 535.175L-56.4563 508.564ZM71.3229 486.768C72.439 490.715 72.0019 494.498 70.0116 498.118C67.9815 501.749 64.9874 504.103 61.0293 505.179C57.1336 506.323 53.3903 505.875 49.7992 503.834C46.2081 501.792 43.8546 498.798 42.7385 494.851C41.6676 491.064 42.1216 487.341 44.1006 483.681C46.0796 480.022 49.0169 477.619 52.9126 476.475C55.555 475.771 58.1643 475.786 60.7402 476.522C63.265 477.229 65.4896 478.472 67.414 480.253C69.2985 482.045 70.6014 484.217 71.3229 486.768Z" fill="#3313F7"/>
<path d="M-76.5155 285.948L12.3315 293.277L11.0785 315.988L-78.0389 313.56L-76.5155 285.948ZM51.4173 306.823C51.1914 310.919 49.5495 314.355 46.4918 317.132C43.3927 319.907 39.7966 321.161 35.7036 320.894C31.6473 320.712 28.2524 319.072 25.5187 315.975C22.7851 312.878 21.5312 309.282 21.7572 305.187C21.974 301.257 23.6124 297.883 26.6724 295.064C29.7324 292.245 33.2906 290.927 37.3468 291.11C40.0748 291.302 42.5375 292.164 44.7351 293.696C46.8936 295.184 48.5938 297.083 49.8357 299.392C51.0362 301.699 51.5634 304.176 51.4173 306.823Z" fill="#3313F7"/>
<path d="M-23.2053 68.8811L58.4479 104.662L49.8888 125.735L-33.6119 94.5028L-23.2053 68.8811ZM91.0175 130.165C89.4741 133.965 86.8054 136.682 83.0116 138.316C79.1794 139.935 75.371 139.953 71.5865 138.371C67.8092 136.882 65.1306 134.228 63.5506 130.412C61.9706 126.595 61.9523 122.787 63.4958 118.987C64.9769 115.34 67.6222 112.681 71.4316 111.008C75.241 109.336 79.0344 109.245 82.8117 110.734C85.3295 111.801 87.3789 113.416 88.96 115.579C90.5182 117.688 91.5098 120.035 91.9346 122.623C92.321 125.194 92.0153 127.709 91.0175 130.165Z" fill="#3313F7"/>
<path d="M1220.37 59.9374L1138.75 95.778L1129.04 75.2084L1208.57 34.9278L1220.37 59.9374ZM1097.92 102.467C1096.17 98.758 1095.98 94.9544 1097.35 91.0565C1098.75 87.141 1101.32 84.3267 1105.05 82.6137C1108.7 80.8435 1112.47 80.6696 1116.34 82.0921C1120.22 83.5146 1123.04 86.0805 1124.79 89.7898C1126.47 93.3492 1126.63 97.0966 1125.28 101.032C1123.93 104.967 1121.43 107.82 1117.78 109.59C1115.29 110.72 1112.71 111.134 1110.05 110.832C1107.44 110.551 1105.04 109.69 1102.85 108.25C1100.7 106.793 1099.05 104.865 1097.92 102.467Z" fill="#3313F7"/>
<path d="M1276.8 276.215L1187.96 283.609L1185.46 261.002L1273.76 248.728L1276.8 276.215ZM1147.18 276.681C1146.72 272.604 1147.78 268.945 1150.34 265.702C1152.94 262.455 1156.28 260.626 1160.36 260.216C1164.39 259.728 1168.01 260.787 1171.22 263.391C1174.42 265.996 1176.25 269.337 1176.7 273.413C1177.13 277.325 1176.07 280.923 1173.52 284.207C1170.96 287.491 1167.67 289.377 1163.64 289.865C1160.92 290.124 1158.35 289.679 1155.93 288.53C1153.55 287.417 1151.56 285.824 1149.96 283.751C1148.4 281.673 1147.47 279.316 1147.18 276.681Z" fill="#3313F7"/>
<path d="M1259.94 499.096L1173.52 477.243L1178.49 455.048L1265.99 472.111L1259.94 499.096ZM1137.19 457.448C1138.09 453.446 1140.27 450.327 1143.75 448.091C1147.26 445.863 1151.01 445.219 1155.01 446.156C1158.98 447.003 1162.06 449.179 1164.24 452.684C1166.43 456.188 1167.08 459.942 1166.18 463.944C1165.32 467.785 1163.15 470.843 1159.66 473.12C1156.18 475.396 1152.46 476.111 1148.48 475.264C1145.83 474.625 1143.54 473.37 1141.62 471.497C1139.74 469.673 1138.37 467.521 1137.53 465.039C1136.72 462.566 1136.61 460.036 1137.19 457.448Z" fill="#3313F7"/>
<path d="M1171.63 704.428L1096.98 655.696L1108.89 636.319L1186.11 680.868L1171.63 704.428ZM1069.05 625.179C1071.2 621.685 1074.28 619.444 1078.29 618.457C1082.34 617.492 1086.1 618.1 1089.57 620.284C1093.05 622.374 1095.26 625.432 1096.19 629.457C1097.12 633.481 1096.51 637.241 1094.36 640.735C1092.3 644.088 1089.25 646.276 1085.22 647.298C1081.19 648.321 1077.43 647.787 1073.95 645.696C1071.64 644.229 1069.89 642.298 1068.68 639.905C1067.49 637.569 1066.9 635.09 1066.91 632.468C1066.95 629.868 1067.67 627.438 1069.05 625.179Z" fill="#3313F7"/>
</g>
<defs>
<clipPath id="clip0_3_3294">
<rect width="1200" height="675" fill="white"/>
</clipPath>
</defs>
</svg>
