<?xml version="1.0" encoding="UTF-8" standalone="no"?>
<svg xmlns="http://www.w3.org/2000/svg" width="215.69913" height="666.48743" version="1.0">
  <path fill="#fdd61f" d="M180.02253 666.308485c-.21551-.21551-4.61726-.4266-9.78165-.46909-5.1758-.0426-10.78188-.65303-12.49166-1.36021-1.70602-.70563-5.08102-1.59706-7.5-1.98094-4.70317-.74639-16.09877-3.95135-19.39815-5.45565-1.1-.50153-5.29285-2.12389-9.31744-3.60524-4.0246-1.48136-10.5496-4.48948-14.5-6.68472-3.95041-2.19523-9.65756-5.34339-12.68256-6.9959-4.85162-2.65037-16.505-11.57861-19.62736-15.0375-.62005-.68688-1.97005-1.9491-3-2.80494-14.57125-12.108-22.29638-22.34633-24.60865-32.61455-1.74544-7.75107-1.2756-29.41313 1.15387-53.19946.47019-4.60354.96973-17.20354 1.11009-28 .31965-24.58769.31991-24.56425-.41408-36.62992-1.71093-28.12523-2.72833-40.4123-3.59702-43.44126-.5274-1.83891-.75998-3.66535-.51685-4.05874.24313-.39339.00085-2.24182-.53839-4.10763-.53925-1.8658-1.89523-9.91737-3.01329-17.89237-3.09648-22.08684-3.57824-24.86322-5.83477-33.62546-1.15089-4.469-2.34868-10.994-2.66174-14.5-.31307-3.506-1.17663-8.84954-1.91903-11.87454-.7424-3.025-2.5336-12.025-3.98045-20s-3.51311-17.2-4.59169-20.5c-1.07858-3.3-1.96096-6.99133-1.96085-8.20295.00012-1.21162-.39958-3.23662-.88821-4.5-.48864-1.26338-1.39834-5.62449-2.02157-9.69137-.62323-4.06687-1.75026-8.79187-2.50451-10.5-2.25474-5.10619-2.66267-6.60781-5.05447-18.60568-1.26089-6.325-3.03772-15.1-3.94851-19.5-.91078-4.4-2.28647-11.15-3.05709-15-3.80159-18.99265-3.84407-64.0242-.0739-78.31634.7346-2.78473 1.12705-5.27172.87212-5.52665-.25493-.25493.19533-4.44455 1.00056-9.31026.80524-4.86571 1.46487-9.52175 1.46585-10.346751.008-6.63067 6.06009-33.26894 9.20167-40.5.4779-1.1 1.42215-3.8 2.09833-6 1.47018-4.78333 4.61253-10.62706 10.62423-19.75754 5.90941-8.975125 26.47126-29.628785 32.28569-32.429848 20.9483-10.091701 26.43691-11.735944 43-12.88165 11.55098-.799007 13.9915-.572335 24 2.229083 5.82676 1.630936 20.42363 8.539387 23.07874 10.922778.86831.779447 1.9072 1.417177 2.30864 1.417177 1.98636 0 13.74729 10.730023 21.37055 19.497302 2.80484 3.225768 8.24207 11.377018 8.24207 12.356148 0 .49591.63085 1.42522 1.40189 2.06512.77103.63991 1.70609 2.38251 2.07791 3.87245.37181 1.48994 1.24045 3.38398 1.93031 4.20898.68986.825 2.28137 3.975 3.53669 7 1.25532 3.025 2.77932 6.11478 3.38666 6.86617 1.49162 1.84541 3.40202 7.13423 5.8134 16.09405 1.10428 4.10312 2.38361 8.16245 2.84294 9.02073 1.0342 1.93241 5.607 18.782331 8.011 29.519051 3.80026 16.97266 4.16831 21.32493 4.19689 49.62919.0265 26.28239-.70327 37.46098-3.77819 57.87081-.20716 1.375-.63909 5.65-.95986 9.5-.32077 3.85-.96952 8.575-1.44166 10.5-.47214 1.925-1.16149 5.862-1.53189 8.74888-.3704 2.88689-1.0813 5.50095-1.57977 5.80902-.49848.30807-.92235 1.99608-.94194 3.75112-.0196 1.75504-.72752 5.89098-1.57317 9.19098s-2.38007 10.05-3.40983 15c-3.36242 16.16308-5.74809 25.86026-7.74952 31.5-.29278.825-.67481 2.2083-.84896 3.074-.17415.8657-1.05691 4.2407-1.9617 7.5-.90478 3.2593-1.71019 6.826-1.78979 7.926-.0796 1.1-.40459 2.45-.72221 3-.31763.55-1.1638 3.7-1.88039 7-.71658 3.3-2.60771 11.0305-4.2025 17.17889-1.5948 6.14839-3.10243 12.76292-3.35031 14.69896-.24787 1.93604-1.12483 5.45554-1.94879 7.82111-.82395 2.36557-1.50465 5.27623-1.51266 6.46813-.008 1.19191-.83685 4.11691-1.84189 6.5-1.00503 2.3831-2.38182 6.58291-3.05953 9.33291-.6777 2.75-1.84527 7.475-2.5946 10.5-.74932 3.025-2.10603 10-3.01489 15.5-.90886 5.5-2.08558 11.35-2.61493 13-.52935 1.65-1.65442 7.95-2.50016 14-.84573 6.05-1.73996 12.125-1.98718 13.5-1.1211 6.23541-3.58661 31.41036-3.9174 40-.20121 5.225.0544 12.65.56814 16.5.51369 3.85 1.3753 11.83331 1.91469 17.74069 1.28733 14.09892 3.77381 26.94159 6.53855 33.77166 1.22724 3.03179 2.55021 6.96413 2.93993 8.73853.38973 1.7744 1.10154 3.46904 1.58181 3.76587 1.04931.6485 6.97291 12.13232 6.97291 13.51806 0 1.76547 8.39544 17.93155 11.75 22.62554 1.2375 1.73161 2.25193 3.52892 2.25428 3.99402.002.4651 1.37279 2.87063 3.04542 5.34563 2.55521 3.78097 5.9503 10.38548 5.9503 11.57521 0 1.44525-15.20966 5.8818-16.32854 4.76291z"/>
  <path fill="#ed1c2e" d="m60.69415 162.273185-16.71256-1.01711c-1.66986-.10162-22.36877-50.449996-21.51258-56.499997 2.81747-19.90886-10.17191-26.034304-7.02928-32.022144.50124-.95504.91134-2.23703.91134-2.84887 0-2.17753 7.23666-17.87814 8.25-17.89915.4125-.0085.75-.62957.75-1.38004s1.34281-2.88797 2.98403-4.75c1.64121-1.86203 2.99121-3.87183 3-4.46623.0279-1.8864 21.09084-22.494323 26.41018-25.839621 2.80818-1.766052 7.58079-4.245521 10.60579-5.509932 3.025-1.26441 5.95-2.635464 6.5-3.046786 1.46991-1.099285 10.98729-3.836172 18.98525-5.459537 4.87199-.988878 7.36403-1.103457 8.23727-.378732.6886.571493 2.04524.723557 3.01475.337919C108.68147.063717 111.7458-.09048 116.73307.906991c2.8149.562988 6.59289 1.266162 8.39553 1.562607 6.4554 1.061594 20.62887 7.821599 29.09184 13.875288 2.40316 1.719013 5.03193 3.575478 5.84173 4.125478 3.06836 2.083972 12.2889 11.94905 12.2889 13.14792 0 .688985.69883 1.643786 1.55296 2.12178.85413.477994 3.32357 3.53785 5.48766 6.79969s4.33806 6.41824 4.83104 7.01423c.49299.59598 1.2093 2.50848 1.5918 4.25.3825 1.74151 1.12083 3.16638 1.64075 3.16638.51991 0 1.39344 1.2375 1.94118 2.75 1.3292 3.67041 2.13294 5.50076 6.03788 13.75 4.64386 9.8102 15.08436 46.890011 18.30195 65.000001 3.44867 19.41059 2.04279 79.063-1.80905 76.75962-.68414-.4091-.66221-.11825.0602.79842 1.08309 1.37439 1.09787 7.57384.0308 12.94196-.27331 1.375-.8406 5.65-1.26065 9.5-.42006 3.85-.82864 7.225-.90798 7.5-.0793.275-.47789 3.2-.88568 6.5-.40779 3.3-1.83752 10.40553-3.17716 15.79006-1.33965 5.38454-2.43573 11.32048-2.43573 13.19099 0 1.8705-.39074 3.6424-.8683 3.93756-.47757.29515-1.17336 3.233-1.54621 6.52856-.37285 3.29555-1.11446 6.26172-1.64801 6.59147-.53356.32976-.76991.92348-.52522 1.31939.24468.3959-.36827 3.85231-1.36212 7.6809-.99384 3.82859-2.40452 9.77357-3.13484 13.21107-.73032 3.4375-1.68503 6.25-2.12158 6.25-.43654 0-.79906 1.0125-.80559 2.25-.007 1.2375-.72914 4.725-1.6058 7.75-.87667 3.025-1.70539 6.4-1.8416 7.5-.13622 1.1-.82823 4.025-1.53781 6.5-.70958 2.475-1.65787 6.075-2.10731 8-.44944 1.925-1.74954 7.325-2.88911 12s-2.73753 11.875-3.55102 16c-.81349 4.125-1.92377 8.28139-2.46728 9.23643-.54351.95504-.9882 2.60742-.9882 3.67196 0 1.06453-1.28392 5.71035-2.85315 10.32404-1.56924 4.61369-13.17142-28.05298-13.56042-25.88624-.38899 2.16673-9.32018-2.21048-9.80741-.56048l-4.18842-43.89072-12.75984-38.89071-13.83128 5.75214 1.88302-29.96215-17.40271-45.67644-15.61699 6.46642-20.97412-48.53357z"/>
  <path fill="#157a40" d="M28.56224 285.108765c1.8586 3.53889 7.47392 9.8616 8.75828 9.8616.5668 0 1.03055.43534 1.03055.96742 0 .53207 2.98795 3.79457 6.63988 7.25 3.65194 3.45542 9.38944 8.88743 12.75 12.07113 3.36057 3.18371 7.57797 6.78371 9.37201 8 5.365 3.63729 3.92828 5.049-6.43662 6.32457-14.60916 1.79789-14.65116 1.81663-13.85656 6.18175.81991 4.50417 5.99423 20.38113 8.21438 25.20513 2.92629 6.35831 8.96774 13.89487 21.72105 27.09645 7.12037 7.37067 12.59586 13.86338 12.59586 14.9359 0 2.65132-2.91013 3.93029-11.28162 4.95814-10.95801 1.34543-13.24248 2.2348-13.08802 5.09531.35214 6.52164 1.36614 12.00668 2.6943 14.57434 1.50712 2.91363 10.22323 11.54865 16.96401 16.80618 3.50649 2.73492 17.92652 15.96932 20.21133 18.54953.55.62111 2.0125 2.16074 3.25 3.42139 2.69045 2.74079 2.91456 5.09192.5 5.24549-9.82842.62507-15.74341 1.41068-16.52792 2.19519-.59468.59468.25552 2.00001 2.28926 3.78404 8.52081 7.47461 21.98866 23.30684 21.98866 25.84894 0 .35888 1.48096 2.52824 3.29102 4.8208 3.95036 5.00341 6.89626 11.07257 9.30406 19.1683.98148 3.3 2.37409 6.71043 3.09471 7.57874.72062.86831 1.31021 1.90247 1.31021 2.29815 0 .39567 2.025 5.02382 4.5 10.28478s4.5 10.01553 4.5 10.5657c0 .55018.98543 2.75366 2.18985 4.89663 3.0518 5.42995 4.26968 3.43806 2.37305-3.88125-.85959-3.31729-1.5629-7.03673-1.5629-8.26542l8.47868-1.47733c.258 2.2.67791 6.25.93313 9 .25523 2.75 1.19907 9.05 2.09741 14 .89835 4.95 1.74887 10.15244 1.89005 11.56097.14117 1.40854 1.68408 5.98975 3.42869 10.18048 1.74461 4.19074 3.17201 8.08081 3.17201 8.64462 0 .56381 1.08399 2.62247 2.40887 4.57479 1.32489 1.95232 3.81452 7.0348 5.53253 11.29441 1.71802 4.2596 3.57054 8.41973 4.11673 9.24473.54619.825 2.13954 3.8625 3.54078 6.75 1.40124 2.8875 2.85487 5.25 3.23029 5.25.37542 0 1.31935 1.4625 2.09762 3.25.77828 1.7875 2.41888 4.6 3.64579 6.25 2.14132 2.87974 5.42739 9.87214 5.42739 11.54888 0 .44255-1.4625 1.57611-3.25 2.51902-4.72773 2.49388-26.93587 2.61988-34.694.19683h.00003c-3.0558-.9544-6.99194-1.7419-8.74698-1.75-1.75504-.008-3.4449-.42557-3.75524-.92772-.31034-.50214-2.4744-1.23035-4.80902-1.61825-2.33462-.38789-5.39162-1.29173-6.79333-2.00852-1.40171-.7168-5.41459-2.26876-8.9175-3.44881-7.42375-2.50088-23.69818-10.42083-26.38892-12.84217-1.02024-.91809-1.92024-1.48703-2-1.2643-.32534.90856-6.48524-3.03362-11.64501-7.45252-3.025-2.59065-7.92197-6.78976-10.88216-9.33136-8.83119-7.58239-18.06713-17.12233-19.77602-20.42696-.88064-1.70298-2.2066-3.70175-2.94656-4.44172-4.94675-4.94675-5.91447-27.68601-2.43649-57.2524.68654-5.83624.98716-17.17234 1.32597-50 .10272-9.9525-.63312-27.43832-1.85161-44-.94216-12.80566-1.60478-17.95065-4.1159-31.95821-.83396-4.65202-1.65863-9.82702-1.83259-11.5-1.0265-9.87145-3.73078-26.06784-5.42674-32.50164-1.08153-4.10291-2.23833-9.95291-2.57066-13-.33234-3.04708-1.45772-9.59015-2.50087-14.54015-1.04314-4.95-2.81681-13.35958-3.94149-18.68794-1.12469-5.32837-2.05022-10.95337-2.05675-12.5-.007-1.54664-.72131-5.28706-1.58841-8.31206-.8671-3.025-1.96524-7.3-2.4403-9.5z"/>
  <path fill="#020301" d="M170.8673 664.856745c-2.09942-.34125-4.6111-.41283-5.58151-.15906-1.95378.51093-26.29951-5.51566-34.93472-8.6478-12.12413-4.39763-15.80859-5.98795-23-9.9275-4.125-2.25973-8.625-4.66296-10-5.34052-4.63897-2.28593-13.47104-8.56819-18-12.80341-2.475-2.31448-5.34968-4.81155-6.38818-5.54905-4.81604-3.42016-14.824-14.12578-19.07521-20.40496-7.00693-10.34947-7.67427-13.50262-6.98799-33.01769.31985-9.09502.75074-18.33639.95755-20.53639 1.38355-14.71849 1.66383-22.08504 1.80726-47.5.20551-36.41781-.80191-54.4511-4.27365-76.5-1.52076-9.65826-3.99566-26.40268-5.09926-34.5-.5622-4.125-1.9032-11.24545-2.97999-15.82321-2.08908-8.88132-2.45696-10.84779-3.49401-18.67679-.36427-2.75-1.51826-8.44998-2.56442-12.66661-1.04615-4.21664-1.90697-8.94164-1.91292-10.5-.006-1.55837-.69525-5.08339-1.53177-7.83339s-1.73469-7.25-1.99594-10c-.67769-7.13373-1.57798-11.52721-3.11839-15.21788-.7387-1.76984-1.34308-4.80734-1.34308-6.75 0-1.94267-.36225-3.53212-.805-3.53212-.44275 0-1.38495-3.4875-2.09378-7.75-.70883-4.2625-2.17207-10.225-3.25165-13.25-1.07958-3.025-2.62213-8.65-3.42788-12.5-.80575-3.85-1.70451-8.125-1.99723-9.5-.29273-1.375-1.3887-5.875-2.43549-10-1.04678-4.125-2.15496-9.50449-2.46261-11.95443-.30765-2.44994-1.03478-6.21999-1.61584-8.37789-1.27068-4.71894-1.70896-12.36047-2.33247-40.66768-.44492-20.19881-.30151-22.52885 2.3696-38.5 1.56374-9.35 3.1479-20.15 3.52036-24 .37245-3.850001 1.52992-11.275001 2.57215-16.500001 1.04223-5.225 2.10718-10.625 2.36657-12 .25939-1.375 1.42003-4.975 2.57922-8 1.15919-3.025 3.05669-8.2 4.21668-11.5 1.15999-3.3 3.16394-7.67856 4.45322-9.73013 1.28928-2.05157 2.34415-4.01181 2.34415-4.35609 0-.34429 1.35-2.33049 3-4.41378s3-4.00629 3-4.27332c0-.26703 1.6875-2.23785 3.75-4.37959 2.0625-2.141737 4.88783-5.233499 6.27852-6.87058 5.10117-6.004962 14.69654-14.03898 19.51863-16.342561C78.90962 5.500002 81.23414 4.586508 89.35107 2.92288c4.74742-.973021 17.16463-2.054352 23.5-2.046455 3.96383.0049 15.50533 2.293541 16.05547 3.183692.30941.500636 1.33017.910247 2.26836.910247.93818 0 3.27412.840578 5.19098 1.867951 1.91685 1.027372 3.93519 1.926532 4.48519 1.998132.55.0716 4.70156 2.392138 9.22568 5.156751 8.96794 5.480148 22.27432 17.603099 22.27432 20.29331 0 .926121.66344 1.683856 1.47432 1.683856s2.20876 1.42026 3.10641 3.15612c.89766 1.73587 2.04055 3.64837 2.53977 4.25 2.33353 2.81225 5.8795 8.81146 5.8795 9.94716 0 .69545.67525 2.13797 1.50056 3.20559 1.77548 2.29679 5.49944 10.24621 5.49944 11.73951 0 .57428.60278 1.75457 1.33952 2.62288 2.08731 2.46008 5.2217 11.21222 10.05578 28.07874 8.84143 30.848501 10.34711 38.810201 11.08484 58.614201.28449 7.63719.5743 14.3358.64401 14.8858.30406 2.39887-1.36832 33.51445-2.06927 38.5-.42531 3.025-.83664 4.91094-.91408 4.19098-.0774-.71996-.58158-1.03659-1.12032-.70364-.62698.3875-.58434 1.23817.11848 2.36357 2.0793 3.32948-4.2374 48.51078-9.67676 69.21469-.80421 3.06109-1.4622 6.99859-1.4622 8.75 0 1.75142-.45 3.1844-1 3.1844s-1 .97609-1 2.16908c0 2.5005-4.76378 23.34648-6.01721 26.33092-.46199 1.1-1.81836 6.05-3.01416 11s-2.54555 9.9-2.99944 11c-.45389 1.1-1.10983 3.8-1.45763 6-.34781 2.2-1.02862 5.35-1.51292 7-1.10317 3.7585-5.70096 22.97542-6.45996 27-1.0022 5.31418-1.36948 6.86207-3.55919 15-1.18393 4.4-2.51127 8.45-2.94964 9-1.14713 1.43925-5.02985 17.82527-5.02985 21.22719 0 1.58004-.40007 3.30031-.88905 3.82281-.48897.5225-1.13565 3.425-1.43706 6.45-.30141 3.025-.99493 6.9625-1.54115 8.75-.54622 1.7875-.81068 3.25-.58769 3.25.223 0-.0672 1.2375-.64479 2.75-1.20415 3.15302-1.5706 5.35772-2.92519 17.59883-.53855 4.86685-1.20556 9.21509-1.48223 9.66275-.44034.71248-.82431 3.98255-1.93608 16.48842-.73092 8.22176-2.00413 31.1853-1.80197 32.5.30914 2.0104 1.12547 9.56733 2.21448 20.5 1.27337 12.78345 4.96882 34.8394 5.94277 35.46888.45197.29212 1.85766 3.45612 3.12375 7.03112 1.2661 3.575 2.67692 6.99723 3.13518 7.60496 1.53443 2.03496 5.56984 10.00173 6.31232 12.46189 1.27243 4.21613 9.93931 21.28166 11.74366 23.12386.94982.96975 2.34981 3.25391 3.11109 5.0759.76127 1.82199 2.01712 3.96986 2.79076 4.77305 1.57167 1.63169 5.41173 9.84646 4.77767 10.22054-4.32515 2.55169-6.5999 3.19546-12.98979 3.67616-4.17082.31376-9.30102.29128-11.40045-.05zm9.48377-10.50741c0-1.23796-1.89604-4.1463-4.34755-6.66871-2.39115-2.46032-4.62702-5.20162-4.96861-6.09178-.34159-.89016-1.08519-1.61848-1.65246-1.61848-.56726 0-1.03138-.56742-1.03138-1.26093 0-.69351-1.55136-3.05601-3.44748-5.25-1.89611-2.19399-4.4083-5.91283-5.58265-8.26409-1.17434-2.35126-4.12298-6.29137-6.55252-8.75581-2.42954-2.46443-4.41735-4.89785-4.41735-5.40759 0-.50974-.82795-1.18959-1.83989-1.51076-1.01194-.32118-2.45852-1.73989-3.21464-3.1527-.75611-1.41281-2.64749-3.22691-4.20307-4.03133-1.55558-.80442-3.22836-2.51475-3.71729-3.80074-.48893-1.28598-2.27488-2.95162-3.96877-3.70141-1.6939-.74979-3.32255-2.12805-3.61923-3.0628-.29668-.93474-1.34435-1.95501-2.32815-2.26726-.98381-.31225-2.38683-1.68526-3.11783-3.05115-.731-1.36589-2.12039-2.48343-3.08753-2.48343-.96714 0-2.64336-1.125-3.72494-2.5-1.08158-1.375-2.38249-2.5-2.89093-2.5-.50843 0-2.69367-1.57796-4.85608-3.50658-2.16241-1.92861-4.71915-3.75894-5.68165-4.06738-.9625-.30845-1.75-1.25364-1.75-2.10042 0-.98227-.56323-1.32347-1.5559-.94254-.85574.32838-3.21824-.10533-5.25-.96379-4.09585-1.73058-9.74579-2.77804-15.4441-2.86323-2.0625-.0308-3.75-.44234-3.75-.91447 0-.47212-1.2375-.54102-2.75-.15311-1.5125.38792-3.86102.91337-5.21894 1.16767-1.35792.2543-2.97432.8818-3.59201 1.39443-.61769.51264-1.44295.61219-1.83391.22122-.39097-.39096-.39036.17545.001 1.25868.3917 1.08324.3421 1.63364-.11023 1.22311-1.12383-1.01999-4.42025 4.62748-6.20084 10.62337-1.23345 4.1535-1.25442 5.34723-.13222 7.52955.73349 1.42642 1.61202 2.81849 1.95229 3.09349.34027.275 2.32589 3.2 4.41249 6.5 2.08659 3.3 7.31886 9.5346 11.62725 13.85466 4.30839 4.32007 7.58444 8.25757 7.28009 8.75-.30434.49244.14307.89534.99424.89534 1.67183 0 4.6501 2.16962 7.89312 5.75 1.1209 1.2375 2.87097 2.25 3.88905 2.25 1.01808 0 2.09952.6475 2.4032 1.43889.30369.79139 1.83347 1.72032 3.39952 2.06428 1.56605.34396 3.37945 1.26651 4.02977 2.0501.65032.78359 1.58142 1.17811 2.0691.8767.48768-.3014.88669-.0921.88669.46504 0 .55717 2.7 2.25237 6 3.7671 3.3 1.51474 6 3.13698 6 3.60499 0 .46802.37666.61814.83703.33362.46037-.28452 1.91425.2372 3.23085 1.15938 1.31659.92218 3.30243 1.72631 4.41296 1.78697 1.11054.0607 2.69416.37742 3.51916.70391 6.94234 2.74744 15.86695 5.20198 22.22106 6.11146.94658.13549 2.03408.55936 2.41666.94195.38259.38259 2.87061.69561 5.52895.69561 2.65833 0 4.83333.42853 4.83333.95228 0 .52376 2.8125 1.09363 6.25 1.26639 9.96394.50075 9.75.54112 9.75-1.8397zm-25.5-6.00692c-7.92167-1.56826-12.65919-2.8206-13.0476-3.44906-.24991-.40438-1.30316-.51327-2.34054-.24199-1.03738.27128-2.18849.004-2.55802-.59388-.36953-.59792-1.98005-1.08712-3.57893-1.08712-2.52745 0-9.52546-2.55055-10.97491-4-.275-.275-1.60104-.62288-2.94675-.77307-1.34572-.15019-3.14572-.86055-4-1.57858-.85429-.71803-4.02825-2.5019-7.05325-3.96415-3.025-1.46225-7.36719-4.35189-9.64932-6.42142-2.28213-2.06953-5.80979-5.11278-7.83925-6.76278-9.26322-7.53124-21.51502-19.40952-21.49612-20.84076.008-.63758.41006-1.78253.89252-2.54434.69149-1.09187 1.14379-.88018 2.13652 1 .69262 1.31181 2.54099 3.70803 4.10748 5.32494 1.56649 1.61691 2.84817 3.33097 2.84817 3.80902 0 .47804.38459.63149.85464.34098.47005-.29051 1.89849.58293 3.17431 1.94098 1.27582 1.35805 2.90586 2.46918 3.62231 2.46918s2.03976 1.125 2.9407 2.5c.90093 1.375 2.26131 2.5 3.02305 2.5.76174 0 1.38499.63925 1.38499 1.42054 0 .78385 1.4286 1.73432 3.18737 2.12061 1.75305.38504 3.98808 1.65829 4.96673 2.82946.97865 1.17116 1.79433 1.79189 1.81263 1.37939.0301-.67763.87012-.019 6.11716 4.79642.87114.79947 2.06049 1.45358 2.64301 1.45358.58252 0 1.31814.675 1.63473 1.5.31658.825 1.44158 1.5 2.5 1.5 1.05841 0 2.19151.69611 2.518 1.54691.32648.8508 1.16213 1.44551 1.85699 1.32157 1.53084-.27304 9.76338 3.33065 9.76338 4.2738 0 .36876.9.43513 2 .14747 1.1515-.30112 2-.0307 2 .63746 0 .63825.5625 1.04877 1.25.91226.6875-.13652 3.5.48224 6.25 1.375 2.75.89277 7.3625 2.19481 10.25 2.89342 2.8875.69862 5.25 1.63514 5.25 2.08116 0 .83822-.15057.8461-3.5.183zm-19.45225-15.32138c-.79874-.50529-1.78808-.71116-2.19852-.45749-.41045.25367-3.10365-.67602-5.9849-2.06598-2.88125-1.38996-5.77432-2.5272-6.42904-2.5272-.65472 0-1.74649-.67005-2.42615-1.48899-.67967-.81894-1.63794-1.24042-2.12951-.93662-.49157.30381-1.16372-.15115-1.49368-1.01101-.32996-.85986-1.25893-1.56338-2.06437-1.56338-.80544 0-2.06354-.5625-2.79578-1.25-.73223-.6875-3.85009-3.03639-6.92857-5.21977-3.07847-2.18337-5.59723-4.32087-5.59723-4.75 0-.42912-.72766-.78023-1.61702-.78023-.88936 0-3.36386-1.8-5.49889-4-2.13503-2.2-4.33237-4-4.88298-4-.55061 0-1.00111-.46085-1.00111-1.02411 0-.56326-1.575-3.31375-3.5-6.11221s-3.5-5.60436-3.5-6.23535c0-2.48089 9.36221-6.46932 10.57592-4.50549.29816.48244 1.64056.87716 2.9831.87716 1.34254 0 2.44098.45 2.44098 1s.9 1 2 1 2 .45 2 1 .80066 1 1.77924 1c.97858 0 2.44108.95088 3.25 2.11306.80892 1.16218 2.71843 3.71185 4.24336 5.66593 2.78031 3.56277 4.43784 7.84391 3.42793 8.85381-.29682.29682-3.16336-2.85414-6.3701-7.00213s-6.33783-7.56179-6.95799-7.58623c-.62015-.0244-1.66555-.69269-2.32311-1.485-.65756-.79231-1.83386-1.19562-2.61401-.89624-.78016.29937-1.65901-.0826-1.95302-.84873-.29401-.76617-1.82336-1.49124-3.39856-1.61127-3.39318-.25855-4.82217 2.20122-2.58087 4.44253.82342.82342 1.5121 2.25248 1.5304 3.1757.0183.92321.80727 2.57857 1.75327 3.67857 2.28794 2.6604 8.81482 7.5 10.1148 7.5.56913 0 1.62545 1.12733 2.34738 2.50517 1.20434 2.29856 10.85378 9.49483 12.73158 9.49483.44315 0 1.07569.70352 1.40565 1.56338.32996.85986 1.02545 1.3004 1.54553.97897.52008-.32143 1.36321.16181 1.87361 1.07385.51041.91205 2.31617 1.76747 4.0128 1.90094 1.69662.13347 3.81382.97171 4.70487 1.86276.89105.89106 2.26295 1.6201 3.04867 1.6201.78571 0 1.42857.49814 1.42857 1.10699 0 .60884.64593.85912 1.43539.55618.78947-.30295 1.57697-.15374 1.75.33157.17304.48531 1.43961 1.03393 2.81461 1.21914 2.98197.40168 5 1.55 5 2.84514 0 1.20183-4.04822 1.19616-5.95225-.008zm14.72797-3.6054c-1.80164-1.9551-7.8797-8.3676-13.50679-14.25-5.62709-5.8824-10.23959-11.27189-10.25-11.97665-.0104-.70477-.80643-1.56731-1.76893-1.91676-.9625-.34945-3.4388-2.13533-5.50288-3.96861-2.06409-1.83329-4.12935-3.33325-4.58949-3.33325-.46013 0-1.37568-1.18315-2.03456-2.62923-.65887-1.44607-1.47292-2.35425-1.80899-2.01818-.33607.33607-1.33172-.19056-2.21256-1.17028-2.6315-2.92693-15.35788-10.10337-18.81726-10.61109-.71748-.10531-1.86245-.77925-2.54438-1.49766-1.01302-1.06721-.5995-1.18764 2.26012-.65821 1.925.35639 4.48451.64109 5.6878.63267 1.31225-.009 2.43976.77853 2.81739 1.96833.34627 1.09101 1.39913 1.98365 2.33969 1.98365.94056 0 2.71024.70052 3.93261 1.5567 1.22238.85619 2.22251 1.28329 2.22251.94911 0-.33417 1.50498.54031 3.34439 1.9433 1.83942 1.40299 3.71778 2.55089 4.17414 2.55089.45635 0 3.61428 2.925 7.01762 6.5 3.40333 3.575 6.66965 6.5 7.25848 6.5.58883 0 1.35735.90349 1.70783 2.00775.35048 1.10426 3.7558 5.12013 7.56739 8.92416 3.81158 3.80403 6.93015 7.17213 6.93015 7.48465 0 .31253.88774 1.58922 1.97276 2.8371 2.39891 2.75899 8.16098 11.74634 7.53094 11.74634-.24874 0-1.92633-1.59963-3.72798-3.55473zm-24.69473-11.37503c-1.14454-.99266-2.08099-2.31455-2.08099-2.93754 0-.62298-.45-1.1327-1-1.1327-1.53371 0-5-3.81292-5-5.5 0-1.94562.59944-1.89189 2.78875.25.98381.9625 3.38216 3.13146 5.32967 4.8199 1.94752 1.68845 3.83999 3.5538 4.20551 4.14522 1.19291 1.93016-2.10832 2.20647-4.24294.35512zm-57.58099-21.84645c-.55-.39808-2.22976-3.162-3.73281-6.14205-2.00601-3.97726-2.44853-5.76078-1.66391-6.70619.5879-.70837.81129-1.70476.49643-2.21421-.51637-.8355 1.91263-4.63511 5.05754-7.91134.65994-.6875 2.41214-1.25 3.89377-1.25 2.28117 0 2.50315.2298 1.44898 1.5-.68469.825-1.83265 1.5-2.55102 1.5-1.72898 0-4.60944 2.93136-3.94186 4.01152.28903.46766.0829 1.12383-.45805 1.45816-1.23617.76399-.27036 6.28464 1.63363 9.33801 1.58064 2.53483 1.43674 7.58825-.1827 6.4161zm10.25-22.00451c-1.5125-.19367-2.75-.77223-2.75-1.2857 0-1.26082 3.72192-1.19254 4.51008.0827.34546.55897 1.04702.75742 1.55902.44098.51199-.31643.9309-.35032.9309-.0753 0 .90672-1.46062 1.19449-4.25.83732zm73.40172 16.46353c-.55099-.6639-1.99364-3.90163-3.20588-7.19495-1.21225-3.29332-2.82098-6.69829-3.57496-7.5666-.75399-.86831-1.37088-2.23068-1.37088-3.02749 0-.79682-.75094-2.52087-1.66875-3.83123-1.6275-2.32358-1.68728-2.33239-2.41819-.35655-.49032 1.32545.0411 3.71464 1.53693 6.90997 1.25751 2.68622 2.56027 6.35066 2.89503 8.14319.61849 3.31191 3.93161 8.74431 6.65498 10.91194 1.22277.97325 1.56039.82656 1.82676-.79363.17972-1.09315-.12404-2.53074-.67504-3.19465zm-12.02565-5.31707c-2.52858-7.20639-9.12607-13.3621-9.12607-8.51496 0 3.30272 2.15836 8.14922 3.62921 8.14922.78846 0 1.70703.71266 2.04127 1.58368.33425.87103 1.55763 1.9675 2.71862 2.43661 1.161.46912 2.16763.88146 2.23697.91632.0693.0349-.60566-2.02203-1.5-4.57087zm-12.4598-11.03482c-.87373-5.38417-4.67832-7.49542-4.65096-2.58092.0207 3.72176 1.3826 5.44905 4.86553 6.17105.20947.0434.11291-1.57214-.21457-3.59013zm7.40904-5.67534c-3.87235-7.99921-6.93828-8.45152-5.21211-.76893.49613 2.20812.65487 4.26194.35276 4.56406-.30211.30211.39915.54929 1.55836.54929 1.1592 0 2.40999.48921 2.77953 1.08713.45344.73369 1.00106.75796 1.68436.0747.68331-.68331.30523-2.47347-1.1629-5.50621zm-15.45451.0944c-1.23335-4.75941-2.72242-6.75-5.04937-6.75-1.03639 0-1.57143.90951-1.57143 2.67126 0 2.91083 2.51398 6.32874 4.65499 6.32874.73975 0 1.34501.45 1.34501 1s.38748 1 .86107 1 .36547-1.9125-.24027-4.25zm7.22141-5.70272c.20368-3.45198-.11241-4.21315-2.0507-4.93826-2.64109-.98801-3.40553-.20491-3.25078 3.33011.11262 2.57255 3.1896 6.84557 4.39362 6.10144.36689-.22674.77542-2.24872.90786-4.49329zm22.15779 2.11165c0-1.01259-.67013-4.05009-1.48918-6.75-.81904-2.69991-1.49404-6.15254-1.5-7.6725-.006-1.51996-.42143-3.54496-.92328-4.5-.50185-.95504-3.59437-7.13643-6.87226-13.73643-3.27789-6.6-7.28209-14.25-8.89821-17-3.61429-6.15007-4.45292-8.298-3.47565-8.90199 1.48732-.91921 3.04872 1.03527 7.11611 8.90756 2.27178 4.39694 4.49676 8.66943 4.94442 9.49443 3.09131 5.69705 4.09805 8.00734 4.09805 9.40429 0 .87764.675 1.59571 1.5 1.59571 1.64355 0 2.1736-5.46566.623-6.42398-.48236-.29812-1.41599-2.68717-2.07474-5.30902-.65875-2.62185-1.82779-6.117-2.59788-7.767-.77009-1.65-2.10249-5.025-2.96088-7.5-4.33578-12.50135-17.57512-36.49898-23.88916-43.30152-2.93358-3.16055-3.13104-3.70064-1.35034-3.6934 1.74999.007 7.15562 5.4889 11.82826 11.99492 3.71711 5.17558 10.77688 19.00866 17.46592 34.22312 1.6257 3.69771 3.29332 6.73521 3.70582 6.75 1.03828.0372.9451-4.35935-.11705-5.52312-1.02412-1.1221-6.13295-15.89677-6.13295-17.73642 0-.6978-1.27671-3.73132-2.83714-6.74115-1.56043-3.00984-3.85211-8.52494-5.09263-12.25579-1.24052-3.73085-3.23888-8.00585-4.4408-9.5-1.20191-1.49415-3.47143-4.62914-5.04336-6.96664-1.57194-2.3375-3.24687-4.25-3.72207-4.25-.4752 0-.864-.51542-.864-1.14537 0-2.5037-22.34896-21.9766-29.996-26.13585-3.65946-1.9904-3.43051-3.29363.40931-2.32989 6.16803 1.54807 32.92182 25.84533 38.91896 35.34541 1.31764 2.08728 3.13192 4.40605 4.03172 5.15282.89981.74678 1.63878 1.86517 1.64217 2.48532.003.62016.63598 2.33475 1.40575 3.8102.76977 1.47545 1.71593 4.17545 2.10256 6 .38663 1.82455 1.53036 4.89236 2.54162 6.81736 1.01127 1.925 3.14688 7.75318 4.74582 12.95151 3.45477 11.23185 5.90397 13.50761 4.77093 4.43309-.40411-3.23653-.8461-6.7846-.98219-7.8846-.1361-1.1-.55187-2.675-.92395-3.5-.37207-.825-1.56007-4.59886-2.64001-8.38635-1.07993-3.7875-2.5995-7.6125-3.37682-8.5-.77732-.88751-1.73839-2.73865-2.13571-4.11365-.39733-1.375-1.34212-3.48379-2.09953-4.6862-1.41853-2.25193-4.04095-6.82792-7.91644-13.8138-13.42275-24.19557-12.89332-23.32399-16.74819-27.57168-.9625-1.06057-1.75437-2.26582-1.75971-2.67832-.005-.4125-1.58033-2.72583-3.5-5.14073-1.91966-2.4149-3.49029-4.70326-3.49029-5.08524 0-.38198-2.08464-2.80902-4.63253-5.39341-4.52743-4.59231-5.40147-6.93563-1.71485-4.5976 3.00756 1.90738 28.34738 34.92409 28.34738 36.93544 0 .56735.40555 1.03154.90122 1.03154.94469 0 4.27508 5.05894 7.24149 11 2.35799 4.72252 4.68384 7.50678 5.54853 6.64209.39155-.39154-.25238-3.73369-1.43094-7.427-1.17856-3.6933-2.69795-8.74009-3.37641-11.21509-1.42277-5.19017-9.62298-22.72072-11.0367-23.59444-.5232-.32336-2.98358-4.82189-5.46751-9.99674-2.48393-5.17485-4.94963-9.40882-5.47934-9.40882-.52971 0-1.23845-.7875-1.57498-1.75-.56-1.60165-5.88741-8.45772-10.59888-13.64015-7.28717-8.0156-16.37443-17.62321-25.44027-26.89699-10.53771-10.77943-13.13148-15.12142-5.06161-8.47319 2.35147 1.93722 7.6504 7.00959 11.7754 11.27192 4.125 4.26233 10.69255 10.95341 14.59456 14.86905 3.90201 3.91565 8.40201 8.91042 10 11.0995 4.19713 5.74962 5.75152 7.51986 6.60293 7.51986 1.06441 0-.90817-4.85354-2.70137-6.64674-.82287-.82286-1.49612-2.10017-1.49612-2.83845 0-.73829-1.29179-3.96865-2.87064-7.17858-1.57885-3.20992-5.02524-10.33623-7.65865-15.83623-2.63341-5.5-5.31751-10.675-5.96467-11.5-.64716-.825-1.79748-3.075-2.55627-5-.75879-1.925-2.6329-5.36526-4.16469-7.64502-1.53179-2.27977-2.78508-4.53437-2.78508-5.01022 0-.47586-1.125-2.07846-2.5-3.56133-1.375-1.48288-2.5-3.16578-2.5-3.73979 0-.574-.37701-1.04364-.8378-1.04364-.46078 0-7.60007-6.6375-15.86507-14.75-14.07398-13.81429-24.52843-26.57758-32.73248-39.96137-4.09276-6.67678-4.44099-3.67847-1.05275 9.06414 4.11928 15.49187 5.38806 17.55296 18.86185 30.64037 18.67632 18.14076 23.97157 22.95818 25.93312 23.59298 2.37185.7676 1.72947 3.88743-.82475 4.00553-11.39085.52667-21.48212 2.89637-21.48212 5.04458 0 3.27062 5.97678 22.06495 8.70194 27.36377.70716 1.375 1.28851 3.0074 1.2919 3.62756.003.62015.75409 1.74515 1.66822 2.5.91413.75484 2.39039 2.56662 3.28057 4.02618.89017 1.45955 7.58596 8.86811 14.87951 16.46347 9.47234 9.86429 13.17771 14.39157 12.96944 15.84626-.36698 2.56317-5.46887 4.40358-12.41946 4.48009-2.82033.031-6.80322.75644-8.85086 1.612-3.58821 1.49926-3.69677 1.68932-2.99865 5.25.39839 2.03194.88353 5.41058 1.07809 7.50808.19456 2.09751 1.22005 5.02251 2.27885 6.5 2.24758 3.13634 11.66748 12.13355 18.12045 17.30733 6.42714 5.15308 24 22.51574 24 23.71294 0 1.28323-4.34284 2.23761-11.41003 2.50744-3.04863.1164-6.06585.73453-6.70493 1.37361-1.19711 1.19711-.49009 2.06103 8.14677 9.95485 10.61668 9.70329 24.1243 30.17523 27.92996 42.33019 1.29152 4.125 2.95347 8.21043 3.69322 9.07874.73976.86831 1.34501 1.88571 1.34501 2.2609 0 .93778 3.68127 9.33777 6.12486 13.97581 1.10561 2.0985 2.59827 5.76947 3.31702 8.15771 1.86539 6.19821 5.55812 9.97575 5.55812 5.68577zm-39-3.49226c0-1.83334-.28589-3.61923-.63532-3.96865-.34942-.34943-.78705-2.32637-.97252-4.39322-.49697-5.53837-2.11158-8.70784-5.4366-10.67198-3.60179-2.12763-5.24176-1.33351-4.56884 2.21238.2771 1.46014 1.02615 5.95908 1.66456 9.99765 1.07916 6.82672 1.38174 7.43901 4.30473 8.71086 4.80419 2.09039 5.64399 1.80961 5.64399-1.88704zm9-1.10157c0-3.66589-4.9147-11.49403-7.25-11.54782-.4125-.01-.75 1.7501-.75 3.91024 0 3.23897.56977 4.37657 3.25 6.48891 3.71713 2.92955 4.75 3.17932 4.75 1.14867zm-57.66681-1.05512c5.99365-3.12608 14.89572-4.72261 17.46811-3.13278.65929.40746 1.1987.3396 1.1987-.15081 0-.88378 7.81113-.12277 13.31697 1.29743 2.79022.71971 2.81164.68981 2.2552-3.1486-.30897-2.13137-.77064-8.37522-1.02592-13.87522-.25528-5.5-.95365-12.475-1.55193-15.5-.59828-3.025-.9778-10.675-.84339-17 .13442-6.325-.0999-12.5125-.52065-13.75-.47803-1.40587-.3646-2.25.30233-2.25.58707 0 1.06739-.765 1.06739-1.7 0-1.18409.3177-1.3823 1.04689-.65311.58461.58461 1.23036 7.18604 1.46239 14.95.22853 7.64671.43243 14.24061.45312 14.65311.0207.4125.8251.75408 1.7876.75907.9625.005 2.81062 1.35181 4.10693 2.99293 1.29632 1.64112 2.67057 2.79002 3.05391 2.5531.57473-.3552.68031-23.0551.10723-23.0551-.0993 0-.26688-1.13539-.3724-2.52309s-1.08146-3.4704-2.16876-4.62822c-1.0873-1.15783-3.90938-4.18494-6.27129-6.72692-2.36191-2.54197-4.49599-4.62177-4.7424-4.62177-.61136 0-5.43146-4.0999-7.34789-6.25-.8579-.9625-2.08666-1.75-2.73058-1.75-1.74023 0-2.52077-2.87733-1.36591-5.0352.55642-1.03968 1.62178-1.6562 2.36748-1.37005.74569.28615 2.08018-.20411 2.96553-1.08946.88535-.88535 3.41837-1.68185 5.62894-1.77 6.19074-.24687 5.4916-1.74291-5.23079-11.19295-.9625-.84829-1.75-1.24903-1.75-.89054 0 .3585-1.88101-1.4415-4.18002-4-2.29901-2.55849-4.74369-4.6518-5.43261-4.6518-.68893 0-1.51941-.84065-1.84551-1.86812-.32611-1.02746-1.48143-2.6722-2.56739-3.65498s-1.97447-2.66528-1.97447-3.73888c0-1.26629-.49392-1.76246-1.40604-1.41245-.77333.29675-2.12411-.2539-3.00175-1.22368-2.26549-2.50334-6.8598-15.9904-6.74908-19.81261.0512-1.76589-.34262-3.47995-.87506-3.80901-1.41305-.87332-1.18279-4.05718.38769-5.36056.74567-.61885 2.70593-1.28238 4.35615-1.47452 1.65021-.19214 3.57997-.70755 4.28835-1.14535.70838-.4378 2.57311-.75947 4.14385-.71481 1.57074.0447 2.85589-.2887 2.85589-.7408 0-.45211.7875-.75951 1.75-.68312 3.15913.25073 1.31968-3.46691-4.46596-9.02599-3.05391-2.93431-5.94215-5.33512-6.4183-5.33512-.47616 0-.86574-.92656-.86574-2.05902 0-1.24444-.43574-1.78971-1.10143-1.37829-1.40373.86755-7.15483-5.69721-10.12262-11.55476-2.35207-4.64229-5.03995-7.52377-5.5908-5.99348-.17317.48107.18572 1.81002.79754 2.95321.99746 1.86377 2.61833 12.68744 3.52401 23.53234.18373 2.2.85176 6.025 1.48451 8.5 2.23787 8.75339 2.98024 14.625 3.24303 25.64996.14617 6.13247.59637 10.63247 1.00045 10 .4372-.68432.74088-.2389.75 1.10004.0215 3.15326.10002 3.53977 1.09892 5.40623 1.39739 2.61105 3.25756 54.87185 2.20952 62.07559-.32045 2.20259-.96485 3.47107-1.57254 3.0955-.66847-.41314-.71234-.1437-.1251.76817 1.00063 1.55377 1.27037 23.89376.28858 23.90037-.33876.002-.56376 4.7243-.5 10.49339.0727 6.57876-.27974 10.64098-.94539 10.89622-1.40709.53954-.5507 7.61632.92073 7.60837.62732-.003 2.41553-.67112 3.97378-1.48386zm70.21011-3.25775c-.36888-.96127-1.12844-3.88222-1.68793-6.491-1.5281-7.12532-2.99032-6.9548-2.48612.28993.25792 3.70596.97588 6.55264 1.7814 7.06311 2.15862 1.36795 3.11601 1.02302 2.39265-.86204zm-7.51091-6.5388c-.75609-4.98207-1.77781-6.9888-3.13217-6.15176-1.10725.68432-.13047 7.31963 1.35261 9.18833 1.83203 2.30838 2.43466 1.28008 1.77956-3.03657zm-6.63938-2.29522c1.2834-3.34448.49124-6.48045-2.4966-9.88341-1.70698-1.94414-3.45971-3.5348-3.89497-3.5348-.43525 0-.97154 1.88924-1.19174 4.1983-.33604 3.52365.0655 4.72888 2.49856 7.5 3.24596 3.69696 4.202 4.02033 5.08475 1.71991zm-10.98242-11.62373c-.64513-6.42484-2.64194-9.30196-8.59793-12.38843-2.49102-1.29087-2.67638-1.24699-2.5372.60067.0826 1.0963.50439 1.99328.93734 1.99328.43296 0 .80315 1.4625.82264 3.25.0195 1.7875.58198 4.15677 1.25 5.26504 1.81756 3.01544 7.10625 8.13389 7.97484 7.71813.41816-.20015.4858-3.09756.15031-6.43869zm15.56985 2.45552c.35148-5.87305-.2651-11.91391-1.44507-14.1576l-1.36334-2.5924-.6739 2.6682c-.59112 2.34049.94887 13.0341 2.17194 15.0818.73004 1.22226 1.19878.86454 1.31037-1zm-6.72525-9.97074c-.25253-3.17859-.41123-7.80426-.35266-10.27926.0685-2.89256-.60429-5.66093-1.88332-7.75-2.34199-3.82521-5.45166-4.57437-4.15091-1 .45034 1.2375.6368 4.725.41436 7.75-.814 11.06933.23532 17.03397 2.72586 15.49473.43005-.26578 1.05089.21769 1.37963 1.0744 1.24924 3.25545 2.30769.25653 1.86704-5.28987zm33.74481-49.39546c0-1.64899.48444-4.92206 1.07654-7.2735.98634-3.9171.84031-4.66644-1.74272-8.94282-3.93471-6.51419-5.09318-6.06448-4.07667 1.58252.45694 3.4375 1.06089 8.5 1.34211 11.25.28122 2.75.70825 5.59102.94896 6.31338.75027 2.25153 2.45178.21842 2.45178-2.92958zm3-19.41358c0-1.68422-6.03553-10.47022-7.1925-10.47022-1.61513 0-.73936 2.97672 2.32699 7.90945 2.95127 4.7476 4.86551 5.75508 4.86551 2.56077zm1.97809-7.23991c.35405-5.81486-.11418-7.46748-3.61241-12.74977l-3.86568-5.83713-.91241 5.30904c-.54989 3.1996-.54989 5.79364 0 6.5287.50182.67082 2.16603 3.10358 3.69823 5.40613 2.76861 4.1606 4.4907 4.6535 4.69227 1.34303zm-11.06814-1.98031c-.21328-5.23775-.84443-7.25-2.27402-7.25-.77913 0-1.27875 1.72336-1.36432 4.70599-.15217 5.30345.21276 6.29401 2.31873 6.29401 1.06182 0 1.42974-1.04554 1.31961-3.75zm13.4041-12c.31756-2.0625 1.54162-8.925 2.72012-15.25 2.81706-15.11898 2.83432-15.67046.67231-21.47277-1.0191-2.73503-1.8889-6.23858-1.93289-7.78567-.044-1.54708-.46104-3.04839-.92678-3.33624-.46575-.28784-.84681-1.41092-.84681-2.49572 0-3.18938-2.76667-3.3433-7.02694-.39093-2.18519 1.51433-3.97306 3.05328-3.97306 3.41989 0 .36661-2.19665 2.90984-4.88145 5.65162-4.79109 4.89279-4.89896 5.14126-5.82744 13.42362-.5203 4.64121-.65256 9.79928-.29393 11.46238.35864 1.6631.26744 4.17392-.20268 5.57961-.92272 2.75904 1.4031 9.94421 3.21892 9.94421.86495 0 1.39921-2.87298 1.25523-6.75-.0255-.6875.35357-1.25.84246-1.25s.88889 1.54571.88889 3.4349c0 3.92441 1.73359 9.16484 2.70911 8.18932.35924-.35924.94235-2.90736 1.2958-5.6625.46043-3.58905.26731-5.32083-.68114-6.10797-1.78898-1.48473-1.67985-2.92762.1678-2.21861 1.80552.69284 2.47844-.85953 2.90478-6.7011.17799-2.43872.57969-5.10904.89267-5.93404.31298-.825.86225-4.54165 1.2206-8.25922.67478-7.00031 2.5056-8.43195 2.47039-1.93176-.0232 4.28039-2.33931 18.24816-3.78547 22.82895-1.06005 3.35775-.92435 3.73202 4.068 11.21904 1.5194 2.27865 3.14765 4.14299 3.61834 4.14299.47068 0 1.11561-1.6875 1.43317-3.75zm-24.212-29.03327c.10196-5.8942.24008-13.7236.30693-17.39867.0669-3.67506.4111-6.97147.76498-7.32536.65523-.65523 2.02053 2.60003 1.74214 4.15374-.43449 2.42489.18447 9.35047.8339 9.33055.4125-.0127 2.7548-4.16029 5.2051-9.21696l4.4551-9.19395-.20019-15.33458c-.18192-13.93518-.42292-15.80899-2.64087-20.53304-1.34238-2.85915-3.19138-7.22346-4.10889-9.69846-4.07625-10.9957-5.11386-13.62257-6.1225-15.5-.59098-1.1-1.39867-3.79172-1.79488-5.98159-.39622-2.18988-1.14769-4.78001-1.66995-5.75586-.86937-1.62444-1.19513-1.64729-3.85737-.27059-1.59929.82703-4.12276 2.62966-5.6077 4.00586-3.11954 2.8911-3.73559 3.01713-5.3339 1.09129-.90141-1.08613-.78217-3.32953.518-9.74614 1.30024-6.41695 1.54286-10.98275 1.05423-19.8391-.78704-14.26515-1.41596-16.54832-8.74377-31.74249-3.24633-6.73124-5.90241-12.64559-5.90241-13.14301 0-.49741-.70351-1.17435-1.56335-1.5043-1.51829-.58263-2.75796-.0296-10.73487 4.78902-4.64682 2.807-11.70178 10.00307-11.70178 11.93583 0 1.70837-2.42644 3.90131-3.3238 3.00395-.81677-.81677.26299-5.41776 1.69624-7.22796 1.81816-2.29632 1.14274-25.19907-.90096-30.55041-.94292-2.469-1.46149-5.14815-1.15238-5.95368.30911-.80553-.0632-1.98349-.82739-2.6177-.76417-.63421-1.91932-2.80461-2.56699-4.82311-.64766-2.01851-1.71838-4.34501-2.37937-5.17001-5.15447-6.43348-10.92947-22.42525-10.70939-29.65577.14284-4.6928-1.50346-5.51471-7.74702-3.86769-5.187 1.3683-5.34939 1.34547-7.58471-1.06648-1.25633-1.3556-2.86981-3.91492-3.58551-5.68739-.7157-1.77247-1.83893-3.55384-2.49607-3.9586-.65713-.40476-1.4878-2.29783-1.84593-4.20681-.35813-1.90898-2.2094-6.89025-4.11393-11.06947-1.90453-4.17923-3.46279-8.42222-3.46279-9.42888s-.66445-3.11103-1.47657-4.67638c-.81211-1.56535-1.77137-5.45185-2.13169-8.63668-.36033-3.18483-1.04587-6.032091-1.52344-6.327241-.47756-.29516-.8683-2.50853-.8683-4.91861 0-4.75182-1.65019-7.00519-2.41-3.2909-.69419 3.3936-1.83173 14.776911-1.87777 18.790901-.10149 8.84873.70457 22.78298 1.47513 25.5.46794 1.65 1.10648 5.925 1.41898 9.5s1.46807 10.1 2.56793 14.5 2.23932 9.01915 2.53214 10.26478c.67808 2.88453 2.26943 3.92117 2.37056 1.54424.33202-7.80392 2.2388-21.30902 3.00862-21.30902 1.59642 0 1.68385 1.6571.51424 9.74681-1.44461 9.99185-1.28215 13.98567 1.25101 30.75319 1.96363 12.99769 6.51369 27.45484 8.89009 28.24698 1.20775.40258 1.06522-18.91081-.25627-34.72532-.65626-7.85356 1.07275-7.11826 1.93403.82248.31881 2.93928.76563 5.64508.99295 6.01289.22731.3678.67818 4.93794 1.00192 10.15585.32374 5.21792.89633 13.53712 1.27243 18.48712.3761 4.95.5793 9.40143.45156 9.89206-.12774.49063.84741 3.19063 2.16701 6 1.3196 2.80937 3.6123 7.74904 5.09491 10.97705 1.4826 3.22802 2.88945 5.67531 3.12632 5.43843.23688-.23688-.032-3.10298-.59752-6.36911-1.98434-11.4605-2.48704-17.01676-2.34677-25.93843.0778-4.95.21262-13.5.29955-19 .0869-5.5.0368-10.675-.1115-11.5-.14825-.825.18045-1.725.73045-2 1.53787-.76894 2.34446 7.02937 2.42588 23.45393.12994 26.21493 3.92506 51.38084 9.25839 61.3936 2.48781 4.67059 4.41387 5.20448 4.15764 1.15247-1.02522-16.21276-1.53851-20.81067-3.34908-30-.48765-2.475-1.11242-6.975-1.38839-10-.27597-3.025-.81254-7.8625-1.19239-10.75-.41663-3.16711-.30976-5.25.26937-5.25 1.01801 0 3.10445 10.86133 4.32223 22.5.40283 3.85 1.22328 9.025 1.82323 11.5.59994 2.475 1.29364 7.65 1.54154 11.5.39254 6.09628 1.84796 13.26608 6.85503 33.76981.64064 2.62339 1.90219 5.5613 2.80345 6.52869.90125.96738 2.45565 3.89816 3.4542 6.51284 1.98457 5.19652 3.5189 6.89419 3.5189 3.89352 0-1.05225-.9342-7.94131-2.076-15.30902-2.77481-17.90502-3.26938-23.89584-1.97268-23.89584.57677 0 1.06886.1125 1.09353.25.0247.1375.28246 2.725.57287 5.75s1.13215 7.975 1.87053 11c.73838 3.025 1.63949 7.525 2.00248 10 1.17299 7.99793 8.0688 31.55864 10.43082 35.63864.59267 1.02375 1.51664 3.09886 2.05327 4.61136 1.05661 2.9781 3.46573 3.87551 2.68452 1-.26149-.9625-1.21679-5.125-2.12288-9.25-.90609-4.125-2.05072-9.3-2.54361-11.5-.81819-3.65194-1.16859-6.00095-2.4613-16.5-.50975-4.14004-1.66107-21.98549-1.96775-30.5-.27164-7.54195.68608-17 1.72142-17 .61832 0 1.48718 16.13408 1.88485 35 .0948 4.49911 2.02884 19.48046 3.421 26.5 2.13095 10.74472 6.4228 29.96852 7.49495 33.571.50269 1.68905.91398 4.22741.91398 5.64079 0 3.5218 3.56265 11.30487 4.48879 9.80635.39833-.64452.22891-4.62477-.3765-8.845-.60541-4.22023-1.80485-15.32314-2.66542-24.67314-.86057-9.35-2.39951-20.375-3.41985-24.5-2.5788-10.42547-3.36362-18.91556-2.55057-27.59201 1.05597-11.26868 2.80398-9.2793 2.05787 2.34201-.34429 5.3625-.19333 12 .33546 14.75 1.32216 6.87597 1.99775 10.24727 3.1061 15.5 1.64802 7.81031 5.27868 41.66137 5.14819 48-.18594 9.03257 3.65599 24 6.16047 24 .54173 0 .68655-9.26763.35549-22.75-.58737-23.9211.0724-42.25 1.52077-42.25.4731 0 .78169 4.8375.68577 10.75-.21058 12.98029.98604 59.89014 1.69426 66.41861.63658 5.86803 2.38647 10.99435 3.51491 10.29694.47351-.29265.94435-5.35461 1.04631-11.24882zm36.27689-21.02085c.66918-1.08276-3.01417-6.19588-4.46334-6.19588-1.11735 0-.1071 7.60168 1.39543 10.5.98369 1.89749 1.07366 1.86307 1.75546-.67166.39525-1.46941.98585-3.10402 1.31245-3.63246zm-11.81534-10.72672c2.3924-2.16154-.0277-11.46916-2.98215-11.46916-1.28069 0-2.66208 2.73686-3.02841 6-.0926.825-.54085 2.7858-.99607 4.35733-1.3639 4.70857 2.36997 5.30107 7.00663 1.11183zm15.62847-.98867c.46489-3.98208-1.37303-9.13721-3.95722-11.09952-2.47999-1.88319-2.69182-1.7716-4.11657 2.16848-1.09969 3.04114-1.05355 3.90039.32216 6 .88312 1.3478 1.99281 2.45055 2.46598 2.45055.47318 0 1.09567.9 1.38333 2 .88273 3.37557 3.44744 2.37691 3.90232-1.51951zm-11.10759-14.785c.42441-2.61103.0765-4.42559-1.23037-6.41787-2.02255-3.0832-2.76909-2.99538-4.60411.54164-1.71748 3.31044-1.58856 4.32588.94975 7.48045 2.77947 3.4543 4.13485 3.00917 4.88473-1.60422zm14.41041-1.65834c.7059-5.13249-1.46735-12.42885-3.99036-13.39702-1.83059-.70246-3.87522 10.79874-2.40734 13.54148 3.36481 6.28722 5.51981 6.23856 6.3977-.14446zm-21.49489-12.29969c0-1.29089-2.99806-4.07271-3.66766-3.40312-.31483.31483-.25297 2.27522.13747 4.35642.66591 3.54961.79723 3.66454 2.12003 1.8555.77559-1.06067 1.41016-2.32463 1.41016-2.8088zm11 .32158c0-2.16754.43035-4.20695.95633-4.53203 1.14318-.70653.32678-3.34424-1.80091-5.81853-1.46845-1.70766-1.60014-1.68425-2.81257.5-.69959 1.26035-1.28793 3.07904-1.30741 4.04154-.0195.9625-.48544 1.75-1.03544 1.75-.55 0-1 .38404-1 .85342 0 1.04882 5.21278 6.93551 6.25 7.05801.4125.0487.75-1.68487.75-3.85241zm13.41646-12.03518c-1.50388-2.76311-3.10423-5.02384-3.55634-5.02384-.45211 0-1.11764 1.2375-1.47896 2.75-.36131 1.5125-1.05154 3.25413-1.53383 3.87028-.56969.7278.59717 2.45202 3.33069 4.92158l4.20759 3.80131.88258-2.64775c.69678-2.09032.30694-3.7054-1.85173-7.67158zm-19.46233-6.13458c-1.902-4.59184-4.37003-3.69302-5.86385 2.13553-1.14298 4.45968-1.09217 5.32339.4518 7.67977l1.7396 2.65498 2.43461-4.79052c2.11248-4.15666 2.27626-5.1728 1.23784-7.67976zm-7.45771-2.51405c1.20744-3.47414 1.15325-4.18393-.52353-6.85812-2.6144-4.16953-3.69319-4.18963-4.82519-.0899-.91332 3.30777-.7304 4.65637 1.47693 10.88886.83583 2.36 2.14505 1.02742 3.87179-3.94088zm18.37029 2.37479c1.87936-5.97748 1.73546-8.07254-.72277-10.52279-1.29583-1.29163-2.43605-2.20865-2.53382-2.03782-.83819 1.46461-2.61012 7.85216-2.61012 9.4091 0 2.17229 2.62886 6.40151 3.97915 6.40151.47616 0 1.32556-1.4625 1.88756-3.25zm14.46489-1.62074c1.67619-4.18921 1.31695-7.21582-1.32098-11.12926-.92684-1.375-1.98363-3.32492-2.34842-4.33316-.8724-2.41122-2.93184-1.64548-3.78494 1.4073-1.06606 3.8149-.98259 11.92586.12274 11.92586.55 0 1 .69399 1 1.54221 0 1.86159 2.06436 4.3672 3.64142 4.41975.62778.0209 1.83836-1.70379 2.69018-3.8327zm-142.9725-1.8217c.38084-.38084 1.68372-.84371 2.89528-1.02861 1.21157-.1849 2.63997-.7733 3.17423-1.30756.53427-.53427 1.79295-.97139 2.79707-.97139 1.71787 0 1.73145-.18222.23006-3.08559-1.57476-3.04525-8.00194-9.90797-9.29159-9.92124-.36528-.004-1.74787-1.59804-3.07241-3.54285-2.3515-3.45268-5.9921-4.42111-5.22889-1.39093.19956.79234.48602 3.01561.63657 4.94061.15055 1.925.58964 4.26595.97576 5.20211.38613.93617.41061 2.17367.0544 2.75-.3562.57634-.26922 1.04789.19328 1.04789s.93606 1.14971 1.05235 2.5549c.12254 1.48061-.20623 2.29676-.78189 1.94099-.54634-.33766-.99334.0546-.99334.87177 0 1.98282 5.78993 3.50908 7.3591 1.9399zm121.00746-3.05756c1.60123-5.58938 1.61208-11.35297.0259-13.77376l-1.66197-2.53649-1.5245 2.17653c-2.18557 3.12034-2.38607 7.80479-.51934 12.13372 1.76495 4.09289 2.90312 4.71148 3.6799 2zm-17.3703-8.05902c-.004-2.96522-3.37851-9.19098-4.98156-9.19098-1.99521 0-1.11245 6.45786 1.06898 7.82019 1.14603.7157 1.85203 1.90495 1.5689 2.64278-.28313.73782-.25802 1.59826.0558 1.91208 1.11189 1.11189 2.29157-.52988 2.28788-3.18407zm28.02849-.75608c1.44557-3.80214 1.18187-11.77377-.46292-13.99377-1.42111-1.9181-1.456-1.9174-2.9412.0589-.82667 1.1-1.26803 2.96341-.9808 4.14091.28722 1.17749.0554 2.4294-.51513 2.78202-.57054.35262-.78982 1.41421-.48729 2.3591 2.52046 7.872 3.75729 8.94022 5.38734 4.65287zm-17.87203-1.91345c1.77394-6.63326 1.83132-9.75282.24103-13.10411-.8919-1.87954-1.96188-3.41734-2.37773-3.41734-.41585 0-1.32306 2.025-2.01602 4.5-.69296 2.475-1.5727 4.5-1.95499 4.5-.38228 0-.6613 1.57368-.62004 3.49706.0413 1.92338.38221 3.49838.75764 3.5.37544.002.97639.92853 1.33544 2.05981.92783 2.92332 3.6867 2.00934 4.63467-1.53542zm32.94434-3.97145c1.51994-1.59916 1.00644-6.59425-.96586-9.39563-1.02785-1.4599-2.18058-3.65871-2.56163-4.88623-.55914-1.8012-.95091-1.99415-2.03034-1-.73563.67752-1.17574 1.40152-.97802 1.60888.19772.20735-.29767 1.94981-1.10086 3.87212-1.96256 4.69708-1.84359 5.91738.64027 6.56692 1.15668.30248 1.8042 1.02893 1.44098 1.61663-.3628.58702-.25531 1.06731.23887 1.06731.49417 0 1.49716 1.2375 2.22886 2.75 1.19399 2.46809 1.37417 2.54497 1.75758.75.23497-1.1.83354-2.4275 1.33015-2.95zm-121.04342-7.3084c-1.6795-2.72954-3.05364-5.26875-3.05364-5.64269 0-.37394-.81683-1.89917-1.81517-3.3894-.99834-1.49023-2.6996-4.05951-3.78059-5.70951-1.64441-2.51001-10.52762-21.29125-17.50037-37-.97653-2.2-2.49848-6.925-3.38211-10.5-.88363-3.575-1.88152-7.175-2.21753-8-.33601-.825-.67306-1.95-.74901-2.5-.0759-.55-.73798-2.35-1.47117-4-.73319-1.65-1.71643-3.9-2.18497-5-1.66021-3.89768-6.65668-22.47608-8.47159-31.5-.27654-1.375-1.5652-7-2.86369-12.5-3.16621-13.41116-4.51262-20.20262-4.95626-25-.49998-5.40661-1.64556-9.5-2.65869-9.5-.98507 0-1.14632 3.55399-1.24772 27.5-.0938 22.1504.16857 29.03106 1.44897 38 .54962 3.85 1.1162 8.125 1.25907 9.5.66979 6.44611 3.86693 23.68645 4.67998 25.23643.50097.95504.91085 2.22396.91085 2.81983 0 .59586 1.35 3.04555 3 5.44374s3 4.61875 3 4.93457c0 .93951 12.99818 19.71166 16.8961 24.40159 1.98215 2.38489 4.07943 5.16536 4.66063 6.17884.58121 1.01347 5.98121 6.84574 12 12.96059 11.24976 11.4293 14.22304 12.57216 8.49691 3.26601zm80.84676 2.0084c2.30646-8.84842 2.39062-11.29442.50881-14.78873-3.39257-6.29962-6.04305-5.7022-7.00905 1.57983-.3618 2.72739-1.02832 4.9589-1.48116 4.9589-.45284 0-.20761 2.04591.54495 4.54646 2.48256 8.24895 5.81856 9.91035 7.43645 3.70354zm18.21119-1.5c1.80576-6.45626 1.96478-8.99041.75301-12-1.9353-4.80659-4.05029-2.78726-5.23976 5.00277-.59024 3.86561 1.23796 11.24723 2.78559 11.24723.28186 0 1.04739-1.9125 1.70116-4.25zm-39.08655-3.76783c2.80479-1.99719 2.83422-2.12759 2.87745-12.75.024-5.90269-.36732-13.20717-.86964-16.23217-.50232-3.025-1.44516-9.55-2.09519-14.5-.65003-4.95-1.54552-9.69925-1.98999-10.55388-.44446-.85464-.40826-2.20088.0805-2.99164 1.37132-2.21884 3.14569.19412 3.26609 4.44155.0562 1.98218.44258 3.60397.85866 3.60397 1.36066 0 2.38513 10.89807 3.28633 34.95934.19096 5.09835.76261 8.60793 1.43882 8.83334.61708.20569 1.12197 1.01149 1.12197 1.79065 0 .77917.43417 1.41667.96482 1.41667 1.44068 0 3.27245-3.9393 2.62108-5.63674-.31246-.81426-.0976-3.57974.47736-6.14553.91351-4.07627.81834-4.83114-.75403-5.98088-1.51347-1.10668-1.57181-1.45653-.36704-2.20112 1.12328-.69423 1.39754-3.32959 1.27073-12.21051-.20209-14.15354-1.08845-28.64988-2.19048-35.82522-.4646-3.025-.88433-7.48559-.93275-9.91242-.0484-2.42683-.82048-8.72683-1.71571-14-.89523-5.27317-1.75171-10.83859-1.9033-12.36759-.15158-1.52901-.84043-3.46058-1.53076-4.29238-1.75399-2.11343.086-3.6431 2.36102-1.9628 1.3268.97997 2.03867 3.52915 2.70394 9.68268.49665 4.59388 1.3218 9.74349 1.83367 11.44359.91712 3.04604 1.42407 10.17669 1.26599 17.80718-.0866 4.17831 2.4332 7.61167 7.52497 10.25331 3.40813 1.76816 5.0205 1.70287 5.7635-.23336 1.42805-3.72143.52681-6.75767-2.99049-10.07492-4.2054-3.96619-4.00827-6.45149.46679-5.88514 2.78401.35234 2.94056.19029 2.57867-2.6692-.42999-3.39761-1.78181-5.6832-6.3356-10.71196-1.70483-1.88265-2.91609-3.60661-2.69169-3.83102.65706-.65706 4.57931 1.73194 4.57931 2.78921 0 .53065.70257.96482 1.56127.96482 1.29224 0 1.44301-.81852.87494-4.75-.37749-2.6125-1.33713-6.7044-2.13254-9.0931-.79541-2.38871-1.18718-5.01808-.87061-5.84306.31657-.82497.0617-4.49558-.56642-8.1569-.6281-3.66132-1.17648-7.4114-1.21861-8.33352-.0421-.92212-.43017-1.45806-.86232-1.19098-.43214.26707-.85615-1.00346-.94223-2.82342-.55594-11.75286-2.30999-18.18555-5.4114-19.84537-2.6288-1.40689-3.39554-3.54734-.93208-2.60202 1.91423.73455 2.17938-.80657.96871-5.63027-.37704-1.50225-.28007-2.73136.21548-2.73136s1.4709 2.1375 2.16744 4.75c.75386 2.82746 2.4493 5.8334 4.18892 7.42675 3.01563 2.76206 6.69454 4.42149 7.6606 3.45543 1.05405-1.05405-4.21687-10.13907-6.45115-11.11931-3.04575-1.33624-2.86178-2.88323.25-2.10223 1.53731.38584 2.5.20181 2.5-.4779 0-1.73883-4.03281-15.72741-6.75549-23.43274-2.97632-8.423121-4.00263-14.086581-2.36985-13.077461.61894.38252 1.12534 1.56894 1.12534 2.63648 0 1.06754.36782 1.94098.81738 1.94098s1.58676 2.44076 2.52712 5.42392c1.51561 4.808071 2.21698 5.669471 6.17708 7.586521 2.45703 1.18944 4.72139 2.57367 5.03189 3.07608.31051.50242 1.40501.91348 2.43222.91348 1.02722 0 2.07346.7875 2.32498 1.75.30053 1.15.47842.89286.51886-.75.0338-1.375-.73233-5.64978-1.7026-9.49952-1.29741-5.147701-2.24916-7.092921-3.59745-7.352581-1.00833-.19418-2.74981-1.2069-3.86996-2.25048-1.12016-1.04358-2.73929-1.91173-3.59808-1.92922-1.68236-.03427-5.06144-2.2691-5.06144-3.34749 0-.84991 5.20539.36743 6.45 1.5084 1.59003 1.45763 5.55 1.00875 5.55-.62911 0-.825-.35026-1.5-.77837-1.5-.68133 0-4.22163-10.3545-4.22163-12.34723 0-1.44893-5.31433-5.65277-7.14602-5.65277-1.01969 0-1.85398-.41425-1.85398-.92054 0-.5063-1.39448-1.22683-3.09884-1.60117-2.25171-.49456-2.79845-.981-2-1.77945.79845-.79845 1.42688-.7708 2.29884.10116 1.31871 1.31871 5.8 1.65549 5.8.43588 0-1.8827-4.11269-11.77051-5.02249-12.07517-.55727-.1866-1.65407-.98013-2.43733-1.76339-.78326-.78326-2.80022-1.69933-4.48214-2.03571-2.23172-.44635-3.05804-1.1723-3.05804-2.68661 0-1.61389.26667-1.80833 1.2-.875 1.18063 1.18063 4.8 1.69457 4.8.68159 0-1.11749-5.51985-11.16132-7.8467-14.27772-3.41549-4.57443-1.94666-5.848319 4.76106-4.12918 2.7971.71687 5.08564 1.61585 5.08564 1.99773 0 .38187.9.92967 2 1.21733 2.20941.57777 2.76019 2.71025.7 2.71025-.715 0-1.84-.54-2.5-1.2-.66-.66-1.2-.86917-1.2-.46482s-.9.25352-2-.33518c-1.47284-.78824-2-.76049-2 .10529 0 2.15375 4.45737 10.36656 6.74431 12.42655 1.24063 1.11751 2.25569 2.76225 2.25569 3.65497 0 1.93939 8.55196 7.1991 10.49374 6.45396.74802-.28704 1.89029.11703 2.53837.89792.64809.7809 2.48099 2.06966 4.07311 2.86392 3.47961 1.73585 3.65837.82237.94656-4.83689-1.07151-2.23614-2.41248-5.30875-2.97992-6.82801-.56744-1.51926-2.16574-3.27899-3.55178-3.91052-1.38604-.63152-2.52008-1.51684-2.52008-1.96738 0-.45054-1.76072-1.71741-3.91271-2.81528-3.05741-1.55977-3.79755-2.4365-3.38588-4.01073.42028-1.60714 1.05997-1.88514 3.16271-1.37447 2.56.62171 2.5855.58319.88588-1.33833-.9625-1.08817-1.75-2.48236-1.75-3.09822 0-1.911627-4.58866-6.183426-7.8713-7.32776-1.72079-.599869-3.1287-1.445554-3.1287-1.879301 0-.433747-2.01962-1.091493-4.48805-1.461657-4.67326-.700798-8.27462-3.191393-6.77832-4.687689.48293-.482932 3.43305-.192577 6.70659.660072 3.21442.83725 6.04182 1.324851 6.28311 1.08356.24129-.241292-.0478-1.347669-.64231-2.458617-.59456-1.110948-1.08102-2.734863-1.08102-3.6087 0-2.643192 4.83138 1.135767 6.81694 5.332003.92568 1.956325 3.03306 4.247334 4.68306 5.091132 1.65.843797 3.225 1.811025 3.5 2.149396.275.33837 1.48948.923889 2.69885 1.301152 1.20936.377264 2.47719 1.562915 2.81739 2.634781.63902 2.013398 2.48376 2.718128 2.48376.948848 0-.55.69274-1 1.53943-1 1.27969 0 1.32187-.26476.25-1.569211-3.00023-3.651221-9.78943-10.494335-9.78943-9.86716 0 .374693-.63479.154435-1.41064-.489463-.77584-.643898-4.93834-2.987623-9.25-5.208278-8.25619-4.252239-22.157-7.985448-30.83936-8.28224-4.07211-.139198-14.28428 1.393819-19 2.852216-.55.170094-2.4625.647859-4.25 1.061699-1.7875.413841-3.25 1.146187-3.25 1.627437 0 .48125-.71949.875-1.59887.875-1.6603 0-8.52522 2.931064-9.40113 4.01393-.275.339974-3.06178 2.069231-6.19284 3.842791-3.22341 1.825868-8.40055 6.219465-11.93499 10.128657-3.43318 3.797202-6.6089 6.677332-7.05715 6.400292-.44826-.27704-.81502.2726-.81502 1.22143 0 .94882-.68605 2.43787-1.52457 3.30901-2.36864 2.46082-6.20447 8.61203-10.2498 16.4368-2.03224 3.9309-4.12231 7.4499-4.6446 7.82-.52228.37011-1.00046 3.07011-1.06262 6-.0621 2.9299-.70068 6.39682-1.41895 7.70426-.75305 1.37075-.9187 2.64087-.39127 3 .50308.34256.94557 1.52283.98332 2.62283.26089 7.60239 1.5743 17.03134 3.20379 23 1.05109 3.850001 2.83978 10.485031 3.97487 14.744521 1.13509 4.25948 3.09116 9.55475 4.34682 11.76725 1.68039 2.9609 1.967 4.22311 1.0858 4.78187-.78962.50069-.87995 1.26084-.26532 2.23275.51255.81049.9388 1.06637.94722.56862.008-.49774.91531-.0905 2.01531.90499s2 2.86523 2 4.15499c0 1.28975.45965 2.34501 1.02144 2.34501.56179 0 1.52619 1.10782 2.14312 2.46182 1.00507 2.2059 1.75655 2.47207 7.22856 2.56036 11.22304.18109 11.93586.37639 12.77097 3.499.41933 1.56792.3579 4.65113-.13651 6.85159-.72461 3.22499-.5909 4.22605.68952 5.16232.94321.68969 1.27124 1.67475.80756 2.42501-.42949.69493-.38574 1.5507.0972 1.9017 1.53855 1.11819 5.28509 11.21707 4.71374 12.70598-.30228.78772-.0959 1.43222.45862 1.43222 2.82845 0 8.46167 15.24758 8.56501 23.18318.0264 2.02575.38201 3.47673.79029 3.2244.79775-.49304 2.48049 4.74456 3.49058 10.86458.34242 2.07469 1.01091 4.01216 1.48553 4.30549 1.00725.62252 9.95111-3.70627 13.61934-6.5917 3.55452-2.79598 4.99287-2.48108 5.77372 1.26405.37268 1.7875 1.24436 4.15 1.93706 5.25.69269 1.1 1.99692 4.53874 2.89827 7.64164.90136 3.10291 2.22131 5.86516 2.93323 6.13835.71192.27319 2.11893 4.03445 3.12668 8.35836 1.00776 4.32391 2.09308 8.30374 2.41183 8.84407.31875.54033.6662 1.66533.77212 2.5.10592.83467.59574 3.76758 1.08848 6.51758.49274 2.75.7814 8.825.64146 13.5-.25375 8.47661.19402 13 1.28684 13 .31712 0 1.85178-.90802 3.41036-2.01783zm10.01014-201.916431c-1.26581-2.3652-1.35135-4.37918-.15458-3.63953.8332.51495 2.20907 5.57379 1.51591 5.57379-.17938 0-.79198-.87042-1.36133-1.93426zm23.7531 193.636041c1.24756-4.41709 1.18577-5.12393-.80791-9.24233-1.4107-2.91411-2.80523-4.45945-4.02426-4.45945-1.85176 0-1.92556.21516-3.43006 10-.46336 3.01358 3.34505 9.1392 5.44265 8.75422.80779-.14826 2.0766-2.42185 2.81958-5.05244zm15.55486 2.04822c.30907-1.7875.86475-4.74911 1.23484-6.58136.74161-3.67154-1.04594-8.16864-3.24696-8.16864-.74451 0-1.33102 1.07562-1.33102 2.44098 0 1.34254-.39096 2.68261-.86879 2.97793-2.10007 1.29791.59038 12.58109 2.99993 12.58109.35753 0 .90293-1.4625 1.212-3.25zm15.22359-1.254c.43968-2.34368.12354-4.62894-.95469-6.90113-.88662-1.86842-1.61204-4.13074-1.61204-5.02738 0-.89664-.675-1.88928-1.5-2.20586-.825-.31659-1.5-1.20246-1.5-1.96862 0-2.03159-1.6407-1.70815-1.81087.35699-.46288 5.61714-.1214 10.71773.77772 11.61685.56823.56823 1.03315 1.69522 1.03315 2.50441 0 1.60416 2.82425 5.12874 4.10967 5.12874.43984 0 1.09551-1.5768 1.45706-3.504zm-21.81613-14.28936c.23565-4.7423-.0947-7.29501-1.12684-8.7065-1.99278-2.7253-2.63236-1.71614-2.76948 4.3698-.0641 2.84577-.50755 5.41577-.98542 5.71111-.47787.29534-.86886.9429-.86886 1.43901 0 1.24731 4.23148 5.08179 4.88583 4.42745.29225-.29226.6814-3.55065.86477-7.24087zm-18.94847.56894c.18207-3.74339-.21535-7.19534-1-8.68598-1.94625-3.69743-6.48884-8.40553-7.12183-7.38133-.30492.49338-.36726 4.19056-.13852 8.21596.37849 6.66094.70996 7.61716 3.68705 10.63632 1.79914 1.82457 3.49617 3.34212 3.77117 3.37234.275.0302.63596-2.74057.80213-6.15731zm45.94578-4.96433c.18597-3.75169-.25124-5.63567-1.75-7.54104-1.09885-1.39696-1.99791-3.13106-1.99791-3.85355 0-.72249-1.06716-2.4651-2.37147-3.87247-1.83694-1.9821-2.60266-2.27546-3.39719-1.30152-1.3507 1.65568-2.0238 11.64391-.76993 11.4251.52877-.0923 1.65377 1.88391 2.5 4.39152 3.12137 9.24954 7.34505 9.65743 7.7865.75196zm-16.35918-3.63821c.46561-4.45015.19144-5.84924-1.66569-8.5-2.0859-2.97729-3.91867-4.81469-4.35767-4.36867-.1059.1076-.49286 3.14534-.85992 6.75053-.63151 6.20258-.51725 6.726 2.12567 9.73792 1.53617 1.75066 3.10967 2.85095 3.49665 2.4451.38698-.40586.95441-3.13505 1.26096-6.06488zm-17.94265.41221c.92064-7.36852-.15035-12.34538-3.06804-14.25712-1.30792-.85698-2.37804-2.2564-2.37804-3.10981 0-.85341-.19373-1.35792-.43052-1.12114-.23678.23679-.71274 4.47429-1.05768 9.41667-.58116 8.32702-.46257 9.18786 1.61678 11.73615 3.32057 4.0694 4.55331 3.45164 5.3175-2.66475zm21.15809-7.31442c-.33229-.33229-.56864.25834-.52522 1.3125.048 1.16495.28494 1.4019.60416.60417.28887-.72188.25335-1.58438-.0789-1.91667zm-12.44299-5.43933c.21163-3.85288-.17731-7.23143-1.03608-9-1.34607-2.77211-3.1251-3.81473-3.1251-1.8315 0 .55-.63012 1-1.40026 1-.85216 0-1.86589-1.94097-2.58983-4.95867-.90816-3.78567-1.93091-5.42806-4.32348-6.94293-1.72365-1.09134-3.20885-1.89744-3.30044-1.79133-.0916.10611.27111 3.11793.80599 6.69293 1.0435 6.97442 4.43644 11.97158 6.63537 9.77265 1.21675-1.21675 2.20583.72593 4.31612 8.47735 1.82937 6.71959 3.60514 6.09263 4.01771-1.4185zm-18.61839 2.85403c.31949-1.27296.49978-2.73546.40063-3.25-.0991-.51454-.0834-1.38553.0351-1.93553.61229-2.84373-.32933-8.99372-1.56645-10.23084-.77661-.77661-1.41202-1.79955-1.41202-2.2732 0-.47365-.87698-1.13953-1.94885-1.47972-1.07186-.3402-2.21177-1.44694-2.53312-2.45942-.32135-1.01248-1.49691-2.07954-2.61237-2.37124-2.16314-.56567-2.14284-1.14215-.60595 17.2055.27021 3.22584 5.6616 8.67683 8.93124 9.02997.40202.0434.99235-.96256 1.31184-2.23552zm46.67299-2.79434c-.15633-1.86516-.70945-3.53806-1.22917-3.71758-.51971-.17951-2.15083-2.54201-3.6247-5.25-2.76322-5.07694-4.79004-6.22917-5.58252-3.17361-.63443 2.44615.13123 4.25 1.80394 4.25.82101 0 1.41667.98976 1.41667 2.35398 0 1.29468 1.125 3.56787 2.5 5.05152s2.5 3.16186 2.5 3.72936c0 .56749.5625.83284 1.25.58966.75038-.26542 1.1364-1.79758.96578-3.83333zm-16.69192-7.11554c-.16203-4.22852-.77449-5.92072-3.08569-8.52565-1.58595-1.7875-3.21294-3.25-3.61554-3.25-1.12524 0-2.09782 6.55761-1.33093 8.97385.81825 2.57807 6.60833 9.08236 7.56096 8.4936.37034-.22888.58238-2.79019.4712-5.6918zm19.27189-8.36286c.4494-5.9746-7.20153-16.63341-9.83073-13.69557-1.27042 1.41955-1.9216 7.19158-.88371 7.83303.65428.40437.67366 1.041.0544 1.78878-.67248.81212.36397 2.06242 3.44927 4.16097 2.42584 1.65 4.4116 3.375 4.41279 3.83333.001.45834.56468.64836 1.25218.42228.6875-.22608 1.38309-2.18035 1.54575-4.34282zm-30.2902-.42177c.34297-.55494.81303-3.02994 1.04457-5.5.32761-3.49487.0915-4.49102-1.06457-4.49102-.81705 0-1.48555-.708-1.48555-1.57332 0-.95974-.68249-1.44229-1.75-1.23732-2.4385.4682-2.73069 9.25956-.39332 11.83399 1.92679 2.1222 2.79331 2.352 3.64887.96767zm12.49445-5.55676c0-4.04773-4.1145-10.43426-6.72224-10.43426-1.76604 0-1.60777 4.52713.22224 6.35714.825.825 1.5 2.04504 1.5 2.71119 0 1.21973 2.85635 3.84077 4.25 3.89987.4125.0175.75-1.12278.75-2.53394zm-19.68366-5.68426c-.84396-7.27043-2.28743-10.53529-5.57941-12.61963-3.45355-2.18663-5.11593-1.89986-4.27868.7381.29679.93509.72477 3.62246.95107 5.97194.30278 3.1435 1.2251 5.04935 3.49197 7.21569 4.48189 4.28314 6.02077 3.91197 5.41505-1.3061zm41.03448-5.98469c.86328-.55191.86149-.73849-.007-.75-.63601-.008-.94931-.80715-.69622-1.77496.26861-1.02716-.77477-3.14287-2.50647-5.0825-1.63165-1.82756-3.47492-4.54996-4.09616-6.04977-.62125-1.49982-2.49886-3.53581-4.17247-4.52444l-3.04293-1.79751.71271 5.85694c.74371 6.11173 2.81446 11.35693 4.4836 11.35693.53588 0 .97432.45634.97432 1.0141 0 .55775 1.4625 2.32774 3.25 3.93331 3.17614 2.85287 3.25797 2.86959 3.60082.7359.19294-1.20082.86794-2.51392 1.5-2.918zm-31.65738-3.23073c.26655-2.59834-.0243-3.53458-1.09803-3.53458-.80335 0-1.73339-.85936-2.06675-1.90969-.6718-2.11668-3.30663-4.64567-4.05764-3.89467-.95109.9511 1.58229 11.20579 3.21369 13.00847 2.11964 2.34217 3.52387 1.05676 4.00873-3.66953zm11.7948.53504c.40284-2.38442.19314-4.83057-.53535-6.24476-1.31232-2.54752-5.76738-6.82486-7.10843-6.82486-1.4248 0-.93558 7.49726.62374 9.55887.8075 1.06762 1.4825 2.72863 1.5 3.69113.0175.9625.7068 1.75 1.5318 1.75.825 0 1.5.70156 1.5 1.55902 0 2.97523 1.8295.40962 2.48824-3.4894zm-22.14789-9.81962c-.70072-5.35649-2.12114-8.50001-5.64819-12.5-3.36894-3.82067-4.69216-3.47387-4.69216 1.22976 0 5.59148 2.73221 12.02024 5.10858 12.02024 1.04028 0 1.89142.6375 1.89142 1.41667 0 1.28443 1.30555 2.29641 3.23087 2.50438.40198.0434.45125-2.05855.10948-4.67105zm10.2071-6.65278c-.0396-3.67474-.67421-5.08029-3.83776-8.5-3.94584-4.26536-6.51578-5.43665-5.15005-2.34722.42549.9625.69605 3.24882.60124 5.08071-.13221 2.55469.58618 4.09436 3.08337 6.60832 4.44707 4.47694 5.35896 4.33219 5.3032-.84181zm32.50136 1.32864c.91388-3.67054-.45477-7.25636-4.40769-11.54797-1.96451-2.13284-4.70433-5.22789-6.08848-6.87789-2.10768-2.51249-2.6762-2.75625-3.49856-1.5-.54006.825-.85885 2.62545-.70842 4.00101.4304 3.93561 5.5609 13.99899 7.13695 13.99899.78321 0 2.23253 1.10974 3.22071 2.46609 2.13988 2.93715 3.52251 2.76526 4.34549-.54023zm-19.99668-1.19473c-.40549-1.79787-.5662-4.16037-.35714-5.25.9677-5.0437.44599-6.8065-2.91353-9.84452-1.90769-1.72514-3.96867-4.03661-4.57996-5.13661-1.02748-1.84895-1.16234-1.75296-1.78562 1.27081-.37081 1.79894-1.06608 3.513-1.54504 3.80902-1.42944.88344-.98537 2.40135.53216 1.81902 1.04796-.40214 1.37809.34039 1.30456 2.93428-.10276 3.62526 3.80708 10.64731 5.93545 10.66004.62866.004 1.40203.68183 1.71862 1.50683 1.10838 2.88841 2.42919 1.50638 1.6905-1.76887zm-24.2344-13.25266c-.38349-6.02266-.71752-6.82336-4.36649-10.46711-5.26198-5.25444-6.64089-5.19848-5.88051.23864.32689 2.3375.96277 5.42717 1.41306 6.86593.84648 2.70469 6.85317 9.75331 8.38271 9.83678.47657.026.67962-2.8874.45123-6.47424zm11.03654-11.16078c-.88371-4.0094-2.24611-6.33966-6.01953-10.29587-2.68252-2.81245-5.27497-4.86778-5.76101-4.56739-.48993.30279-.24985 2.97346.53876 5.99341.78236 2.99599 1.36132 5.80836 1.28657 6.24971-.47322 2.79417.63749 4.89164 4.78862 9.04276l4.68768 4.68769.81057-2.964c.47686-1.74372.34031-5.09756-.33166-8.14631zm33.52881 8.12641c.79902-2.08221-1.51405-7.40336-4.72361-10.86653-1.43262-1.54583-4.07958-4.76925-5.88212-7.16316-4.20459-5.58402-6.31324-5.84729-5.32142-.66441.39468 2.0625.70595 5.1.69169 6.75-.0143 1.65.2092 2.4375.49657 1.75.78603-1.88054 2.14014-1.50486 2.87054.7964.76274 2.40318 8.46715 10.63733 10.12828 10.82469.62866.0709 1.41169-.57124 1.74007-1.42699zm-19.9581-8.1941c-.97078-6.61036-2.00301-8.98129-4.21594-9.68365-1.04804-.33264-2.41417-1.72114-3.03584-3.08557-2.77977-6.10093-6.5332.37649-3.86249 6.66563.78326 1.84447 2.60877 4.61427 4.0567 6.15511 1.44792 1.54084 2.63259 3.22834 2.63259 3.75 0 .52166 1.15257.94848 2.56127.94848 2.48679 0 2.54099-.13813 1.86371-4.75zm-29.52365-11.40278c-.68066-3.49097-1.82728-7.77222-2.54805-9.51389-1.861-4.49695-9.35328-9.53451-9.35328-6.28885 0 3.71433 3.55873 14.07853 5.58413 16.26283 1.32873 1.43297 2.41587 3.00628 2.41587 3.49623 0 .88046 4.20188 3.20779 4.81945 2.66939.1757-.15317-.23746-3.13474-.91812-6.62571zm48.91185-3.70427c.29846-6.53184.16915-6.9901-2.75-9.7453-1.68475-1.59014-3.06318-3.45512-3.06318-4.1444 0-.68929-.7875-2.05442-1.75-3.03363-.9625-.97921-2.38854-3.00421-3.16898-4.5s-1.90969-2.71962-2.50945-2.71962c-.59976 0-1.65254-.9-2.3395-2-1.93225-3.09403-3.49565-2.47656-2.7161 1.07272.37119 1.68999.65694 5.38982.635 8.22183-.0276 3.56061.6229 6.23756 2.10851 8.67728 2.48451 4.08014 12.762 14.88238 14.24052 14.96761.55.0317 1.14093-3.02671 1.31318-6.79649zm-34.30427-3.03259c-.3637-1.9857-1.9849-4.98995-3.60267-6.67611-1.61778-1.68616-2.6335-3.37366-2.25716-3.75.37634-.37634-.04-.68425-.92525-.68425-.88523 0-3.17281-.92237-5.08351-2.04971-3.35953-1.98217-3.49358-1.98799-4.06854-.17645-.88006 2.77282 2.08782 8.17331 7.09321 12.90713 4.80638 4.5456 6.13494 5.28258 8.1701 4.53208.95393-.35177 1.14631-1.52308.67382-4.10269zm12.48551.0806c-.009-2.77605-1.98142-9.02992-3.28211-10.40724-.66677-.70606-1.8714-2.55963-2.67695-4.11905-.80555-1.55943-2.74982-3.49991-4.3206-4.31219l-2.85596-1.47688.63137 4.81219c.75717 5.77102 3.33303 13.31219 4.54708 13.31219.47951 0 2.02107 1.14923 3.42568 2.55384 2.66789 2.66789 4.54099 2.5179 4.53149-.36286zm-16.03797-13.94098c-.024-.9625-.49247-3.775-1.04115-6.25-.54868-2.475-1.05409-5.08435-1.12312-5.79855-.069-.71421-1.85051-3.25826-3.95885-5.65345-2.10833-2.3952-3.83333-4.87491-3.83333-5.51047 0-.63556-.45318-.87548-1.00706-.53316-.55389.34231-1.27703-.0811-1.60699-.94099-.32996-.85986-1.41428-1.56338-2.40961-1.56338-.99532 0-2.03791-.5625-2.31688-1.25-.39157-.96503-.72803-.93423-1.47585.13511-.64305.91953-.53752 2.43214.31397 4.5.70544 1.71319 2.06965 6.38452 3.03158 10.38074 1.46615 6.09097 2.13072 7.36166 4.1099 7.85841 1.29852.3259 2.36094.94975 2.36094 1.38632s1.35 1.26438 3 1.83958c1.65.57519 3 1.51921 3 2.09782 0 .57861.675 1.05202 1.5 1.05202s1.4804-.7875 1.45645-1.75zm13.4115-17.1521c-.7456-1.42885-1.3584-3.05215-1.36179-3.60735-.003-.5552-.90616-1.57152-2.00616-2.25848s-2-1.9202-2-2.74054c0-.82034-.43448-1.49153-.96552-1.49153-.53104 0-2.30636-1.2375-3.94516-2.75-1.63879-1.5125-3.63344-3.28739-4.43254-3.94421-.79911-.65681-1.66754-1.781811-1.92985-2.500001-.36944-1.01148-.7617-1.03793-1.7404-.11732-1.01752.95712-1.0017 2.368421.0813 7.250001.73961 3.33384 1.73224 6.06153 2.20585 6.06153.47362 0 .58277.87698.24258 1.94885-.61885 1.9498 2.40276 6.05115 4.45808 6.05115.53588 0 1.70538 1.41371 2.5989 3.14158.89351 1.72787 3.26757 4.6504 5.27568 6.4945l3.6511 3.35292.61178-6.1466c.42568-4.27677.1994-6.9369-.74383-8.7445zm20.62685 5.87342c-1.05013-5.79112-2.77879-9.20576-7.29122-14.40248-3.7402-4.30739-5.31077-5.84284-8.92009-8.72061l-3.71652-2.963251-.66883 2.664851c-.38034 1.51539-.21871 2.94303.37473 3.3098.57396.35472 1.36332 2.44392 1.75413 4.64266.39082 2.19874 1.55381 4.89771 2.58443 5.99771 10.22848 10.91703 16.06433 16.65757 16.49564 16.22627.28523-.28523.01-3.32496-.61227-6.75495zm-3.92348-24.602371c-.9277-3.68422-2.90114-6.18318-11.76491-14.89786-5.85762-5.7591-11.24603-10.47109-11.97424-10.47109-1.82994 0 1.78606 9.43345 4.87489 12.71766 1.26112 1.34089 4.19694 4.54046 6.52405 7.11016 2.32711 2.5697 4.69258 5.12218 5.2566 5.67218.56402.55 2.48502 2.481461 4.26889 4.292141 3.82143 3.87886 4.59794 2.65862 2.81472-4.423191zm-19.07132 6.126561c0-.27746-1.125-4.73262-2.5-9.900341-1.375-5.16773-2.5-9.60951-2.5-9.87062 0-.80126-14.75354-10.72455-15.94481-10.72455-.61488 0-1.37698-.675-1.69356-1.5-.31659-.825-1.2517-1.5-2.07802-1.5-1.13874 0-1.37218.7867-.96436 3.25 1.00935 6.09668 1.94092 9.24882 3.17701 10.75.67932.825 1.53231 2.75014 1.89553 4.27809.40235 1.69249 2.23184 3.84172 4.6818 5.5 2.21176 1.49705 6.35041 4.409411 9.19699 6.471911 4.8653 3.52518 6.72942 4.42422 6.72942 3.24551zm11.99864-28.498421c-1.28728-2.7484-2.68327-4.99709-3.10219-4.99709-.41892 0-1.02446-.82795-1.34563-1.83989-.32118-1.01194-1.7015-2.43798-3.06739-3.16898-1.36589-.731-2.48343-1.67185-2.48343-2.09077 0-1.83259-4.64792-7.81962-6.10043-7.85803-.88024-.02328-2.63505-1.39233-3.89957-3.04233-1.26452-1.65-2.82568-3-3.46923-3-.64356 0-2.18454-1.16671-3.42441-2.59269-3.84806-4.42565-3.65186-1.7098.45788 6.33812 4.65139 9.10862 5.45483 10.13039 13.3282 16.95 2.41584 2.09252 5.56584 4.93027 7 6.30613 2.65405 2.54615 7.26632 5.05781 8.02714 4.37125.23076-.20825-.63366-2.62732-1.92094-5.37572zm-21.38376-.74709c-.28595-.9625-.82533-3.1-1.19863-4.75-.77343-3.41858-4.10492-7.5-6.12195-7.5-.74639 0-1.61609-.675-1.93267-1.5-.31659-.825-1.20246-1.5-1.96862-1.5-.76615 0-1.39347-.3375-1.39403-.75-.001-1.06041-9.46423-6.25-11.39636-6.25-1.69182 0-2.22248 1.59955-.71881 2.16667.4861.18333 1.4986 2.50202 2.25 5.15263 1.00782 3.55514 2.15313 5.26018 4.36619 6.5 1.65.92439 3.225 1.9057 3.5 2.1807.275.275 2.68643 1.625 5.35873 3 2.6723 1.375 5.08295 3.0625 5.35699 3.75.27404.6875 1.38044 1.25 2.45866 1.25 1.39843 0 1.81136-.50165 1.4405-1.75zm14.38512-18.17656c0-.50961-1.83005-4.54489-4.06678-8.9673-3.94827-7.80642-8.60253-13.10614-11.50995-13.10614-.7828 0-1.42327-.36665-1.42327-.81479 0-.44813-1.4625-1.57649-3.25-2.50746-1.7875-.93097-5.05-2.82385-7.25-4.20639-2.2-1.38254-4.58191-2.78478-5.29313-3.11608-1.95993-.912965-2.79179.52382-1.41424 2.44268.67204.93612 1.78112 2.82704 2.46463 4.20204 1.67403 3.36761 5.81831 7.99982 7.15804 8.00078.98751.00071 4.25748 2.62022 11.85198 9.49441 1.52201 1.37764 2.96406 2.50481 3.20455 2.50481.24049 0 1.6226 1.08511 3.07135 2.41136 4.63032 4.2388 4.94333 4.48774 5.70682 4.53864.4125.0275.75-.36695.75-.87656zm-19.50708-32.06199c.35034-.56686-.0511-.7345-.94098-.39301-1.73242.66479-2.04939 1.38156-.61096 1.38156.51754 0 1.21592-.44485 1.55194-.98855z"/>
</svg>