<?xml version="1.0" encoding="UTF-8" standalone="no"?>
<!-- Created with Inkscape (http://www.inkscape.org/) -->
<svg
   xmlns:dc="http://purl.org/dc/elements/1.1/"
   xmlns:cc="http://creativecommons.org/ns#"
   xmlns:rdf="http://www.w3.org/1999/02/22-rdf-syntax-ns#"
   xmlns:svg="http://www.w3.org/2000/svg"
   xmlns="http://www.w3.org/2000/svg"
   xmlns:sodipodi="http://sodipodi.sourceforge.net/DTD/sodipodi-0.dtd"
   xmlns:inkscape="http://www.inkscape.org/namespaces/inkscape"
   width="300.45404"
   height="298.4454"
   id="svg2400"
   sodipodi:version="0.32"
   inkscape:version="0.46"
   sodipodi:docname="denari.svg"
   inkscape:output_extension="org.inkscape.output.svg.inkscape"
   version="1.0">
  <defs
     id="defs2402">
    <inkscape:perspective
       sodipodi:type="inkscape:persp3d"
       inkscape:vp_x="0 : 526.18109 : 1"
       inkscape:vp_y="0 : 1000 : 0"
       inkscape:vp_z="744.09448 : 526.18109 : 1"
       inkscape:persp3d-origin="372.04724 : 350.78739 : 1"
       id="perspective2408" />
    <inkscape:perspective
       sodipodi:type="inkscape:persp3d"
       inkscape:vp_x="0 : 526.18109 : 1"
       inkscape:vp_y="0 : 1000 : 0"
       inkscape:vp_z="744.09448 : 526.18109 : 1"
       inkscape:persp3d-origin="372.04724 : 350.78739 : 1"
       id="perspective2930" />
    <inkscape:perspective
       id="perspective2921"
       inkscape:persp3d-origin="372.04724 : 350.78739 : 1"
       inkscape:vp_z="744.09448 : 526.18109 : 1"
       inkscape:vp_y="0 : 1000 : 0"
       inkscape:vp_x="0 : 526.18109 : 1"
       sodipodi:type="inkscape:persp3d" />
  </defs>
  <sodipodi:namedview
     id="base"
     pagecolor="#ffffff"
     bordercolor="#666666"
     borderopacity="1.0"
     inkscape:pageopacity="0.0"
     inkscape:pageshadow="2"
     inkscape:zoom="2.8"
     inkscape:cx="375"
     inkscape:cy="768.20021"
     inkscape:document-units="px"
     inkscape:current-layer="layer1"
     showgrid="false"
     inkscape:window-width="640"
     inkscape:window-height="669"
     inkscape:window-x="46"
     inkscape:window-y="46" />
  <metadata
     id="metadata2405">
    <rdf:RDF>
      <cc:Work
         rdf:about="">
        <dc:format>image/svg+xml</dc:format>
        <dc:type
           rdf:resource="http://purl.org/dc/dcmitype/StillImage" />
      </cc:Work>
    </rdf:RDF>
  </metadata>
  <g
     inkscape:label="Livello 1"
     inkscape:groupmode="layer"
     id="layer1"
     transform="translate(-244.05869,-163.13948)">
    <g
       transform="translate(4.9415471,-73.823552)"
       id="g2422"
       inkscape:label="Livello 1">
      <g
         transform="translate(-17.142856,-97.142854)"
         id="g2944">
        <path
           id="path2948"
           d="M 379.40991,630.44942 C 360.31041,626.73093 347.95028,622.19405 331.36109,612.81273 C 308.28843,599.76496 292.64962,585.26549 279.46703,564.6993 C 263.21082,539.33796 255.09419,508.26107 256.39523,476.36218 C 257.54396,448.19792 264.04916,428.4048 280.53137,402.92411 C 288.18981,391.08454 305.84186,372.32285 317.49065,363.64151 C 342.53408,344.97772 364.94465,336.86448 397.5089,334.67271 C 417.60949,333.31982 426.09391,334.1834 445.07143,339.51384 C 456.96431,342.85434 461.84969,344.66697 475.57143,350.83031 C 489.08597,356.90058 512.03718,374.06798 521.20849,384.96662 C 531.09204,396.71165 542.03047,415.54497 547.66904,430.52527 C 556.10438,452.9359 558.86457,482.06679 554.99681,507.86218 C 552.40763,525.13033 539.92422,555.12153 528.56585,571.36218 C 518.31608,586.0177 493.56787,607.76401 478.07143,615.73174 C 455.77778,627.19437 436.85421,631.80295 409.57143,632.41401 C 393.68372,632.76985 390.14428,632.5393 379.40991,630.44942 z M 432.04026,617.86979 C 452.92783,613.37924 473.37744,604.61929 487.22572,594.23014 C 497.43706,586.56947 515.09039,568.20426 521.22273,558.86218 C 531.34757,543.43787 538.75597,525.85567 541.02655,511.86218 C 541.51738,508.83718 542.45435,502.98718 543.10869,498.86218 C 545.56249,483.39331 542.71946,457.63754 536.43045,438.36218 C 526.74667,408.68213 502.90606,380.14493 473.95049,363.5737 C 465.97195,359.00759 447.84246,352.05885 436.48767,349.21481 C 426.50429,346.71427 424.03322,346.4886 407.57143,346.57404 C 380.44186,346.71484 371.82328,348.63069 344.73836,360.54137 C 331.78103,366.2394 328.45145,368.19627 321.11337,374.4263 C 309.62363,384.1811 304.50061,389.60354 296.13725,400.86218 C 288.44774,411.21369 276.76698,432.9651 274.479,441.19324 C 266.80343,468.79646 266.7448,498.42887 274.31434,524.41436 C 277.24669,534.4808 287.57965,554.17209 295.27687,564.36218 C 304.00477,575.91675 316.93651,588.67406 325.57143,594.24814 C 328.87143,596.37838 333.14643,599.16715 335.07143,600.44541 C 340.51762,604.06186 357.7462,611.39612 368.67037,614.7486 C 377.62054,617.49528 385.10182,619.05701 395.07143,620.25986 C 402.47434,621.15304 422.91547,619.8315 432.04026,617.86979 z M 398.07143,607.16116 C 394.83781,606.83871 384.50238,604.60757 371.07143,601.33259 C 352.06746,596.6987 328.01684,581.61897 314.9887,566.16873 C 304.91834,554.22617 301.85749,549.49557 294.73237,534.86218 C 287.05671,519.0981 284.62157,508.94622 283.14667,486.56246 C 282.23973,472.79828 282.57555,468.03336 285.41604,454.36218 C 291.38577,425.63018 312.0266,396.35877 337.07143,381.10807 C 348.00676,374.44915 369.3299,364.96971 378.07143,362.88105 C 380.54643,362.28969 389.63968,361.52698 398.27866,361.18615 C 420.72277,360.30067 435.3343,362.43584 451.80107,369.00736 C 461.54155,372.89457 469.46544,376.86564 476.83606,381.5537 C 482.39055,385.08661 503.57011,405.79125 506.81682,410.86218 C 507.69717,412.23718 510.37354,416.29651 512.76431,419.88291 C 517.39654,426.83176 525.49999,445.35011 527.17064,452.80486 C 528.99247,460.93426 531.07143,479.0908 531.07143,486.87238 C 531.07143,517.32557 517.18001,547.82275 492.27409,572.04792 C 472.06834,591.70139 450.88872,601.5788 420.97762,605.29801 C 404.04224,607.40379 402.09387,607.56227 398.07143,607.16116 z"
           style="fill:#eec61e" />
        <path
           id="path2946"
           d="M 381.84632,630.33867 C 364.28968,627.14453 349.28917,621.8338 333.47633,613.21392 C 313.412,602.27648 300.8051,591.91909 288.62082,576.36218 C 272.97355,556.38372 264.98564,538.49851 258.92053,509.86218 C 255.80534,495.15384 255.86028,471.15541 259.0453,455.36218 C 264.78956,426.87874 277.61178,403.42606 299.88482,380.66401 C 314.50056,365.72739 326.06767,357.13465 342.57143,348.95386 C 359.90783,340.36033 379.67152,335.55619 402.57143,334.36912 C 416.83226,333.62987 428.67791,335.26323 446.07143,340.36718 C 470.35348,347.4925 488.87304,357.07373 505.95697,371.34941 C 517.28861,380.81835 522.38062,386.41872 529.90028,397.68307 C 545.17111,420.55855 553.48791,443.98862 556.05363,471.36218 C 557.1909,483.49569 556.31155,501.36633 554.08929,511.28247 C 550.4063,527.71674 538.63771,555.24535 529.42446,568.97746 C 517.41077,586.88357 491.94318,608.96926 473.46311,617.50758 C 453.52897,626.71772 432.65187,631.57018 409.57143,632.35791 C 397.59153,632.76678 393.59099,632.47542 381.84632,630.33867 z M 428.48308,618.87728 C 450.49891,615.11349 471.91778,606.40821 486.92169,595.12607 C 497.51607,587.15965 514.7185,569.62608 520.84039,560.55444 C 531.08539,545.37304 538.91357,526.96784 541.23374,512.60674 C 541.78861,509.17223 542.62124,504.11218 543.08401,501.36218 C 543.54679,498.61218 543.95691,490.06218 543.9954,482.36218 C 544.17935,445.56004 530.69534,412.90371 504.34403,386.3323 C 487.14839,368.99304 465.18153,356.35526 440.66367,349.69628 C 431.21947,347.13126 427.18223,346.60403 413.49078,346.14769 C 386.8998,345.2614 369.86563,348.3662 349.57143,357.79822 C 345.17143,359.84318 338.93444,362.59746 335.71146,363.91885 C 328.52806,366.86396 312.11832,380.45097 303.77427,390.36234 C 291.31582,405.16095 279.47189,424.80219 274.99631,438.08594 C 269.35078,454.84217 266.58799,484.00416 269.06211,500.72325 C 271.99404,520.53612 274.30015,528.38375 281.47124,542.9511 C 291.96298,564.26403 309.15015,583.99087 328.39461,596.80814 C 344.36316,607.44357 371.87953,618.09748 387.68487,619.76439 C 401.9846,621.27252 416.29223,620.96141 428.48308,618.87728 z M 395.07143,606.17841 C 393.14643,605.95575 389.54643,605.15644 387.07143,604.40216 C 384.59643,603.64788 379.42143,602.4888 375.57143,601.82642 C 363.01515,599.66615 345.43225,591.26346 331.57143,580.79925 C 316.59009,569.48912 305.57557,555.60737 295.8984,535.84005 C 287.1999,518.07186 284.62298,506.9033 283.57414,482.42598 C 282.74548,463.08708 286.97391,443.72989 295.27475,428.86218 C 296.96364,425.83718 299.5057,421.19402 300.92377,418.54406 C 305.28643,410.39147 319.14785,394.78157 327.87805,388.18975 C 341.20303,378.1286 365.88234,366.32966 379.9644,363.28777 C 395.77875,359.87168 421.88506,360.64085 438.07143,364.99978 C 447.02534,367.41103 463.86473,374.63073 473.57143,380.21999 C 482.96393,385.62834 501.69118,404.44622 509.58773,416.4106 C 516.99092,427.62745 524.51946,444.33092 527.02862,455.10646 C 529.3049,464.88188 531.05076,482.74147 530.62218,491.8676 C 530.03873,504.29173 524.89258,523.28352 518.83659,535.36218 C 508.63942,555.70038 490.92792,575.41408 472.49881,586.93822 C 466.40887,590.7464 461.00887,593.86495 460.49881,593.86834 C 459.98875,593.87173 458.38212,594.49504 456.92853,595.25347 C 450.24798,598.73915 432.92005,603.85879 427.77264,603.86776 C 426.01197,603.87082 422.99643,604.27989 421.07143,604.7768 C 416.92793,605.84637 400.06163,606.7556 395.07143,606.17841 z M 410.7361,585.11218 C 420.96812,566.06068 429.85783,547.38433 429.09156,546.54928 C 428.6813,546.10218 425.69643,546.39674 422.45853,547.20384 C 419.22062,548.01095 414.35077,548.9793 411.63663,549.35573 C 406.86187,550.01796 393.6173,548.57722 387.65927,546.74749 C 386.05759,546.25561 384.5059,546.09437 384.21109,546.38918 C 383.22022,547.38005 387.27139,559.10481 392.32153,569.86218 C 393.74165,572.88718 396.57167,579.63718 398.61047,584.86218 C 402.89563,595.84414 402.9046,595.86218 404.07602,595.86218 C 404.56362,595.86218 407.56066,591.02468 410.7361,585.11218 z M 371.07143,580.96771 C 374.59489,578.42488 374.95548,573.00148 371.84178,569.38158 C 370.12456,567.38519 368.2756,566.5268 364.86446,566.14232 C 360.8325,565.68786 359.88544,565.95726 357.64746,568.19524 C 355.89897,569.94373 355.08165,571.82992 355.10323,574.06673 C 355.14076,577.95477 356.48296,579.94781 360.57143,582.18648 C 363.95215,584.03761 367.36684,583.64126 371.07143,580.96771 z M 449.45843,582.90514 C 454.37046,581.03759 456.64564,572.89154 453.32143,569.07408 C 447.70245,562.62133 441.1477,563.17486 437.96454,570.37092 C 435.52146,575.8939 436.27629,579.40628 440.45372,581.95359 C 443.96354,584.09381 445.81689,584.28965 449.45843,582.90514 z M 332.25629,561.2435 C 333.73297,560.49258 340.12014,557.87655 346.45001,555.43012 C 352.77988,552.98368 358.99669,550.35114 360.26514,549.58002 C 361.5336,548.80891 364.59643,547.57589 367.07143,546.83996 C 374.75273,544.55599 376.20743,542.0338 371.32143,539.47126 C 368.38742,537.93246 357.99793,527.89241 354.40728,523.12599 C 353.217,521.54595 351.24914,518.34616 350.03425,516.01536 C 348.81937,513.68455 347.33635,511.94054 346.73866,512.13977 C 346.14096,512.339 344.3573,515.62055 342.77497,519.43209 C 341.19263,523.24364 339.31866,527.71218 338.61059,529.36218 C 336.3262,534.68545 334.20439,540.29929 333.50811,542.86218 C 333.13456,544.23718 330.88969,549.25589 328.51953,554.01487 C 326.14936,558.77384 324.48387,562.94129 324.81845,563.27586 C 325.52465,563.98207 328.4345,563.18696 332.25629,561.2435 z M 494.07143,558.08469 C 494.07143,557.10706 493.28393,555.20657 492.32143,553.86137 C 490.39669,551.17133 487.59302,545.98202 481.67305,534.15224 C 477.2256,525.26497 470.06042,512.97341 468.91424,512.26503 C 468.4901,512.0029 466.93248,513.71752 465.45285,516.0753 C 460.93268,523.27819 450.53742,534.195 445.18295,537.36218 C 439.41812,540.77209 438.88844,542.18031 442.82143,543.64059 C 459.42949,549.80704 489.37759,559.66312 491.82143,559.76676 C 493.34667,559.83144 494.07143,559.28962 494.07143,558.08469 z M 424.55933,541.69942 C 437.91336,537.80222 448.33302,530.54573 456.57188,519.40513 C 464.7358,508.36587 468.26866,498.83139 468.85162,486.2646 C 469.26872,477.27329 469.02414,475.24648 466.6192,467.7646 C 461.371,451.43726 453.24518,440.5566 439.71725,431.74229 C 422.70592,420.65832 402.10726,419.14694 381.87987,427.4986 C 374.46038,430.56202 372.04127,432.2114 365.35112,438.76807 C 359.41243,444.58828 356.58319,448.33258 353.67172,454.22495 C 347.50934,466.69663 345.10647,479.4123 346.89499,490.08646 C 349.78582,507.3394 352.30672,512.92346 362.94485,525.63848 C 366.98003,530.46145 374.993,536.86218 376.99561,536.86218 C 377.44876,536.86218 379.7887,537.9514 382.19548,539.28267 C 391.94158,544.67359 410.70107,545.74377 424.55933,541.69942 z M 390.57143,532.42386 C 383.7256,530.17109 374.30079,523.87723 368.67693,517.80279 C 360.69894,509.18561 357.17116,502.0517 355.93026,492.02633 C 353.44698,471.9637 360.44727,453.29469 374.28577,443.07421 C 384.97148,435.18223 392.02288,432.88592 405.57143,432.88592 C 415.81281,432.88592 422.82649,434.47764 431.52609,438.7762 C 449.41291,447.61427 460.99805,471.14345 457.6642,491.86218 C 455.24193,506.91579 442.97758,522.66179 428.16497,529.73577 C 420.74363,533.27994 420.27662,533.36647 407.57143,533.55117 C 399.03066,533.67533 393.19936,533.28864 390.57143,532.42386 z M 415.57143,523.76925 C 430.62975,520.30697 442.23346,509.57424 447.44056,494.29224 C 454.13264,474.65206 440.77712,449.63322 419.86137,442.62828 C 413.36224,440.45164 411.54087,440.2586 403.07143,440.84877 C 395.10157,441.40413 392.54459,442.03476 387.1962,444.76408 C 379.84173,448.51711 372.78858,455.19356 368.60516,462.36218 C 365.76308,467.23232 363.54374,469.15437 363.51772,482.79075 C 363.49594,494.20783 368.85832,501.88126 369.06527,502.43218 C 371.22478,508.18115 381.49789,516.83994 388.76883,520.70743 C 395.38517,524.22672 407.54184,525.61545 415.57143,523.76925 z M 400.30809,518.1711 C 397.89455,516.88781 395.51715,516.08671 395.025,516.39088 C 393.6675,517.22986 387.88808,513.91483 388.33495,512.55352 C 388.55004,511.89828 390.3669,511.22322 392.3724,511.05338 C 394.80095,510.84772 396.66009,509.92928 397.93902,508.30338 C 400.03647,505.63691 402.02129,505.21204 403.8478,507.03855 C 404.74963,507.94038 405.46381,507.81706 406.90795,506.51013 C 408.44928,505.11524 409.31324,505.00362 411.66063,505.89609 C 413.30658,506.52188 416.5633,506.70714 419.30048,506.33068 C 423.13216,505.80369 424.07143,505.9644 424.07143,507.14702 C 424.07143,507.95691 422.69913,509.18796 421.02188,509.8827 C 419.34463,510.57745 416.65795,513.05625 415.05149,515.39116 C 411.30415,520.83773 406.88903,521.67022 400.30809,518.1711 z M 408.8862,513.61218 C 409.14279,512.25916 408.5343,511.86218 406.20377,511.86218 C 403.02686,511.86218 401.51273,513.14916 402.60685,514.91949 C 403.64434,516.59818 408.51212,515.58475 408.8862,513.61218 z M 401.07143,497.18108 C 399.14643,496.32682 396.10893,495.01288 394.32143,494.26121 C 391.29241,492.98746 390.05713,490.60708 391.8501,489.49897 C 392.27837,489.23428 395.54087,489.68022 399.1001,490.48993 C 402.65933,491.29965 406.02143,491.95622 406.57143,491.94899 C 410.53153,491.89691 417.91024,490.34471 419.54394,489.22006 C 422.28507,487.33305 424.07143,487.52525 424.07143,489.70719 C 424.07143,492.40855 420.86521,494.86338 416.44546,495.54599 C 414.31474,495.87507 411.35628,496.75584 409.87109,497.50325 C 406.54003,499.17958 405.48812,499.14107 401.07143,497.18108 z M 381.39389,478.49542 C 379.84153,477.19765 377.5327,475.81062 376.26313,475.41312 C 372.7854,474.32425 373.63049,470.3408 377.32143,470.42468 C 378.83393,470.45906 383.89643,470.57155 388.57143,470.67468 C 396.34226,470.8461 397.07143,471.03375 397.07143,472.86218 C 397.07143,474.39352 396.40476,474.86218 394.22642,474.86218 C 392.60942,474.86218 390.56397,475.76544 389.48761,476.9548 C 386.04656,480.75712 384.46041,481.05904 381.39389,478.49542 z M 417.25852,474.86218 C 415.81067,473.21218 413.82627,471.86218 412.84875,471.86218 C 410.8323,471.86218 410.41505,469.30813 412.32143,468.6344 C 413.00893,468.39143 418.04402,468.26105 423.51052,468.34468 C 433.82101,468.5024 436.86613,469.84914 431.51365,471.88415 C 430.01746,472.453 427.47135,474.03077 425.85564,475.3903 C 422.03619,478.60416 420.45691,478.50714 417.25852,474.86218 z M 395.07143,462.7306 C 393.69643,462.17796 388.52409,461.85079 383.57734,462.00354 C 375.9323,462.23962 374.53633,462.03768 374.27047,460.65717 C 373.94518,458.9681 374.31255,458.79989 382.57143,456.85629 C 386.53596,455.92331 388.79149,455.9574 393.46277,457.0209 C 399.7879,458.46094 402.80436,461.13314 400.07143,462.87533 C 398.28704,464.01285 398.25976,464.01206 395.07143,462.7306 z M 409.07143,459.8825 C 409.07143,459.34368 410.98393,457.89572 413.32143,456.66482 C 419.22089,453.55823 430.15858,453.50489 433.22147,456.56778 C 436.30671,459.65302 434.92597,460.69858 429.00289,459.76226 C 426.08828,459.30153 421.69866,459.36394 418.83608,459.90681 C 412.39344,461.12863 409.07143,461.12036 409.07143,459.8825 z M 319.82143,528.0996 C 322.60233,525.98201 323.07143,525.00289 323.07143,521.31607 C 323.07143,517.84104 322.55626,516.60211 320.40895,514.91303 C 312.89625,509.00354 305.07143,512.93106 305.07143,522.6114 C 305.07143,524.07563 306.47037,526.46112 308.54667,528.53742 C 312.46002,532.45077 314.19585,532.38336 319.82143,528.0996 z M 506.7278,525.35168 C 507.97131,524.5369 509.53333,522.05255 510.19895,519.83089 C 511.27874,516.22687 511.19204,515.49894 509.39448,513.07685 C 506.57507,509.27788 501.07111,508.01504 496.60838,510.14317 C 492.22697,512.23252 489.97281,518.7909 492.24175,522.84772 C 495.02556,527.82512 501.29811,528.90935 506.7278,525.35168 z M 343.07143,502.92728 C 343.07143,501.31308 342.67714,498.95058 342.19523,497.67728 C 340.3453,492.78937 339.93231,477.59305 341.50782,472.38322 C 342.39896,469.43643 342.64654,467.03729 342.11441,466.50516 C 341.58228,465.97303 337.61463,467.05844 332.39337,469.16449 C 327.5413,471.12162 322.22143,473.05043 320.57143,473.45073 C 318.92143,473.85103 316.67143,474.7308 315.57143,475.40577 C 314.47143,476.08073 309.2487,478.05008 303.96536,479.78209 C 298.68202,481.51411 293.54151,483.52919 292.54199,484.26005 C 290.8257,485.51503 290.87115,485.68484 293.35964,487.31536 C 294.80885,488.26493 299.04937,489.87274 302.783,490.88829 C 310.93784,493.1064 324.14384,497.8382 331.3372,501.11945 C 343.82222,506.8145 343.07143,506.69883 343.07143,502.92728 z M 481.07143,498.86218 C 484.8308,497.21218 488.13467,495.86218 488.41334,495.86218 C 488.69202,495.86218 493.5666,493.65216 499.24573,490.95101 C 504.92487,488.24987 511.70893,485.12518 514.32143,484.00724 C 516.93393,482.88931 519.07143,481.5391 519.07143,481.00677 C 519.07143,480.47444 516.48393,479.1347 513.32143,478.02957 C 499.87031,473.3291 487.89764,468.833 483.51341,466.83575 C 480.92825,465.65807 477.22901,464.43746 475.29287,464.12326 L 471.77262,463.55201 L 472.66737,468.95709 C 473.79552,475.77218 473.79892,494.31339 472.6728,498.61218 C 471.59855,502.713 472.25328,502.73249 481.07143,498.86218 z M 476.69325,442.11218 C 480.26122,434.54968 483.61161,427.68718 484.13856,426.86218 C 487.38223,421.78384 491.70991,410.16733 490.72506,409.18248 C 490.32358,408.781 488.54977,409.0259 486.78326,409.72671 C 485.01676,410.42752 480.87143,411.93162 477.57143,413.06917 C 474.27143,414.20671 470.67143,415.52746 469.57143,416.00416 C 468.47143,416.48086 462.84643,418.18663 457.07143,419.79477 C 444.16764,423.38801 441.07143,424.54204 441.07143,425.75835 C 441.07143,426.27847 443.47068,428.42711 446.40311,430.5331 C 452.78702,435.11787 463.45081,446.72534 466.16295,452.04158 C 467.23497,454.14291 468.58322,455.86218 469.15905,455.86218 C 469.73489,455.86218 473.12528,449.67468 476.69325,442.11218 z M 506.14835,452.9391 C 512.63336,446.4541 506.55974,434.82503 498.32326,437.95653 C 491.84198,440.42071 490.09766,446.08321 494.20955,451.31064 C 498.24756,456.44414 502.11569,456.97176 506.14835,452.9391 z M 320.08239,450.61218 C 322.91748,445.9623 322.62526,442.26216 319.14835,438.78526 C 313.77993,433.41683 305.65788,436.25059 304.43842,443.9175 C 303.97878,446.80731 304.37612,448.07083 306.56107,450.6675 C 308.83866,453.37427 309.92516,453.86218 313.67502,453.86218 C 317.5951,453.86218 318.32726,453.49081 320.08239,450.61218 z M 349.93406,449.89281 C 353.96187,442.72629 359.92422,436.04788 367.55243,430.15855 C 371.68171,426.97055 375.06274,423.84753 375.06583,423.21852 C 375.06891,422.58951 372.03393,420.87416 368.32143,419.40664 C 359.45723,415.9027 358.83337,415.64342 343.07143,408.91286 C 335.64643,405.74229 329.16029,403.51747 328.65778,403.96883 C 328.11401,404.45725 328.40327,406.72716 329.3723,409.57583 C 335.38341,427.24687 339.93402,439.78401 341.27277,442.36218 C 342.12955,444.01218 343.16267,446.93718 343.56859,448.86218 C 343.97451,450.78718 344.50526,452.69968 344.74804,453.11218 C 345.78597,454.87569 347.85562,453.59089 349.93406,449.89281 z M 401.00748,417.8208 C 408.56983,417.04476 412.46167,417.14954 419.09644,418.30782 C 423.7459,419.1195 427.90094,419.43267 428.32987,419.00374 C 428.75879,418.57482 424.80544,409.47999 419.54464,398.79303 C 406.56771,372.43128 405.56261,370.52591 404.43516,370.15009 C 403.89607,369.97039 402.39991,372.8696 401.11036,376.59277 C 399.8208,380.31595 398.43647,383.81218 398.03405,384.36218 C 397.63163,384.91218 396.96828,386.93718 396.55995,388.86218 C 396.15161,390.78718 394.78133,394.51823 393.51488,397.1534 C 392.24843,399.78856 390.92123,403.38856 390.56556,405.1534 C 390.20989,406.91823 389.22355,410.25771 388.3737,412.57447 C 386.62025,417.35451 387.22239,420.40196 389.73018,419.43964 C 390.63322,419.09311 395.70801,418.36463 401.00748,417.8208 z M 453.79797,401.33564 C 456.91709,398.21652 457.2557,397.38516 456.72899,394.13939 C 455.95636,389.37824 452.60135,386.25183 447.44599,385.4889 C 444.17515,385.00485 442.77686,385.30605 440.69599,386.94286 C 436.95833,389.88291 436.94035,397.36452 440.66032,401.78545 C 444.39459,406.22338 449.07032,406.06329 453.79797,401.33564 z M 375.63582,396.18888 C 377.8034,393.34702 378.1951,392.00078 377.71997,389.02575 C 377.05635,384.87048 372.91907,380.87503 369.27177,380.86715 C 364.16714,380.85612 359.07143,385.20089 359.07143,389.5643 C 359.07143,392.85012 363.90209,398.75927 367.3416,399.68087 C 371.50495,400.79642 372.4131,400.41408 375.63582,396.18888 z"
           style="fill:#12100a"
           sodipodi:nodetypes="csssssssssssssssccssssssssssssssssccssssssssssssssssssssccssssssssccsssssccsssccssssssssssssccsssssssccsssssssssssccssssssssccssssssssccsssssssssssccssccssssssssccssssssccsssssccsssssccssssccssssccssssccsssssssssssccsssssscccsccssssssssssccssccssssccsssssssssccsssssssssssccssssccssssc" />
      </g>
    </g>
  </g>
</svg>
