<?xml version="1.0" encoding="UTF-8" standalone="no"?>
<!-- Created with Inkscape (http://www.inkscape.org/) -->
<svg
   xmlns:dc="http://purl.org/dc/elements/1.1/"
   xmlns:cc="http://creativecommons.org/ns#"
   xmlns:rdf="http://www.w3.org/1999/02/22-rdf-syntax-ns#"
   xmlns:svg="http://www.w3.org/2000/svg"
   xmlns="http://www.w3.org/2000/svg"
   xmlns:sodipodi="http://sodipodi.sourceforge.net/DTD/sodipodi-0.dtd"
   xmlns:inkscape="http://www.inkscape.org/namespaces/inkscape"
   width="269"
   height="727.15784"
   id="svg3175"
   sodipodi:version="0.32"
   inkscape:version="0.46"
   version="1.0"
   sodipodi:docname="spade.svg"
   inkscape:output_extension="org.inkscape.output.svg.inkscape">
  <defs
     id="defs3177">
    <inkscape:perspective
       sodipodi:type="inkscape:persp3d"
       inkscape:vp_x="0 : 526.18109 : 1"
       inkscape:vp_y="0 : 1000 : 0"
       inkscape:vp_z="744.09448 : 526.18109 : 1"
       inkscape:persp3d-origin="372.04724 : 350.78739 : 1"
       id="perspective3183" />
    <inkscape:perspective
       id="perspective3192"
       inkscape:persp3d-origin="372.04724 : 350.78739 : 1"
       inkscape:vp_z="744.09448 : 526.18109 : 1"
       inkscape:vp_y="0 : 1000 : 0"
       inkscape:vp_x="0 : 526.18109 : 1"
       sodipodi:type="inkscape:persp3d" />
  </defs>
  <sodipodi:namedview
     id="base"
     pagecolor="#ffffff"
     bordercolor="#666666"
     borderopacity="1.0"
     inkscape:pageopacity="0.0"
     inkscape:pageshadow="2"
     inkscape:zoom="0.98994949"
     inkscape:cx="375"
     inkscape:cy="782.36808"
     inkscape:document-units="px"
     inkscape:current-layer="layer1"
     showgrid="false"
     inkscape:window-width="640"
     inkscape:window-height="669"
     inkscape:window-x="69"
     inkscape:window-y="69" />
  <metadata
     id="metadata3180">
    <rdf:RDF>
      <cc:Work
         rdf:about="">
        <dc:format>image/svg+xml</dc:format>
        <dc:type
           rdf:resource="http://purl.org/dc/dcmitype/StillImage" />
      </cc:Work>
    </rdf:RDF>
  </metadata>
  <g
     inkscape:label="Livello 1"
     inkscape:groupmode="layer"
     id="layer1"
     transform="translate(-211.57143,-148.73456)">
    <g
       id="g3198"
       transform="translate(-99.999996,-25.714286)">
      <path
         style="fill:#dfc94c"
         d="M 441.03746,900.3193 C 439.36878,899.59233 436.49199,897.48605 434.64461,895.63866 C 425.78395,886.778 425.77173,872.45366 434.61627,862.40573 C 436.79161,859.93442 438.57143,857.6974 438.57143,857.43459 C 438.57143,857.17179 436.64119,856.47072 434.28202,855.87667 C 427.91776,854.27414 423.43673,850.45592 417.14744,841.27655 C 415.87018,839.41236 415.63176,839.49625 411.25306,843.35054 C 404.38822,849.39321 395.65467,851.22203 386.07143,848.62361 C 381.17321,847.29549 372.27909,838.39361 370.51758,833.05618 C 368.74351,827.68067 369.98084,818.84054 373.31618,813.06156 C 375.65547,809.00839 377.31135,807.60825 383.47779,804.46933 C 387.5296,802.40683 392.27655,800.71933 394.02657,800.71933 C 400.25385,800.71933 407.13203,803.56872 412.12208,808.21567 C 414.78197,810.69269 417.09622,812.71933 417.26484,812.71933 C 417.43346,812.71933 417.57143,812.01092 417.57143,811.14509 C 417.57143,810.27926 420.04643,806.97608 423.07143,803.80468 C 428.83668,797.76041 429.64172,795.28243 427.10024,791.40364 C 426.29108,790.16871 424.11276,784.67204 422.25952,779.18882 C 420.40628,773.7056 417.94319,766.51933 416.78598,763.21933 C 412.13846,749.96605 407.14138,728.24453 405.535,714.31301 C 404.3008,703.60929 402.85473,699.3856 400.72126,700.25298 C 399.81385,700.62189 396.35887,701.15632 393.04352,701.44061 C 376.67643,702.84407 352.36884,692.29162 341.00288,678.84863 C 332.90782,669.27426 326.77654,657.56534 323.97658,646.33346 C 322.52532,640.51181 321.79153,639.19812 319.22872,637.83346 C 313.62197,634.84794 311.57143,632.14772 311.57143,627.75009 C 311.57143,624.24612 312.01664,623.41609 314.82143,621.69092 C 316.60893,620.59146 319.36377,619.81057 320.9433,619.95561 C 324.07664,620.24334 324.50915,619.72553 326.98761,612.71933 C 328.91767,607.26337 335.46125,598.37733 343.71357,590.00581 C 355.57157,577.97653 375.93498,570.3866 395.07143,570.8635 L 405.07143,571.11271 L 405.72233,523.16602 C 406.08032,496.79534 406.62326,416.26933 406.92884,344.21933 L 407.48446,213.21933 L 413.27794,207.89027 C 416.46436,204.95929 423.34643,198.78141 428.57143,194.16165 C 433.79643,189.5419 440.88687,183.21662 444.32796,180.10547 L 450.58448,174.44885 L 458.18835,182.58568 C 468.09673,193.18857 483.55365,206.25781 492.18303,211.3291 C 493.91653,212.34785 494.0792,213.90633 494.16619,230.3291 C 494.21831,240.16873 494.5654,311.21933 494.93751,388.21933 C 495.59752,524.79706 496.13071,572.61194 497.00342,573.48465 C 497.23971,573.72095 501.17668,574.13787 505.75224,574.41114 C 520.92992,575.31762 529.30204,578.5944 540.77067,588.11705 C 546.38554,592.7792 555.57143,604.02674 555.57143,606.23963 C 555.57143,606.58615 557.35448,609.87334 559.53376,613.5445 C 561.71304,617.21566 564.05058,622.62625 564.72829,625.56804 C 566.01703,631.16216 567.82854,632.71933 573.04764,632.71933 C 575.99175,632.71933 580.57143,637.97994 580.57143,641.3618 C 580.57143,646.64606 575.68826,650.84136 570.02118,650.42589 C 567.61249,650.24931 567.10782,650.66986 566.54356,653.32392 C 566.18053,655.03145 564.02601,660.2661 561.75573,664.95649 C 558.1955,672.31192 556.09955,675.0008 546.51185,684.51282 C 537.32268,693.62946 534.41424,695.90173 529.73359,697.62112 C 522.87426,700.14084 506.75876,702.97586 501.78628,702.53759 C 498.38125,702.23747 498.1329,702.41884 497.4294,705.71933 C 497.01909,707.64433 496.1922,713.49433 495.59186,718.71933 C 494.11221,731.59742 489.78077,751.11738 487.0488,757.21933 C 485.81757,759.96933 484.47723,763.34433 484.07027,764.71933 C 482.85336,768.83088 478.71803,778.54626 473.26299,790.10951 L 468.12548,800.99968 L 472.54061,804.80227 L 476.95574,808.60486 L 480.70691,805.2159 C 493.19094,793.93733 515.78778,799.81176 521.0678,815.7084 C 523.91444,824.27883 520.84095,832.90893 512.35533,840.17231 C 503.41645,847.82365 487.53005,848.39903 481.62615,841.28527 C 479.56482,838.80151 477.79235,839.42838 475.01656,843.62288 C 473.59577,845.76983 469.76579,849.39759 466.5055,851.68456 L 460.57768,855.84268 L 464.81622,859.07552 C 467.14741,860.85358 470.38427,864.28797 472.00924,866.70749 C 474.52359,870.45127 474.96742,872.08332 474.98856,877.66297 C 475.00573,882.19502 474.43548,885.29998 473.14164,887.71933 C 471.29209,891.17777 464.25451,898.07859 460.17508,900.43389 C 457.37103,902.05284 444.8445,901.97783 441.03746,900.3193 z M 430.17417,764.8935 C 428.66829,763.38762 428.64054,763.4684 429.8081,765.95902 C 430.50293,767.44123 431.23616,768.17447 431.4375,767.58843 C 431.63884,767.00239 431.07034,765.78967 430.17417,764.8935 z M 415.1756,691.99016 C 414.8433,691.65787 414.60696,692.2485 414.65038,693.30266 C 414.69836,694.46761 414.93532,694.70456 415.25454,693.90683 C 415.54341,693.18496 415.50789,692.32245 415.1756,691.99016 z M 466.57143,690.16031 C 466.57143,689.91777 466.12143,689.71933 465.57143,689.71933 C 465.02143,689.71933 464.57143,690.19589 464.57143,690.77835 C 464.57143,691.36081 465.02143,691.55925 465.57143,691.21933 C 466.12143,690.87941 466.57143,690.40285 466.57143,690.16031 z M 417.38393,688.78183 C 417.63393,688.03183 417.25893,687.65683 416.50893,687.90683 C 415.78705,688.14746 414.99955,688.93496 414.75893,689.65683 C 414.50893,690.40683 414.88393,690.78183 415.63393,690.53183 C 416.35581,690.2912 417.14331,689.5037 417.38393,688.78183 z M 478.57143,684.71933 C 478.57143,684.16933 478.12143,683.71933 477.57143,683.71933 C 477.02143,683.71933 476.57143,684.16933 476.57143,684.71933 C 476.57143,685.26933 477.02143,685.71933 477.57143,685.71933 C 478.12143,685.71933 478.57143,685.26933 478.57143,684.71933 z M 450.57143,676.71933 C 450.57143,676.16933 450.09487,675.71933 449.51241,675.71933 C 448.92995,675.71933 448.73151,676.16933 449.07143,676.71933 C 449.41135,677.26933 449.88791,677.71933 450.13045,677.71933 C 450.37299,677.71933 450.57143,677.26933 450.57143,676.71933 z M 518.57143,645.71933 C 518.57143,645.16933 518.12143,644.71933 517.57143,644.71933 C 517.02143,644.71933 516.57143,645.16933 516.57143,645.71933 C 516.57143,646.26933 517.02143,646.71933 517.57143,646.71933 C 518.12143,646.71933 518.57143,646.26933 518.57143,645.71933 z M 517.1756,633.99016 C 516.84331,633.65787 516.60696,634.2485 516.65038,635.30266 C 516.69836,636.46761 516.93532,636.70456 517.25454,635.90683 C 517.54341,635.18495 517.50789,634.32245 517.1756,633.99016 z M 358.57143,614.16031 C 358.57143,613.91777 358.12143,613.71933 357.57143,613.71933 C 357.02143,613.71933 356.57143,614.19589 356.57143,614.77835 C 356.57143,615.36081 357.02143,615.55925 357.57143,615.21933 C 358.12143,614.87941 358.57143,614.40285 358.57143,614.16031 z"
         id="path3204" />
      <path
         style="fill:#2fa5cf"
         d="M 440.81044,899.22384 C 436.16319,897.20418 430.93602,891.09316 429.5153,886.01885 C 427.14066,877.53747 429.64461,868.50581 436.29642,861.5596 C 438.22396,859.54674 439.53435,857.46835 439.2084,856.94095 C 438.88245,856.41355 436.90983,855.70925 434.8248,855.37584 C 429.74705,854.56387 423.34005,849.6849 419.43247,843.65448 C 417.67364,840.94015 415.93883,838.71933 415.57733,838.71933 C 415.21583,838.71933 413.82912,839.90389 412.49574,841.35168 C 409.26641,844.85812 400.91665,848.70334 396.57143,848.68512 C 387.14166,848.64557 378.24579,844.18593 373.26774,837.0026 C 371.01661,833.75422 370.57304,832.04751 370.5812,826.66558 C 370.60024,814.10043 376.85815,806.21792 389.98469,802.22479 C 393.86094,801.04562 395.75932,800.96211 398.97907,801.8291 C 405.28159,803.52619 409.95328,806.25127 413.51557,810.3085 C 416.0686,813.21624 416.96122,813.71405 417.65558,812.61741 C 418.14245,811.84847 418.5477,810.74568 418.55612,810.16677 C 418.56454,809.58786 420.82143,806.81645 423.57143,804.00808 C 429.13644,798.32494 429.8692,795.12963 426.91677,789.42025 C 426.00671,787.66038 424.25103,783.07023 423.01526,779.21991 C 421.7795,775.36959 419.79354,769.97324 418.60202,767.22801 C 417.4105,764.48279 415.84058,759.75779 415.1133,756.72801 C 414.38602,753.69824 412.89009,747.84433 411.78902,743.71933 C 409.25061,734.20963 405.89386,716.1734 405.08305,707.68734 C 404.21346,698.58616 403.75753,698.0401 398.40003,699.6832 C 383.68857,704.19508 355.6852,694.23015 342.76865,679.88692 C 334.46115,670.66183 326.75167,656.61668 324.56274,646.71933 C 323.13854,640.27976 321.1478,636.71933 318.97145,636.71933 C 316.52773,636.71933 311.57143,631.15202 311.57143,628.40704 C 311.57143,624.19752 314.71274,621.39004 319.67432,621.16523 C 324.37743,620.95213 324.36154,620.96909 328.05667,612.21933 C 333.31646,599.76457 346.54915,585.89436 358.95308,579.8344 C 369.78923,574.54039 382.46265,571.52414 393.6472,571.57729 C 398.38874,571.59981 402.89891,571.75349 403.66981,571.91879 C 404.77579,572.15594 405.20726,569.89911 405.71538,561.21933 C 406.41746,549.22625 407.65484,367.81394 407.68112,273.01998 L 407.69753,213.82063 L 416.38448,206.00163 C 421.1623,201.70118 427.09643,196.44082 429.57143,194.31194 C 432.04643,192.18305 437.49704,187.12881 441.68389,183.08029 C 445.87074,179.03176 449.69574,175.72295 450.18389,175.72737 C 450.67204,175.73179 452.87143,177.80127 455.07143,180.32621 C 457.27143,182.85115 462.89643,188.29838 467.57143,192.43116 C 472.24643,196.56395 477.95279,201.66943 480.25222,203.77669 C 482.55166,205.88395 486.23362,208.52667 488.43437,209.64941 C 490.63512,210.77215 492.64441,212.03468 492.89947,212.45504 C 493.4068,213.29118 494.50595,355.46514 495.0341,488.56801 C 495.21819,534.95979 495.75189,573.28785 496.22011,573.74147 C 496.68834,574.19509 501.12143,574.83293 506.07143,575.1589 C 517.86053,575.93522 524.0888,577.67465 531.76874,582.33563 C 540.04054,587.35582 550.51583,597.92024 554.00173,604.75781 C 557.26877,611.16608 558.49507,613.32925 560.7827,616.71933 C 561.71055,618.09433 563.14437,621.81223 563.96897,624.98134 C 565.91857,632.47405 565.81736,632.35487 570.79705,633.02265 C 576.35995,633.76863 581.05181,638.57905 580.11532,642.57637 C 579.18294,646.55615 574.91215,649.90192 571.17538,649.57998 C 567.11818,649.23043 565.57143,650.25497 565.57143,653.29192 C 565.57143,654.64192 565.19519,656.52786 564.73534,657.4829 C 557.52948,672.44836 556.97603,673.24663 546.7509,683.42232 C 541.00916,689.13628 534.68239,694.63509 532.69141,695.64188 C 527.26676,698.38499 515.08223,700.91501 506.07143,701.16932 L 498.07143,701.3951 L 496.90191,705.80721 C 496.25867,708.23388 495.69555,712.01933 495.65054,714.21933 C 495.46755,723.16255 489.59496,749.82149 485.73766,759.21933 C 484.60894,761.96933 481.59061,769.39433 479.03027,775.71933 C 476.46992,782.04433 472.76156,790.30815 470.78947,794.08338 L 467.20384,800.94742 L 472.13763,805.2929 L 477.07143,809.63837 L 479.07143,807.3967 C 482.37657,803.69219 484.06313,802.74283 490.20251,801.13109 C 506.29335,796.90684 521.57143,807.27649 521.57143,822.42204 C 521.57143,828.51316 517.5191,835.29616 510.86442,840.34399 C 503.12747,846.21275 490.47076,846.69357 482.84432,841.40844 C 480.7101,839.92943 478.53812,838.74376 478.01768,838.77363 C 477.49724,838.80349 475.72143,840.94099 474.07143,843.52363 C 472.12522,846.56989 469.23903,849.27312 465.85485,851.21933 C 462.75125,853.00418 460.62474,854.92817 460.60485,855.96933 C 460.58647,856.93183 461.02013,857.71933 461.56855,857.71933 C 463.42985,857.71933 470.40924,864.79558 472.49523,868.79765 C 475.04444,873.6884 475.25746,882.26572 472.94569,886.9354 C 472.05154,888.74156 468.61821,892.58183 465.31609,895.46933 L 459.31222,900.71933 L 451.69182,900.68019 C 447.4045,900.65817 442.64511,900.02118 440.81044,899.22384 z M 460.68283,892.13522 C 465.18608,887.85405 466.87952,883.91974 466.96993,877.5286 C 467.06491,870.81453 465.02024,867.37506 458.98285,864.09299 C 452.18462,860.39732 448.28976,860.38319 442.9086,864.03467 C 436.78298,868.19131 434.46402,871.49265 433.85127,876.92893 C 433.15323,883.12199 436.25328,888.91543 442.36808,892.84532 C 446.42862,895.45497 447.79197,895.81226 452.34356,895.4596 C 456.46975,895.1399 458.28235,894.41733 460.68283,892.13522 z M 444.84962,881.17651 C 443.28211,877.8894 443.27815,877.43828 444.79486,874.92651 C 447.04428,871.2013 452.79949,870.6455 456.18549,873.82648 C 459.11552,876.57911 459.1944,878.65764 456.49885,882.08447 C 454.88578,884.13516 453.55193,884.71933 450.48267,884.71933 C 446.9512,884.71933 446.36252,884.34909 444.84962,881.17651 z M 454.4849,850.15239 C 460.52141,848.35973 467.16995,842.78649 470.93396,836.36369 C 473.18444,832.52354 473.92283,828.52868 473.66832,821.57021 C 473.51411,817.35391 466.63622,808.12323 460.55513,803.97127 C 455.35806,800.42288 454.60101,800.21136 446.07143,799.92454 L 437.07143,799.6219 L 432.07143,803.44451 C 428.89118,805.87589 425.8733,809.44213 423.77941,813.24323 C 420.72727,818.78388 420.52053,819.73784 420.94217,826.33537 C 421.70013,838.19569 426.96329,845.72002 437.33821,849.77557 C 443.2125,852.07182 447.6901,852.17022 454.4849,850.15239 z M 439.0691,841.79489 C 436.77742,840.77386 433.46497,837.95573 431.3191,835.20141 C 427.0524,829.72491 426.40913,824.66468 429.11877,817.89263 C 431.05141,813.06248 434.6974,810.32 442.01387,808.19304 C 446.74172,806.81862 448.22632,806.74796 450.71521,807.77888 C 454.72707,809.44065 462.57143,817.39297 462.57143,819.79828 C 462.57143,822.35308 462.32889,822.2843 457.00349,818.21933 C 451.65044,814.13325 450.74804,814.00597 447.15721,816.83052 C 445.26894,818.31583 444.54686,819.72399 444.7215,821.58052 C 444.85803,823.03186 444.60166,825.92483 444.15179,828.00932 C 443.1414,832.69103 444.79403,834.87023 450.69582,836.63845 C 454.40956,837.75111 454.99203,837.67283 456.99417,835.79191 C 458.20756,834.65199 459.73383,833.71933 460.38588,833.71933 C 462.32028,833.71933 461.73865,836.22672 459.32143,838.3081 C 452.80375,843.92026 446.33804,845.03344 439.0691,841.79489 z M 402.97173,841.32544 C 406.73266,839.75402 410.9794,834.61111 411.96925,830.42921 C 413.20004,825.22942 411.51284,817.72219 408.28796,814.04926 C 404.5507,809.79276 402.24882,808.53265 396.62277,807.66342 C 391.0791,806.80692 384.84576,808.77978 381.25553,812.52717 C 379.68842,814.16288 378.00296,817.77675 377.02276,821.60284 L 375.394,827.9605 L 378.32442,833.55585 C 380.9055,838.48419 381.83994,839.35892 386.16313,840.89368 C 392.15664,843.02141 398.52141,843.1849 402.97173,841.32544 z M 388.9082,830.24266 C 387.74867,829.43049 386.48912,827.52751 386.1092,826.01381 C 384.59848,819.99462 395.33463,817.06024 399.49885,822.35419 C 402.08976,825.64799 402.10491,827.18585 399.57143,829.71933 C 397.19141,832.09935 391.92781,832.35768 388.9082,830.24266 z M 505.87777,836.74001 C 514.78686,831.09003 517.2424,821.93431 511.94299,814.1252 C 508.65762,809.28393 507.30697,808.29719 501.05424,806.17016 C 496.16239,804.50606 495.90927,804.5184 490.92181,806.66395 C 483.30357,809.94122 480.33542,813.52013 479.791,820.08514 C 479.19471,827.27557 480.85227,831.83688 485.63009,836.15336 C 489.19932,839.37795 490.13257,839.71933 495.37853,839.71933 C 500.09762,839.71933 502.05627,839.16353 505.87777,836.74001 z M 493.57143,827.39823 C 491.58065,826.3697 491.106,825.41441 491.24114,822.70826 C 491.43586,818.80925 493.69181,816.71933 497.70586,816.71933 C 500.67953,816.71933 503.57143,819.83143 503.57143,823.03154 C 503.57143,825.14056 499.84503,828.64324 497.57143,828.67132 C 496.74643,828.68151 494.94643,828.10862 493.57143,827.39823 z M 457.57174,793.56988 C 457.57146,792.984 445.02898,783.46281 436.82825,777.82319 C 432.67747,774.9687 431.21808,775.8023 433.00472,780.00719 C 433.75537,781.77387 435.18804,785.19776 436.18843,787.61584 C 437.18882,790.03393 438.50504,792.50893 439.11338,793.11584 C 440.28221,794.28195 457.5723,794.70725 457.57174,793.56988 z M 463.36687,787.13253 C 463.79493,782.88331 459.34005,779.14209 445.07143,771.76801 C 438.47143,768.35711 431.92181,764.47578 430.51671,763.14285 C 426.21776,759.06468 425.38893,760.3671 428.21167,766.76497 C 429.296,769.22266 431.07532,771.06558 433.46167,772.2026 C 438.03703,774.38263 452.97464,784.09089 457.55565,787.86178 C 461.68015,791.25689 462.96767,791.09532 463.36687,787.13253 z M 467.68658,779.46933 C 467.74992,778.78183 467.72163,777.43183 467.62373,776.46933 C 467.52582,775.50683 467.924,774.71933 468.50857,774.71933 C 470.4986,774.71933 469.60179,769.98368 467.32143,768.45061 C 466.08393,767.61865 465.40617,766.59152 465.8153,766.16811 C 466.22443,765.74469 467.38486,766.1455 468.39404,767.05879 C 470.75732,769.19753 472.80871,769.18931 472.39475,767.04276 C 471.97105,764.84568 455.73354,751.71933 453.43942,751.71933 C 449.07601,751.71933 432.50094,741.54421 424.32292,733.84527 C 418.13967,728.02424 417.02125,732.92874 422.78161,740.60419 C 424.73348,743.20497 425.16717,745.20555 423.56437,744.21496 C 421.86808,743.1666 421.27133,746.5806 422.59308,749.77161 C 424.88203,755.29762 437.37634,764.3772 446.57143,767.19661 C 450.26977,768.3306 461.87756,776.26472 463.3299,778.65132 C 464.7127,780.92362 467.50432,781.44778 467.68658,779.46933 z M 434.29251,756.64095 C 430.47852,753.49714 426.99065,748.64926 429.72166,750.28781 C 432.46809,751.93561 439.57143,758.16887 439.57143,758.93109 C 439.57143,760.39551 438.04304,759.73245 434.29251,756.64095 z M 433.66423,748.5171 C 431.79027,746.76097 430.76563,745.1546 431.38725,744.94739 C 432.00887,744.74018 434.17364,746.1791 436.19785,748.14499 C 440.76195,752.57758 438.37174,752.92863 433.66423,748.5171 z M 475.57143,758.35507 C 475.57143,752.78237 467.97576,746.03495 453.64597,738.87813 C 439.828,731.97694 429.68746,724.2867 422.37867,715.16611 C 419.5373,711.62038 416.78134,708.71933 416.25431,708.71933 C 415.67675,708.71933 415.56222,711.00363 415.96601,714.46933 C 416.61314,720.02345 416.91262,720.49782 424.75721,728.39453 C 429.22389,732.89089 434.49687,737.38898 436.47494,738.39029 C 438.45301,739.3916 441.22238,740.96927 442.6291,741.89623 C 444.03581,742.82319 447.18581,744.36061 449.6291,745.31272 C 455.15579,747.46639 466.29099,754.7734 470.09163,758.74041 C 473.88058,762.69523 475.57143,762.57633 475.57143,758.35507 z M 478.57143,748.2556 C 478.57143,746.43236 476.77317,744.28773 471.65427,740.00609 C 467.84983,736.82392 464.8564,734.10103 465.0022,733.95523 C 465.58192,733.37551 474.50156,738.92219 476.98792,741.40855 C 480.50729,744.92791 482.45643,743.3314 480.13085,738.83423 C 478.58387,735.84271 478.60031,735.71933 480.54575,735.71933 C 482.01254,735.71933 482.57143,735.06272 482.57143,733.33948 C 482.57143,729.78885 473.69931,723.47175 451.57143,711.26694 C 433.21364,701.14155 426.55772,696.36556 420.34358,688.85924 C 415.9352,683.53418 414.12973,684.80418 413.77766,693.47781 L 413.4839,700.71509 L 419.02204,706.46721 C 422.06802,709.63088 424.56271,712.54036 424.56581,712.93273 C 424.5689,713.3251 428.42783,717.01763 433.14122,721.13835 C 439.12405,726.36891 444.63316,730.05872 451.39122,733.36158 C 460.7377,737.92947 470.02135,744.19219 473.97642,748.59749 C 476.53305,751.44515 478.57143,751.29348 478.57143,748.2556 z M 472.07143,730.71933 C 471.07594,729.61933 470.71145,728.71933 471.26145,728.71933 C 471.81145,728.71933 473.07594,729.61933 474.07143,730.71933 C 475.06692,731.81933 475.43141,732.71933 474.88141,732.71933 C 474.33141,732.71933 473.06692,731.81933 472.07143,730.71933 z M 442.05356,723.06517 C 436.98613,719.68764 437.13306,719.82437 437.82626,719.13117 C 438.46069,718.49673 447.20702,723.32068 448.12999,724.81409 C 449.24002,726.61015 445.95267,725.66399 442.05356,723.06517 z M 437.75143,711.14141 C 435.45243,709.17355 433.57143,706.92355 433.57143,706.14141 C 433.57143,703.71142 434.91666,704.5406 439.37691,709.71982 C 444.41701,715.57237 443.68051,716.21648 437.75143,711.14141 z M 424.88443,708.46539 C 421.80027,705.04999 417.57143,698.41257 417.57143,696.9872 C 417.57143,694.154 419.56433,696.09105 423.54759,702.79587 C 427.88714,710.10042 428.42652,712.3879 424.88443,708.46539 z M 484.41808,722.96933 C 484.92244,722.00683 484.98689,720.29906 484.56131,719.1743 C 482.4345,713.55339 457.8059,699.71933 449.92587,699.71933 C 445.29719,699.71933 443.56092,701.16391 445.70311,703.23269 C 446.45568,703.95948 453.37143,707.78448 461.07143,711.73271 C 468.77143,715.68093 476.64643,720.19442 478.57143,721.76268 C 482.73158,725.15187 483.22143,725.25297 484.41808,722.96933 z M 486.57143,711.2598 C 486.57143,710.45706 485.33853,708.65706 483.83165,707.2598 C 481.20047,704.82003 481.17831,704.71933 483.27263,704.71933 C 487.93661,704.71933 487.12534,700.38727 482.15411,698.74662 C 480.37186,698.15842 476.14375,695.66166 472.75831,693.19825 C 469.37286,690.73484 466.27733,688.71933 465.87935,688.71933 C 464.59684,688.71933 457.57143,696.08126 457.57143,697.4252 C 457.57143,698.14019 461.73393,700.7168 466.82143,703.15101 C 471.90893,705.58521 477.87143,708.71985 480.07143,710.11687 C 484.64006,713.018 486.57143,713.3576 486.57143,711.2598 z M 475.64557,701.84207 C 472.93085,701.08344 471.59217,698.71933 473.87731,698.71933 C 474.68721,698.71933 476.41221,699.60436 477.71065,700.68606 C 480.17015,702.73503 479.72758,702.98278 475.64557,701.84207 z M 454.02895,695.09726 C 454.92417,694.75373 456.56224,692.69751 457.6691,690.52788 C 459.33133,687.26964 459.49686,686.02342 458.62024,683.36722 C 457.21166,679.0992 452.19729,673.71933 449.6278,673.71933 C 447.09876,673.71933 446.99969,675.68508 449.20283,682.15096 C 450.57833,686.18781 450.61754,687.07612 449.45283,687.81379 C 447.35534,689.14224 442.18451,688.88811 440.0857,687.35342 C 438.50361,686.19657 438.38539,685.54608 439.31328,683.10342 C 442.05894,675.87553 441.45215,671.91358 438.03398,674.75041 C 436.10457,676.35168 430.56553,686.09718 430.59367,687.84106 C 430.63436,690.36315 434.09969,693.79154 438.10972,695.27697 C 441.91144,696.68525 450.13258,696.59244 454.02895,695.09726 z M 511.30492,692.22611 C 515.83335,691.42511 521.68335,689.66625 524.30492,688.31753 C 532.39673,684.15454 542.89653,672.61475 548.46773,661.76143 C 551.83774,655.19628 553.31017,641.79479 551.70866,632.26367 C 550.45763,624.81837 546.51947,613.59948 544.14596,610.71933 C 543.46609,609.89433 541.71313,607.12179 540.25051,604.55813 C 536.83574,598.57277 527.47591,590.11735 521.07143,587.23227 C 511.37518,582.86431 496.71916,581.39432 487.07584,583.82254 C 482.11212,585.07242 480.0478,586.93526 479.00721,591.10369 C 478.29762,593.9462 478.33638,593.97756 481.6793,593.26491 C 483.54497,592.86719 490.18907,592.31665 496.44395,592.04149 C 512.20934,591.34795 518.59592,593.86423 529.89069,605.21933 C 536.99422,612.3608 541.1313,620.66061 543.04117,631.6018 C 544.76331,641.46755 543.72344,648.06348 538.96214,657.47516 C 533.53341,668.20618 523.47692,677.45348 512.72743,681.59892 C 507.66323,683.55189 502.82113,684.71933 499.78519,684.71933 C 494.82873,684.71933 484.83139,682.26508 483.12143,680.62854 C 481.46962,679.04765 477.68236,679.64354 476.60661,681.65359 C 473.78608,686.92381 477.31935,689.94566 489.07143,692.31416 C 497.21596,693.9556 501.6261,693.93813 511.30492,692.22611 z M 400.09762,691.16786 C 404.36254,690.52635 410.57143,685.17849 410.57143,682.14653 C 410.57143,679.19131 410.32175,679.17769 404.83496,681.8338 C 400.67544,683.84739 397.17755,683.63852 400.82976,681.59464 C 401.78768,681.05856 402.57143,680.27566 402.57143,679.85485 C 402.57143,678.2173 395.9244,676.04422 392.07143,676.42214 C 388.86636,676.73651 388.41921,676.59642 389.82143,675.71721 C 393.62635,673.3315 390.28469,669.39716 384.75865,669.75651 C 380.11151,670.0587 378.43285,669.75257 379.07143,668.71933 C 379.41135,668.16933 380.5942,667.71933 381.7,667.71933 C 383.21301,667.71933 383.63146,667.16255 383.39098,665.46933 C 383.09134,663.3595 382.47959,663.1871 373.57143,662.70203 C 361.8513,662.06384 360.3752,662.34028 360.76896,665.09968 C 361.03798,666.98491 361.81795,667.25203 367.82143,667.51502 C 374.98744,667.82893 377.34581,669.71933 370.57143,669.71933 C 367.72524,669.71933 366.57143,670.14186 366.57143,671.18415 C 366.57143,673.4754 369.93416,674.71933 376.12813,674.71933 C 381.14038,674.71933 381.66421,674.90261 380.53626,676.26171 C 379.7821,677.17042 379.62908,678.14145 380.16381,678.62523 C 381.94131,680.23337 387.94348,681.71933 392.66164,681.71933 C 397.87223,681.71933 400.10547,683.29621 396.2613,684.26103 C 393.1668,685.0377 382.79097,683.14268 375.666,680.49955 C 363.54992,676.00487 353.66289,665.59793 348.56552,651.97398 C 343.92706,639.57659 345.10435,624.61774 351.79389,610.9537 C 356.38164,601.58278 366.43792,592.45867 375.14131,589.77046 C 383.0226,587.33618 393.42729,587.13982 405.0265,589.20647 C 410.73436,590.22345 413.34736,590.32025 414.2765,589.54914 C 419.32747,585.3572 409.06712,580.08221 393.98085,579.11486 C 385.42384,578.56617 383.04785,578.78546 376.57143,580.72162 C 366.64798,583.6883 361.27842,587.2104 352.21255,596.69953 C 344.98829,604.26109 341.41337,609.675 339.34202,616.19086 C 336.61672,624.76387 336.82225,648.99085 339.70426,658.89122 C 340.83639,662.78031 351.64374,677.67562 353.38567,677.74771 C 353.76284,677.76332 356.09643,679.57846 358.57143,681.78136 C 361.04643,683.98425 364.87143,686.27103 367.07143,686.86308 C 369.27143,687.45514 371.97143,688.35002 373.07143,688.85171 C 379.35117,691.71577 390.24698,692.64954 400.09762,691.16786 z M 428.63268,682.96933 C 429.30168,680.90683 430.72859,677.96586 431.8036,676.43384 C 434.16482,673.0688 433.63321,671.20264 430.05777,670.30526 C 427.87211,669.75669 426.59665,670.32785 423.08751,673.42658 C 420.72522,675.51259 418.53172,677.78213 418.21307,678.46999 C 417.43352,680.15275 423.31161,686.71933 425.59747,686.71933 C 426.81635,686.71933 427.81756,685.48234 428.63268,682.96933 z M 471.74269,683.06434 C 475.19468,679.94034 473.7107,675.74874 467.54125,671.19706 C 464.93102,669.2713 463.89012,669.02787 461.74813,669.84225 C 457.06466,671.6229 456.45446,672.59245 458.06145,675.70004 C 462.30745,683.91088 467.63719,686.77977 471.74269,683.06434 z M 509.57143,679.21933 C 510.28266,677.34866 511.2494,676.71933 513.41182,676.71933 C 516.55583,676.71933 521.9402,673.12504 521.02194,671.63926 C 520.23426,670.36476 505.88745,670.47983 503.45782,671.78013 C 502.36765,672.36357 501.05287,673.95305 500.53608,675.3123 C 499.75404,677.36924 499.00814,677.74405 496.08806,677.54739 C 494.15843,677.41744 492.05152,677.83924 491.40602,678.48474 C 489.6115,680.27926 493.899,681.58159 501.84618,681.65594 C 508.17896,681.71519 508.68294,681.55623 509.57143,679.21933 z M 415.31695,673.18119 C 419.89052,671.27023 422.57143,668.90732 422.57143,666.7872 C 422.57143,665.89502 421.25199,663.72045 419.63935,661.95483 L 416.70727,658.74462 L 411.67811,661.35384 C 408.91207,662.78891 405.97393,663.70403 405.14891,663.38744 C 404.32389,663.07084 401.57576,659.69415 399.04197,655.88368 C 394.88305,649.62924 394.38073,648.23714 393.87633,641.56783 C 393.4077,635.37147 393.67058,633.35961 395.50646,629.09199 C 396.71033,626.29351 399.06595,622.9905 400.74117,621.75196 C 403.34788,619.82473 404.72358,619.5597 410.28307,619.9137 L 416.77912,620.32734 L 420.17528,615.87953 C 422.04316,613.43324 423.57143,611.07858 423.57143,610.64696 C 423.57143,609.57618 420.85257,606.94016 418.38731,605.62079 C 411.63455,602.00682 389.13065,615.8412 383.33718,627.16801 C 380.41907,632.87321 380.19098,649.44716 382.95404,655.00867 C 386.20399,661.55021 393.54771,668.79296 400.04907,671.86866 C 406.88859,675.10434 410.06141,675.3771 415.31695,673.18119 z M 490.07143,673.61106 C 496.00158,671.98454 503.17197,666.09423 505.691,660.77994 C 512.10033,647.25838 511.96656,633.49613 505.33068,623.71117 C 502.40357,619.39499 490.41335,611.96813 485.08137,611.16855 C 480.3408,610.45766 473.92913,612.62359 472.90966,615.28029 C 472.56115,616.18849 473.25727,618.95128 474.45658,621.41983 C 476.17441,624.95565 477.00153,625.74962 478.35429,625.16133 C 483.21409,623.04786 486.48635,623.48389 490.67755,626.80338 C 496.04601,631.05528 498.52136,636.53669 498.54947,644.23493 C 498.57647,651.6297 496.4446,656.00635 490.6417,660.46933 C 485.54406,664.3899 483.04107,664.54346 479.50194,661.15275 L 476.82301,658.58618 L 473.20589,662.40275 C 471.21648,664.50187 469.58487,666.60864 469.5801,667.08446 C 469.57533,667.56028 471.23437,669.47278 473.26685,671.33446 C 476.33817,674.14768 477.73146,674.71839 481.51685,674.71375 C 484.02187,674.71069 487.87143,674.21447 490.07143,673.61106 z M 457.07143,665.66154 C 464.82177,661.29971 468.57332,656.8294 470.16662,650.05739 C 474.65046,630.99976 466.05072,612.88747 450.53454,608.7094 C 438.3341,605.42416 423.45623,616.13732 420.17317,630.57182 C 417.84356,640.81434 419.04991,648.54189 424.37874,657.51164 C 428.19352,663.93288 429.05525,664.75392 433.82397,666.51093 C 436.71007,667.5743 439.74643,668.69566 440.57143,669.00283 C 443.61475,670.13594 452.21589,668.39419 457.07143,665.66154 z M 440.98184,659.39652 C 435.289,656.3658 432.36931,653.81065 429.78914,649.6013 C 426.00744,643.43173 427.26372,632.08066 432.35957,626.37622 C 439.3414,618.56056 451.36295,617.44186 458.32143,623.96026 C 462.53561,627.90791 460.44597,629.16512 455.61137,625.59074 C 452.2679,623.1188 448.2371,623.60699 446.59073,626.68327 C 445.78219,628.19404 445.96528,629.02161 447.41774,630.42146 C 451.70651,634.55488 452.69421,637.2177 451.65475,641.84435 C 450.73237,645.94988 449.33691,647.72252 445.01157,650.28317 C 442.41887,651.81807 443.80493,654.37222 448.23506,656.22325 C 451.25827,657.48643 452.5336,657.56343 454.81063,656.62025 C 457.81109,655.37742 459.2257,655.85169 458.07443,657.71448 C 455.8341,661.33941 446.37905,662.26986 440.98184,659.39652 z M 529.1357,663.82332 C 528.04231,662.05419 512.09493,662.38362 510.582,664.2066 C 508.16812,667.11514 510.08503,668.69256 515.4004,668.17166 C 518.10475,667.90664 521.38705,668.10388 522.69441,668.60997 C 524.59435,669.34546 525.54776,669.06823 527.44471,667.22872 C 528.75002,665.96294 529.51096,664.43051 529.1357,663.82332 z M 375.82143,658.86429 C 378.02286,658.68194 378.06168,656.91853 375.91644,654.54807 C 374.55522,653.04394 372.73582,652.72205 365.66644,652.73464 C 355.4928,652.75277 353.69381,653.49775 355.30174,657.02678 C 356.37708,659.38689 356.74452,659.46881 365.24489,659.24336 C 370.09949,659.1146 374.85893,658.94402 375.82143,658.86429 z M 534.00587,656.84611 C 534.82306,655.26585 535.20961,653.69085 534.86488,653.34611 C 534.52015,653.00138 530.27347,652.71933 525.42782,652.71933 C 517.17573,652.71933 516.51558,652.87494 515.00829,655.17535 C 514.1232,656.52617 513.68938,658.10117 514.04425,658.67535 C 514.41445,659.27434 518.48956,659.71933 523.60477,659.71933 C 532.41182,659.71933 532.53811,659.68444 534.00587,656.84611 z M 411.78427,653.96933 C 413.01979,652.54948 413.25325,649.67248 413.02177,638.71933 C 412.75482,626.08834 412.60734,625.19941 410.73071,624.90984 C 406.95921,624.32789 400.84585,628.35781 399.55174,632.27899 C 397.61336,638.15234 399.64771,649.93616 403.29602,653.9675 C 405.3329,656.21823 409.82648,656.2192 411.78427,653.96933 z M 405.0066,638.31706 C 404.3502,635.70174 405.05035,633.71933 406.63045,633.71933 C 407.87427,633.71933 407.8481,639.4303 406.60075,640.20121 C 406.06687,640.53116 405.34951,639.6833 405.0066,638.31706 z M 490.0405,653.56802 C 491.41551,652.3097 493.53827,644.79209 493.55625,641.11721 C 493.57543,637.19854 490.04981,631.90283 485.74988,629.39154 C 480.89534,626.55634 480.16406,627.94103 479.72386,640.80189 C 479.4032,650.17033 479.60429,652.09816 481.07127,653.71915 C 482.35317,655.13563 483.6007,655.47445 485.93351,655.03968 C 487.65936,654.71803 489.50751,654.05578 490.0405,653.56802 z M 486.57143,641.71933 C 486.57143,639.89528 486.98643,638.85778 487.57143,639.21933 C 488.12143,639.55925 488.57143,640.68425 488.57143,641.71933 C 488.57143,642.75441 488.12143,643.87941 487.57143,644.21933 C 486.98643,644.58088 486.57143,643.54338 486.57143,641.71933 z M 373.95421,647.68612 C 374.43974,647.22833 374.56637,646.14852 374.2356,645.28655 C 373.74208,644.00046 371.73942,643.71933 363.07143,643.71933 C 352.04152,643.71933 350.45845,644.37656 351.97418,648.3265 C 352.51037,649.72379 353.92823,649.84127 362.83117,649.22608 C 368.46331,648.8369 373.46868,648.14392 373.95421,647.68612 z M 536.5445,648.23598 C 538.21605,647.2029 537.71514,643.8873 535.82143,643.44991 C 534.85893,643.22761 530.02143,643.08478 525.07143,643.13252 C 516.07376,643.21931 516.07135,643.22003 515.76118,645.90537 C 515.47928,648.34595 515.79913,648.62947 519.26118,649.00785 C 524.19202,649.54676 535.22054,649.05423 536.5445,648.23598 z M 375.57143,638.30112 C 375.57143,632.85823 375.24792,632.71933 362.57143,632.71933 C 352.56773,632.71933 350.69019,632.96747 350.15574,634.36021 C 349.80943,635.26269 349.78341,636.81184 350.09791,637.80277 C 350.7474,639.84913 353.45722,640.29448 366.82143,640.55123 C 375.45552,640.7171 375.57143,640.6873 375.57143,638.30112 z M 539.37504,636.09998 C 539.75795,632.16599 538.4316,631.75139 525.40476,631.73298 C 515.24923,631.71864 514.5299,632.05124 515.35716,636.37877 C 515.88119,639.12007 516.58254,639.26641 529.07143,639.24027 L 539.07143,639.21933 L 539.37504,636.09998 z M 376.3261,626.9623 C 379.32112,622.45156 377.6804,621.71933 364.57806,621.71933 L 352.52193,621.71933 L 351.52518,624.34097 C 349.89305,628.63381 351.35787,629.22134 363.63477,629.198 C 374.09649,629.17811 374.95531,629.02682 376.3261,626.9623 z M 538.17982,627.29747 C 538.47991,626.51545 538.22495,624.94045 537.61325,623.79747 C 536.57968,621.86623 535.63175,621.71933 524.20291,621.71933 C 517.43893,621.71933 511.63487,621.98923 511.30499,622.3191 C 510.97512,622.64897 511.18832,623.97914 511.77876,625.27503 C 512.70517,627.30827 513.68961,627.67934 518.96186,627.98258 C 534.23952,628.86127 537.62606,628.74055 538.17982,627.29747 z M 383.0072,617.04076 C 384.38296,616.03897 385.52272,614.43183 385.54001,613.46933 C 385.56813,611.90303 384.25932,611.70184 373.07143,611.55266 C 366.19643,611.461 359.80119,611.3485 358.85977,611.30266 C 356.64676,611.19492 353.5666,616.45472 355.23386,617.49443 C 355.87319,617.89313 361.82093,618.36397 368.45105,618.54076 C 378.85492,618.81817 380.84838,618.61275 383.0072,617.04076 z M 533.22788,617.17222 C 533.56561,616.29212 532.91186,614.64615 531.72119,613.37874 C 529.76445,611.29589 528.64095,611.12111 515.59468,610.86989 C 503.91008,610.64489 501.57143,610.84079 501.57143,612.04458 C 501.57143,614.45663 506.7545,617.14407 512.57143,617.74812 C 524.8573,619.02392 532.60015,618.80805 533.22788,617.17222 z M 470.52775,612.27196 C 473.5699,608.60639 479.49812,607.69867 502.06005,607.44375 C 521.68777,607.22199 524.08321,607.01595 524.37038,605.52479 C 525.00538,602.22747 520.8847,601.52745 498.3286,601.10079 L 476.33263,600.68473 L 471.97437,604.70203 C 469.57733,606.91154 467.15606,608.71933 466.59377,608.71933 C 465.13085,608.71933 465.32685,612.45397 466.82143,613.05705 C 468.85641,613.87818 469.26686,613.79124 470.52775,612.27196 z M 396.47914,607.07736 C 399.2799,605.62427 401.57143,604.04927 401.57143,603.57736 C 401.57143,603.10544 401.45893,602.69925 401.32143,602.67471 C 400.97754,602.61334 369.89018,601.42657 365.62399,601.31195 C 362.87409,601.23807 361.86781,601.76427 360.65063,603.91263 C 359.81137,605.39395 359.46101,606.94224 359.87205,607.35329 C 360.2831,607.76433 366.29475,608.22598 373.23127,608.37917 C 380.1678,608.53237 386.082,608.89657 386.37395,609.18852 C 387.5963,610.41086 391.71078,609.55127 396.47914,607.07736 z M 466.24643,602.46933 C 471.12805,597.39849 472.11335,595.58231 473.05018,589.92802 C 473.75406,585.67972 473.69758,585.57188 467.41631,579.17076 C 460.08471,571.69926 451.17261,564.71933 448.96448,564.71933 C 446.48249,564.71933 443.70445,566.56803 434.43736,574.38667 C 422.71364,584.27797 421.57143,585.84244 421.57143,592.00902 C 421.57143,596.57353 421.93818,597.37788 425.61354,600.87417 C 430.70834,605.72073 434.45858,605.98603 438.64835,601.79625 C 440.25605,600.18856 441.57143,598.47275 441.57143,597.98334 C 441.57143,597.49394 440.22143,595.80013 438.57143,594.21933 C 436.92143,592.63853 435.57143,590.71271 435.57143,589.93973 C 435.57143,587.99396 446.91209,576.71933 448.86926,576.71933 C 451.05654,576.71933 459.57143,587.38431 459.57143,590.12391 C 459.57143,591.34559 458.22143,593.63853 456.57143,595.21933 C 454.92143,596.80013 453.57143,598.49808 453.57143,598.99255 C 453.57143,600.29528 459.81678,606.71933 461.08327,606.71933 C 461.67273,606.71933 463.99615,604.80683 466.24643,602.46933 z M 416.57143,597.91046 C 416.57143,593.199 415.14065,592.80896 395.57143,592.18572 C 376.01753,591.56296 369.47729,592.52299 368.74811,596.12305 C 368.47392,597.47672 369.68981,597.73441 376.74811,597.81858 C 381.32593,597.87317 388.89643,598.25349 393.57143,598.66375 C 398.24643,599.07401 405.33393,599.47934 409.32143,599.5645 C 415.70648,599.70086 416.57143,599.50352 416.57143,597.91046 z M 513.01199,597.8155 C 514.03977,596.15253 509.57479,594.85688 500.60199,594.21436 C 490.67372,593.50341 482.51786,595.37891 484.99775,597.80266 C 486.06311,598.84391 512.36895,598.85597 513.01199,597.8155 z"
         id="path3202" />
      <path
         style="fill:#2c302a"
         d="M 440.41346,898.69846 C 426.7068,891.45733 425.08927,871.58406 437.35053,861.06667 C 440.7512,858.14967 439.71435,856.24455 433.93397,854.78903 C 430.24615,853.86043 427.95504,852.35352 424.0988,848.32022 C 421.33375,845.42821 418.34529,841.98442 417.45779,840.66736 L 415.84414,838.2727 L 412.00859,841.64036 C 405.81157,847.08141 400.25434,849.07562 393.31114,848.34991 C 386.09993,847.59619 381.39049,845.46356 377.03593,840.97981 C 371.74242,835.52926 370.22173,831.36716 370.89388,824.16921 C 371.77992,814.68077 375.34546,809.49572 383.95579,805.17442 C 387.74218,803.27412 392.27301,801.71933 394.02429,801.71933 C 400.44474,801.71933 406.92021,804.48008 411.53945,809.18674 C 413.98607,811.67967 416.33811,813.71933 416.76622,813.71933 C 417.19432,813.71933 418.17424,812.25683 418.9438,810.46933 C 419.71337,808.68183 422.41941,805.21314 424.95722,802.76112 C 430.15407,797.73997 430.62575,795.43902 427.6028,789.85548 C 426.52006,787.8556 424.69137,783.29433 423.53904,779.71933 C 422.38671,776.14433 420.31222,770.35416 418.92905,766.85228 C 414.41765,755.43036 408.24226,729.36897 406.56732,714.68329 C 406.07199,710.34029 405.16535,704.92498 404.55256,702.64927 C 403.52404,698.82963 403.23215,698.56192 400.75492,699.16628 C 383.84817,703.29095 360.21887,696.04051 346.27709,682.45025 C 336.01104,672.44305 328.61497,660.36773 325.61707,648.71933 C 322.96835,638.42766 322.55452,637.69637 318.44983,636.054 C 313.88426,634.22722 312.57143,632.25744 312.57143,627.23404 C 312.57143,624.09875 313.00411,623.43649 315.82169,622.25923 C 317.60933,621.51231 320.29621,621.13522 321.79255,621.42127 C 324.08289,621.85909 324.68674,621.48887 325.61078,619.08034 C 329.28785,609.49599 334.5281,601.12273 341.67205,593.41648 C 348.39475,586.16464 350.73417,584.39002 358.76605,580.44944 C 371.96959,573.97155 383.39186,571.34698 395.78356,571.94368 C 404.11735,572.34499 405.59968,572.1812 405.98719,570.81626 C 406.55705,568.80906 407.52226,451.82178 408.08364,316.71933 L 408.51371,213.21933 L 410.79257,211.36566 C 412.04594,210.34614 416.67143,206.23947 421.07143,202.23972 C 425.47143,198.23998 433.84204,190.66069 439.67278,185.39687 L 450.27412,175.82628 L 461.71946,187.0228 C 475.75132,200.74963 483.97122,207.84588 488.57143,210.20414 C 490.49643,211.19098 492.38252,212.48193 492.76273,213.07291 C 493.14295,213.66389 493.42694,221.5886 493.39382,230.68338 C 493.25781,268.03367 494.63592,526.03047 495.09241,548.67632 C 495.36356,562.12766 495.9708,573.5187 496.44183,573.98973 C 496.91285,574.46075 500.39721,575.04242 504.18483,575.28232 C 522.29102,576.42914 533.47288,581.31246 545.10236,593.15176 C 551.10283,599.2605 562.22095,618.96034 563.92167,626.49711 L 565.21293,632.21933 L 570.50317,633.24729 C 578.79724,634.85893 582.45678,641.83398 577.57143,646.71933 C 575.43351,648.85725 574.97174,648.9965 569.57143,649.1317 C 566.44153,649.21006 566.03866,649.53656 565.76149,652.21933 C 565.59103,653.86933 563.47452,659.31805 561.05815,664.32759 C 557.06571,672.60457 555.61514,674.43816 545.16423,684.41822 C 534.22998,694.85984 533.30447,695.50557 526.36757,697.53273 C 516.54669,700.40267 505.95962,701.96071 501.45284,701.19929 C 496.92782,700.4348 497.22899,699.66554 494.59362,718.71933 C 492.38129,734.71447 488.83596,750.52594 485.73672,758.21933 C 484.6289,760.96933 482.30082,766.81933 480.56322,771.21933 C 478.82561,775.61933 475.10976,784.081 472.30576,790.02305 L 467.20759,800.82676 L 471.63951,805.24032 C 474.07707,807.66777 476.36393,809.6686 476.72143,809.6866 C 477.07893,809.7046 478.90611,808.18465 480.78183,806.30893 C 486.52364,800.56712 498.70073,798.66804 507.07143,802.20893 C 515.06284,805.58937 521.60148,814.55111 521.54947,822.05224 C 521.49879,829.3605 514.8764,838.71424 506.95028,842.67273 C 503.17795,844.55672 500.69027,845.04627 495.38843,844.94796 C 488.29486,844.81642 485.97201,844.00407 481.10395,839.95233 L 478.13648,837.48246 L 476.60395,839.67194 C 472.75848,845.16589 469.00567,848.94298 464.4767,851.87766 C 461.7788,853.62583 459.57143,855.40875 459.57143,855.8397 C 459.57143,856.27065 461.51291,857.95902 463.88583,859.59163 C 466.25875,861.22425 469.51216,864.50836 471.11564,866.88967 C 473.59882,870.57743 474.02905,872.183 474.01754,877.71933 C 474.00039,885.97392 472.28081,889.22386 464.50753,895.69285 L 458.4676,900.71933 L 451.26951,900.67513 C 446.15116,900.64371 443.01454,900.07259 440.41346,898.69846 z M 460.68283,892.13522 C 465.18608,887.85405 466.87952,883.91974 466.96993,877.5286 C 467.06491,870.81453 465.02024,867.37506 458.98285,864.09299 C 452.18462,860.39732 448.28976,860.38319 442.9086,864.03467 C 436.78298,868.19131 434.46402,871.49265 433.85127,876.92893 C 433.15323,883.12199 436.25328,888.91543 442.36808,892.84532 C 446.42862,895.45497 447.79197,895.81226 452.34356,895.4596 C 456.46975,895.1399 458.28235,894.41733 460.68283,892.13522 z M 444.84962,881.17651 C 443.28211,877.8894 443.27815,877.43828 444.79486,874.92651 C 447.04428,871.2013 452.79949,870.6455 456.18549,873.82648 C 459.11552,876.57911 459.1944,878.65764 456.49885,882.08447 C 454.88578,884.13516 453.55193,884.71933 450.48267,884.71933 C 446.9512,884.71933 446.36252,884.34909 444.84962,881.17651 z M 454.4849,850.15239 C 460.52141,848.35973 467.16995,842.78649 470.93396,836.36369 C 473.18444,832.52354 473.92283,828.52868 473.66832,821.57021 C 473.51411,817.35391 466.63622,808.12323 460.55513,803.97127 C 455.35806,800.42288 454.60101,800.21136 446.07143,799.92454 L 437.07143,799.6219 L 432.07143,803.44451 C 428.89118,805.87589 425.8733,809.44213 423.77941,813.24323 C 420.72727,818.78388 420.52053,819.73784 420.94217,826.33537 C 421.70013,838.19569 426.96329,845.72002 437.33821,849.77557 C 443.2125,852.07182 447.6901,852.17022 454.4849,850.15239 z M 439.0691,841.79489 C 436.77742,840.77386 433.46497,837.95573 431.3191,835.20141 C 427.0524,829.72491 426.40913,824.66468 429.11877,817.89263 C 431.05141,813.06248 434.6974,810.32 442.01387,808.19304 C 446.74172,806.81862 448.22632,806.74796 450.71521,807.77888 C 454.72707,809.44065 462.57143,817.39297 462.57143,819.79828 C 462.57143,822.35308 462.32889,822.2843 457.00349,818.21933 C 451.65044,814.13325 450.74804,814.00597 447.15721,816.83052 C 445.26894,818.31583 444.54686,819.72399 444.7215,821.58052 C 444.85803,823.03186 444.60166,825.92483 444.15179,828.00932 C 443.1414,832.69103 444.79403,834.87023 450.69582,836.63845 C 454.40956,837.75111 454.99203,837.67283 456.99417,835.79191 C 458.20756,834.65199 459.73383,833.71933 460.38588,833.71933 C 462.32028,833.71933 461.73865,836.22672 459.32143,838.3081 C 452.80375,843.92026 446.33804,845.03344 439.0691,841.79489 z M 402.97173,841.32544 C 406.73266,839.75402 410.9794,834.61111 411.96925,830.42921 C 413.20004,825.22942 411.51284,817.72219 408.28796,814.04926 C 404.5507,809.79276 402.24882,808.53265 396.62277,807.66342 C 391.0791,806.80692 384.84576,808.77978 381.25553,812.52717 C 379.68842,814.16288 378.00296,817.77675 377.02276,821.60284 L 375.394,827.9605 L 378.32442,833.55585 C 380.9055,838.48419 381.83994,839.35892 386.16313,840.89368 C 392.15664,843.02141 398.52141,843.1849 402.97173,841.32544 z M 388.9082,830.24266 C 387.74867,829.43049 386.48912,827.52751 386.1092,826.01381 C 384.59848,819.99462 395.33463,817.06024 399.49885,822.35419 C 402.08976,825.64799 402.10491,827.18585 399.57143,829.71933 C 397.19141,832.09935 391.92781,832.35768 388.9082,830.24266 z M 505.87777,836.74001 C 514.78686,831.09003 517.2424,821.93431 511.94299,814.1252 C 508.65762,809.28393 507.30697,808.29719 501.05424,806.17016 C 496.16239,804.50606 495.90927,804.5184 490.92181,806.66395 C 483.30357,809.94122 480.33542,813.52013 479.791,820.08514 C 479.19471,827.27557 480.85227,831.83688 485.63009,836.15336 C 489.19932,839.37795 490.13257,839.71933 495.37853,839.71933 C 500.09762,839.71933 502.05627,839.16353 505.87777,836.74001 z M 493.57143,827.39823 C 491.58065,826.3697 491.106,825.41441 491.24114,822.70826 C 491.43586,818.80925 493.69181,816.71933 497.70586,816.71933 C 500.67953,816.71933 503.57143,819.83143 503.57143,823.03154 C 503.57143,825.14056 499.84503,828.64324 497.57143,828.67132 C 496.74643,828.68151 494.94643,828.10862 493.57143,827.39823 z M 457.57174,793.56988 C 457.57146,792.984 445.02898,783.46281 436.82825,777.82319 C 432.67747,774.9687 431.21808,775.8023 433.00472,780.00719 C 433.75537,781.77387 435.18804,785.19776 436.18843,787.61584 C 437.18882,790.03393 438.50504,792.50893 439.11338,793.11584 C 440.28221,794.28195 457.5723,794.70725 457.57174,793.56988 z M 463.36687,787.13253 C 463.79493,782.88331 459.34005,779.14209 445.07143,771.76801 C 438.47143,768.35711 431.92181,764.47578 430.51671,763.14285 C 426.21776,759.06468 425.38893,760.3671 428.21167,766.76497 C 429.296,769.22266 431.07532,771.06558 433.46167,772.2026 C 438.03703,774.38263 452.97464,784.09089 457.55565,787.86178 C 461.68015,791.25689 462.96767,791.09532 463.36687,787.13253 z M 467.68658,779.46933 C 467.74992,778.78183 467.72163,777.43183 467.62373,776.46933 C 467.52582,775.50683 467.924,774.71933 468.50857,774.71933 C 470.4986,774.71933 469.60179,769.98368 467.32143,768.45061 C 466.08393,767.61865 465.40617,766.59152 465.8153,766.16811 C 466.22443,765.74469 467.38486,766.1455 468.39404,767.05879 C 470.75732,769.19753 472.80871,769.18931 472.39475,767.04276 C 471.97105,764.84568 455.73354,751.71933 453.43942,751.71933 C 449.07601,751.71933 432.50094,741.54421 424.32292,733.84527 C 418.13967,728.02424 417.02125,732.92874 422.78161,740.60419 C 424.73348,743.20497 425.16717,745.20555 423.56437,744.21496 C 421.86808,743.1666 421.27133,746.5806 422.59308,749.77161 C 424.88203,755.29762 437.37634,764.3772 446.57143,767.19661 C 450.26977,768.3306 461.87756,776.26472 463.3299,778.65132 C 464.7127,780.92362 467.50432,781.44778 467.68658,779.46933 z M 434.29251,756.64095 C 430.47852,753.49714 426.99065,748.64926 429.72166,750.28781 C 432.46809,751.93561 439.57143,758.16887 439.57143,758.93109 C 439.57143,760.39551 438.04304,759.73245 434.29251,756.64095 z M 433.66423,748.5171 C 431.79027,746.76097 430.76563,745.1546 431.38725,744.94739 C 432.00887,744.74018 434.17364,746.1791 436.19785,748.14499 C 440.76195,752.57758 438.37174,752.92863 433.66423,748.5171 z M 475.57143,758.35507 C 475.57143,752.78237 467.97576,746.03495 453.64597,738.87813 C 439.828,731.97694 429.68746,724.2867 422.37867,715.16611 C 419.5373,711.62038 416.78134,708.71933 416.25431,708.71933 C 415.67675,708.71933 415.56222,711.00363 415.96601,714.46933 C 416.61314,720.02345 416.91262,720.49782 424.75721,728.39453 C 429.22389,732.89089 434.49687,737.38898 436.47494,738.39029 C 438.45301,739.3916 441.22238,740.96927 442.6291,741.89623 C 444.03581,742.82319 447.18581,744.36061 449.6291,745.31272 C 455.15579,747.46639 466.29099,754.7734 470.09163,758.74041 C 473.88058,762.69523 475.57143,762.57633 475.57143,758.35507 z M 478.57143,748.2556 C 478.57143,746.43236 476.77317,744.28773 471.65427,740.00609 C 467.84983,736.82392 464.8564,734.10103 465.0022,733.95523 C 465.58192,733.37551 474.50156,738.92219 476.98792,741.40855 C 480.50729,744.92791 482.45643,743.3314 480.13085,738.83423 C 478.58387,735.84271 478.60031,735.71933 480.54575,735.71933 C 482.01254,735.71933 482.57143,735.06272 482.57143,733.33948 C 482.57143,729.78885 473.69931,723.47175 451.57143,711.26694 C 433.21364,701.14155 426.55772,696.36556 420.34358,688.85924 C 415.88723,683.47623 414.12364,684.78943 413.80205,693.73017 L 413.53268,701.21933 L 419.05205,706.64607 C 422.08771,709.63077 424.57143,712.4268 424.57143,712.85947 C 424.57143,713.29213 428.42783,717.01763 433.14122,721.13835 C 439.12405,726.36891 444.63316,730.05872 451.39122,733.36158 C 460.7377,737.92947 470.02135,744.19219 473.97642,748.59749 C 476.53305,751.44515 478.57143,751.29348 478.57143,748.2556 z M 472.07143,730.71933 C 471.07594,729.61933 470.71145,728.71933 471.26145,728.71933 C 471.81145,728.71933 473.07594,729.61933 474.07143,730.71933 C 475.06692,731.81933 475.43141,732.71933 474.88141,732.71933 C 474.33141,732.71933 473.06692,731.81933 472.07143,730.71933 z M 442.05356,723.06517 C 436.98613,719.68764 437.13306,719.82437 437.82626,719.13117 C 438.46069,718.49673 447.20702,723.32068 448.12999,724.81409 C 449.24002,726.61015 445.95267,725.66399 442.05356,723.06517 z M 437.75143,711.14141 C 435.45243,709.17355 433.57143,706.92355 433.57143,706.14141 C 433.57143,703.71142 434.91666,704.5406 439.37691,709.71982 C 444.41701,715.57237 443.68051,716.21648 437.75143,711.14141 z M 424.88443,708.46539 C 421.80027,705.04999 417.57143,698.41257 417.57143,696.9872 C 417.57143,694.154 419.56433,696.09105 423.54759,702.79587 C 427.88714,710.10042 428.42652,712.3879 424.88443,708.46539 z M 484.41808,722.96933 C 484.92244,722.00683 484.98689,720.29906 484.56131,719.1743 C 482.4345,713.55339 457.8059,699.71933 449.92587,699.71933 C 445.29719,699.71933 443.56092,701.16391 445.70311,703.23269 C 446.45568,703.95948 453.37143,707.78448 461.07143,711.73271 C 468.77143,715.68093 476.64643,720.19442 478.57143,721.76268 C 482.73158,725.15187 483.22143,725.25297 484.41808,722.96933 z M 486.57143,711.2598 C 486.57143,710.45706 485.33853,708.65706 483.83165,707.2598 C 481.20047,704.82003 481.17831,704.71933 483.27263,704.71933 C 487.93661,704.71933 487.12534,700.38727 482.15411,698.74662 C 480.37186,698.15842 476.14375,695.66166 472.75831,693.19825 C 469.37286,690.73484 466.15192,688.71933 465.60065,688.71933 C 464.22119,688.71933 457.63186,695.92687 457.59849,697.47226 C 457.58361,698.16137 461.73393,700.7168 466.82143,703.15101 C 471.90893,705.58521 477.87143,708.71985 480.07143,710.11687 C 484.64006,713.018 486.57143,713.3576 486.57143,711.2598 z M 475.64557,701.84207 C 472.93085,701.08344 471.59217,698.71933 473.87731,698.71933 C 474.68721,698.71933 476.41221,699.60436 477.71065,700.68606 C 480.17015,702.73503 479.72758,702.98278 475.64557,701.84207 z M 454.02895,695.09726 C 454.92417,694.75373 456.56224,692.69751 457.6691,690.52788 C 459.33133,687.26964 459.49686,686.02342 458.62024,683.36722 C 457.21166,679.0992 452.19729,673.71933 449.6278,673.71933 C 447.09876,673.71933 446.99969,675.68508 449.20283,682.15096 C 450.57833,686.18781 450.61754,687.07612 449.45283,687.81379 C 447.35534,689.14224 442.18451,688.88811 440.0857,687.35342 C 438.50361,686.19657 438.38539,685.54608 439.31328,683.10342 C 442.05894,675.87553 441.45215,671.91358 438.03398,674.75041 C 436.10457,676.35168 430.56553,686.09718 430.59367,687.84106 C 430.63436,690.36315 434.09969,693.79154 438.10972,695.27697 C 441.91144,696.68525 450.13258,696.59244 454.02895,695.09726 z M 511.30492,692.22611 C 515.83335,691.42511 521.68335,689.66625 524.30492,688.31753 C 532.39673,684.15454 542.89653,672.61475 548.46773,661.76143 C 551.83774,655.19628 553.31017,641.79479 551.70866,632.26367 C 550.45763,624.81837 546.51947,613.59948 544.14596,610.71933 C 543.46609,609.89433 541.71313,607.12179 540.25051,604.55813 C 536.83574,598.57277 527.47591,590.11735 521.07143,587.23227 C 511.37518,582.86431 496.71916,581.39432 487.07584,583.82254 C 482.11212,585.07242 480.0478,586.93526 479.00721,591.10369 C 478.29762,593.9462 478.33638,593.97756 481.6793,593.26491 C 483.54497,592.86719 490.18907,592.31665 496.44395,592.04149 C 512.20934,591.34795 518.59592,593.86423 529.89069,605.21933 C 536.99422,612.3608 541.1313,620.66061 543.04117,631.6018 C 544.76331,641.46755 543.72344,648.06348 538.96214,657.47516 C 533.53341,668.20618 523.47692,677.45348 512.72743,681.59892 C 507.66323,683.55189 502.82113,684.71933 499.78519,684.71933 C 494.82873,684.71933 484.83139,682.26508 483.12143,680.62854 C 481.46962,679.04765 477.68236,679.64354 476.60661,681.65359 C 473.78608,686.92381 477.31935,689.94566 489.07143,692.31416 C 497.21596,693.9556 501.6261,693.93813 511.30492,692.22611 z M 400.09762,691.16786 C 404.36254,690.52635 410.57143,685.17849 410.57143,682.14653 C 410.57143,679.19131 410.32175,679.17769 404.83496,681.8338 C 400.67544,683.84739 397.17755,683.63852 400.82976,681.59464 C 401.78768,681.05856 402.57143,680.27566 402.57143,679.85485 C 402.57143,678.2173 395.9244,676.04422 392.07143,676.42214 C 388.86636,676.73651 388.41921,676.59642 389.82143,675.71721 C 393.62635,673.3315 390.28469,669.39716 384.75865,669.75651 C 380.11151,670.0587 378.43285,669.75257 379.07143,668.71933 C 379.41135,668.16933 380.5942,667.71933 381.7,667.71933 C 383.21301,667.71933 383.63146,667.16255 383.39098,665.46933 C 383.09134,663.3595 382.47959,663.1871 373.57143,662.70203 C 361.8513,662.06384 360.3752,662.34028 360.76896,665.09968 C 361.03798,666.98491 361.81795,667.25203 367.82143,667.51502 C 374.98744,667.82893 377.34581,669.71933 370.57143,669.71933 C 367.72524,669.71933 366.57143,670.14186 366.57143,671.18415 C 366.57143,673.4754 369.93416,674.71933 376.12813,674.71933 C 381.14038,674.71933 381.66421,674.90261 380.53626,676.26171 C 379.7821,677.17042 379.62908,678.14145 380.16381,678.62523 C 381.94131,680.23337 387.94348,681.71933 392.66164,681.71933 C 397.87223,681.71933 400.10547,683.29621 396.2613,684.26103 C 393.1668,685.0377 382.79097,683.14268 375.666,680.49955 C 363.54992,676.00487 353.66289,665.59793 348.56552,651.97398 C 343.92706,639.57659 345.10435,624.61774 351.79389,610.9537 C 356.38164,601.58278 366.43792,592.45867 375.14131,589.77046 C 383.0226,587.33618 393.42729,587.13982 405.0265,589.20647 C 410.73436,590.22345 413.34736,590.32025 414.2765,589.54914 C 419.32747,585.3572 409.06712,580.08221 393.98085,579.11486 C 385.42384,578.56617 383.04785,578.78546 376.57143,580.72162 C 366.64798,583.6883 361.27842,587.2104 352.21255,596.69953 C 344.98829,604.26109 341.41337,609.675 339.34202,616.19086 C 336.61672,624.76387 336.82225,648.99085 339.70426,658.89122 C 340.83639,662.78031 351.64374,677.67562 353.38567,677.74771 C 353.76284,677.76332 356.09643,679.57846 358.57143,681.78136 C 361.04643,683.98425 364.87143,686.27103 367.07143,686.86308 C 369.27143,687.45514 371.97143,688.35002 373.07143,688.85171 C 379.35117,691.71577 390.24698,692.64954 400.09762,691.16786 z M 428.63268,682.96933 C 429.30168,680.90683 430.72859,677.96586 431.8036,676.43384 C 434.16482,673.0688 433.63321,671.20264 430.05777,670.30526 C 427.87211,669.75669 426.59665,670.32785 423.08751,673.42658 C 420.72522,675.51259 418.53172,677.78213 418.21307,678.46999 C 417.43352,680.15275 423.31161,686.71933 425.59747,686.71933 C 426.81635,686.71933 427.81756,685.48234 428.63268,682.96933 z M 471.74269,683.06434 C 475.19468,679.94034 473.7107,675.74874 467.54125,671.19706 C 464.93102,669.2713 463.89012,669.02787 461.74813,669.84225 C 457.06466,671.6229 456.45446,672.59245 458.06145,675.70004 C 462.30745,683.91088 467.63719,686.77977 471.74269,683.06434 z M 509.57143,679.21933 C 510.28266,677.34866 511.2494,676.71933 513.41182,676.71933 C 516.55583,676.71933 521.9402,673.12504 521.02194,671.63926 C 520.23426,670.36476 505.88745,670.47983 503.45782,671.78013 C 502.36765,672.36357 501.05287,673.95305 500.53608,675.3123 C 499.75404,677.36924 499.00814,677.74405 496.08806,677.54739 C 494.15843,677.41744 492.05152,677.83924 491.40602,678.48474 C 489.6115,680.27926 493.899,681.58159 501.84618,681.65594 C 508.17896,681.71519 508.68294,681.55623 509.57143,679.21933 z M 415.31695,673.18119 C 419.89052,671.27023 422.57143,668.90732 422.57143,666.7872 C 422.57143,665.89502 421.25199,663.72045 419.63935,661.95483 L 416.70727,658.74462 L 411.67811,661.35384 C 408.91207,662.78891 405.97393,663.70403 405.14891,663.38744 C 404.32389,663.07084 401.57576,659.69415 399.04197,655.88368 C 394.88305,649.62924 394.38073,648.23714 393.87633,641.56783 C 393.4077,635.37147 393.67058,633.35961 395.50646,629.09199 C 396.71033,626.29351 399.06595,622.9905 400.74117,621.75196 C 403.34788,619.82473 404.72358,619.5597 410.28307,619.9137 L 416.77912,620.32734 L 420.17528,615.87953 C 422.04316,613.43324 423.57143,611.07858 423.57143,610.64696 C 423.57143,609.57618 420.85257,606.94016 418.38731,605.62079 C 411.63455,602.00682 389.13065,615.8412 383.33718,627.16801 C 380.41907,632.87321 380.19098,649.44716 382.95404,655.00867 C 386.20399,661.55021 393.54771,668.79296 400.04907,671.86866 C 406.88859,675.10434 410.06141,675.3771 415.31695,673.18119 z M 490.07143,673.61106 C 496.00158,671.98454 503.17197,666.09423 505.691,660.77994 C 512.10033,647.25838 511.96656,633.49613 505.33068,623.71117 C 502.40357,619.39499 490.41335,611.96813 485.08137,611.16855 C 480.3408,610.45766 473.92913,612.62359 472.90966,615.28029 C 472.56115,616.18849 473.25727,618.95128 474.45658,621.41983 C 476.17441,624.95565 477.00153,625.74962 478.35429,625.16133 C 483.21409,623.04786 486.48635,623.48389 490.67755,626.80338 C 496.04601,631.05528 498.52136,636.53669 498.54947,644.23493 C 498.57647,651.6297 496.4446,656.00635 490.6417,660.46933 C 485.54406,664.3899 483.04107,664.54346 479.50194,661.15275 L 476.82301,658.58618 L 473.20589,662.40275 C 471.21648,664.50187 469.58487,666.60864 469.5801,667.08446 C 469.57533,667.56028 471.23437,669.47278 473.26685,671.33446 C 476.33817,674.14768 477.73146,674.71839 481.51685,674.71375 C 484.02187,674.71069 487.87143,674.21447 490.07143,673.61106 z M 457.07143,665.66154 C 464.82177,661.29971 468.57332,656.8294 470.16662,650.05739 C 474.65046,630.99976 466.05072,612.88747 450.53454,608.7094 C 438.3341,605.42416 423.45623,616.13732 420.17317,630.57182 C 417.84356,640.81434 419.04991,648.54189 424.37874,657.51164 C 428.19352,663.93288 429.05525,664.75392 433.82397,666.51093 C 436.71007,667.5743 439.74643,668.69566 440.57143,669.00283 C 443.61475,670.13594 452.21589,668.39419 457.07143,665.66154 z M 440.98184,659.39652 C 435.289,656.3658 432.36931,653.81065 429.78914,649.6013 C 426.00744,643.43173 427.26372,632.08066 432.35957,626.37622 C 439.3414,618.56056 451.36295,617.44186 458.32143,623.96026 C 462.53561,627.90791 460.44597,629.16512 455.61137,625.59074 C 452.2679,623.1188 448.2371,623.60699 446.59073,626.68327 C 445.78219,628.19404 445.96528,629.02161 447.41774,630.42146 C 451.70651,634.55488 452.69421,637.2177 451.65475,641.84435 C 450.73237,645.94988 449.33691,647.72252 445.01157,650.28317 C 442.41887,651.81807 443.80493,654.37222 448.23506,656.22325 C 451.25827,657.48643 452.5336,657.56343 454.81063,656.62025 C 457.81109,655.37742 459.2257,655.85169 458.07443,657.71448 C 455.8341,661.33941 446.37905,662.26986 440.98184,659.39652 z M 529.1357,663.82332 C 528.04231,662.05419 512.09493,662.38362 510.582,664.2066 C 508.16812,667.11514 510.08503,668.69256 515.4004,668.17166 C 518.10475,667.90664 521.38705,668.10388 522.69441,668.60997 C 524.59435,669.34546 525.54776,669.06823 527.44471,667.22872 C 528.75002,665.96294 529.51096,664.43051 529.1357,663.82332 z M 375.82143,658.86429 C 378.02286,658.68194 378.06168,656.91853 375.91644,654.54807 C 374.55522,653.04394 372.73582,652.72205 365.66644,652.73464 C 355.4928,652.75277 353.69381,653.49775 355.30174,657.02678 C 356.37708,659.38689 356.74452,659.46881 365.24489,659.24336 C 370.09949,659.1146 374.85893,658.94402 375.82143,658.86429 z M 534.00587,656.84611 C 534.82306,655.26585 535.20961,653.69085 534.86488,653.34611 C 534.52015,653.00138 530.27347,652.71933 525.42782,652.71933 C 517.17573,652.71933 516.51558,652.87494 515.00829,655.17535 C 514.1232,656.52617 513.68938,658.10117 514.04425,658.67535 C 514.41445,659.27434 518.48956,659.71933 523.60477,659.71933 C 532.41182,659.71933 532.53811,659.68444 534.00587,656.84611 z M 411.78427,653.96933 C 413.01979,652.54948 413.25325,649.67248 413.02177,638.71933 C 412.75482,626.08834 412.60734,625.19941 410.73071,624.90984 C 406.95921,624.32789 400.84585,628.35781 399.55174,632.27899 C 397.61336,638.15234 399.64771,649.93616 403.29602,653.9675 C 405.3329,656.21823 409.82648,656.2192 411.78427,653.96933 z M 405.0066,638.31706 C 404.3502,635.70174 405.05035,633.71933 406.63045,633.71933 C 407.87427,633.71933 407.8481,639.4303 406.60075,640.20121 C 406.06687,640.53116 405.34951,639.6833 405.0066,638.31706 z M 490.0405,653.56802 C 491.40077,652.32319 493.53883,644.80547 493.55251,641.21933 C 493.5588,639.56933 492.66975,636.75272 491.57683,634.96019 C 489.55947,631.65146 483.85105,627.47066 482.12595,628.03846 C 480.5332,628.56269 479.60904,633.7992 479.48134,643.02347 C 479.33644,653.49003 480.69297,656.01637 485.93351,655.03968 C 487.65936,654.71803 489.50751,654.05578 490.0405,653.56802 z M 486.57143,641.71933 C 486.57143,639.89528 486.98643,638.85778 487.57143,639.21933 C 488.12143,639.55925 488.57143,640.68425 488.57143,641.71933 C 488.57143,642.75441 488.12143,643.87941 487.57143,644.21933 C 486.98643,644.58088 486.57143,643.54338 486.57143,641.71933 z M 373.95421,647.68612 C 374.43974,647.22833 374.56637,646.14852 374.2356,645.28655 C 373.74208,644.00046 371.73942,643.71933 363.07143,643.71933 C 352.04152,643.71933 350.45845,644.37656 351.97418,648.3265 C 352.51037,649.72379 353.92823,649.84127 362.83117,649.22608 C 368.46331,648.8369 373.46868,648.14392 373.95421,647.68612 z M 536.5445,648.23598 C 538.21605,647.2029 537.71514,643.8873 535.82143,643.44991 C 534.85893,643.22761 530.02143,643.08478 525.07143,643.13252 C 516.07376,643.21931 516.07135,643.22003 515.76118,645.90537 C 515.47928,648.34595 515.79913,648.62947 519.26118,649.00785 C 524.19202,649.54676 535.22054,649.05423 536.5445,648.23598 z M 375.57143,638.30112 C 375.57143,632.85823 375.24792,632.71933 362.57143,632.71933 C 352.56773,632.71933 350.69019,632.96747 350.15574,634.36021 C 349.80943,635.26269 349.78341,636.81184 350.09791,637.80277 C 350.7474,639.84913 353.45722,640.29448 366.82143,640.55123 C 375.45552,640.7171 375.57143,640.6873 375.57143,638.30112 z M 539.37504,636.09998 C 539.62239,633.55877 539.25171,632.86628 537.37504,632.36364 C 533.68807,631.37612 515.74742,631.62556 515.09985,632.67334 C 514.09092,634.30583 515.67651,638.59255 517.41601,638.93515 C 518.32649,639.11448 523.57143,639.25178 529.07143,639.24027 L 539.07143,639.21933 L 539.37504,636.09998 z M 376.3261,626.9623 C 379.32112,622.45156 377.6804,621.71933 364.57806,621.71933 L 352.52193,621.71933 L 351.52518,624.34097 C 349.89305,628.63381 351.35787,629.22134 363.63477,629.198 C 374.09649,629.17811 374.95531,629.02682 376.3261,626.9623 z M 538.17982,627.29747 C 538.47991,626.51545 538.22495,624.94045 537.61325,623.79747 C 536.57968,621.86623 535.63175,621.71933 524.20291,621.71933 C 517.43893,621.71933 511.63487,621.98923 511.30499,622.3191 C 510.97512,622.64897 511.18832,623.97914 511.77876,625.27503 C 512.70517,627.30827 513.68961,627.67934 518.96186,627.98258 C 534.23952,628.86127 537.62606,628.74055 538.17982,627.29747 z M 383.0072,617.04076 C 384.38296,616.03897 385.52272,614.43183 385.54001,613.46933 C 385.56813,611.90303 384.25932,611.70184 373.07143,611.55266 C 366.19643,611.461 359.80119,611.3485 358.85977,611.30266 C 356.64676,611.19492 353.5666,616.45472 355.23386,617.49443 C 355.87319,617.89313 361.82093,618.36397 368.45105,618.54076 C 378.85492,618.81817 380.84838,618.61275 383.0072,617.04076 z M 533.22788,617.17222 C 533.56561,616.29212 532.91186,614.64615 531.72119,613.37874 C 529.76445,611.29589 528.64095,611.12111 515.59468,610.86989 C 503.91008,610.64489 501.57143,610.84079 501.57143,612.04458 C 501.57143,614.45663 506.7545,617.14407 512.57143,617.74812 C 524.8573,619.02392 532.60015,618.80805 533.22788,617.17222 z M 470.52775,612.27196 C 473.5699,608.60639 479.49812,607.69867 502.06005,607.44375 C 521.68777,607.22199 524.08321,607.01595 524.37038,605.52479 C 525.00538,602.22747 520.8847,601.52745 498.3286,601.10079 L 476.33263,600.68473 L 471.97437,604.70203 C 469.57733,606.91154 467.15606,608.71933 466.59377,608.71933 C 465.13085,608.71933 465.32685,612.45397 466.82143,613.05705 C 468.85641,613.87818 469.26686,613.79124 470.52775,612.27196 z M 396.47914,607.07736 C 399.2799,605.62427 401.57143,604.04927 401.57143,603.57736 C 401.57143,603.10544 401.45893,602.69925 401.32143,602.67471 C 400.97754,602.61334 369.89018,601.42657 365.62399,601.31195 C 362.87409,601.23807 361.86781,601.76427 360.65063,603.91263 C 359.81137,605.39395 359.46101,606.94224 359.87205,607.35329 C 360.2831,607.76433 366.29475,608.22598 373.23127,608.37917 C 380.1678,608.53237 386.082,608.89657 386.37395,609.18852 C 387.5963,610.41086 391.71078,609.55127 396.47914,607.07736 z M 466.24643,602.46933 C 471.12805,597.39849 472.11335,595.58231 473.05018,589.92802 C 473.75406,585.67972 473.69758,585.57188 467.41631,579.17076 C 460.08471,571.69926 451.17261,564.71933 448.96448,564.71933 C 446.48249,564.71933 443.70445,566.56803 434.43736,574.38667 C 422.71364,584.27797 421.57143,585.84244 421.57143,592.00902 C 421.57143,596.57353 421.93818,597.37788 425.61354,600.87417 C 430.70834,605.72073 434.45858,605.98603 438.64835,601.79625 C 440.25605,600.18856 441.57143,598.47275 441.57143,597.98334 C 441.57143,597.49394 440.22143,595.80013 438.57143,594.21933 C 436.92143,592.63853 435.57143,590.71271 435.57143,589.93973 C 435.57143,587.99396 446.91209,576.71933 448.86926,576.71933 C 451.05654,576.71933 459.57143,587.38431 459.57143,590.12391 C 459.57143,591.34559 458.22143,593.63853 456.57143,595.21933 C 454.92143,596.80013 453.57143,598.49808 453.57143,598.99255 C 453.57143,600.29528 459.81678,606.71933 461.08327,606.71933 C 461.67273,606.71933 463.99615,604.80683 466.24643,602.46933 z M 416.57143,597.91046 C 416.57143,593.199 415.14065,592.80896 395.57143,592.18572 C 376.01753,591.56296 369.47729,592.52299 368.74811,596.12305 C 368.47392,597.47672 369.68981,597.73441 376.74811,597.81858 C 381.32593,597.87317 388.89643,598.25349 393.57143,598.66375 C 398.24643,599.07401 405.33393,599.47934 409.32143,599.5645 C 415.70648,599.70086 416.57143,599.50352 416.57143,597.91046 z M 513.01199,597.8155 C 514.03977,596.15253 509.57479,594.85688 500.60199,594.21436 C 490.67372,593.50341 482.51786,595.37891 484.99775,597.80266 C 486.06311,598.84391 512.36895,598.85597 513.01199,597.8155 z M 485.16529,580.56746 C 486.12708,579.01125 486.79529,531.04416 486.09652,513.71933 C 485.75294,505.20074 484.45042,336.0433 484.19518,266.79243 C 484.0601,230.14498 483.75789,220.64893 482.68555,219.35684 C 481.94815,218.46832 480.9206,218.00353 480.40211,218.32397 C 479.81758,218.68523 479.70223,240.43277 480.0985,275.56296 C 480.45,306.72396 480.83454,387.8031 480.95303,455.73881 C 481.07152,523.67453 481.51069,579.81203 481.92896,580.48881 C 482.88342,582.03315 484.23908,582.0661 485.16529,580.56746 z M 422.57143,575.30383 C 425.04643,572.35555 428.42143,569.22017 430.07143,568.33633 C 435.60187,565.37389 445.00314,557.12352 445.65688,554.65885 C 446.33938,552.08573 445.72658,199.11876 445.03588,196.96933 C 444.81495,196.28183 444.28258,195.72185 443.85281,195.72492 C 442.38939,195.73539 422.2102,214.91465 420.52711,217.89477 C 419.59061,219.55297 419.20078,250.15328 418.0643,411.21933 C 417.75772,454.66933 417.24201,510.58183 416.91828,535.46933 C 416.58679,560.95371 416.71009,580.70732 417.20056,580.69184 C 417.67954,580.67673 420.09643,578.25212 422.57143,575.30383 z M 476.63787,576.46933 C 476.76878,572.03602 476.60458,516.87302 476.01647,367.71933 C 475.61618,266.1996 475.07431,215.3121 474.37395,213.46933 C 473.79911,211.95683 472.70838,210.71933 471.95011,210.71933 C 470.86947,210.71933 470.56724,212.93514 470.55205,220.96933 C 470.37649,313.80373 471.29646,526.89344 471.99814,555.92182 C 472.42509,573.585 473.23777,578.71933 475.60661,578.71933 C 476.13726,578.71933 476.60133,577.70683 476.63787,576.46933 z M 466.0815,386.52762 C 465.67221,259.40887 465.17681,204.94877 464.42146,204.03863 C 463.82931,203.32513 462.9287,202.99852 462.42012,203.31284 C 461.85727,203.66071 461.63511,274.18949 461.85238,383.55183 C 462.21476,565.95217 462.25123,567.71933 465.65334,567.71933 C 466.33382,567.71933 466.47394,508.41796 466.0815,386.52762 z M 457.60951,509.14299 C 457.59525,461.37605 456.77583,306.62408 456.15112,233.71933 C 455.9791,213.64433 455.50515,196.43183 455.0979,195.46933 C 454.69065,194.50683 453.79035,193.71933 453.09723,193.71933 C 451.78403,193.71933 451.76488,279.98015 453.03485,474.6175 C 453.56699,556.17388 453.81844,561.87232 456.75539,558.93537 C 457.23319,558.45757 457.61754,536.051 457.60951,509.14299 z"
         id="path3200" />
    </g>
  </g>
</svg>
