<svg width="464" height="344" viewBox="0 0 464 344" fill="none" xmlns="http://www.w3.org/2000/svg">
<mask id="path-1-outside-1_64_807" maskUnits="userSpaceOnUse" x="0" y="0" width="464" height="344" fill="black">
<rect fill="white" width="464" height="344"/>
<path fill-rule="evenodd" clip-rule="evenodd" d="M2 8C2 4.68629 4.6863 2 8 2H136C139.314 2 142 4.68629 142 8V41C142 44.3137 144.686 47 148 47H156C159.314 47 162 44.3137 162 41V8C162 4.68629 164.686 2 168 2H296C299.314 2 302 4.68629 302 8V41C302 44.3137 304.686 47 308 47H316C319.314 47 322 44.3137 322 41V8C322 4.68629 324.686 2 328 2H456C459.314 2 462 4.68629 462 8V96C462 99.3137 459.314 102 456 102H403C399.686 102 397 104.686 397 108V116C397 119.314 399.686 122 403 122H456C459.314 122 462 124.686 462 128V216C462 219.314 459.314 222 456 222H403C399.686 222 397 224.686 397 228V236C397 239.314 399.686 242 403 242H456C459.314 242 462 244.686 462 248V336C462 339.314 459.314 342 456 342H328C324.686 342 322 339.314 322 336V303C322 299.686 319.314 297 316 297H308C304.686 297 302 299.686 302 303V336C302 339.314 299.314 342 296 342H168C164.686 342 162 339.314 162 336V303C162 299.686 159.314 297 156 297H148C144.686 297 142 299.686 142 303V336C142 339.314 139.314 342 136 342H8C4.68629 342 2 339.314 2 336V248C2 244.686 4.68629 242 8 242H61C64.3137 242 67 239.314 67 236V228C67 224.686 64.3137 222 61 222H8C4.68629 222 2 219.314 2 216V128C2 124.686 4.68629 122 8 122H61C64.3137 122 67 119.314 67 116V108C67 104.686 64.3137 102 61 102H8C4.68629 102 2 99.3137 2 96V8ZM142 281C142 284.314 144.686 287 148 287H156C159.314 287 162 284.314 162 281V248C162 244.686 164.686 242 168 242H296C299.314 242 302 244.686 302 248V281C302 284.314 304.686 287 308 287H316C319.314 287 322 284.314 322 281V248C322 244.686 324.686 242 328 242H381C384.314 242 387 239.314 387 236V228C387 224.686 384.314 222 381 222H328C324.686 222 322 219.314 322 216V128C322 124.686 324.686 122 328 122H381C384.314 122 387 119.314 387 116V108C387 104.686 384.314 102 381 102H328C324.686 102 322 99.3137 322 96V63C322 59.6863 319.314 57 316 57H308C304.686 57 302 59.6863 302 63V96C302 99.3137 299.314 102 296 102H168C164.686 102 162 99.3137 162 96V63C162 59.6863 159.314 57 156 57H148C144.686 57 142 59.6863 142 63V96C142 99.3137 139.314 102 136 102H83C79.6863 102 77 104.686 77 108V116C77 119.314 79.6863 122 83 122H136C139.314 122 142 124.686 142 128V216C142 219.314 139.314 222 136 222H83C79.6863 222 77 224.686 77 228V236C77 239.314 79.6863 242 83 242H136C139.314 242 142 244.686 142 248V281ZM302 128C302 124.686 299.314 122 296 122H168C164.686 122 162 124.686 162 128V216C162 219.314 164.686 222 168 222H296C299.314 222 302 219.314 302 216V128Z"/>
</mask>
<path fill-rule="evenodd" clip-rule="evenodd" d="M2 8C2 4.68629 4.6863 2 8 2H136C139.314 2 142 4.68629 142 8V41C142 44.3137 144.686 47 148 47H156C159.314 47 162 44.3137 162 41V8C162 4.68629 164.686 2 168 2H296C299.314 2 302 4.68629 302 8V41C302 44.3137 304.686 47 308 47H316C319.314 47 322 44.3137 322 41V8C322 4.68629 324.686 2 328 2H456C459.314 2 462 4.68629 462 8V96C462 99.3137 459.314 102 456 102H403C399.686 102 397 104.686 397 108V116C397 119.314 399.686 122 403 122H456C459.314 122 462 124.686 462 128V216C462 219.314 459.314 222 456 222H403C399.686 222 397 224.686 397 228V236C397 239.314 399.686 242 403 242H456C459.314 242 462 244.686 462 248V336C462 339.314 459.314 342 456 342H328C324.686 342 322 339.314 322 336V303C322 299.686 319.314 297 316 297H308C304.686 297 302 299.686 302 303V336C302 339.314 299.314 342 296 342H168C164.686 342 162 339.314 162 336V303C162 299.686 159.314 297 156 297H148C144.686 297 142 299.686 142 303V336C142 339.314 139.314 342 136 342H8C4.68629 342 2 339.314 2 336V248C2 244.686 4.68629 242 8 242H61C64.3137 242 67 239.314 67 236V228C67 224.686 64.3137 222 61 222H8C4.68629 222 2 219.314 2 216V128C2 124.686 4.68629 122 8 122H61C64.3137 122 67 119.314 67 116V108C67 104.686 64.3137 102 61 102H8C4.68629 102 2 99.3137 2 96V8ZM142 281C142 284.314 144.686 287 148 287H156C159.314 287 162 284.314 162 281V248C162 244.686 164.686 242 168 242H296C299.314 242 302 244.686 302 248V281C302 284.314 304.686 287 308 287H316C319.314 287 322 284.314 322 281V248C322 244.686 324.686 242 328 242H381C384.314 242 387 239.314 387 236V228C387 224.686 384.314 222 381 222H328C324.686 222 322 219.314 322 216V128C322 124.686 324.686 122 328 122H381C384.314 122 387 119.314 387 116V108C387 104.686 384.314 102 381 102H328C324.686 102 322 99.3137 322 96V63C322 59.6863 319.314 57 316 57H308C304.686 57 302 59.6863 302 63V96C302 99.3137 299.314 102 296 102H168C164.686 102 162 99.3137 162 96V63C162 59.6863 159.314 57 156 57H148C144.686 57 142 59.6863 142 63V96C142 99.3137 139.314 102 136 102H83C79.6863 102 77 104.686 77 108V116C77 119.314 79.6863 122 83 122H136C139.314 122 142 124.686 142 128V216C142 219.314 139.314 222 136 222H83C79.6863 222 77 224.686 77 228V236C77 239.314 79.6863 242 83 242H136C139.314 242 142 244.686 142 248V281ZM302 128C302 124.686 299.314 122 296 122H168C164.686 122 162 124.686 162 128V216C162 219.314 164.686 222 168 222H296C299.314 222 302 219.314 302 216V128Z" fill="white"/>
<path fill-rule="evenodd" clip-rule="evenodd" d="M2 8C2 4.68629 4.6863 2 8 2H136C139.314 2 142 4.68629 142 8V41C142 44.3137 144.686 47 148 47H156C159.314 47 162 44.3137 162 41V8C162 4.68629 164.686 2 168 2H296C299.314 2 302 4.68629 302 8V41C302 44.3137 304.686 47 308 47H316C319.314 47 322 44.3137 322 41V8C322 4.68629 324.686 2 328 2H456C459.314 2 462 4.68629 462 8V96C462 99.3137 459.314 102 456 102H403C399.686 102 397 104.686 397 108V116C397 119.314 399.686 122 403 122H456C459.314 122 462 124.686 462 128V216C462 219.314 459.314 222 456 222H403C399.686 222 397 224.686 397 228V236C397 239.314 399.686 242 403 242H456C459.314 242 462 244.686 462 248V336C462 339.314 459.314 342 456 342H328C324.686 342 322 339.314 322 336V303C322 299.686 319.314 297 316 297H308C304.686 297 302 299.686 302 303V336C302 339.314 299.314 342 296 342H168C164.686 342 162 339.314 162 336V303C162 299.686 159.314 297 156 297H148C144.686 297 142 299.686 142 303V336C142 339.314 139.314 342 136 342H8C4.68629 342 2 339.314 2 336V248C2 244.686 4.68629 242 8 242H61C64.3137 242 67 239.314 67 236V228C67 224.686 64.3137 222 61 222H8C4.68629 222 2 219.314 2 216V128C2 124.686 4.68629 122 8 122H61C64.3137 122 67 119.314 67 116V108C67 104.686 64.3137 102 61 102H8C4.68629 102 2 99.3137 2 96V8ZM142 281C142 284.314 144.686 287 148 287H156C159.314 287 162 284.314 162 281V248C162 244.686 164.686 242 168 242H296C299.314 242 302 244.686 302 248V281C302 284.314 304.686 287 308 287H316C319.314 287 322 284.314 322 281V248C322 244.686 324.686 242 328 242H381C384.314 242 387 239.314 387 236V228C387 224.686 384.314 222 381 222H328C324.686 222 322 219.314 322 216V128C322 124.686 324.686 122 328 122H381C384.314 122 387 119.314 387 116V108C387 104.686 384.314 102 381 102H328C324.686 102 322 99.3137 322 96V63C322 59.6863 319.314 57 316 57H308C304.686 57 302 59.6863 302 63V96C302 99.3137 299.314 102 296 102H168C164.686 102 162 99.3137 162 96V63C162 59.6863 159.314 57 156 57H148C144.686 57 142 59.6863 142 63V96C142 99.3137 139.314 102 136 102H83C79.6863 102 77 104.686 77 108V116C77 119.314 79.6863 122 83 122H136C139.314 122 142 124.686 142 128V216C142 219.314 139.314 222 136 222H83C79.6863 222 77 224.686 77 228V236C77 239.314 79.6863 242 83 242H136C139.314 242 142 244.686 142 248V281ZM302 128C302 124.686 299.314 122 296 122H168C164.686 122 162 124.686 162 128V216C162 219.314 164.686 222 168 222H296C299.314 222 302 219.314 302 216V128Z" fill="#A3A8BC" fill-opacity="0.2"/>
<path d="M136 0H8V4H136V0ZM144 41V8H140V41H144ZM156 45H148V49H156V45ZM160 8V41H164V8H160ZM296 0H168V4H296V0ZM304 41V8H300V41H304ZM316 45H308V49H316V45ZM320 8V41H324V8H320ZM456 0H328V4H456V0ZM464 96V8H460V96H464ZM403 104H456V100H403V104ZM399 116V108H395V116H399ZM456 120H403V124H456V120ZM464 216V128H460V216H464ZM403 224H456V220H403V224ZM399 236V228H395V236H399ZM456 240H403V244H456V240ZM464 336V248H460V336H464ZM328 344H456V340H328V344ZM320 303V336H324V303H320ZM308 299H316V295H308V299ZM304 336V303H300V336H304ZM168 344H296V340H168V344ZM160 303V336H164V303H160ZM156 295H148V299H156V295ZM144 336V303H140V336H144ZM8 344H136V340H8V344ZM0 248V336H4V248H0ZM61 240H8V244H61V240ZM65 228V236H69V228H65ZM8 224H61V220H8V224ZM0 128V216H4V128H0ZM61 120H8V124H61V120ZM65 108V116H69V108H65ZM8 104H61V100H8V104ZM0 8V96H4V8H0ZM148 289H156V285H148V289ZM160 248V281H164V248H160ZM296 240H168V244H296V240ZM304 281V248H300V281H304ZM316 285H308V289H316V285ZM320 248V281H324V248H320ZM381 240H328V244H381V240ZM385 228V236H389V228H385ZM328 224H381V220H328V224ZM320 128V216H324V128H320ZM381 120H328V124H381V120ZM385 108V116H389V108H385ZM328 104H381V100H328V104ZM320 63V96H324V63H320ZM308 59H316V55H308V59ZM304 96V63H300V96H304ZM168 104H296V100H168V104ZM160 63V96H164V63H160ZM148 59H156V55H148V59ZM144 96V63H140V96H144ZM83 104H136V100H83V104ZM79 116V108H75V116H79ZM136 120H83V124H136V120ZM144 216V128H140V216H144ZM83 224H136V220H83V224ZM79 236V228H75V236H79ZM136 240H83V244H136V240ZM144 281V248H140V281H144ZM168 124H296V120H168V124ZM164 216V128H160V216H164ZM296 220H168V224H296V220ZM300 128V216H304V128H300ZM296 224C300.418 224 304 220.418 304 216H300C300 218.209 298.209 220 296 220V224ZM160 216C160 220.418 163.582 224 168 224V220C165.791 220 164 218.209 164 216H160ZM296 124C298.209 124 300 125.791 300 128H304C304 123.582 300.418 120 296 120V124ZM168 120C163.582 120 160 123.582 160 128H164C164 125.791 165.791 124 168 124V120ZM136 244C138.209 244 140 245.791 140 248H144C144 243.582 140.418 240 136 240V244ZM75 236C75 240.418 78.5817 244 83 244V240C80.7909 240 79 238.209 79 236H75ZM83 220C78.5817 220 75 223.582 75 228H79C79 225.791 80.7909 224 83 224V220ZM140 216C140 218.209 138.209 220 136 220V224C140.418 224 144 220.418 144 216H140ZM136 124C138.209 124 140 125.791 140 128H144C144 123.582 140.418 120 136 120V124ZM75 116C75 120.418 78.5817 124 83 124V120C80.7909 120 79 118.209 79 116H75ZM83 100C78.5817 100 75 103.582 75 108H79C79 105.791 80.7909 104 83 104V100ZM140 96C140 98.2091 138.209 100 136 100V104C140.418 104 144 100.418 144 96H140ZM148 55C143.582 55 140 58.5817 140 63H144C144 60.7909 145.791 59 148 59V55ZM164 63C164 58.5817 160.418 55 156 55V59C158.209 59 160 60.7909 160 63H164ZM168 100C165.791 100 164 98.2091 164 96H160C160 100.418 163.582 104 168 104V100ZM300 96C300 98.2091 298.209 100 296 100V104C300.418 104 304 100.418 304 96H300ZM308 55C303.582 55 300 58.5817 300 63H304C304 60.7909 305.791 59 308 59V55ZM324 63C324 58.5817 320.418 55 316 55V59C318.209 59 320 60.7909 320 63H324ZM328 100C325.791 100 324 98.2091 324 96H320C320 100.418 323.582 104 328 104V100ZM389 108C389 103.582 385.418 100 381 100V104C383.209 104 385 105.791 385 108H389ZM381 124C385.418 124 389 120.418 389 116H385C385 118.209 383.209 120 381 120V124ZM324 128C324 125.791 325.791 124 328 124V120C323.582 120 320 123.582 320 128H324ZM328 220C325.791 220 324 218.209 324 216H320C320 220.418 323.582 224 328 224V220ZM389 228C389 223.582 385.418 220 381 220V224C383.209 224 385 225.791 385 228H389ZM381 244C385.418 244 389 240.418 389 236H385C385 238.209 383.209 240 381 240V244ZM324 248C324 245.791 325.791 244 328 244V240C323.582 240 320 243.582 320 248H324ZM316 289C320.418 289 324 285.418 324 281H320C320 283.209 318.209 285 316 285V289ZM300 281C300 285.418 303.582 289 308 289V285C305.791 285 304 283.209 304 281H300ZM296 244C298.209 244 300 245.791 300 248H304C304 243.582 300.418 240 296 240V244ZM164 248C164 245.791 165.791 244 168 244V240C163.582 240 160 243.582 160 248H164ZM156 289C160.418 289 164 285.418 164 281H160C160 283.209 158.209 285 156 285V289ZM148 285C145.791 285 144 283.209 144 281H140C140 285.418 143.582 289 148 289V285ZM8 100C5.79086 100 4 98.2091 4 96H0C0 100.418 3.58172 104 8 104V100ZM69 108C69 103.582 65.4183 100 61 100V104C63.2091 104 65 105.791 65 108H69ZM61 124C65.4183 124 69 120.418 69 116H65C65 118.209 63.2091 120 61 120V124ZM4 128C4 125.791 5.79086 124 8 124V120C3.58172 120 0 123.582 0 128H4ZM8 220C5.79086 220 4 218.209 4 216H0C0 220.418 3.58172 224 8 224V220ZM69 228C69 223.582 65.4183 220 61 220V224C63.2091 224 65 225.791 65 228H69ZM61 244C65.4183 244 69 240.418 69 236H65C65 238.209 63.2091 240 61 240V244ZM4 248C4 245.791 5.79086 244 8 244V240C3.58172 240 0 243.582 0 248H4ZM8 340C5.79086 340 4 338.209 4 336H0C0 340.418 3.58172 344 8 344V340ZM140 336C140 338.209 138.209 340 136 340V344C140.418 344 144 340.418 144 336H140ZM148 295C143.582 295 140 298.582 140 303H144C144 300.791 145.791 299 148 299V295ZM164 303C164 298.582 160.418 295 156 295V299C158.209 299 160 300.791 160 303H164ZM168 340C165.791 340 164 338.209 164 336H160C160 340.418 163.582 344 168 344V340ZM300 336C300 338.209 298.209 340 296 340V344C300.418 344 304 340.418 304 336H300ZM308 295C303.582 295 300 298.582 300 303H304C304 300.791 305.791 299 308 299V295ZM324 303C324 298.582 320.418 295 316 295V299C318.209 299 320 300.791 320 303H324ZM328 340C325.791 340 324 338.209 324 336H320C320 340.418 323.582 344 328 344V340ZM460 336C460 338.209 458.209 340 456 340V344C460.418 344 464 340.418 464 336H460ZM456 244C458.209 244 460 245.791 460 248H464C464 243.582 460.418 240 456 240V244ZM395 236C395 240.418 398.582 244 403 244V240C400.791 240 399 238.209 399 236H395ZM403 220C398.582 220 395 223.582 395 228H399C399 225.791 400.791 224 403 224V220ZM460 216C460 218.209 458.209 220 456 220V224C460.418 224 464 220.418 464 216H460ZM456 124C458.209 124 460 125.791 460 128H464C464 123.582 460.418 120 456 120V124ZM395 116C395 120.418 398.582 124 403 124V120C400.791 120 399 118.209 399 116H395ZM403 100C398.582 100 395 103.582 395 108H399C399 105.791 400.791 104 403 104V100ZM460 96C460 98.2091 458.209 100 456 100V104C460.418 104 464 100.418 464 96H460ZM456 4C458.209 4 460 5.79086 460 8H464C464 3.58172 460.418 0 456 0V4ZM324 8C324 5.79086 325.791 4 328 4V0C323.582 0 320 3.58172 320 8H324ZM316 49C320.418 49 324 45.4183 324 41H320C320 43.2091 318.209 45 316 45V49ZM300 41C300 45.4183 303.582 49 308 49V45C305.791 45 304 43.2091 304 41H300ZM296 4C298.209 4 300 5.79086 300 8H304C304 3.58172 300.418 0 296 0V4ZM164 8C164 5.79086 165.791 4 168 4V0C163.582 0 160 3.58172 160 8H164ZM156 49C160.418 49 164 45.4183 164 41H160C160 43.2091 158.209 45 156 45V49ZM140 41C140 45.4183 143.582 49 148 49V45C145.791 45 144 43.2091 144 41H140ZM8 0C3.58173 0 0 3.58172 0 8H4C4 5.79086 5.79086 4 8 4V0ZM136 4C138.209 4 140 5.79086 140 8H144C144 3.58172 140.418 0 136 0V4Z" fill="#B9BCC7" mask="url(#path-1-outside-1_64_807)"/>
<path d="M81 25.5V22.5C81 21.7044 80.6839 20.9413 80.1213 20.3787C79.5587 19.8161 78.7956 19.5 78 19.5H60C59.2044 19.5 58.4413 19.8161 57.8787 20.3787C57.3161 20.9413 57 21.7044 57 22.5V33C57 33.7956 57.3161 34.5587 57.8787 35.1213C58.4413 35.6839 59.2044 36 60 36H72" stroke="#3313F7" stroke-width="2.5" stroke-linecap="round" stroke-linejoin="round"/>
<path d="M69 42.0001V36.0601V40.7851" stroke="#3313F7" stroke-width="2.5" stroke-linecap="round" stroke-linejoin="round"/>
<path d="M64.5 42H72" stroke="#3313F7" stroke-width="2.5" stroke-linecap="round" stroke-linejoin="round"/>
<path d="M84 31.5H81C79.3431 31.5 78 32.8431 78 34.5V43.5C78 45.1569 79.3431 46.5 81 46.5H84C85.6569 46.5 87 45.1569 87 43.5V34.5C87 32.8431 85.6569 31.5 84 31.5Z" stroke="#3313F7" stroke-width="2.5" stroke-linecap="round" stroke-linejoin="round"/>
<path d="M24.1361 60.752C25.6601 60.752 26.8001 61.664 27.2681 63.236L25.8401 63.728C25.6001 62.708 24.9761 62.108 24.1241 62.108C23.5361 62.108 23.0441 62.396 22.6721 62.972C22.3001 63.536 22.1081 64.28 22.1081 65.192C22.1081 66.104 22.3001 66.848 22.6721 67.424C23.0441 67.988 23.5361 68.276 24.1241 68.276C24.9761 68.276 25.6001 67.676 25.8401 66.656L27.2681 67.148C26.8001 68.72 25.6601 69.632 24.1361 69.632C23.1161 69.632 22.2761 69.224 21.6161 68.396C20.9561 67.568 20.6321 66.5 20.6321 65.192C20.6321 63.884 20.9561 62.828 21.6161 62C22.2761 61.172 23.1161 60.752 24.1361 60.752ZM32.3514 66.164H31.2594V69.5H29.7234V60.884H32.6874C34.6674 60.884 35.8074 61.844 35.8074 63.524C35.8074 64.784 35.1474 65.672 33.9474 66.008L36.2034 69.5H34.4514L32.3514 66.164ZM31.2594 62.204V64.844H32.6034C33.6954 64.844 34.2954 64.376 34.2954 63.524C34.2954 62.66 33.7074 62.204 32.6034 62.204H31.2594ZM44.5748 65.192C44.5748 66.524 44.2748 67.592 43.6868 68.408C43.0988 69.224 42.3308 69.632 41.3588 69.632C40.3868 69.632 39.6068 69.224 39.0188 68.408C38.4308 67.592 38.1428 66.524 38.1428 65.192C38.1428 63.86 38.4308 62.792 39.0188 61.976C39.6068 61.16 40.3868 60.752 41.3588 60.752C42.3308 60.752 43.0988 61.16 43.6868 61.976C44.2748 62.792 44.5748 63.86 44.5748 65.192ZM43.0868 65.192C43.0868 63.26 42.4508 62.108 41.3588 62.108C40.2668 62.108 39.6308 63.26 39.6308 65.192C39.6308 67.124 40.2668 68.276 41.3588 68.276C42.4508 68.276 43.0868 67.124 43.0868 65.192ZM50.1501 69.632C49.3941 69.632 48.6741 69.464 48.0141 69.14C47.3541 68.816 46.8501 68.384 46.5261 67.844L47.7141 66.848C48.3261 67.796 49.2261 68.336 50.1981 68.336C51.2181 68.336 51.9021 67.832 51.9021 67.052C51.9021 66.584 51.6741 66.296 51.0621 66.092C50.9061 66.032 50.4501 65.912 49.7181 65.732C48.6981 65.48 48.2541 65.3 47.8821 65.06C47.3061 64.664 47.0301 64.124 47.0301 63.368C47.0301 62.6 47.3181 61.976 47.9061 61.484C48.4941 60.992 49.2381 60.752 50.1381 60.752C51.5181 60.752 52.7181 61.352 53.3421 62.324L52.2261 63.284C51.6861 62.432 50.9901 62.036 50.0901 62.036C49.1661 62.036 48.5181 62.504 48.5181 63.212C48.5181 63.5 48.6261 63.728 48.8301 63.884C49.0461 64.04 49.5501 64.22 50.3541 64.4C51.0141 64.556 51.4821 64.676 51.7341 64.772C51.9981 64.856 52.2261 64.964 52.4181 65.072C53.0901 65.468 53.4141 66.068 53.4141 66.896C53.4141 67.7 53.1021 68.36 52.4781 68.876C51.8661 69.38 51.0861 69.632 50.1501 69.632ZM58.9054 69.632C58.1494 69.632 57.4294 69.464 56.7694 69.14C56.1094 68.816 55.6054 68.384 55.2814 67.844L56.4694 66.848C57.0814 67.796 57.9814 68.336 58.9534 68.336C59.9734 68.336 60.6574 67.832 60.6574 67.052C60.6574 66.584 60.4294 66.296 59.8174 66.092C59.6614 66.032 59.2054 65.912 58.4734 65.732C57.4534 65.48 57.0094 65.3 56.6374 65.06C56.0614 64.664 55.7854 64.124 55.7854 63.368C55.7854 62.6 56.0734 61.976 56.6614 61.484C57.2494 60.992 57.9934 60.752 58.8934 60.752C60.2734 60.752 61.4734 61.352 62.0974 62.324L60.9814 63.284C60.4414 62.432 59.7454 62.036 58.8454 62.036C57.9214 62.036 57.2734 62.504 57.2734 63.212C57.2734 63.5 57.3814 63.728 57.5854 63.884C57.8014 64.04 58.3054 64.22 59.1094 64.4C59.7694 64.556 60.2374 64.676 60.4894 64.772C60.7534 64.856 60.9814 64.964 61.1734 65.072C61.8454 65.468 62.1694 66.068 62.1694 66.896C62.1694 67.7 61.8574 68.36 61.2334 68.876C60.6214 69.38 59.8414 69.632 58.9054 69.632ZM69.3047 66.644H65.9447V65.36H69.3047V66.644ZM75.528 69.5H73.5V60.884H75.528C76.812 60.884 77.808 61.268 78.516 62.036C79.236 62.792 79.596 63.848 79.596 65.192C79.596 66.536 79.236 67.592 78.516 68.36C77.808 69.116 76.812 69.5 75.528 69.5ZM75 62.204V68.18H75.528C77.196 68.18 78.084 67.124 78.084 65.192C78.084 63.236 77.196 62.204 75.516 62.204H75ZM82.2553 69.5V60.884H88.2073V62.228H83.7673V64.388H87.5233V65.732H83.7673V68.156H88.2073V69.5H82.2553ZM97.2986 60.884L94.7546 69.5H93.0386L90.4826 60.884H92.1026L93.9146 67.496L95.7506 60.884H97.2986ZM103.414 68.156H105.706V69.5H99.5859V68.156H101.878V62.228H99.5859V60.884H105.706V62.228H103.414V68.156ZM111.689 60.752C113.213 60.752 114.353 61.664 114.821 63.236L113.393 63.728C113.153 62.708 112.529 62.108 111.677 62.108C111.089 62.108 110.597 62.396 110.225 62.972C109.853 63.536 109.661 64.28 109.661 65.192C109.661 66.104 109.853 66.848 110.225 67.424C110.597 67.988 111.089 68.276 111.677 68.276C112.529 68.276 113.153 67.676 113.393 66.656L114.821 67.148C114.353 68.72 113.213 69.632 111.689 69.632C110.669 69.632 109.829 69.224 109.169 68.396C108.509 67.568 108.185 66.5 108.185 65.192C108.185 63.884 108.509 62.828 109.169 62C109.829 61.172 110.669 60.752 111.689 60.752ZM117.277 69.5V60.884H123.229V62.228H118.789V64.388H122.545V65.732H118.789V68.156H123.229V69.5H117.277ZM58.9054 86.632C58.1494 86.632 57.4294 86.464 56.7694 86.14C56.1094 85.816 55.6054 85.384 55.2814 84.844L56.4694 83.848C57.0814 84.796 57.9814 85.336 58.9534 85.336C59.9734 85.336 60.6574 84.832 60.6574 84.052C60.6574 83.584 60.4294 83.296 59.8174 83.092C59.6614 83.032 59.2054 82.912 58.4734 82.732C57.4534 82.48 57.0094 82.3 56.6374 82.06C56.0614 81.664 55.7854 81.124 55.7854 80.368C55.7854 79.6 56.0734 78.976 56.6614 78.484C57.2494 77.992 57.9934 77.752 58.8934 77.752C60.2734 77.752 61.4734 78.352 62.0974 79.324L60.9814 80.284C60.4414 79.432 59.7454 79.036 58.8454 79.036C57.9214 79.036 57.2734 79.504 57.2734 80.212C57.2734 80.5 57.3814 80.728 57.5854 80.884C57.8014 81.04 58.3054 81.22 59.1094 81.4C59.7694 81.556 60.2374 81.676 60.4894 81.772C60.7534 81.856 60.9814 81.964 61.1734 82.072C61.8454 82.468 62.1694 83.068 62.1694 83.896C62.1694 84.7 61.8574 85.36 61.2334 85.876C60.6214 86.38 59.8414 86.632 58.9054 86.632ZM65.6927 77.884L67.6487 81.568L69.6047 77.884H71.2127L68.3927 82.948V86.5H66.8567V82.948L64.0247 77.884H65.6927ZM77.82 77.884H79.26V86.5H77.808L74.94 80.416V86.5H73.5V77.884H75.036L77.82 83.68V77.884ZM85.4233 77.752C86.9473 77.752 88.0873 78.664 88.5553 80.236L87.1273 80.728C86.8873 79.708 86.2633 79.108 85.4113 79.108C84.8233 79.108 84.3313 79.396 83.9593 79.972C83.5873 80.536 83.3953 81.28 83.3953 82.192C83.3953 83.104 83.5873 83.848 83.9593 84.424C84.3313 84.988 84.8233 85.276 85.4113 85.276C86.2633 85.276 86.8873 84.676 87.1273 83.656L88.5553 84.148C88.0873 85.72 86.9473 86.632 85.4233 86.632C84.4033 86.632 83.5633 86.224 82.9033 85.396C82.2433 84.568 81.9193 83.5 81.9193 82.192C81.9193 80.884 82.2433 79.828 82.9033 79C83.5633 78.172 84.4033 77.752 85.4233 77.752Z" fill="black"/>
<path d="M60 166.5H81C81.7956 166.5 82.5587 166.184 83.1213 165.621C83.6839 165.059 84 164.296 84 163.5V144L76.5 136.5H63C62.2044 136.5 61.4413 136.816 60.8787 137.379C60.3161 137.941 60 138.704 60 139.5V141" stroke="#3313F7" stroke-width="2.5" stroke-linecap="round" stroke-linejoin="round"/>
<path d="M75 136.5V142.5C75 143.296 75.3161 144.059 75.8787 144.621C76.4413 145.184 77.2044 145.5 78 145.5H84" stroke="#3313F7" stroke-width="2.5" stroke-linecap="round" stroke-linejoin="round"/>
<path d="M67.5 153H58.5C57.6716 153 57 153.672 57 154.5V159C57 159.828 57.6716 160.5 58.5 160.5H67.5C68.3284 160.5 69 159.828 69 159V154.5C69 153.672 68.3284 153 67.5 153Z" stroke="#3313F7" stroke-width="2.5" stroke-linecap="round" stroke-linejoin="round"/>
<path d="M66 153V150C66 149.204 65.6839 148.441 65.1213 147.879C64.5587 147.316 63.7956 147 63 147C62.2044 147 61.4413 147.316 60.8787 147.879C60.3161 148.441 60 149.204 60 150V153" stroke="#3313F7" stroke-width="2.5" stroke-linecap="round" stroke-linejoin="round"/>
<path d="M40.9148 189.5H37.6988V180.884H40.6988C42.5348 180.884 43.5308 181.676 43.5308 183.152C43.5308 184.052 43.0868 184.712 42.3068 185.012C43.2548 185.312 43.8068 186.092 43.8068 187.1C43.8068 188.588 42.7028 189.5 40.9148 189.5ZM39.1748 182.18V184.448H40.5548C41.5508 184.448 42.0788 184.064 42.0788 183.308C42.0788 182.576 41.5628 182.18 40.5548 182.18H39.1748ZM40.8308 185.744H39.1748V188.204H40.8308C41.7548 188.204 42.3308 187.736 42.3308 186.968C42.3308 186.212 41.7548 185.744 40.8308 185.744ZM49.3341 189.632C47.4141 189.632 46.3821 188.432 46.3821 186.212V180.884H47.9181V186.14C47.9181 187.568 48.3621 188.228 49.3341 188.228C50.3061 188.228 50.7501 187.568 50.7501 186.14V180.884H52.2861V186.212C52.2861 188.432 51.2541 189.632 49.3341 189.632ZM58.8574 188.156H61.1494V189.5H55.0294V188.156H57.3214V182.228H55.0294V180.884H61.1494V182.228H58.8574V188.156ZM69.8927 189.5H64.3007V180.884H65.8367V188.156H69.8927V189.5ZM78.9 180.884V182.228H76.368V189.5H74.832V182.228H72.3V180.884H78.9ZM86.0353 186.644H82.6753V185.36H86.0353V186.644ZM93.8786 188.156H96.1706V189.5H90.0506V188.156H92.3426V182.228H90.0506V180.884H96.1706V182.228H93.8786V188.156ZM103.306 180.884H104.746V189.5H103.294L100.426 183.416V189.5H98.9859V180.884H100.522L103.306 186.68V180.884ZM28.5258 203.164H26.8818V206.5H25.3458V197.884H28.5258C30.5058 197.884 31.6458 198.844 31.6458 200.524C31.6458 202.204 30.4938 203.164 28.5258 203.164ZM26.8818 199.204V201.844H28.4418C29.5338 201.844 30.1338 201.376 30.1338 200.524C30.1338 199.66 29.5458 199.204 28.4418 199.204H26.8818ZM34.1011 206.5V197.884H40.0531V199.228H35.6131V201.388H39.3691V202.732H35.6131V205.156H40.0531V206.5H34.1011ZM45.4844 203.164H44.3924V206.5H42.8564V197.884H45.8204C47.8004 197.884 48.9404 198.844 48.9404 200.524C48.9404 201.784 48.2804 202.672 47.0804 203.008L49.3364 206.5H47.5844L45.4844 203.164ZM44.3924 199.204V201.844H45.7364C46.8284 201.844 47.4284 201.376 47.4284 200.524C47.4284 199.66 46.8404 199.204 45.7364 199.204H44.3924ZM56.1837 200.032L54.9477 206.5H54.0357L52.7997 200.032V206.5H51.4917V197.884H53.5317L54.5037 203.26L55.4877 197.884H57.4917V206.5H56.1837V200.032ZM64.015 205.156H66.307V206.5H60.187V205.156H62.479V199.228H60.187V197.884H66.307V199.228H64.015V205.156ZM72.0383 206.632C71.2823 206.632 70.5623 206.464 69.9023 206.14C69.2423 205.816 68.7383 205.384 68.4143 204.844L69.6023 203.848C70.2143 204.796 71.1143 205.336 72.0863 205.336C73.1063 205.336 73.7903 204.832 73.7903 204.052C73.7903 203.584 73.5623 203.296 72.9503 203.092C72.7943 203.032 72.3383 202.912 71.6063 202.732C70.5863 202.48 70.1423 202.3 69.7703 202.06C69.1943 201.664 68.9183 201.124 68.9183 200.368C68.9183 199.6 69.2063 198.976 69.7943 198.484C70.3823 197.992 71.1263 197.752 72.0263 197.752C73.4063 197.752 74.6063 198.352 75.2303 199.324L74.1143 200.284C73.5743 199.432 72.8783 199.036 71.9783 199.036C71.0543 199.036 70.4063 199.504 70.4063 200.212C70.4063 200.5 70.5143 200.728 70.7183 200.884C70.9343 201.04 71.4383 201.22 72.2423 201.4C72.9023 201.556 73.3703 201.676 73.6223 201.772C73.8863 201.856 74.1143 201.964 74.3063 202.072C74.9783 202.468 75.3023 203.068 75.3023 203.896C75.3023 204.7 74.9903 205.36 74.3663 205.876C73.7543 206.38 72.9743 206.632 72.0383 206.632ZM80.7937 206.632C80.0377 206.632 79.3177 206.464 78.6577 206.14C77.9977 205.816 77.4937 205.384 77.1697 204.844L78.3577 203.848C78.9697 204.796 79.8697 205.336 80.8417 205.336C81.8617 205.336 82.5457 204.832 82.5457 204.052C82.5457 203.584 82.3177 203.296 81.7057 203.092C81.5497 203.032 81.0937 202.912 80.3617 202.732C79.3417 202.48 78.8977 202.3 78.5257 202.06C77.9497 201.664 77.6737 201.124 77.6737 200.368C77.6737 199.6 77.9617 198.976 78.5497 198.484C79.1377 197.992 79.8817 197.752 80.7817 197.752C82.1617 197.752 83.3617 198.352 83.9857 199.324L82.8697 200.284C82.3297 199.432 81.6337 199.036 80.7337 199.036C79.8097 199.036 79.1617 199.504 79.1617 200.212C79.1617 200.5 79.2697 200.728 79.4737 200.884C79.6897 201.04 80.1937 201.22 80.9977 201.4C81.6577 201.556 82.1257 201.676 82.3777 201.772C82.6417 201.856 82.8697 201.964 83.0617 202.072C83.7337 202.468 84.0577 203.068 84.0577 203.896C84.0577 204.7 83.7457 205.36 83.1217 205.876C82.5097 206.38 81.7297 206.632 80.7937 206.632ZM90.281 205.156H92.573V206.5H86.453V205.156H88.745V199.228H86.453V197.884H92.573V199.228H90.281V205.156ZM101.484 202.192C101.484 203.524 101.184 204.592 100.596 205.408C100.008 206.224 99.2403 206.632 98.2683 206.632C97.2963 206.632 96.5163 206.224 95.9283 205.408C95.3403 204.592 95.0523 203.524 95.0523 202.192C95.0523 200.86 95.3403 199.792 95.9283 198.976C96.5163 198.16 97.2963 197.752 98.2683 197.752C99.2403 197.752 100.008 198.16 100.596 198.976C101.184 199.792 101.484 200.86 101.484 202.192ZM99.9963 202.192C99.9963 200.26 99.3603 199.108 98.2683 199.108C97.1763 199.108 96.5403 200.26 96.5403 202.192C96.5403 204.124 97.1763 205.276 98.2683 205.276C99.3603 205.276 99.9963 204.124 99.9963 202.192ZM108.464 197.884H109.904V206.5H108.452L105.584 200.416V206.5H104.144V197.884H105.68L108.464 203.68V197.884ZM115.815 206.632C115.059 206.632 114.339 206.464 113.679 206.14C113.019 205.816 112.515 205.384 112.191 204.844L113.379 203.848C113.991 204.796 114.891 205.336 115.863 205.336C116.883 205.336 117.567 204.832 117.567 204.052C117.567 203.584 117.339 203.296 116.727 203.092C116.571 203.032 116.115 202.912 115.383 202.732C114.363 202.48 113.919 202.3 113.547 202.06C112.971 201.664 112.695 201.124 112.695 200.368C112.695 199.6 112.983 198.976 113.571 198.484C114.159 197.992 114.903 197.752 115.803 197.752C117.183 197.752 118.383 198.352 119.007 199.324L117.891 200.284C117.351 199.432 116.655 199.036 115.755 199.036C114.831 199.036 114.183 199.504 114.183 200.212C114.183 200.5 114.291 200.728 114.495 200.884C114.711 201.04 115.215 201.22 116.019 201.4C116.679 201.556 117.147 201.676 117.399 201.772C117.663 201.856 117.891 201.964 118.083 202.072C118.755 202.468 119.079 203.068 119.079 203.896C119.079 204.7 118.767 205.36 118.143 205.876C117.531 206.38 116.751 206.632 115.815 206.632Z" fill="black"/>
<path d="M232 274.5L238 268.5" stroke="#3313F7" stroke-width="2.5" stroke-linecap="round" stroke-linejoin="round"/>
<path d="M219.01 282C217.693 279.72 217 277.133 217 274.5C217 271.867 217.693 269.28 219.009 267C220.326 264.719 222.22 262.826 224.5 261.509C226.78 260.192 229.367 259.499 232 259.499C234.633 259.499 237.22 260.192 239.5 261.509C241.78 262.826 243.674 264.719 244.991 267C246.307 269.28 247 271.867 247 274.5C247 277.133 246.307 279.72 244.99 282" stroke="#3313F7" stroke-width="2.5" stroke-linecap="round" stroke-linejoin="round"/>
<path d="M202.127 308.156H204.419V309.5H198.299V308.156H200.591V302.228H198.299V300.884H204.419V302.228H202.127V308.156ZM211.554 300.884H212.994V309.5H211.542L208.674 303.416V309.5H207.234V300.884H208.77L211.554 306.68V300.884ZM218.905 309.632C218.149 309.632 217.429 309.464 216.769 309.14C216.109 308.816 215.605 308.384 215.281 307.844L216.469 306.848C217.081 307.796 217.981 308.336 218.953 308.336C219.973 308.336 220.657 307.832 220.657 307.052C220.657 306.584 220.429 306.296 219.817 306.092C219.661 306.032 219.205 305.912 218.473 305.732C217.453 305.48 217.009 305.3 216.637 305.06C216.061 304.664 215.785 304.124 215.785 303.368C215.785 302.6 216.073 301.976 216.661 301.484C217.249 300.992 217.993 300.752 218.893 300.752C220.273 300.752 221.473 301.352 222.097 302.324L220.981 303.284C220.441 302.432 219.745 302.036 218.845 302.036C217.921 302.036 217.273 302.504 217.273 303.212C217.273 303.5 217.381 303.728 217.585 303.884C217.801 304.04 218.305 304.22 219.109 304.4C219.769 304.556 220.237 304.676 220.489 304.772C220.753 304.856 220.981 304.964 221.173 305.072C221.845 305.468 222.169 306.068 222.169 306.896C222.169 307.7 221.857 308.36 221.233 308.876C220.621 309.38 219.841 309.632 218.905 309.632ZM230.925 300.884V302.228H228.393V309.5H226.857V302.228H224.325V300.884H230.925ZM232.972 309.5L235.456 300.884H237.292L239.8 309.5H238.252L237.7 307.532H235.024L234.472 309.5H232.972ZM237.328 306.188L236.356 302.72L235.396 306.188H237.328ZM246.575 300.884H248.015V309.5H246.563L243.695 303.416V309.5H242.255V300.884H243.791L246.575 306.68V300.884ZM257.191 300.884V302.228H254.659V309.5H253.123V302.228H250.591V300.884H257.191ZM192.603 326.632C190.683 326.632 189.651 325.432 189.651 323.212V317.884H191.187V323.14C191.187 324.568 191.631 325.228 192.603 325.228C193.575 325.228 194.019 324.568 194.019 323.14V317.884H195.555V323.212C195.555 325.432 194.523 326.632 192.603 326.632ZM202.127 325.156H204.419V326.5H198.299V325.156H200.591V319.228H198.299V317.884H204.419V319.228H202.127V325.156ZM218.869 326.632C216.949 326.632 215.917 325.432 215.917 323.212V317.884H217.453V323.14C217.453 324.568 217.897 325.228 218.869 325.228C219.841 325.228 220.285 324.568 220.285 323.14V317.884H221.821V323.212C221.821 325.432 220.789 326.632 218.869 326.632ZM227.925 323.164H226.281V326.5H224.745V317.884H227.925C229.905 317.884 231.045 318.844 231.045 320.524C231.045 322.204 229.893 323.164 227.925 323.164ZM226.281 319.204V321.844H227.841C228.933 321.844 229.533 321.376 229.533 320.524C229.533 319.66 228.945 319.204 227.841 319.204H226.281ZM235.528 326.5H233.5V317.884H235.528C236.812 317.884 237.808 318.268 238.516 319.036C239.236 319.792 239.596 320.848 239.596 322.192C239.596 323.536 239.236 324.592 238.516 325.36C237.808 326.116 236.812 326.5 235.528 326.5ZM235 319.204V325.18H235.528C237.196 325.18 238.084 324.124 238.084 322.192C238.084 320.236 237.196 319.204 235.516 319.204H235ZM241.727 326.5L244.211 317.884H246.047L248.555 326.5H247.007L246.455 324.532H243.779L243.227 326.5H241.727ZM246.083 323.188L245.111 319.72L244.151 323.188H246.083ZM257.191 317.884V319.228H254.659V326.5H253.123V319.228H250.591V317.884H257.191ZM259.766 326.5V317.884H265.718V319.228H261.278V321.388H265.034V322.732H261.278V325.156H265.718V326.5H259.766ZM271.437 326.632C270.681 326.632 269.961 326.464 269.301 326.14C268.641 325.816 268.137 325.384 267.813 324.844L269.001 323.848C269.613 324.796 270.513 325.336 271.485 325.336C272.505 325.336 273.189 324.832 273.189 324.052C273.189 323.584 272.961 323.296 272.349 323.092C272.193 323.032 271.737 322.912 271.005 322.732C269.985 322.48 269.541 322.3 269.169 322.06C268.593 321.664 268.317 321.124 268.317 320.368C268.317 319.6 268.605 318.976 269.193 318.484C269.781 317.992 270.525 317.752 271.425 317.752C272.805 317.752 274.005 318.352 274.629 319.324L273.513 320.284C272.973 319.432 272.277 319.036 271.377 319.036C270.453 319.036 269.805 319.504 269.805 320.212C269.805 320.5 269.913 320.728 270.117 320.884C270.333 321.04 270.837 321.22 271.641 321.4C272.301 321.556 272.769 321.676 273.021 321.772C273.285 321.856 273.513 321.964 273.705 322.072C274.377 322.468 274.701 323.068 274.701 323.896C274.701 324.7 274.389 325.36 273.765 325.876C273.153 326.38 272.373 326.632 271.437 326.632Z" fill="black"/>
<path d="M235 19.6499L232 22.4999" stroke="#3313F7" stroke-width="2.5" stroke-linecap="round" stroke-linejoin="round"/>
<path d="M221.65 25.5L217.3 24.3" stroke="#3313F7" stroke-width="2.5" stroke-linecap="round" stroke-linejoin="round"/>
<path d="M223 31.5L220.15 34.5" stroke="#3313F7" stroke-width="2.5" stroke-linecap="round" stroke-linejoin="round"/>
<path d="M224.8 16.8L226 21.15" stroke="#3313F7" stroke-width="2.5" stroke-linecap="round" stroke-linejoin="round"/>
<path d="M227.555 28.035C227.497 27.898 227.481 27.7467 227.51 27.6006C227.538 27.4544 227.61 27.3201 227.715 27.2149C227.82 27.1096 227.954 27.0382 228.101 27.0098C228.247 26.9814 228.398 26.9973 228.535 27.0555L245.035 33.8055C245.182 33.8657 245.306 33.971 245.389 34.1062C245.472 34.2413 245.51 34.3994 245.498 34.5577C245.486 34.7159 245.423 34.8662 245.32 34.9868C245.217 35.1074 245.078 35.1922 244.924 35.229L238.4 36.7905C238.131 36.8548 237.885 36.9924 237.689 37.1881C237.493 37.3837 237.355 37.6298 237.29 37.899L235.73 44.424C235.694 44.5789 235.609 44.7183 235.489 44.8219C235.368 44.9255 235.217 44.988 235.059 45.0004C234.9 45.0127 234.741 44.9743 234.606 44.8906C234.471 44.807 234.365 44.6824 234.305 44.535L227.555 28.035Z" stroke="#3313F7" stroke-width="2.5" stroke-linecap="round" stroke-linejoin="round"/>
<path d="M195.949 66.164H194.857V69.5H193.321V60.884H196.285C198.265 60.884 199.405 61.844 199.405 63.524C199.405 64.784 198.745 65.672 197.545 66.008L199.801 69.5H198.049L195.949 66.164ZM194.857 62.204V64.844H196.201C197.293 64.844 197.893 64.376 197.893 63.524C197.893 62.66 197.305 62.204 196.201 62.204H194.857ZM202.076 69.5V60.884H208.028V62.228H203.588V64.388H207.344V65.732H203.588V68.156H208.028V69.5H202.076ZM210.304 69.5L212.788 60.884H214.624L217.132 69.5H215.584L215.032 67.532H212.356L211.804 69.5H210.304ZM214.66 66.188L213.688 62.72L212.728 66.188H214.66ZM225.515 69.5H219.923V60.884H221.459V68.156H225.515V69.5ZM232.902 66.644H229.542V65.36H232.902V66.644ZM243.278 60.884V62.228H240.746V69.5H239.21V62.228H236.678V60.884H243.278ZM249.501 68.156H251.793V69.5H245.673V68.156H247.965V62.228H245.673V60.884H251.793V62.228H249.501V68.156ZM259.18 63.032L257.944 69.5H257.032L255.796 63.032V69.5H254.488V60.884H256.528L257.5 66.26L258.484 60.884H260.488V69.5H259.18V63.032ZM263.364 69.5V60.884H269.316V62.228H264.876V64.388H268.632V65.732H264.876V68.156H269.316V69.5H263.364ZM189.918 80.032L188.682 86.5H187.77L186.534 80.032V86.5H185.226V77.884H187.266L188.238 83.26L189.222 77.884H191.226V86.5H189.918V80.032ZM196.981 86.632C195.061 86.632 194.029 85.432 194.029 83.212V77.884H195.565V83.14C195.565 84.568 196.009 85.228 196.981 85.228C197.953 85.228 198.397 84.568 198.397 83.14V77.884H199.933V83.212C199.933 85.432 198.901 86.632 196.981 86.632ZM208.784 86.5H203.192V77.884H204.728V85.156H208.784V86.5ZM217.792 77.884V79.228H215.26V86.5H213.724V79.228H211.192V77.884H217.792ZM224.015 85.156H226.307V86.5H220.187V85.156H222.479V79.228H220.187V77.884H226.307V79.228H224.015V85.156ZM232.302 83.164H230.658V86.5H229.122V77.884H232.302C234.282 77.884 235.422 78.844 235.422 80.524C235.422 82.204 234.27 83.164 232.302 83.164ZM230.658 79.204V81.844H232.218C233.31 81.844 233.91 81.376 233.91 80.524C233.91 79.66 233.322 79.204 232.218 79.204H230.658ZM243.806 86.5H238.214V77.884H239.75V85.156H243.806V86.5ZM246.105 86.5L248.589 77.884H250.425L252.933 86.5H251.385L250.833 84.532H248.157L247.605 86.5H246.105ZM250.461 83.188L249.489 79.72L248.529 83.188H250.461ZM256.336 77.884L258.292 81.568L260.248 77.884H261.856L259.036 82.948V86.5H257.5V82.948L254.668 77.884H256.336ZM264.144 86.5V77.884H270.096V79.228H265.656V81.388H269.412V82.732H265.656V85.156H270.096V86.5H264.144ZM275.527 83.164H274.435V86.5H272.899V77.884H275.863C277.843 77.884 278.983 78.844 278.983 80.524C278.983 81.784 278.323 82.672 277.123 83.008L279.379 86.5H277.627L275.527 83.164ZM274.435 79.204V81.844H275.779C276.871 81.844 277.471 81.376 277.471 80.524C277.471 79.66 276.883 79.204 275.779 79.204H274.435Z" fill="black"/>
<path d="M377.879 279.621C377.316 280.183 377 280.946 377 281.742V285C377 285.398 377.158 285.779 377.439 286.061C377.721 286.342 378.102 286.5 378.5 286.5H383C383.398 286.5 383.779 286.342 384.061 286.061C384.342 285.779 384.5 285.398 384.5 285V283.5C384.5 283.102 384.658 282.721 384.939 282.439C385.221 282.158 385.602 282 386 282H387.5C387.898 282 388.279 281.842 388.561 281.561C388.842 281.279 389 280.898 389 280.5V279C389 278.602 389.158 278.221 389.439 277.939C389.721 277.658 390.102 277.5 390.5 277.5H390.758C391.554 277.5 392.317 277.184 392.879 276.621L394.1 275.4C396.185 276.126 398.454 276.123 400.537 275.392C402.62 274.661 404.393 273.244 405.567 271.374C406.74 269.504 407.244 267.291 406.996 265.098C406.748 262.904 405.763 260.859 404.202 259.298C402.641 257.737 400.596 256.752 398.402 256.504C396.209 256.256 393.996 256.76 392.126 257.933C390.256 259.107 388.839 260.88 388.108 262.963C387.377 265.046 387.374 267.315 388.1 269.4L377.879 279.621Z" stroke="#3313F7" stroke-width="2.5" stroke-linecap="round" stroke-linejoin="round"/>
<path d="M398.75 265.5C399.164 265.5 399.5 265.164 399.5 264.75C399.5 264.336 399.164 264 398.75 264C398.336 264 398 264.336 398 264.75C398 265.164 398.336 265.5 398.75 265.5Z" fill="black" stroke="#3313F7" stroke-width="2.5" stroke-linecap="round" stroke-linejoin="round"/>
<path d="M366.454 309.5V300.884H372.406V302.228H367.966V304.388H371.722V305.732H367.966V308.156H372.406V309.5H366.454ZM375.113 309.5V308.252L377.273 306.476C378.221 305.708 378.821 305.132 379.097 304.748C379.373 304.352 379.505 303.968 379.505 303.584C379.505 302.672 378.917 302.06 378.041 302.06C377.177 302.06 376.553 302.72 376.553 303.62C376.553 303.896 376.601 304.184 376.697 304.436H375.269C375.161 304.1 375.113 303.872 375.113 303.536C375.113 302.744 375.401 302.084 375.965 301.556C376.541 301.016 377.249 300.752 378.077 300.752C378.965 300.752 379.673 301.004 380.213 301.508C380.753 302 381.029 302.66 381.029 303.488C381.029 304.064 380.861 304.616 380.513 305.156C380.177 305.684 379.565 306.308 378.665 307.016L377.225 308.156H381.137V309.5H375.113ZM383.965 309.5V300.884H389.917V302.228H385.477V304.388H389.233V305.732H385.477V308.156H389.917V309.5H383.965ZM392.72 309.5V300.884H398.672V302.228H394.232V304.388H397.988V305.732H394.232V308.156H398.672V309.5H392.72ZM415.091 304.892L416.327 305.132C416.231 306.14 415.883 307.1 415.355 307.868L416.723 309.5H415.103L414.515 308.804C413.843 309.344 413.075 309.632 412.259 309.632C411.527 309.632 410.915 309.404 410.423 308.96C409.943 308.516 409.703 307.928 409.703 307.22C409.703 306.224 410.147 305.48 411.155 304.808C410.627 304.124 410.399 303.524 410.399 302.936C410.399 302.312 410.603 301.796 411.023 301.376C411.443 300.956 411.983 300.752 412.619 300.752C413.231 300.752 413.735 300.932 414.119 301.304C414.503 301.676 414.695 302.144 414.695 302.72C414.695 303.188 414.563 303.584 414.299 303.932C414.047 304.28 413.591 304.64 412.943 305.012L414.527 306.884C414.827 306.308 415.007 305.624 415.091 304.892ZM412.583 301.904C412.091 301.904 411.707 302.324 411.707 302.9C411.707 303.284 411.851 303.644 412.271 304.184C413.171 303.716 413.423 303.404 413.423 302.792C413.423 302.3 413.063 301.904 412.583 301.904ZM411.095 307.076C411.095 307.832 411.659 308.408 412.391 308.408C412.871 308.408 413.339 308.228 413.735 307.892L411.851 305.66C411.335 306.056 411.095 306.5 411.095 307.076ZM352.639 326.632C351.883 326.632 351.163 326.464 350.503 326.14C349.843 325.816 349.339 325.384 349.015 324.844L350.203 323.848C350.815 324.796 351.715 325.336 352.687 325.336C353.707 325.336 354.391 324.832 354.391 324.052C354.391 323.584 354.163 323.296 353.551 323.092C353.395 323.032 352.939 322.912 352.207 322.732C351.187 322.48 350.743 322.3 350.371 322.06C349.795 321.664 349.519 321.124 349.519 320.368C349.519 319.6 349.807 318.976 350.395 318.484C350.983 317.992 351.727 317.752 352.627 317.752C354.007 317.752 355.207 318.352 355.831 319.324L354.715 320.284C354.175 319.432 353.479 319.036 352.579 319.036C351.655 319.036 351.007 319.504 351.007 320.212C351.007 320.5 351.115 320.728 351.319 320.884C351.535 321.04 352.039 321.22 352.843 321.4C353.503 321.556 353.971 321.676 354.223 321.772C354.487 321.856 354.715 321.964 354.907 322.072C355.579 322.468 355.903 323.068 355.903 323.896C355.903 324.7 355.591 325.36 354.967 325.876C354.355 326.38 353.575 326.632 352.639 326.632ZM362.127 325.156H364.419V326.5H358.299V325.156H360.591V319.228H358.299V317.884H364.419V319.228H362.127V325.156ZM373.222 326.5H371.974V325.612C371.65 326.248 370.966 326.632 370.102 326.632C369.166 326.632 368.398 326.224 367.798 325.396C367.198 324.568 366.898 323.512 366.898 322.228C366.898 320.932 367.21 319.864 367.846 319.024C368.482 318.172 369.286 317.752 370.258 317.752C371.746 317.752 372.754 318.628 373.15 320.224L371.758 320.716C371.566 319.696 371.038 319.108 370.27 319.108C369.73 319.108 369.286 319.396 368.938 319.972C368.59 320.536 368.422 321.28 368.422 322.204C368.422 323.128 368.59 323.872 368.914 324.436C369.25 324.988 369.694 325.264 370.246 325.264C371.158 325.264 371.782 324.436 371.818 323.2H370.102V321.856H373.222V326.5ZM380.309 317.884H381.749V326.5H380.297L377.429 320.416V326.5H375.989V317.884H377.525L380.309 323.68V317.884ZM384.217 326.5L386.701 317.884H388.537L391.045 326.5H389.497L388.945 324.532H386.269L385.717 326.5H384.217ZM388.573 323.188L387.601 319.72L386.641 323.188H388.573ZM399.68 317.884V319.228H397.148V326.5H395.612V319.228H393.08V317.884H399.68ZM405.135 326.632C403.215 326.632 402.183 325.432 402.183 323.212V317.884H403.719V323.14C403.719 324.568 404.163 325.228 405.135 325.228C406.107 325.228 406.551 324.568 406.551 323.14V317.884H408.087V323.212C408.087 325.432 407.055 326.632 405.135 326.632ZM413.639 323.164H412.547V326.5H411.011V317.884H413.975C415.955 317.884 417.095 318.844 417.095 320.524C417.095 321.784 416.435 322.672 415.235 323.008L417.491 326.5H415.739L413.639 323.164ZM412.547 319.204V321.844H413.891C414.983 321.844 415.583 321.376 415.583 320.524C415.583 319.66 414.995 319.204 413.891 319.204H412.547ZM419.766 326.5V317.884H425.718V319.228H421.278V321.388H425.034V322.732H421.278V325.156H425.718V326.5H419.766ZM431.437 326.632C430.681 326.632 429.961 326.464 429.301 326.14C428.641 325.816 428.137 325.384 427.813 324.844L429.001 323.848C429.613 324.796 430.513 325.336 431.485 325.336C432.505 325.336 433.189 324.832 433.189 324.052C433.189 323.584 432.961 323.296 432.349 323.092C432.193 323.032 431.737 322.912 431.005 322.732C429.985 322.48 429.541 322.3 429.169 322.06C428.593 321.664 428.317 321.124 428.317 320.368C428.317 319.6 428.605 318.976 429.193 318.484C429.781 317.992 430.525 317.752 431.425 317.752C432.805 317.752 434.005 318.352 434.629 319.324L433.513 320.284C432.973 319.432 432.277 319.036 431.377 319.036C430.453 319.036 429.805 319.504 429.805 320.212C429.805 320.5 429.913 320.728 430.117 320.884C430.333 321.04 430.837 321.22 431.641 321.4C432.301 321.556 432.769 321.676 433.021 321.772C433.285 321.856 433.513 321.964 433.705 322.072C434.377 322.468 434.701 323.068 434.701 323.896C434.701 324.7 434.389 325.36 433.765 325.876C433.153 326.38 432.373 326.632 431.437 326.632Z" fill="black"/>
<path d="M398 45V42C398 40.4087 397.368 38.8826 396.243 37.7574C395.117 36.6321 393.591 36 392 36H383C381.409 36 379.883 36.6321 378.757 37.7574C377.632 38.8826 377 40.4087 377 42V45" stroke="#3313F7" stroke-width="2.5" stroke-linecap="round" stroke-linejoin="round"/>
<path d="M387.5 30C390.814 30 393.5 27.3137 393.5 24C393.5 20.6863 390.814 18 387.5 18C384.186 18 381.5 20.6863 381.5 24C381.5 27.3137 384.186 30 387.5 30Z" stroke="#3313F7" stroke-width="2.5" stroke-linecap="round" stroke-linejoin="round"/>
<path d="M407 45.0001V42.0001C406.999 40.6707 406.557 39.3792 405.742 38.3285C404.928 37.2779 403.787 36.5274 402.5 36.1951" stroke="#3313F7" stroke-width="2.5" stroke-linecap="round" stroke-linejoin="round"/>
<path d="M398 18.1951C399.291 18.5255 400.435 19.2761 401.251 20.3285C402.068 21.3809 402.512 22.6753 402.512 24.0076C402.512 25.3398 402.068 26.6342 401.251 27.6866C400.435 28.739 399.291 29.4896 398 29.8201" stroke="#3313F7" stroke-width="2.5" stroke-linecap="round" stroke-linejoin="round"/>
<path d="M350.746 60.884V62.228H348.214V69.5H346.678V62.228H344.146V60.884H350.746ZM353.321 69.5V60.884H359.273V62.228H354.833V64.388H358.589V65.732H354.833V68.156H359.273V69.5H353.321ZM361.548 69.5L364.032 60.884H365.868L368.376 69.5H366.828L366.276 67.532H363.6L363.048 69.5H361.548ZM365.904 66.188L364.932 62.72L363.972 66.188H365.904ZM375.404 63.032L374.168 69.5H373.256L372.02 63.032V69.5H370.712V60.884H372.752L373.724 66.26L374.708 60.884H376.712V69.5H375.404V63.032ZM381.459 70.676H379.995L383.475 60.644H384.939L381.459 70.676ZM391.258 69.632C390.502 69.632 389.782 69.464 389.122 69.14C388.462 68.816 387.958 68.384 387.634 67.844L388.822 66.848C389.434 67.796 390.334 68.336 391.306 68.336C392.326 68.336 393.01 67.832 393.01 67.052C393.01 66.584 392.782 66.296 392.17 66.092C392.014 66.032 391.558 65.912 390.826 65.732C389.806 65.48 389.362 65.3 388.99 65.06C388.414 64.664 388.138 64.124 388.138 63.368C388.138 62.6 388.426 61.976 389.014 61.484C389.602 60.992 390.346 60.752 391.246 60.752C392.626 60.752 393.826 61.352 394.45 62.324L393.334 63.284C392.794 62.432 392.098 62.036 391.198 62.036C390.274 62.036 389.626 62.504 389.626 63.212C389.626 63.5 389.734 63.728 389.938 63.884C390.154 64.04 390.658 64.22 391.462 64.4C392.122 64.556 392.59 64.676 392.842 64.772C393.106 64.856 393.334 64.964 393.526 65.072C394.198 65.468 394.522 66.068 394.522 66.896C394.522 67.7 394.21 68.36 393.586 68.876C392.974 69.38 392.194 69.632 391.258 69.632ZM403.194 65.192C403.194 66.524 402.894 67.592 402.306 68.408C401.718 69.224 400.95 69.632 399.978 69.632C399.006 69.632 398.226 69.224 397.638 68.408C397.05 67.592 396.762 66.524 396.762 65.192C396.762 63.86 397.05 62.792 397.638 61.976C398.226 61.16 399.006 60.752 399.978 60.752C400.95 60.752 401.718 61.16 402.306 61.976C402.894 62.792 403.194 63.86 403.194 65.192ZM401.706 65.192C401.706 63.26 401.07 62.108 399.978 62.108C398.886 62.108 398.25 63.26 398.25 65.192C398.25 67.124 398.886 68.276 399.978 68.276C401.07 68.276 401.706 67.124 401.706 65.192ZM409.021 60.752C410.545 60.752 411.685 61.664 412.153 63.236L410.725 63.728C410.485 62.708 409.861 62.108 409.009 62.108C408.421 62.108 407.929 62.396 407.557 62.972C407.185 63.536 406.993 64.28 406.993 65.192C406.993 66.104 407.185 66.848 407.557 67.424C407.929 67.988 408.421 68.276 409.009 68.276C409.861 68.276 410.485 67.676 410.725 66.656L412.153 67.148C411.685 68.72 410.545 69.632 409.021 69.632C408.001 69.632 407.161 69.224 406.501 68.396C405.841 67.568 405.517 66.5 405.517 65.192C405.517 63.884 405.841 62.828 406.501 62C407.161 61.172 408.001 60.752 409.021 60.752ZM418.256 68.156H420.548V69.5H414.428V68.156H416.72V62.228H414.428V60.884H420.548V62.228H418.256V68.156ZM422.836 69.5L425.32 60.884H427.156L429.664 69.5H428.116L427.564 67.532H424.888L424.336 69.5H422.836ZM427.192 66.188L426.22 62.72L425.26 66.188H427.192ZM438.047 69.5H432.455V60.884H433.991V68.156H438.047V69.5ZM360.231 82.912V86.5H358.719V77.884H364.467V79.228H360.231V81.568H363.783V82.912H360.231ZM367.234 86.5V77.884H373.186V79.228H368.746V81.388H372.502V82.732H368.746V85.156H373.186V86.5H367.234ZM375.461 86.5L377.945 77.884H379.781L382.289 86.5H380.741L380.189 84.532H377.513L376.961 86.5H375.461ZM379.817 83.188L378.845 79.72L377.885 83.188H379.817ZM390.925 77.884V79.228H388.393V86.5H386.857V79.228H384.325V77.884H390.925ZM396.38 86.632C394.46 86.632 393.428 85.432 393.428 83.212V77.884H394.964V83.14C394.964 84.568 395.408 85.228 396.38 85.228C397.352 85.228 397.796 84.568 397.796 83.14V77.884H399.332V83.212C399.332 85.432 398.3 86.632 396.38 86.632ZM404.883 83.164H403.791V86.5H402.255V77.884H405.219C407.199 77.884 408.339 78.844 408.339 80.524C408.339 81.784 407.679 82.672 406.479 83.008L408.735 86.5H406.983L404.883 83.164ZM403.791 79.204V81.844H405.135C406.227 81.844 406.827 81.376 406.827 80.524C406.827 79.66 406.239 79.204 405.135 79.204H403.791ZM411.011 86.5V77.884H416.963V79.228H412.523V81.388H416.279V82.732H412.523V85.156H416.963V86.5H411.011ZM422.682 86.632C421.926 86.632 421.206 86.464 420.546 86.14C419.886 85.816 419.382 85.384 419.058 84.844L420.246 83.848C420.858 84.796 421.758 85.336 422.73 85.336C423.75 85.336 424.434 84.832 424.434 84.052C424.434 83.584 424.206 83.296 423.594 83.092C423.438 83.032 422.982 82.912 422.25 82.732C421.23 82.48 420.786 82.3 420.414 82.06C419.838 81.664 419.562 81.124 419.562 80.368C419.562 79.6 419.85 78.976 420.438 78.484C421.026 77.992 421.77 77.752 422.67 77.752C424.05 77.752 425.25 78.352 425.874 79.324L424.758 80.284C424.218 79.432 423.522 79.036 422.622 79.036C421.698 79.036 421.05 79.504 421.05 80.212C421.05 80.5 421.158 80.728 421.362 80.884C421.578 81.04 422.082 81.22 422.886 81.4C423.546 81.556 424.014 81.676 424.266 81.772C424.53 81.856 424.758 81.964 424.95 82.072C425.622 82.468 425.946 83.068 425.946 83.896C425.946 84.7 425.634 85.36 425.01 85.876C424.398 86.38 423.618 86.632 422.682 86.632Z" fill="black"/>
<path d="M392 153V165" stroke="#3313F7" stroke-width="2.5" stroke-linecap="round" stroke-linejoin="round"/>
<path d="M380 155.848C378.886 154.71 378.045 153.332 377.542 151.821C377.038 150.309 376.886 148.703 377.095 147.123C377.305 145.544 377.871 144.033 378.751 142.705C379.631 141.377 380.801 140.266 382.174 139.457C383.547 138.648 385.086 138.163 386.674 138.037C388.262 137.911 389.858 138.148 391.341 138.73C392.824 139.312 394.155 140.225 395.234 141.397C396.312 142.57 397.109 143.973 397.565 145.5H400.25C401.698 145.5 403.108 145.965 404.272 146.828C405.435 147.691 406.29 148.905 406.71 150.291C407.131 151.677 407.094 153.161 406.606 154.524C406.118 155.888 405.204 157.058 404 157.863" stroke="#3313F7" stroke-width="2.5" stroke-linecap="round" stroke-linejoin="round"/>
<path d="M386 159L392 153L398 159" stroke="#3313F7" stroke-width="2.5" stroke-linecap="round" stroke-linejoin="round"/>
<path d="M352.891 180.752C354.415 180.752 355.555 181.664 356.023 183.236L354.595 183.728C354.355 182.708 353.731 182.108 352.879 182.108C352.291 182.108 351.799 182.396 351.427 182.972C351.055 183.536 350.863 184.28 350.863 185.192C350.863 186.104 351.055 186.848 351.427 187.424C351.799 187.988 352.291 188.276 352.879 188.276C353.731 188.276 354.355 187.676 354.595 186.656L356.023 187.148C355.555 188.72 354.415 189.632 352.891 189.632C351.871 189.632 351.031 189.224 350.371 188.396C349.711 187.568 349.387 186.5 349.387 185.192C349.387 183.884 349.711 182.828 350.371 182C351.031 181.172 351.871 180.752 352.891 180.752ZM364.407 189.5H358.815V180.884H360.351V188.156H364.407V189.5ZM373.33 185.192C373.33 186.524 373.03 187.592 372.442 188.408C371.854 189.224 371.086 189.632 370.114 189.632C369.142 189.632 368.362 189.224 367.774 188.408C367.186 187.592 366.898 186.524 366.898 185.192C366.898 183.86 367.186 182.792 367.774 181.976C368.362 181.16 369.142 180.752 370.114 180.752C371.086 180.752 371.854 181.16 372.442 181.976C373.03 182.792 373.33 183.86 373.33 185.192ZM371.842 185.192C371.842 183.26 371.206 182.108 370.114 182.108C369.022 182.108 368.386 183.26 368.386 185.192C368.386 187.124 369.022 188.276 370.114 188.276C371.206 188.276 371.842 187.124 371.842 185.192ZM378.869 189.632C376.949 189.632 375.917 188.432 375.917 186.212V180.884H377.453V186.14C377.453 187.568 377.897 188.228 378.869 188.228C379.841 188.228 380.285 187.568 380.285 186.14V180.884H381.821V186.212C381.821 188.432 380.789 189.632 378.869 189.632ZM386.773 189.5H384.745V180.884H386.773C388.057 180.884 389.053 181.268 389.761 182.036C390.481 182.792 390.841 183.848 390.841 185.192C390.841 186.536 390.481 187.592 389.761 188.36C389.053 189.116 388.057 189.5 386.773 189.5ZM386.245 182.204V188.18H386.773C388.441 188.18 389.329 187.124 389.329 185.192C389.329 183.236 388.441 182.204 386.761 182.204H386.245ZM405.171 189.632C404.415 189.632 403.695 189.464 403.035 189.14C402.375 188.816 401.871 188.384 401.547 187.844L402.735 186.848C403.347 187.796 404.247 188.336 405.219 188.336C406.239 188.336 406.923 187.832 406.923 187.052C406.923 186.584 406.695 186.296 406.083 186.092C405.927 186.032 405.471 185.912 404.739 185.732C403.719 185.48 403.275 185.3 402.903 185.06C402.327 184.664 402.051 184.124 402.051 183.368C402.051 182.6 402.339 181.976 402.927 181.484C403.515 180.992 404.259 180.752 405.159 180.752C406.539 180.752 407.739 181.352 408.363 182.324L407.247 183.284C406.707 182.432 406.011 182.036 405.111 182.036C404.187 182.036 403.539 182.504 403.539 183.212C403.539 183.5 403.647 183.728 403.851 183.884C404.067 184.04 404.571 184.22 405.375 184.4C406.035 184.556 406.503 184.676 406.755 184.772C407.019 184.856 407.247 184.964 407.439 185.072C408.111 185.468 408.435 186.068 408.435 186.896C408.435 187.7 408.123 188.36 407.499 188.876C406.887 189.38 406.107 189.632 405.171 189.632ZM411.959 180.884L413.915 184.568L415.871 180.884H417.479L414.659 185.948V189.5H413.123V185.948L410.291 180.884H411.959ZM424.086 180.884H425.526V189.5H424.074L421.206 183.416V189.5H419.766V180.884H421.302L424.086 186.68V180.884ZM431.689 180.752C433.213 180.752 434.353 181.664 434.821 183.236L433.393 183.728C433.153 182.708 432.529 182.108 431.677 182.108C431.089 182.108 430.597 182.396 430.225 182.972C429.853 183.536 429.661 184.28 429.661 185.192C429.661 186.104 429.853 186.848 430.225 187.424C430.597 187.988 431.089 188.276 431.677 188.276C432.529 188.276 433.153 187.676 433.393 186.656L434.821 187.148C434.353 188.72 433.213 189.632 431.689 189.632C430.669 189.632 429.829 189.224 429.169 188.396C428.509 187.568 428.185 186.5 428.185 185.192C428.185 183.884 428.509 182.828 429.169 182C429.829 181.172 430.669 180.752 431.689 180.752ZM358.961 201.892L360.197 202.132C360.101 203.14 359.753 204.1 359.225 204.868L360.593 206.5H358.973L358.385 205.804C357.713 206.344 356.945 206.632 356.129 206.632C355.397 206.632 354.785 206.404 354.293 205.96C353.813 205.516 353.573 204.928 353.573 204.22C353.573 203.224 354.017 202.48 355.025 201.808C354.497 201.124 354.269 200.524 354.269 199.936C354.269 199.312 354.473 198.796 354.893 198.376C355.313 197.956 355.853 197.752 356.489 197.752C357.101 197.752 357.605 197.932 357.989 198.304C358.373 198.676 358.565 199.144 358.565 199.72C358.565 200.188 358.433 200.584 358.169 200.932C357.917 201.28 357.461 201.64 356.813 202.012L358.397 203.884C358.697 203.308 358.877 202.624 358.961 201.892ZM356.453 198.904C355.961 198.904 355.577 199.324 355.577 199.9C355.577 200.284 355.721 200.644 356.141 201.184C357.041 200.716 357.293 200.404 357.293 199.792C357.293 199.3 356.933 198.904 356.453 198.904ZM354.965 204.076C354.965 204.832 355.529 205.408 356.261 205.408C356.741 205.408 357.209 205.228 357.605 204.892L355.721 202.66C355.205 203.056 354.965 203.5 354.965 204.076ZM374.528 206.632C373.772 206.632 373.052 206.464 372.392 206.14C371.732 205.816 371.228 205.384 370.904 204.844L372.092 203.848C372.704 204.796 373.604 205.336 374.576 205.336C375.596 205.336 376.28 204.832 376.28 204.052C376.28 203.584 376.052 203.296 375.44 203.092C375.284 203.032 374.828 202.912 374.096 202.732C373.076 202.48 372.632 202.3 372.26 202.06C371.684 201.664 371.408 201.124 371.408 200.368C371.408 199.6 371.696 198.976 372.284 198.484C372.872 197.992 373.616 197.752 374.516 197.752C375.896 197.752 377.096 198.352 377.72 199.324L376.604 200.284C376.064 199.432 375.368 199.036 374.468 199.036C373.544 199.036 372.896 199.504 372.896 200.212C372.896 200.5 373.004 200.728 373.208 200.884C373.424 201.04 373.928 201.22 374.732 201.4C375.392 201.556 375.86 201.676 376.112 201.772C376.376 201.856 376.604 201.964 376.796 202.072C377.468 202.468 377.792 203.068 377.792 203.896C377.792 204.7 377.48 205.36 376.856 205.876C376.244 206.38 375.464 206.632 374.528 206.632ZM386.547 197.884V199.228H384.015V206.5H382.479V199.228H379.947V197.884H386.547ZM395.218 202.192C395.218 203.524 394.918 204.592 394.33 205.408C393.742 206.224 392.974 206.632 392.002 206.632C391.03 206.632 390.25 206.224 389.662 205.408C389.074 204.592 388.786 203.524 388.786 202.192C388.786 200.86 389.074 199.792 389.662 198.976C390.25 198.16 391.03 197.752 392.002 197.752C392.974 197.752 393.742 198.16 394.33 198.976C394.918 199.792 395.218 200.86 395.218 202.192ZM393.73 202.192C393.73 200.26 393.094 199.108 392.002 199.108C390.91 199.108 390.274 200.26 390.274 202.192C390.274 204.124 390.91 205.276 392.002 205.276C393.094 205.276 393.73 204.124 393.73 202.192ZM400.506 203.164H399.414V206.5H397.878V197.884H400.842C402.822 197.884 403.962 198.844 403.962 200.524C403.962 201.784 403.302 202.672 402.102 203.008L404.358 206.5H402.606L400.506 203.164ZM399.414 199.204V201.844H400.758C401.85 201.844 402.45 201.376 402.45 200.524C402.45 199.66 401.862 199.204 400.758 199.204H399.414ZM406.105 206.5L408.589 197.884H410.425L412.933 206.5H411.385L410.833 204.532H408.157L407.605 206.5H406.105ZM410.461 203.188L409.489 199.72L408.529 203.188H410.461ZM421.376 206.5H420.128V205.612C419.804 206.248 419.12 206.632 418.256 206.632C417.32 206.632 416.552 206.224 415.952 205.396C415.352 204.568 415.052 203.512 415.052 202.228C415.052 200.932 415.364 199.864 416 199.024C416.636 198.172 417.44 197.752 418.412 197.752C419.9 197.752 420.908 198.628 421.304 200.224L419.912 200.716C419.72 199.696 419.192 199.108 418.424 199.108C417.884 199.108 417.44 199.396 417.092 199.972C416.744 200.536 416.576 201.28 416.576 202.204C416.576 203.128 416.744 203.872 417.068 204.436C417.404 204.988 417.848 205.264 418.4 205.264C419.312 205.264 419.936 204.436 419.972 203.2H418.256V201.856H421.376V206.5ZM424.144 206.5V197.884H430.096V199.228H425.656V201.388H429.412V202.732H425.656V205.156H430.096V206.5H424.144Z" fill="black"/>
<path d="M72 256.5V268.5" stroke="#3313F7" stroke-width="2.5" stroke-linecap="round" stroke-linejoin="round"/>
<path d="M78 262.5L72 268.5L66 262.5" stroke="#3313F7" stroke-width="2.5" stroke-linecap="round" stroke-linejoin="round"/>
<path d="M84 274.5H60C58.3431 274.5 57 275.843 57 277.5V283.5C57 285.157 58.3431 286.5 60 286.5H84C85.6569 286.5 87 285.157 87 283.5V277.5C87 275.843 85.6569 274.5 84 274.5Z" stroke="#3313F7" stroke-width="2.5" stroke-linecap="round" stroke-linejoin="round"/>
<path d="M63 280.5H63.015" stroke="black" stroke-width="1.5" stroke-linejoin="round"/>
<path d="M69 280.5H69.015" stroke="black" stroke-width="1.5" stroke-linejoin="round"/>
<path d="M39.4171 305.192C39.4171 306.524 39.1171 307.592 38.5291 308.408C37.9411 309.224 37.1731 309.632 36.2011 309.632C35.2291 309.632 34.4491 309.224 33.8611 308.408C33.2731 307.592 32.9851 306.524 32.9851 305.192C32.9851 303.86 33.2731 302.792 33.8611 301.976C34.4491 301.16 35.2291 300.752 36.2011 300.752C37.1731 300.752 37.9411 301.16 38.5291 301.976C39.1171 302.792 39.4171 303.86 39.4171 305.192ZM37.9291 305.192C37.9291 303.26 37.2931 302.108 36.2011 302.108C35.1091 302.108 34.4731 303.26 34.4731 305.192C34.4731 307.124 35.1091 308.276 36.2011 308.276C37.2931 308.276 37.9291 307.124 37.9291 305.192ZM46.3964 300.884H47.8364V309.5H46.3844L43.5164 303.416V309.5H42.0764V300.884H43.6124L46.3964 306.68V300.884ZM55.3917 306.644H52.0317V305.36H55.3917V306.644ZM61.615 309.5H59.587V300.884H61.615C62.899 300.884 63.895 301.268 64.603 302.036C65.323 302.792 65.683 303.848 65.683 305.192C65.683 306.536 65.323 307.592 64.603 308.36C63.895 309.116 62.899 309.5 61.615 309.5ZM61.087 302.204V308.18H61.615C63.283 308.18 64.171 307.124 64.171 305.192C64.171 303.236 63.283 302.204 61.603 302.204H61.087ZM68.3423 309.5V300.884H74.2943V302.228H69.8543V304.388H73.6103V305.732H69.8543V308.156H74.2943V309.5H68.3423ZM83.3857 300.884L80.8417 309.5H79.1257L76.5697 300.884H78.1897L80.0017 307.496L81.8377 300.884H83.3857ZM89.501 308.156H91.793V309.5H85.673V308.156H87.965V302.228H85.673V300.884H91.793V302.228H89.501V308.156ZM97.7763 300.752C99.3003 300.752 100.44 301.664 100.908 303.236L99.4803 303.728C99.2403 302.708 98.6163 302.108 97.7643 302.108C97.1763 302.108 96.6843 302.396 96.3123 302.972C95.9403 303.536 95.7483 304.28 95.7483 305.192C95.7483 306.104 95.9403 306.848 96.3123 307.424C96.6843 307.988 97.1763 308.276 97.7643 308.276C98.6163 308.276 99.2403 307.676 99.4803 306.656L100.908 307.148C100.44 308.72 99.3003 309.632 97.7763 309.632C96.7563 309.632 95.9163 309.224 95.2563 308.396C94.5963 307.568 94.2723 306.5 94.2723 305.192C94.2723 303.884 94.5963 302.828 95.2563 302C95.9163 301.172 96.7563 300.752 97.7763 300.752ZM103.364 309.5V300.884H109.316V302.228H104.876V304.388H108.632V305.732H104.876V308.156H109.316V309.5H103.364ZM45.7724 326.632C45.0164 326.632 44.2964 326.464 43.6364 326.14C42.9764 325.816 42.4724 325.384 42.1484 324.844L43.3364 323.848C43.9484 324.796 44.8484 325.336 45.8204 325.336C46.8404 325.336 47.5244 324.832 47.5244 324.052C47.5244 323.584 47.2964 323.296 46.6844 323.092C46.5284 323.032 46.0724 322.912 45.3404 322.732C44.3204 322.48 43.8764 322.3 43.5044 322.06C42.9284 321.664 42.6524 321.124 42.6524 320.368C42.6524 319.6 42.9404 318.976 43.5284 318.484C44.1164 317.992 44.8604 317.752 45.7604 317.752C47.1404 317.752 48.3404 318.352 48.9644 319.324L47.8484 320.284C47.3084 319.432 46.6124 319.036 45.7124 319.036C44.7884 319.036 44.1404 319.504 44.1404 320.212C44.1404 320.5 44.2484 320.728 44.4524 320.884C44.6684 321.04 45.1724 321.22 45.9764 321.4C46.6364 321.556 47.1044 321.676 47.3564 321.772C47.6204 321.856 47.8484 321.964 48.0404 322.072C48.7124 322.468 49.0364 323.068 49.0364 323.896C49.0364 324.7 48.7244 325.36 48.1004 325.876C47.4884 326.38 46.7084 326.632 45.7724 326.632ZM57.7917 317.884V319.228H55.2597V326.5H53.7237V319.228H51.1917V317.884H57.7917ZM66.463 322.192C66.463 323.524 66.163 324.592 65.575 325.408C64.987 326.224 64.219 326.632 63.247 326.632C62.275 326.632 61.495 326.224 60.907 325.408C60.319 324.592 60.031 323.524 60.031 322.192C60.031 320.86 60.319 319.792 60.907 318.976C61.495 318.16 62.275 317.752 63.247 317.752C64.219 317.752 64.987 318.16 65.575 318.976C66.163 319.792 66.463 320.86 66.463 322.192ZM64.975 322.192C64.975 320.26 64.339 319.108 63.247 319.108C62.155 319.108 61.519 320.26 61.519 322.192C61.519 324.124 62.155 325.276 63.247 325.276C64.339 325.276 64.975 324.124 64.975 322.192ZM71.7503 323.164H70.6583V326.5H69.1223V317.884H72.0863C74.0663 317.884 75.2063 318.844 75.2063 320.524C75.2063 321.784 74.5463 322.672 73.3463 323.008L75.6023 326.5H73.8503L71.7503 323.164ZM70.6583 319.204V321.844H72.0023C73.0943 321.844 73.6943 321.376 73.6943 320.524C73.6943 319.66 73.1063 319.204 72.0023 319.204H70.6583ZM77.3497 326.5L79.8337 317.884H81.6697L84.1777 326.5H82.6297L82.0777 324.532H79.4017L78.8497 326.5H77.3497ZM81.7057 323.188L80.7337 319.72L79.7737 323.188H81.7057ZM92.621 326.5H91.373V325.612C91.049 326.248 90.365 326.632 89.501 326.632C88.565 326.632 87.797 326.224 87.197 325.396C86.597 324.568 86.297 323.512 86.297 322.228C86.297 320.932 86.609 319.864 87.245 319.024C87.881 318.172 88.685 317.752 89.657 317.752C91.145 317.752 92.153 318.628 92.549 320.224L91.157 320.716C90.965 319.696 90.437 319.108 89.669 319.108C89.129 319.108 88.685 319.396 88.337 319.972C87.989 320.536 87.821 321.28 87.821 322.204C87.821 323.128 87.989 323.872 88.313 324.436C88.649 324.988 89.093 325.264 89.645 325.264C90.557 325.264 91.181 324.436 91.217 323.2H89.501V321.856H92.621V326.5ZM95.3883 326.5V317.884H101.34V319.228H96.9003V321.388H100.656V322.732H96.9003V325.156H101.34V326.5H95.3883Z" fill="black"/>
<rect x="160.5" y="119.5" width="145" height="105" fill="white"/>
<rect x="160.5" y="119.5" width="145" height="105" stroke="white" stroke-width="5"/>
</svg>
