<svg width="464" height="344" fill="none" xmlns="http://www.w3.org/2000/svg"><mask id="a" maskUnits="userSpaceOnUse" x="0" y="0" width="464" height="344" fill="#000"><path fill="#fff" d="M0 0h464v344H0z"/><path fill-rule="evenodd" clip-rule="evenodd" d="M2 8a6 6 0 0 1 6-6h128a6 6 0 0 1 6 6v33a6 6 0 0 0 6 6h8a6 6 0 0 0 6-6V8a6 6 0 0 1 6-6h128a6 6 0 0 1 6 6v33a6 6 0 0 0 6 6h8a6 6 0 0 0 6-6V8a6 6 0 0 1 6-6h128a6 6 0 0 1 6 6v88a6 6 0 0 1-6 6h-53a6 6 0 0 0-6 6v8a6 6 0 0 0 6 6h53a6 6 0 0 1 6 6v88a6 6 0 0 1-6 6h-53a6 6 0 0 0-6 6v8a6 6 0 0 0 6 6h53a6 6 0 0 1 6 6v88a6 6 0 0 1-6 6H328a6 6 0 0 1-6-6v-33a6 6 0 0 0-6-6h-8a6 6 0 0 0-6 6v33a6 6 0 0 1-6 6H168a6 6 0 0 1-6-6v-33a6 6 0 0 0-6-6h-8a6 6 0 0 0-6 6v33a6 6 0 0 1-6 6H8a6 6 0 0 1-6-6v-88a6 6 0 0 1 6-6h53a6 6 0 0 0 6-6v-8a6 6 0 0 0-6-6H8a6 6 0 0 1-6-6v-88a6 6 0 0 1 6-6h53a6 6 0 0 0 6-6v-8a6 6 0 0 0-6-6H8a6 6 0 0 1-6-6V8Zm140 273a6 6 0 0 0 6 6h8a6 6 0 0 0 6-6v-33a6 6 0 0 1 6-6h128a6 6 0 0 1 6 6v33a6 6 0 0 0 6 6h8a6 6 0 0 0 6-6v-33a6 6 0 0 1 6-6h53a6 6 0 0 0 6-6v-8a6 6 0 0 0-6-6h-53a6 6 0 0 1-6-6v-88a6 6 0 0 1 6-6h53a6 6 0 0 0 6-6v-8a6 6 0 0 0-6-6h-53a6 6 0 0 1-6-6V63a6 6 0 0 0-6-6h-8a6 6 0 0 0-6 6v33a6 6 0 0 1-6 6H168a6 6 0 0 1-6-6V63a6 6 0 0 0-6-6h-8a6 6 0 0 0-6 6v33a6 6 0 0 1-6 6H83a6 6 0 0 0-6 6v8a6 6 0 0 0 6 6h53a6 6 0 0 1 6 6v88a6 6 0 0 1-6 6H83a6 6 0 0 0-6 6v8a6 6 0 0 0 6 6h53a6 6 0 0 1 6 6v33Zm160-153a6 6 0 0 0-6-6H168a6 6 0 0 0-6 6v88a6 6 0 0 0 6 6h128a6 6 0 0 0 6-6v-88Z"/></mask><path fill-rule="evenodd" clip-rule="evenodd" d="M2 8a6 6 0 0 1 6-6h128a6 6 0 0 1 6 6v33a6 6 0 0 0 6 6h8a6 6 0 0 0 6-6V8a6 6 0 0 1 6-6h128a6 6 0 0 1 6 6v33a6 6 0 0 0 6 6h8a6 6 0 0 0 6-6V8a6 6 0 0 1 6-6h128a6 6 0 0 1 6 6v88a6 6 0 0 1-6 6h-53a6 6 0 0 0-6 6v8a6 6 0 0 0 6 6h53a6 6 0 0 1 6 6v88a6 6 0 0 1-6 6h-53a6 6 0 0 0-6 6v8a6 6 0 0 0 6 6h53a6 6 0 0 1 6 6v88a6 6 0 0 1-6 6H328a6 6 0 0 1-6-6v-33a6 6 0 0 0-6-6h-8a6 6 0 0 0-6 6v33a6 6 0 0 1-6 6H168a6 6 0 0 1-6-6v-33a6 6 0 0 0-6-6h-8a6 6 0 0 0-6 6v33a6 6 0 0 1-6 6H8a6 6 0 0 1-6-6v-88a6 6 0 0 1 6-6h53a6 6 0 0 0 6-6v-8a6 6 0 0 0-6-6H8a6 6 0 0 1-6-6v-88a6 6 0 0 1 6-6h53a6 6 0 0 0 6-6v-8a6 6 0 0 0-6-6H8a6 6 0 0 1-6-6V8Zm140 273a6 6 0 0 0 6 6h8a6 6 0 0 0 6-6v-33a6 6 0 0 1 6-6h128a6 6 0 0 1 6 6v33a6 6 0 0 0 6 6h8a6 6 0 0 0 6-6v-33a6 6 0 0 1 6-6h53a6 6 0 0 0 6-6v-8a6 6 0 0 0-6-6h-53a6 6 0 0 1-6-6v-88a6 6 0 0 1 6-6h53a6 6 0 0 0 6-6v-8a6 6 0 0 0-6-6h-53a6 6 0 0 1-6-6V63a6 6 0 0 0-6-6h-8a6 6 0 0 0-6 6v33a6 6 0 0 1-6 6H168a6 6 0 0 1-6-6V63a6 6 0 0 0-6-6h-8a6 6 0 0 0-6 6v33a6 6 0 0 1-6 6H83a6 6 0 0 0-6 6v8a6 6 0 0 0 6 6h53a6 6 0 0 1 6 6v88a6 6 0 0 1-6 6H83a6 6 0 0 0-6 6v8a6 6 0 0 0 6 6h53a6 6 0 0 1 6 6v33Zm160-153a6 6 0 0 0-6-6H168a6 6 0 0 0-6 6v88a6 6 0 0 0 6 6h128a6 6 0 0 0 6-6v-88Z" fill="#fff"/><path fill-rule="evenodd" clip-rule="evenodd" d="M2 8a6 6 0 0 1 6-6h128a6 6 0 0 1 6 6v33a6 6 0 0 0 6 6h8a6 6 0 0 0 6-6V8a6 6 0 0 1 6-6h128a6 6 0 0 1 6 6v33a6 6 0 0 0 6 6h8a6 6 0 0 0 6-6V8a6 6 0 0 1 6-6h128a6 6 0 0 1 6 6v88a6 6 0 0 1-6 6h-53a6 6 0 0 0-6 6v8a6 6 0 0 0 6 6h53a6 6 0 0 1 6 6v88a6 6 0 0 1-6 6h-53a6 6 0 0 0-6 6v8a6 6 0 0 0 6 6h53a6 6 0 0 1 6 6v88a6 6 0 0 1-6 6H328a6 6 0 0 1-6-6v-33a6 6 0 0 0-6-6h-8a6 6 0 0 0-6 6v33a6 6 0 0 1-6 6H168a6 6 0 0 1-6-6v-33a6 6 0 0 0-6-6h-8a6 6 0 0 0-6 6v33a6 6 0 0 1-6 6H8a6 6 0 0 1-6-6v-88a6 6 0 0 1 6-6h53a6 6 0 0 0 6-6v-8a6 6 0 0 0-6-6H8a6 6 0 0 1-6-6v-88a6 6 0 0 1 6-6h53a6 6 0 0 0 6-6v-8a6 6 0 0 0-6-6H8a6 6 0 0 1-6-6V8Zm140 273a6 6 0 0 0 6 6h8a6 6 0 0 0 6-6v-33a6 6 0 0 1 6-6h128a6 6 0 0 1 6 6v33a6 6 0 0 0 6 6h8a6 6 0 0 0 6-6v-33a6 6 0 0 1 6-6h53a6 6 0 0 0 6-6v-8a6 6 0 0 0-6-6h-53a6 6 0 0 1-6-6v-88a6 6 0 0 1 6-6h53a6 6 0 0 0 6-6v-8a6 6 0 0 0-6-6h-53a6 6 0 0 1-6-6V63a6 6 0 0 0-6-6h-8a6 6 0 0 0-6 6v33a6 6 0 0 1-6 6H168a6 6 0 0 1-6-6V63a6 6 0 0 0-6-6h-8a6 6 0 0 0-6 6v33a6 6 0 0 1-6 6H83a6 6 0 0 0-6 6v8a6 6 0 0 0 6 6h53a6 6 0 0 1 6 6v88a6 6 0 0 1-6 6H83a6 6 0 0 0-6 6v8a6 6 0 0 0 6 6h53a6 6 0 0 1 6 6v33Zm160-153a6 6 0 0 0-6-6H168a6 6 0 0 0-6 6v88a6 6 0 0 0 6 6h128a6 6 0 0 0 6-6v-88Z" fill="#A3A8BC" fill-opacity=".2"/><path d="M136 0H8v4h128V0Zm8 41V8h-4v33h4Zm12 4h-8v4h8v-4Zm4-37v33h4V8h-4Zm136-8H168v4h128V0Zm8 41V8h-4v33h4Zm12 4h-8v4h8v-4Zm4-37v33h4V8h-4Zm136-8H328v4h128V0Zm8 96V8h-4v88h4Zm-61 8h53v-4h-53v4Zm-4 12v-8h-4v8h4Zm57 4h-53v4h53v-4Zm8 96v-88h-4v88h4Zm-61 8h53v-4h-53v4Zm-4 12v-8h-4v8h4Zm57 4h-53v4h53v-4Zm8 96v-88h-4v88h4Zm-136 8h128v-4H328v4Zm-8-41v33h4v-33h-4Zm-12-4h8v-4h-8v4Zm-4 37v-33h-4v33h4Zm-136 8h128v-4H168v4Zm-8-41v33h4v-33h-4Zm-4-8h-8v4h8v-4Zm-12 41v-33h-4v33h4ZM8 344h128v-4H8v4Zm-8-96v88h4v-88H0Zm61-8H8v4h53v-4Zm4-12v8h4v-8h-4Zm-57-4h53v-4H8v4Zm-8-96v88h4v-88H0Zm61-8H8v4h53v-4Zm4-12v8h4v-8h-4Zm-57-4h53v-4H8v4ZM0 8v88h4V8H0Zm148 281h8v-4h-8v4Zm12-41v33h4v-33h-4Zm136-8H168v4h128v-4Zm8 41v-33h-4v33h4Zm12 4h-8v4h8v-4Zm4-37v33h4v-33h-4Zm61-8h-53v4h53v-4Zm4-12v8h4v-8h-4Zm-57-4h53v-4h-53v4Zm-8-96v88h4v-88h-4Zm61-8h-53v4h53v-4Zm4-12v8h4v-8h-4Zm-57-4h53v-4h-53v4Zm-8-41v33h4V63h-4Zm-12-4h8v-4h-8v4Zm-4 37V63h-4v33h4Zm-136 8h128v-4H168v4Zm-8-41v33h4V63h-4Zm-12-4h8v-4h-8v4Zm-4 37V63h-4v33h4Zm-61 8h53v-4H83v4Zm-4 12v-8h-4v8h4Zm57 4H83v4h53v-4Zm8 96v-88h-4v88h4Zm-61 8h53v-4H83v4Zm-4 12v-8h-4v8h4Zm57 4H83v4h53v-4Zm8 41v-33h-4v33h4Zm24-157h128v-4H168v4Zm-4 92v-88h-4v88h4Zm132 4H168v4h128v-4Zm4-92v88h4v-88h-4Zm-4 96a8 8 0 0 0 8-8h-4a4 4 0 0 1-4 4v4Zm-136-8a8 8 0 0 0 8 8v-4a4 4 0 0 1-4-4h-4Zm136-92a4 4 0 0 1 4 4h4a8 8 0 0 0-8-8v4Zm-128-4a8 8 0 0 0-8 8h4a4 4 0 0 1 4-4v-4Zm-32 124a4 4 0 0 1 4 4h4a8 8 0 0 0-8-8v4Zm-61-8a8 8 0 0 0 8 8v-4a4 4 0 0 1-4-4h-4Zm8-16a8 8 0 0 0-8 8h4a4 4 0 0 1 4-4v-4Zm57-4a4 4 0 0 1-4 4v4a8 8 0 0 0 8-8h-4Zm-4-92a4 4 0 0 1 4 4h4a8 8 0 0 0-8-8v4Zm-61-8a8 8 0 0 0 8 8v-4a4 4 0 0 1-4-4h-4Zm8-16a8 8 0 0 0-8 8h4a4 4 0 0 1 4-4v-4Zm57-4a4 4 0 0 1-4 4v4a8 8 0 0 0 8-8h-4Zm8-41a8 8 0 0 0-8 8h4a4 4 0 0 1 4-4v-4Zm16 8a8 8 0 0 0-8-8v4a4 4 0 0 1 4 4h4Zm4 37a4 4 0 0 1-4-4h-4a8 8 0 0 0 8 8v-4Zm132-4a4 4 0 0 1-4 4v4a8 8 0 0 0 8-8h-4Zm8-41a8 8 0 0 0-8 8h4a4 4 0 0 1 4-4v-4Zm16 8a8 8 0 0 0-8-8v4a4 4 0 0 1 4 4h4Zm4 37a4 4 0 0 1-4-4h-4a8 8 0 0 0 8 8v-4Zm61 8a8 8 0 0 0-8-8v4a4 4 0 0 1 4 4h4Zm-8 16a8 8 0 0 0 8-8h-4a4 4 0 0 1-4 4v4Zm-57 4a4 4 0 0 1 4-4v-4a8 8 0 0 0-8 8h4Zm4 92a4 4 0 0 1-4-4h-4a8 8 0 0 0 8 8v-4Zm61 8a8 8 0 0 0-8-8v4a4 4 0 0 1 4 4h4Zm-8 16a8 8 0 0 0 8-8h-4a4 4 0 0 1-4 4v4Zm-57 4a4 4 0 0 1 4-4v-4a8 8 0 0 0-8 8h4Zm-8 41a8 8 0 0 0 8-8h-4a4 4 0 0 1-4 4v4Zm-16-8a8 8 0 0 0 8 8v-4a4 4 0 0 1-4-4h-4Zm-4-37a4 4 0 0 1 4 4h4a8 8 0 0 0-8-8v4Zm-132 4a4 4 0 0 1 4-4v-4a8 8 0 0 0-8 8h4Zm-8 41a8 8 0 0 0 8-8h-4a4 4 0 0 1-4 4v4Zm-8-4a4 4 0 0 1-4-4h-4a8 8 0 0 0 8 8v-4ZM8 100a4 4 0 0 1-4-4H0a8 8 0 0 0 8 8v-4Zm61 8a8 8 0 0 0-8-8v4a4 4 0 0 1 4 4h4Zm-8 16a8 8 0 0 0 8-8h-4a4 4 0 0 1-4 4v4Zm-57 4a4 4 0 0 1 4-4v-4a8 8 0 0 0-8 8h4Zm4 92a4 4 0 0 1-4-4H0a8 8 0 0 0 8 8v-4Zm61 8a8 8 0 0 0-8-8v4a4 4 0 0 1 4 4h4Zm-8 16a8 8 0 0 0 8-8h-4a4 4 0 0 1-4 4v4Zm-57 4a4 4 0 0 1 4-4v-4a8 8 0 0 0-8 8h4Zm4 92a4 4 0 0 1-4-4H0a8 8 0 0 0 8 8v-4Zm132-4a4 4 0 0 1-4 4v4a8 8 0 0 0 8-8h-4Zm8-41a8 8 0 0 0-8 8h4a4 4 0 0 1 4-4v-4Zm16 8a8 8 0 0 0-8-8v4a4 4 0 0 1 4 4h4Zm4 37a4 4 0 0 1-4-4h-4a8 8 0 0 0 8 8v-4Zm132-4a4 4 0 0 1-4 4v4a8 8 0 0 0 8-8h-4Zm8-41a8 8 0 0 0-8 8h4a4 4 0 0 1 4-4v-4Zm16 8a8 8 0 0 0-8-8v4a4 4 0 0 1 4 4h4Zm4 37a4 4 0 0 1-4-4h-4a8 8 0 0 0 8 8v-4Zm132-4a4 4 0 0 1-4 4v4a8 8 0 0 0 8-8h-4Zm-4-92a4 4 0 0 1 4 4h4a8 8 0 0 0-8-8v4Zm-61-8a8 8 0 0 0 8 8v-4a4 4 0 0 1-4-4h-4Zm8-16a8 8 0 0 0-8 8h4a4 4 0 0 1 4-4v-4Zm57-4a4 4 0 0 1-4 4v4a8 8 0 0 0 8-8h-4Zm-4-92a4 4 0 0 1 4 4h4a8 8 0 0 0-8-8v4Zm-61-8a8 8 0 0 0 8 8v-4a4 4 0 0 1-4-4h-4Zm8-16a8 8 0 0 0-8 8h4a4 4 0 0 1 4-4v-4Zm57-4a4 4 0 0 1-4 4v4a8 8 0 0 0 8-8h-4Zm-4-92a4 4 0 0 1 4 4h4a8 8 0 0 0-8-8v4ZM324 8a4 4 0 0 1 4-4V0a8 8 0 0 0-8 8h4Zm-8 41a8 8 0 0 0 8-8h-4a4 4 0 0 1-4 4v4Zm-16-8a8 8 0 0 0 8 8v-4a4 4 0 0 1-4-4h-4Zm-4-37a4 4 0 0 1 4 4h4a8 8 0 0 0-8-8v4ZM164 8a4 4 0 0 1 4-4V0a8 8 0 0 0-8 8h4Zm-8 41a8 8 0 0 0 8-8h-4a4 4 0 0 1-4 4v4Zm-16-8a8 8 0 0 0 8 8v-4a4 4 0 0 1-4-4h-4ZM8 0a8 8 0 0 0-8 8h4a4 4 0 0 1 4-4V0Zm128 4a4 4 0 0 1 4 4h4a8 8 0 0 0-8-8v4Z" fill="#1E0F7E" mask="url(#a)"/><path d="M81 25.5v-3a3 3 0 0 0-3-3H60a3 3 0 0 0-3 3V33a3 3 0 0 0 3 3h12M69 42v-5.94 4.725M64.5 42H72M84 31.5h-3a3 3 0 0 0-3 3v9a3 3 0 0 0 3 3h3a3 3 0 0 0 3-3v-9a3 3 0 0 0-3-3Z" stroke="#3313F7" stroke-width="2.5" stroke-linecap="round" stroke-linejoin="round"/><path d="M24.136 60.752c1.524 0 2.664.912 3.132 2.484l-1.428.492c-.24-1.02-.864-1.62-1.716-1.62-.588 0-1.08.288-1.452.864-.372.564-.564 1.308-.564 2.22 0 .912.192 1.656.564 2.232.372.564.864.852 1.452.852.852 0 1.476-.6 1.716-1.62l1.428.492c-.468 1.572-1.608 2.484-3.132 2.484-1.02 0-1.86-.408-2.52-1.236-.66-.828-.984-1.896-.984-3.204 0-1.308.324-2.364.984-3.192.66-.828 1.5-1.248 2.52-1.248Zm8.215 5.412H31.26V69.5h-1.536v-8.616h2.964c1.98 0 3.12.96 3.12 2.64 0 1.26-.66 2.148-1.86 2.484l2.256 3.492h-1.752l-2.1-3.336Zm-1.092-3.96v2.64h1.344c1.092 0 1.692-.468 1.692-1.32 0-.864-.588-1.32-1.692-1.32H31.26Zm13.316 2.988c0 1.332-.3 2.4-.888 3.216-.588.816-1.356 1.224-2.328 1.224-.972 0-1.752-.408-2.34-1.224-.588-.816-.876-1.884-.876-3.216 0-1.332.288-2.4.876-3.216.588-.816 1.368-1.224 2.34-1.224.972 0 1.74.408 2.328 1.224.588.816.888 1.884.888 3.216Zm-1.488 0c0-1.932-.636-3.084-1.728-3.084s-1.728 1.152-1.728 3.084c0 1.932.636 3.084 1.728 3.084s1.728-1.152 1.728-3.084Zm7.063 4.44a4.811 4.811 0 0 1-2.136-.492c-.66-.324-1.164-.756-1.488-1.296l1.188-.996c.612.948 1.512 1.488 2.484 1.488 1.02 0 1.704-.504 1.704-1.284 0-.468-.228-.756-.84-.96-.156-.06-.612-.18-1.344-.36-1.02-.252-1.464-.432-1.836-.672-.576-.396-.852-.936-.852-1.692 0-.768.288-1.392.876-1.884.588-.492 1.332-.732 2.232-.732 1.38 0 2.58.6 3.204 1.572l-1.116.96c-.54-.852-1.236-1.248-2.136-1.248-.924 0-1.572.468-1.572 1.176 0 .288.108.516.312.672.216.156.72.336 1.524.516.66.156 1.128.276 1.38.372.264.084.492.192.684.3.672.396.996.996.996 1.824 0 .804-.312 1.464-.936 1.98-.612.504-1.392.756-2.328.756Zm8.755 0a4.811 4.811 0 0 1-2.136-.492c-.66-.324-1.164-.756-1.488-1.296l1.188-.996c.612.948 1.512 1.488 2.484 1.488 1.02 0 1.704-.504 1.704-1.284 0-.468-.228-.756-.84-.96-.156-.06-.612-.18-1.344-.36-1.02-.252-1.464-.432-1.836-.672-.576-.396-.852-.936-.852-1.692 0-.768.288-1.392.876-1.884.588-.492 1.332-.732 2.232-.732 1.38 0 2.58.6 3.204 1.572l-1.116.96c-.54-.852-1.236-1.248-2.136-1.248-.924 0-1.572.468-1.572 1.176 0 .288.108.516.312.672.216.156.72.336 1.524.516.66.156 1.128.276 1.38.372.264.084.492.192.684.3.672.396.996.996.996 1.824 0 .804-.312 1.464-.936 1.98-.612.504-1.392.756-2.328.756Zm10.4-2.988h-3.36V65.36h3.36v1.284Zm6.223 2.856H73.5v-8.616h2.028c1.284 0 2.28.384 2.988 1.152.72.756 1.08 1.812 1.08 3.156s-.36 2.4-1.08 3.168c-.708.756-1.704 1.14-2.988 1.14ZM75 62.204v5.976h.528c1.668 0 2.556-1.056 2.556-2.988 0-1.956-.888-2.988-2.568-2.988H75Zm7.255 7.296v-8.616h5.952v1.344h-4.44v2.16h3.756v1.344h-3.756v2.424h4.44V69.5h-5.952ZM97.3 60.884 94.755 69.5h-1.716l-2.556-8.616h1.62l1.812 6.612 1.836-6.612h1.548Zm6.115 7.272h2.292V69.5h-6.12v-1.344h2.292v-5.928h-2.292v-1.344h6.12v1.344h-2.292v5.928Zm8.275-7.404c1.524 0 2.664.912 3.132 2.484l-1.428.492c-.24-1.02-.864-1.62-1.716-1.62-.588 0-1.08.288-1.452.864-.372.564-.564 1.308-.564 2.22 0 .912.192 1.656.564 2.232.372.564.864.852 1.452.852.852 0 1.476-.6 1.716-1.62l1.428.492c-.468 1.572-1.608 2.484-3.132 2.484-1.02 0-1.86-.408-2.52-1.236-.66-.828-.984-1.896-.984-3.204 0-1.308.324-2.364.984-3.192.66-.828 1.5-1.248 2.52-1.248Zm5.588 8.748v-8.616h5.952v1.344h-4.44v2.16h3.756v1.344h-3.756v2.424h4.44V69.5h-5.952ZM58.905 86.632a4.811 4.811 0 0 1-2.136-.492c-.66-.324-1.164-.756-1.488-1.296l1.188-.996c.612.948 1.512 1.488 2.484 1.488 1.02 0 1.704-.504 1.704-1.284 0-.468-.228-.756-.84-.96-.156-.06-.612-.18-1.344-.36-1.02-.252-1.464-.432-1.836-.672-.576-.396-.852-.936-.852-1.692 0-.768.288-1.392.876-1.884.588-.492 1.332-.732 2.232-.732 1.38 0 2.58.6 3.204 1.572l-1.116.96c-.54-.852-1.236-1.248-2.136-1.248-.924 0-1.572.468-1.572 1.176 0 .288.108.516.312.672.216.156.72.336 1.524.516.66.156 1.128.276 1.38.372.264.084.492.192.684.3.672.396.996.996.996 1.824 0 .804-.312 1.464-.936 1.98-.612.504-1.392.756-2.328.756Zm6.788-8.748 1.956 3.684 1.956-3.684h1.608l-2.82 5.064V86.5h-1.536v-3.552l-2.832-5.064h1.668Zm12.127 0h1.44V86.5h-1.452l-2.868-6.084V86.5H73.5v-8.616h1.536l2.784 5.796v-5.796Zm7.603-.132c1.524 0 2.664.912 3.132 2.484l-1.428.492c-.24-1.02-.864-1.62-1.716-1.62-.588 0-1.08.288-1.452.864-.372.564-.564 1.308-.564 2.22 0 .912.192 1.656.564 2.232.372.564.864.852 1.452.852.852 0 1.476-.6 1.716-1.62l1.428.492c-.468 1.572-1.608 2.484-3.132 2.484-1.02 0-1.86-.408-2.52-1.236-.66-.828-.984-1.896-.984-3.204 0-1.308.324-2.364.984-3.192.66-.828 1.5-1.248 2.52-1.248Z" fill="#000"/><path d="M60 166.5h21a2.999 2.999 0 0 0 3-3V144l-7.5-7.5H63a2.999 2.999 0 0 0-3 3v1.5" stroke="#3313F7" stroke-width="2.5" stroke-linecap="round" stroke-linejoin="round"/><path d="M75 136.5v6a2.998 2.998 0 0 0 3 3h6M67.5 153h-9a1.5 1.5 0 0 0-1.5 1.5v4.5a1.5 1.5 0 0 0 1.5 1.5h9A1.5 1.5 0 0 0 69 159v-4.5a1.5 1.5 0 0 0-1.5-1.5ZM66 153v-3a2.998 2.998 0 0 0-3-3 2.999 2.999 0 0 0-3 3v3" stroke="#3313F7" stroke-width="2.5" stroke-linecap="round" stroke-linejoin="round"/><path d="M40.915 189.5h-3.216v-8.616h3c1.836 0 2.832.792 2.832 2.268 0 .9-.444 1.56-1.224 1.86.948.3 1.5 1.08 1.5 2.088 0 1.488-1.104 2.4-2.892 2.4Zm-1.74-7.32v2.268h1.38c.996 0 1.524-.384 1.524-1.14 0-.732-.516-1.128-1.524-1.128h-1.38Zm1.656 3.564h-1.656v2.46h1.656c.924 0 1.5-.468 1.5-1.236 0-.756-.576-1.224-1.5-1.224Zm8.503 3.888c-1.92 0-2.952-1.2-2.952-3.42v-5.328h1.536v5.256c0 1.428.444 2.088 1.416 2.088s1.416-.66 1.416-2.088v-5.256h1.536v5.328c0 2.22-1.032 3.42-2.952 3.42Zm9.523-1.476h2.292v1.344h-6.12v-1.344h2.292v-5.928H55.03v-1.344h6.12v1.344h-2.292v5.928Zm11.036 1.344H64.3v-8.616h1.536v7.272h4.056v1.344Zm9.007-8.616v1.344h-2.532v7.272h-1.536v-7.272H72.3v-1.344h6.6Zm7.135 5.76h-3.36v-1.284h3.36v1.284Zm7.844 1.512h2.292v1.344h-6.12v-1.344h2.292v-5.928H90.05v-1.344h6.12v1.344h-2.292v5.928Zm9.427-7.272h1.44v8.616h-1.452l-2.868-6.084v6.084h-1.44v-8.616h1.536l2.784 5.796v-5.796Zm-74.78 22.28h-1.644v3.336h-1.536v-8.616h3.18c1.98 0 3.12.96 3.12 2.64 0 1.68-1.152 2.64-3.12 2.64Zm-1.644-3.96v2.64h1.56c1.092 0 1.692-.468 1.692-1.32 0-.864-.588-1.32-1.692-1.32h-1.56Zm7.22 7.296v-8.616h5.951v1.344h-4.44v2.16h3.756v1.344h-3.756v2.424h4.44v1.344h-5.952Zm11.382-3.336h-1.092v3.336h-1.536v-8.616h2.964c1.98 0 3.12.96 3.12 2.64 0 1.26-.66 2.148-1.86 2.484l2.256 3.492h-1.752l-2.1-3.336Zm-1.092-3.96v2.64h1.344c1.092 0 1.692-.468 1.692-1.32 0-.864-.588-1.32-1.692-1.32h-1.344Zm11.792.828-1.236 6.468h-.912l-1.236-6.468v6.468h-1.308v-8.616h2.04l.972 5.376.984-5.376h2.004v8.616h-1.308v-6.468Zm7.831 5.124h2.292v1.344h-6.12v-1.344h2.292v-5.928h-2.292v-1.344h6.12v1.344h-2.292v5.928Zm8.023 1.476a4.811 4.811 0 0 1-2.136-.492c-.66-.324-1.164-.756-1.488-1.296l1.188-.996c.612.948 1.512 1.488 2.484 1.488 1.02 0 1.704-.504 1.704-1.284 0-.468-.228-.756-.84-.96-.156-.06-.612-.18-1.344-.36-1.02-.252-1.464-.432-1.836-.672-.576-.396-.852-.936-.852-1.692 0-.768.288-1.392.876-1.884.588-.492 1.332-.732 2.232-.732 1.38 0 2.58.6 3.204 1.572l-1.116.96c-.54-.852-1.236-1.248-2.136-1.248-.924 0-1.572.468-1.572 1.176 0 .288.108.516.312.672.216.156.72.336 1.524.516.66.156 1.128.276 1.38.372.264.084.492.192.684.3.672.396.996.996.996 1.824 0 .804-.312 1.464-.936 1.98-.612.504-1.392.756-2.328.756Zm8.756 0a4.811 4.811 0 0 1-2.136-.492c-.66-.324-1.164-.756-1.488-1.296l1.188-.996c.612.948 1.512 1.488 2.484 1.488 1.02 0 1.704-.504 1.704-1.284 0-.468-.228-.756-.84-.96-.156-.06-.612-.18-1.344-.36-1.02-.252-1.464-.432-1.836-.672-.576-.396-.852-.936-.852-1.692 0-.768.288-1.392.876-1.884.588-.492 1.332-.732 2.232-.732 1.38 0 2.58.6 3.204 1.572l-1.116.96c-.54-.852-1.236-1.248-2.136-1.248-.924 0-1.572.468-1.572 1.176 0 .288.108.516.312.672.216.156.72.336 1.524.516.66.156 1.128.276 1.38.372.264.084.492.192.684.3.672.396.996.996.996 1.824 0 .804-.312 1.464-.936 1.98-.612.504-1.392.756-2.328.756Zm9.487-1.476h2.292v1.344h-6.12v-1.344h2.292v-5.928h-2.292v-1.344h6.12v1.344h-2.292v5.928Zm11.203-2.964c0 1.332-.3 2.4-.888 3.216-.588.816-1.356 1.224-2.328 1.224-.972 0-1.752-.408-2.34-1.224-.588-.816-.876-1.884-.876-3.216 0-1.332.288-2.4.876-3.216.588-.816 1.368-1.224 2.34-1.224.972 0 1.74.408 2.328 1.224.588.816.888 1.884.888 3.216Zm-1.488 0c0-1.932-.636-3.084-1.728-3.084s-1.728 1.152-1.728 3.084c0 1.932.636 3.084 1.728 3.084s1.728-1.152 1.728-3.084Zm8.468-4.308h1.44v8.616h-1.452l-2.868-6.084v6.084h-1.44v-8.616h1.536l2.784 5.796v-5.796Zm7.351 8.748a4.811 4.811 0 0 1-2.136-.492c-.66-.324-1.164-.756-1.488-1.296l1.188-.996c.612.948 1.512 1.488 2.484 1.488 1.02 0 1.704-.504 1.704-1.284 0-.468-.228-.756-.84-.96-.156-.06-.612-.18-1.344-.36-1.02-.252-1.464-.432-1.836-.672-.576-.396-.852-.936-.852-1.692 0-.768.288-1.392.876-1.884.588-.492 1.332-.732 2.232-.732 1.38 0 2.58.6 3.204 1.572l-1.116.96c-.54-.852-1.236-1.248-2.136-1.248-.924 0-1.572.468-1.572 1.176 0 .288.108.516.312.672.216.156.72.336 1.524.516.66.156 1.128.276 1.38.372.264.084.492.192.684.3.672.396.996.996.996 1.824 0 .804-.312 1.464-.936 1.98-.612.504-1.392.756-2.328.756Z" fill="#000"/><path d="m232 274.5 6-6M219.01 282a14.995 14.995 0 0 1-.001-15A15.007 15.007 0 0 1 232 259.499 14.995 14.995 0 0 1 244.991 267a15.004 15.004 0 0 1-.001 15" stroke="#3313F7" stroke-width="2.5" stroke-linecap="round" stroke-linejoin="round"/><path d="M202.127 308.156h2.292v1.344h-6.12v-1.344h2.292v-5.928h-2.292v-1.344h6.12v1.344h-2.292v5.928Zm9.427-7.272h1.44v8.616h-1.452l-2.868-6.084v6.084h-1.44v-8.616h1.536l2.784 5.796v-5.796Zm7.351 8.748a4.811 4.811 0 0 1-2.136-.492c-.66-.324-1.164-.756-1.488-1.296l1.188-.996c.612.948 1.512 1.488 2.484 1.488 1.02 0 1.704-.504 1.704-1.284 0-.468-.228-.756-.84-.96-.156-.06-.612-.18-1.344-.36-1.02-.252-1.464-.432-1.836-.672-.576-.396-.852-.936-.852-1.692 0-.768.288-1.392.876-1.884.588-.492 1.332-.732 2.232-.732 1.38 0 2.58.6 3.204 1.572l-1.116.96c-.54-.852-1.236-1.248-2.136-1.248-.924 0-1.572.468-1.572 1.176 0 .288.108.516.312.672.216.156.72.336 1.524.516.66.156 1.128.276 1.38.372.264.084.492.192.684.3.672.396.996.996.996 1.824 0 .804-.312 1.464-.936 1.98-.612.504-1.392.756-2.328.756Zm12.02-8.748v1.344h-2.532v7.272h-1.536v-7.272h-2.532v-1.344h6.6Zm2.047 8.616 2.484-8.616h1.836l2.508 8.616h-1.548l-.552-1.968h-2.676l-.552 1.968h-1.5Zm4.356-3.312-.972-3.468-.96 3.468h1.932Zm9.247-5.304h1.44v8.616h-1.452l-2.868-6.084v6.084h-1.44v-8.616h1.536l2.784 5.796v-5.796Zm10.616 0v1.344h-2.532v7.272h-1.536v-7.272h-2.532v-1.344h6.6Zm-64.588 25.748c-1.92 0-2.952-1.2-2.952-3.42v-5.328h1.536v5.256c0 1.428.444 2.088 1.416 2.088s1.416-.66 1.416-2.088v-5.256h1.536v5.328c0 2.22-1.032 3.42-2.952 3.42Zm9.524-1.476h2.292v1.344h-6.12v-1.344h2.292v-5.928h-2.292v-1.344h6.12v1.344h-2.292v5.928Zm16.742 1.476c-1.92 0-2.952-1.2-2.952-3.42v-5.328h1.536v5.256c0 1.428.444 2.088 1.416 2.088s1.416-.66 1.416-2.088v-5.256h1.536v5.328c0 2.22-1.032 3.42-2.952 3.42Zm9.056-3.468h-1.644v3.336h-1.536v-8.616h3.18c1.98 0 3.12.96 3.12 2.64 0 1.68-1.152 2.64-3.12 2.64Zm-1.644-3.96v2.64h1.56c1.092 0 1.692-.468 1.692-1.32 0-.864-.588-1.32-1.692-1.32h-1.56Zm9.247 7.296H233.5v-8.616h2.028c1.284 0 2.28.384 2.988 1.152.72.756 1.08 1.812 1.08 3.156s-.36 2.4-1.08 3.168c-.708.756-1.704 1.14-2.988 1.14Zm-.528-7.296v5.976h.528c1.668 0 2.556-1.056 2.556-2.988 0-1.956-.888-2.988-2.568-2.988H235Zm6.727 7.296 2.484-8.616h1.836l2.508 8.616h-1.548l-.552-1.968h-2.676l-.552 1.968h-1.5Zm4.356-3.312-.972-3.468-.96 3.468h1.932Zm11.108-5.304v1.344h-2.532v7.272h-1.536v-7.272h-2.532v-1.344h6.6Zm2.575 8.616v-8.616h5.952v1.344h-4.44v2.16h3.756v1.344h-3.756v2.424h4.44v1.344h-5.952Zm11.671.132a4.811 4.811 0 0 1-2.136-.492c-.66-.324-1.164-.756-1.488-1.296l1.188-.996c.612.948 1.512 1.488 2.484 1.488 1.02 0 1.704-.504 1.704-1.284 0-.468-.228-.756-.84-.96-.156-.06-.612-.18-1.344-.36-1.02-.252-1.464-.432-1.836-.672-.576-.396-.852-.936-.852-1.692 0-.768.288-1.392.876-1.884.588-.492 1.332-.732 2.232-.732 1.38 0 2.58.6 3.204 1.572l-1.116.96c-.54-.852-1.236-1.248-2.136-1.248-.924 0-1.572.468-1.572 1.176 0 .288.108.516.312.672.216.156.72.336 1.524.516.66.156 1.128.276 1.38.372.264.084.492.192.684.3.672.396.996.996.996 1.824 0 .804-.312 1.464-.936 1.98-.612.504-1.392.756-2.328.756Z" fill="#000"/><path d="m235 19.65-3 2.85M221.65 25.5l-4.35-1.2M223 31.5l-2.85 3M224.8 16.8l1.2 4.35M227.555 28.035a.743.743 0 0 1 .16-.82.743.743 0 0 1 .82-.16l16.5 6.75a.748.748 0 0 1 .285 1.182.75.75 0 0 1-.396.242l-6.524 1.562a1.5 1.5 0 0 0-1.11 1.108l-1.56 6.525a.751.751 0 0 1-.671.576.75.75 0 0 1-.754-.465l-6.75-16.5Z" stroke="#3313F7" stroke-width="2.5" stroke-linecap="round" stroke-linejoin="round"/><path d="M195.949 66.164h-1.092V69.5h-1.536v-8.616h2.964c1.98 0 3.12.96 3.12 2.64 0 1.26-.66 2.148-1.86 2.484l2.256 3.492h-1.752l-2.1-3.336Zm-1.092-3.96v2.64h1.344c1.092 0 1.692-.468 1.692-1.32 0-.864-.588-1.32-1.692-1.32h-1.344Zm7.219 7.296v-8.616h5.952v1.344h-4.44v2.16h3.756v1.344h-3.756v2.424h4.44V69.5h-5.952Zm8.228 0 2.484-8.616h1.836l2.508 8.616h-1.548l-.552-1.968h-2.676l-.552 1.968h-1.5Zm4.356-3.312-.972-3.468-.96 3.468h1.932Zm10.855 3.312h-5.592v-8.616h1.536v7.272h4.056V69.5Zm7.387-2.856h-3.36V65.36h3.36v1.284Zm10.376-5.76v1.344h-2.532V69.5h-1.536v-7.272h-2.532v-1.344h6.6Zm6.223 7.272h2.292V69.5h-6.12v-1.344h2.292v-5.928h-2.292v-1.344h6.12v1.344h-2.292v5.928Zm9.679-5.124-1.236 6.468h-.912l-1.236-6.468V69.5h-1.308v-8.616h2.04l.972 5.376.984-5.376h2.004V69.5h-1.308v-6.468Zm4.184 6.468v-8.616h5.952v1.344h-4.44v2.16h3.756v1.344h-3.756v2.424h4.44V69.5h-5.952Zm-73.446 10.532-1.236 6.468h-.912l-1.236-6.468V86.5h-1.308v-8.616h2.04l.972 5.376.984-5.376h2.004V86.5h-1.308v-6.468Zm7.063 6.6c-1.92 0-2.952-1.2-2.952-3.42v-5.328h1.536v5.256c0 1.428.444 2.088 1.416 2.088s1.416-.66 1.416-2.088v-5.256h1.536v5.328c0 2.22-1.032 3.42-2.952 3.42Zm11.803-.132h-5.592v-8.616h1.536v7.272h4.056V86.5Zm9.008-8.616v1.344h-2.532V86.5h-1.536v-7.272h-2.532v-1.344h6.6Zm6.223 7.272h2.292V86.5h-6.12v-1.344h2.292v-5.928h-2.292v-1.344h6.12v1.344h-2.292v5.928Zm8.287-1.992h-1.644V86.5h-1.536v-8.616h3.18c1.98 0 3.12.96 3.12 2.64 0 1.68-1.152 2.64-3.12 2.64Zm-1.644-3.96v2.64h1.56c1.092 0 1.692-.468 1.692-1.32 0-.864-.588-1.32-1.692-1.32h-1.56Zm13.148 7.296h-5.592v-8.616h1.536v7.272h4.056V86.5Zm2.299 0 2.484-8.616h1.836l2.508 8.616h-1.548l-.552-1.968h-2.676l-.552 1.968h-1.5Zm4.356-3.312-.972-3.468-.96 3.468h1.932Zm5.875-5.304 1.956 3.684 1.956-3.684h1.608l-2.82 5.064V86.5H257.5v-3.552l-2.832-5.064h1.668Zm7.808 8.616v-8.616h5.952v1.344h-4.44v2.16h3.756v1.344h-3.756v2.424h4.44V86.5h-5.952Zm11.383-3.336h-1.092V86.5h-1.536v-8.616h2.964c1.98 0 3.12.96 3.12 2.64 0 1.26-.66 2.148-1.86 2.484l2.256 3.492h-1.752l-2.1-3.336Zm-1.092-3.96v2.64h1.344c1.092 0 1.692-.468 1.692-1.32 0-.864-.588-1.32-1.692-1.32h-1.344Z" fill="#000"/><path d="M377.879 279.621a2.996 2.996 0 0 0-.879 2.121V285a1.503 1.503 0 0 0 1.5 1.5h4.5a1.503 1.503 0 0 0 1.5-1.5v-1.5a1.503 1.503 0 0 1 1.5-1.5h1.5a1.503 1.503 0 0 0 1.5-1.5V279a1.503 1.503 0 0 1 1.5-1.5h.258c.796 0 1.559-.316 2.121-.879l1.221-1.221a9.753 9.753 0 0 0 12.896-10.302 9.751 9.751 0 0 0-14.87-7.165A9.753 9.753 0 0 0 388.1 269.4l-10.221 10.221Z" stroke="#3313F7" stroke-width="2.5" stroke-linecap="round" stroke-linejoin="round"/><path d="M398.75 265.5a.75.75 0 1 0 0-1.5.75.75 0 0 0 0 1.5Z" fill="#000" stroke="#3313F7" stroke-width="2.5" stroke-linecap="round" stroke-linejoin="round"/><path d="M366.454 309.5v-8.616h5.952v1.344h-4.44v2.16h3.756v1.344h-3.756v2.424h4.44v1.344h-5.952Zm8.659 0v-1.248l2.16-1.776c.948-.768 1.548-1.344 1.824-1.728.276-.396.408-.78.408-1.164 0-.912-.588-1.524-1.464-1.524-.864 0-1.488.66-1.488 1.56 0 .276.048.564.144.816h-1.428c-.108-.336-.156-.564-.156-.9 0-.792.288-1.452.852-1.98.576-.54 1.284-.804 2.112-.804.888 0 1.596.252 2.136.756.54.492.816 1.152.816 1.98 0 .576-.168 1.128-.516 1.668-.336.528-.948 1.152-1.848 1.86l-1.44 1.14h3.912v1.344h-6.024Zm8.852 0v-8.616h5.952v1.344h-4.44v2.16h3.756v1.344h-3.756v2.424h4.44v1.344h-5.952Zm8.755 0v-8.616h5.952v1.344h-4.44v2.16h3.756v1.344h-3.756v2.424h4.44v1.344h-5.952Zm22.371-4.608 1.236.24a5.854 5.854 0 0 1-.972 2.736l1.368 1.632h-1.62l-.588-.696c-.672.54-1.44.828-2.256.828-.732 0-1.344-.228-1.836-.672-.48-.444-.72-1.032-.72-1.74 0-.996.444-1.74 1.452-2.412-.528-.684-.756-1.284-.756-1.872 0-.624.204-1.14.624-1.56.42-.42.96-.624 1.596-.624.612 0 1.116.18 1.5.552.384.372.576.84.576 1.416 0 .468-.132.864-.396 1.212-.252.348-.708.708-1.356 1.08l1.584 1.872c.3-.576.48-1.26.564-1.992Zm-2.508-2.988c-.492 0-.876.42-.876.996 0 .384.144.744.564 1.284.9-.468 1.152-.78 1.152-1.392 0-.492-.36-.888-.84-.888Zm-1.488 5.172c0 .756.564 1.332 1.296 1.332.48 0 .948-.18 1.344-.516l-1.884-2.232c-.516.396-.756.84-.756 1.416Zm-58.456 19.556a4.811 4.811 0 0 1-2.136-.492c-.66-.324-1.164-.756-1.488-1.296l1.188-.996c.612.948 1.512 1.488 2.484 1.488 1.02 0 1.704-.504 1.704-1.284 0-.468-.228-.756-.84-.96-.156-.06-.612-.18-1.344-.36-1.02-.252-1.464-.432-1.836-.672-.576-.396-.852-.936-.852-1.692 0-.768.288-1.392.876-1.884.588-.492 1.332-.732 2.232-.732 1.38 0 2.58.6 3.204 1.572l-1.116.96c-.54-.852-1.236-1.248-2.136-1.248-.924 0-1.572.468-1.572 1.176 0 .288.108.516.312.672.216.156.72.336 1.524.516.66.156 1.128.276 1.38.372.264.084.492.192.684.3.672.396.996.996.996 1.824 0 .804-.312 1.464-.936 1.98-.612.504-1.392.756-2.328.756Zm9.488-1.476h2.292v1.344h-6.12v-1.344h2.292v-5.928h-2.292v-1.344h6.12v1.344h-2.292v5.928Zm11.095 1.344h-1.248v-.888c-.324.636-1.008 1.02-1.872 1.02-.936 0-1.704-.408-2.304-1.236-.6-.828-.9-1.884-.9-3.168 0-1.296.312-2.364.948-3.204.636-.852 1.44-1.272 2.412-1.272 1.488 0 2.496.876 2.892 2.472l-1.392.492c-.192-1.02-.72-1.608-1.488-1.608-.54 0-.984.288-1.332.864-.348.564-.516 1.308-.516 2.232 0 .924.168 1.668.492 2.232.336.552.78.828 1.332.828.912 0 1.536-.828 1.572-2.064h-1.716v-1.344h3.12v4.644Zm7.087-8.616h1.44v8.616h-1.452l-2.868-6.084v6.084h-1.44v-8.616h1.536l2.784 5.796v-5.796Zm3.908 8.616 2.484-8.616h1.836l2.508 8.616h-1.548l-.552-1.968h-2.676l-.552 1.968h-1.5Zm4.356-3.312-.972-3.468-.96 3.468h1.932Zm11.107-5.304v1.344h-2.532v7.272h-1.536v-7.272h-2.532v-1.344h6.6Zm5.455 8.748c-1.92 0-2.952-1.2-2.952-3.42v-5.328h1.536v5.256c0 1.428.444 2.088 1.416 2.088s1.416-.66 1.416-2.088v-5.256h1.536v5.328c0 2.22-1.032 3.42-2.952 3.42Zm8.504-3.468h-1.092v3.336h-1.536v-8.616h2.964c1.98 0 3.12.96 3.12 2.64 0 1.26-.66 2.148-1.86 2.484l2.256 3.492h-1.752l-2.1-3.336Zm-1.092-3.96v2.64h1.344c1.092 0 1.692-.468 1.692-1.32 0-.864-.588-1.32-1.692-1.32h-1.344Zm7.219 7.296v-8.616h5.952v1.344h-4.44v2.16h3.756v1.344h-3.756v2.424h4.44v1.344h-5.952Zm11.671.132a4.811 4.811 0 0 1-2.136-.492c-.66-.324-1.164-.756-1.488-1.296l1.188-.996c.612.948 1.512 1.488 2.484 1.488 1.02 0 1.704-.504 1.704-1.284 0-.468-.228-.756-.84-.96-.156-.06-.612-.18-1.344-.36-1.02-.252-1.464-.432-1.836-.672-.576-.396-.852-.936-.852-1.692 0-.768.288-1.392.876-1.884.588-.492 1.332-.732 2.232-.732 1.38 0 2.58.6 3.204 1.572l-1.116.96c-.54-.852-1.236-1.248-2.136-1.248-.924 0-1.572.468-1.572 1.176 0 .288.108.516.312.672.216.156.72.336 1.524.516.66.156 1.128.276 1.38.372.264.084.492.192.684.3.672.396.996.996.996 1.824 0 .804-.312 1.464-.936 1.98-.612.504-1.392.756-2.328.756Z" fill="#000"/><path d="M398 45v-3a6 6 0 0 0-6-6h-9a6.002 6.002 0 0 0-6 6v3M387.5 30a6 6 0 1 0 0-12 6 6 0 0 0 0 12ZM407 45v-3a5.997 5.997 0 0 0-4.5-5.805M398 18.195a6 6 0 0 1 0 11.625" stroke="#3313F7" stroke-width="2.5" stroke-linecap="round" stroke-linejoin="round"/><path d="M350.746 60.884v1.344h-2.532V69.5h-1.536v-7.272h-2.532v-1.344h6.6Zm2.575 8.616v-8.616h5.952v1.344h-4.44v2.16h3.756v1.344h-3.756v2.424h4.44V69.5h-5.952Zm8.227 0 2.484-8.616h1.836l2.508 8.616h-1.548l-.552-1.968H363.6l-.552 1.968h-1.5Zm4.356-3.312-.972-3.468-.96 3.468h1.932Zm9.5-3.156-1.236 6.468h-.912l-1.236-6.468V69.5h-1.308v-8.616h2.04l.972 5.376.984-5.376h2.004V69.5h-1.308v-6.468Zm6.055 7.644h-1.464l3.48-10.032h1.464l-3.48 10.032Zm9.799-1.044a4.811 4.811 0 0 1-2.136-.492c-.66-.324-1.164-.756-1.488-1.296l1.188-.996c.612.948 1.512 1.488 2.484 1.488 1.02 0 1.704-.504 1.704-1.284 0-.468-.228-.756-.84-.96-.156-.06-.612-.18-1.344-.36-1.02-.252-1.464-.432-1.836-.672-.576-.396-.852-.936-.852-1.692 0-.768.288-1.392.876-1.884.588-.492 1.332-.732 2.232-.732 1.38 0 2.58.6 3.204 1.572l-1.116.96c-.54-.852-1.236-1.248-2.136-1.248-.924 0-1.572.468-1.572 1.176 0 .288.108.516.312.672.216.156.72.336 1.524.516.66.156 1.128.276 1.38.372.264.084.492.192.684.3.672.396.996.996.996 1.824 0 .804-.312 1.464-.936 1.98-.612.504-1.392.756-2.328.756Zm11.936-4.44c0 1.332-.3 2.4-.888 3.216-.588.816-1.356 1.224-2.328 1.224-.972 0-1.752-.408-2.34-1.224-.588-.816-.876-1.884-.876-3.216 0-1.332.288-2.4.876-3.216.588-.816 1.368-1.224 2.34-1.224.972 0 1.74.408 2.328 1.224.588.816.888 1.884.888 3.216Zm-1.488 0c0-1.932-.636-3.084-1.728-3.084s-1.728 1.152-1.728 3.084c0 1.932.636 3.084 1.728 3.084s1.728-1.152 1.728-3.084Zm7.315-4.44c1.524 0 2.664.912 3.132 2.484l-1.428.492c-.24-1.02-.864-1.62-1.716-1.62-.588 0-1.08.288-1.452.864-.372.564-.564 1.308-.564 2.22 0 .912.192 1.656.564 2.232.372.564.864.852 1.452.852.852 0 1.476-.6 1.716-1.62l1.428.492c-.468 1.572-1.608 2.484-3.132 2.484-1.02 0-1.86-.408-2.52-1.236-.66-.828-.984-1.896-.984-3.204 0-1.308.324-2.364.984-3.192.66-.828 1.5-1.248 2.52-1.248Zm9.235 7.404h2.292V69.5h-6.12v-1.344h2.292v-5.928h-2.292v-1.344h6.12v1.344h-2.292v5.928Zm4.58 1.344 2.484-8.616h1.836l2.508 8.616h-1.548l-.552-1.968h-2.676l-.552 1.968h-1.5Zm4.356-3.312-.972-3.468-.96 3.468h1.932Zm10.855 3.312h-5.592v-8.616h1.536v7.272h4.056V69.5Zm-77.816 13.412V86.5h-1.512v-8.616h5.748v1.344h-4.236v2.34h3.552v1.344h-3.552Zm7.003 3.588v-8.616h5.952v1.344h-4.44v2.16h3.756v1.344h-3.756v2.424h4.44V86.5h-5.952Zm8.227 0 2.484-8.616h1.836l2.508 8.616h-1.548l-.552-1.968h-2.676l-.552 1.968h-1.5Zm4.356-3.312-.972-3.468-.96 3.468h1.932Zm11.108-5.304v1.344h-2.532V86.5h-1.536v-7.272h-2.532v-1.344h6.6Zm5.455 8.748c-1.92 0-2.952-1.2-2.952-3.42v-5.328h1.536v5.256c0 1.428.444 2.088 1.416 2.088s1.416-.66 1.416-2.088v-5.256h1.536v5.328c0 2.22-1.032 3.42-2.952 3.42Zm8.503-3.468h-1.092V86.5h-1.536v-8.616h2.964c1.98 0 3.12.96 3.12 2.64 0 1.26-.66 2.148-1.86 2.484l2.256 3.492h-1.752l-2.1-3.336Zm-1.092-3.96v2.64h1.344c1.092 0 1.692-.468 1.692-1.32 0-.864-.588-1.32-1.692-1.32h-1.344Zm7.22 7.296v-8.616h5.952v1.344h-4.44v2.16h3.756v1.344h-3.756v2.424h4.44V86.5h-5.952Zm11.671.132a4.811 4.811 0 0 1-2.136-.492c-.66-.324-1.164-.756-1.488-1.296l1.188-.996c.612.948 1.512 1.488 2.484 1.488 1.02 0 1.704-.504 1.704-1.284 0-.468-.228-.756-.84-.96-.156-.06-.612-.18-1.344-.36-1.02-.252-1.464-.432-1.836-.672-.576-.396-.852-.936-.852-1.692 0-.768.288-1.392.876-1.884.588-.492 1.332-.732 2.232-.732 1.38 0 2.58.6 3.204 1.572l-1.116.96c-.54-.852-1.236-1.248-2.136-1.248-.924 0-1.572.468-1.572 1.176 0 .288.108.516.312.672.216.156.72.336 1.524.516.66.156 1.128.276 1.38.372.264.084.492.192.684.3.672.396.996.996.996 1.824 0 .804-.312 1.464-.936 1.98-.612.504-1.392.756-2.328.756Z" fill="#000"/><path d="M392 153v12M380 155.848a10.499 10.499 0 0 1 11.341-17.118 10.506 10.506 0 0 1 6.224 6.77h2.685a6.752 6.752 0 0 1 6.46 4.791 6.754 6.754 0 0 1-2.71 7.572" stroke="#3313F7" stroke-width="2.5" stroke-linecap="round" stroke-linejoin="round"/><path d="m386 159 6-6 6 6" stroke="#3313F7" stroke-width="2.5" stroke-linecap="round" stroke-linejoin="round"/><path d="M352.891 180.752c1.524 0 2.664.912 3.132 2.484l-1.428.492c-.24-1.02-.864-1.62-1.716-1.62-.588 0-1.08.288-1.452.864-.372.564-.564 1.308-.564 2.22 0 .912.192 1.656.564 2.232.372.564.864.852 1.452.852.852 0 1.476-.6 1.716-1.62l1.428.492c-.468 1.572-1.608 2.484-3.132 2.484-1.02 0-1.86-.408-2.52-1.236-.66-.828-.984-1.896-.984-3.204 0-1.308.324-2.364.984-3.192.66-.828 1.5-1.248 2.52-1.248Zm11.516 8.748h-5.592v-8.616h1.536v7.272h4.056v1.344Zm8.923-4.308c0 1.332-.3 2.4-.888 3.216-.588.816-1.356 1.224-2.328 1.224-.972 0-1.752-.408-2.34-1.224-.588-.816-.876-1.884-.876-3.216 0-1.332.288-2.4.876-3.216.588-.816 1.368-1.224 2.34-1.224.972 0 1.74.408 2.328 1.224.588.816.888 1.884.888 3.216Zm-1.488 0c0-1.932-.636-3.084-1.728-3.084s-1.728 1.152-1.728 3.084c0 1.932.636 3.084 1.728 3.084s1.728-1.152 1.728-3.084Zm7.027 4.44c-1.92 0-2.952-1.2-2.952-3.42v-5.328h1.536v5.256c0 1.428.444 2.088 1.416 2.088s1.416-.66 1.416-2.088v-5.256h1.536v5.328c0 2.22-1.032 3.42-2.952 3.42Zm7.904-.132h-2.028v-8.616h2.028c1.284 0 2.28.384 2.988 1.152.72.756 1.08 1.812 1.08 3.156s-.36 2.4-1.08 3.168c-.708.756-1.704 1.14-2.988 1.14Zm-.528-7.296v5.976h.528c1.668 0 2.556-1.056 2.556-2.988 0-1.956-.888-2.988-2.568-2.988h-.516Zm18.926 7.428a4.811 4.811 0 0 1-2.136-.492c-.66-.324-1.164-.756-1.488-1.296l1.188-.996c.612.948 1.512 1.488 2.484 1.488 1.02 0 1.704-.504 1.704-1.284 0-.468-.228-.756-.84-.96-.156-.06-.612-.18-1.344-.36-1.02-.252-1.464-.432-1.836-.672-.576-.396-.852-.936-.852-1.692 0-.768.288-1.392.876-1.884.588-.492 1.332-.732 2.232-.732 1.38 0 2.58.6 3.204 1.572l-1.116.96c-.54-.852-1.236-1.248-2.136-1.248-.924 0-1.572.468-1.572 1.176 0 .288.108.516.312.672.216.156.72.336 1.524.516.66.156 1.128.276 1.38.372.264.084.492.192.684.3.672.396.996.996.996 1.824 0 .804-.312 1.464-.936 1.98-.612.504-1.392.756-2.328.756Zm6.788-8.748 1.956 3.684 1.956-3.684h1.608l-2.82 5.064v3.552h-1.536v-3.552l-2.832-5.064h1.668Zm12.127 0h1.44v8.616h-1.452l-2.868-6.084v6.084h-1.44v-8.616h1.536l2.784 5.796v-5.796Zm7.603-.132c1.524 0 2.664.912 3.132 2.484l-1.428.492c-.24-1.02-.864-1.62-1.716-1.62-.588 0-1.08.288-1.452.864-.372.564-.564 1.308-.564 2.22 0 .912.192 1.656.564 2.232.372.564.864.852 1.452.852.852 0 1.476-.6 1.716-1.62l1.428.492c-.468 1.572-1.608 2.484-3.132 2.484-1.02 0-1.86-.408-2.52-1.236-.66-.828-.984-1.896-.984-3.204 0-1.308.324-2.364.984-3.192.66-.828 1.5-1.248 2.52-1.248Zm-72.728 21.14 1.236.24a5.854 5.854 0 0 1-.972 2.736l1.368 1.632h-1.62l-.588-.696c-.672.54-1.44.828-2.256.828-.732 0-1.344-.228-1.836-.672-.48-.444-.72-1.032-.72-1.74 0-.996.444-1.74 1.452-2.412-.528-.684-.756-1.284-.756-1.872 0-.624.204-1.14.624-1.56.42-.42.96-.624 1.596-.624.612 0 1.116.18 1.5.552.384.372.576.84.576 1.416 0 .468-.132.864-.396 1.212-.252.348-.708.708-1.356 1.08l1.584 1.872c.3-.576.48-1.26.564-1.992Zm-2.508-2.988c-.492 0-.876.42-.876.996 0 .384.144.744.564 1.284.9-.468 1.152-.78 1.152-1.392 0-.492-.36-.888-.84-.888Zm-1.488 5.172c0 .756.564 1.332 1.296 1.332.48 0 .948-.18 1.344-.516l-1.884-2.232c-.516.396-.756.84-.756 1.416Zm19.563 2.556a4.811 4.811 0 0 1-2.136-.492c-.66-.324-1.164-.756-1.488-1.296l1.188-.996c.612.948 1.512 1.488 2.484 1.488 1.02 0 1.704-.504 1.704-1.284 0-.468-.228-.756-.84-.96-.156-.06-.612-.18-1.344-.36-1.02-.252-1.464-.432-1.836-.672-.576-.396-.852-.936-.852-1.692 0-.768.288-1.392.876-1.884.588-.492 1.332-.732 2.232-.732 1.38 0 2.58.6 3.204 1.572l-1.116.96c-.54-.852-1.236-1.248-2.136-1.248-.924 0-1.572.468-1.572 1.176 0 .288.108.516.312.672.216.156.72.336 1.524.516.66.156 1.128.276 1.38.372.264.084.492.192.684.3.672.396.996.996.996 1.824 0 .804-.312 1.464-.936 1.98-.612.504-1.392.756-2.328.756Zm12.019-8.748v1.344h-2.532v7.272h-1.536v-7.272h-2.532v-1.344h6.6Zm8.671 4.308c0 1.332-.3 2.4-.888 3.216-.588.816-1.356 1.224-2.328 1.224-.972 0-1.752-.408-2.34-1.224-.588-.816-.876-1.884-.876-3.216 0-1.332.288-2.4.876-3.216.588-.816 1.368-1.224 2.34-1.224.972 0 1.74.408 2.328 1.224.588.816.888 1.884.888 3.216Zm-1.488 0c0-1.932-.636-3.084-1.728-3.084s-1.728 1.152-1.728 3.084c0 1.932.636 3.084 1.728 3.084s1.728-1.152 1.728-3.084Zm6.776.972h-1.092v3.336h-1.536v-8.616h2.964c1.98 0 3.12.96 3.12 2.64 0 1.26-.66 2.148-1.86 2.484l2.256 3.492h-1.752l-2.1-3.336Zm-1.092-3.96v2.64h1.344c1.092 0 1.692-.468 1.692-1.32 0-.864-.588-1.32-1.692-1.32h-1.344Zm6.691 7.296 2.484-8.616h1.836l2.508 8.616h-1.548l-.552-1.968h-2.676l-.552 1.968h-1.5Zm4.356-3.312-.972-3.468-.96 3.468h1.932Zm10.915 3.312h-1.248v-.888c-.324.636-1.008 1.02-1.872 1.02-.936 0-1.704-.408-2.304-1.236-.6-.828-.9-1.884-.9-3.168 0-1.296.312-2.364.948-3.204.636-.852 1.44-1.272 2.412-1.272 1.488 0 2.496.876 2.892 2.472l-1.392.492c-.192-1.02-.72-1.608-1.488-1.608-.54 0-.984.288-1.332.864-.348.564-.516 1.308-.516 2.232 0 .924.168 1.668.492 2.232.336.552.78.828 1.332.828.912 0 1.536-.828 1.572-2.064h-1.716v-1.344h3.12v4.644Zm2.768 0v-8.616h5.952v1.344h-4.44v2.16h3.756v1.344h-3.756v2.424h4.44v1.344h-5.952Z" fill="#000"/><path d="M72 256.5v12M78 262.5l-6 6-6-6M84 274.5H60a3 3 0 0 0-3 3v6a3 3 0 0 0 3 3h24a3 3 0 0 0 3-3v-6a3 3 0 0 0-3-3Z" stroke="#3313F7" stroke-width="2.5" stroke-linecap="round" stroke-linejoin="round"/><path d="M63 280.5h.015M69 280.5h.015" stroke="#000" stroke-width="1.5" stroke-linejoin="round"/><path d="M39.417 305.192c0 1.332-.3 2.4-.888 3.216-.588.816-1.356 1.224-2.328 1.224-.972 0-1.752-.408-2.34-1.224-.588-.816-.876-1.884-.876-3.216 0-1.332.288-2.4.876-3.216.588-.816 1.368-1.224 2.34-1.224.972 0 1.74.408 2.328 1.224.588.816.888 1.884.888 3.216Zm-1.488 0c0-1.932-.636-3.084-1.728-3.084s-1.728 1.152-1.728 3.084c0 1.932.636 3.084 1.728 3.084s1.728-1.152 1.728-3.084Zm8.467-4.308h1.44v8.616h-1.452l-2.868-6.084v6.084h-1.44v-8.616h1.536l2.784 5.796v-5.796Zm8.996 5.76h-3.36v-1.284h3.36v1.284Zm6.223 2.856h-2.028v-8.616h2.028c1.284 0 2.28.384 2.988 1.152.72.756 1.08 1.812 1.08 3.156s-.36 2.4-1.08 3.168c-.708.756-1.704 1.14-2.988 1.14Zm-.528-7.296v5.976h.528c1.668 0 2.556-1.056 2.556-2.988 0-1.956-.888-2.988-2.568-2.988h-.516Zm7.255 7.296v-8.616h5.952v1.344h-4.44v2.16h3.756v1.344h-3.756v2.424h4.44v1.344h-5.952Zm15.044-8.616-2.544 8.616h-1.716l-2.556-8.616h1.62l1.812 6.612 1.836-6.612h1.548Zm6.115 7.272h2.292v1.344h-6.12v-1.344h2.292v-5.928h-2.292v-1.344h6.12v1.344h-2.292v5.928Zm8.275-7.404c1.524 0 2.664.912 3.132 2.484l-1.428.492c-.24-1.02-.864-1.62-1.716-1.62-.588 0-1.08.288-1.452.864-.372.564-.564 1.308-.564 2.22 0 .912.192 1.656.564 2.232.372.564.864.852 1.452.852.852 0 1.476-.6 1.716-1.62l1.428.492c-.468 1.572-1.608 2.484-3.132 2.484-1.02 0-1.86-.408-2.52-1.236-.66-.828-.984-1.896-.984-3.204 0-1.308.324-2.364.984-3.192.66-.828 1.5-1.248 2.52-1.248Zm5.588 8.748v-8.616h5.952v1.344h-4.44v2.16h3.756v1.344h-3.756v2.424h4.44v1.344h-5.952Zm-57.592 17.132a4.811 4.811 0 0 1-2.136-.492c-.66-.324-1.164-.756-1.488-1.296l1.188-.996c.612.948 1.512 1.488 2.484 1.488 1.02 0 1.704-.504 1.704-1.284 0-.468-.228-.756-.84-.96-.156-.06-.612-.18-1.344-.36-1.02-.252-1.464-.432-1.836-.672-.576-.396-.852-.936-.852-1.692 0-.768.288-1.392.876-1.884.588-.492 1.332-.732 2.232-.732 1.38 0 2.58.6 3.204 1.572l-1.116.96c-.54-.852-1.236-1.248-2.136-1.248-.924 0-1.572.468-1.572 1.176 0 .288.108.516.312.672.216.156.72.336 1.524.516.66.156 1.128.276 1.38.372.264.084.492.192.684.3.672.396.996.996.996 1.824 0 .804-.312 1.464-.936 1.98-.612.504-1.392.756-2.328.756Zm12.02-8.748v1.344H55.26v7.272h-1.536v-7.272h-2.532v-1.344h6.6Zm8.671 4.308c0 1.332-.3 2.4-.888 3.216-.588.816-1.356 1.224-2.328 1.224-.972 0-1.752-.408-2.34-1.224-.588-.816-.876-1.884-.876-3.216 0-1.332.288-2.4.876-3.216.588-.816 1.368-1.224 2.34-1.224.972 0 1.74.408 2.328 1.224.588.816.888 1.884.888 3.216Zm-1.488 0c0-1.932-.636-3.084-1.728-3.084s-1.728 1.152-1.728 3.084c0 1.932.636 3.084 1.728 3.084s1.728-1.152 1.728-3.084Zm6.775.972h-1.092v3.336h-1.536v-8.616h2.964c1.98 0 3.12.96 3.12 2.64 0 1.26-.66 2.148-1.86 2.484l2.256 3.492H73.85l-2.1-3.336Zm-1.092-3.96v2.64h1.344c1.092 0 1.692-.468 1.692-1.32 0-.864-.588-1.32-1.692-1.32h-1.344Zm6.692 7.296 2.484-8.616h1.836l2.508 8.616H82.63l-.552-1.968h-2.676l-.552 1.968h-1.5Zm4.356-3.312-.972-3.468-.96 3.468h1.932ZM92.62 326.5h-1.248v-.888c-.324.636-1.008 1.02-1.872 1.02-.936 0-1.704-.408-2.304-1.236-.6-.828-.9-1.884-.9-3.168 0-1.296.312-2.364.948-3.204.636-.852 1.44-1.272 2.412-1.272 1.488 0 2.496.876 2.892 2.472l-1.392.492c-.192-1.02-.72-1.608-1.488-1.608-.54 0-.984.288-1.332.864-.348.564-.516 1.308-.516 2.232 0 .924.168 1.668.492 2.232.336.552.78.828 1.332.828.912 0 1.536-.828 1.572-2.064h-1.716v-1.344h3.12v4.644Zm2.767 0v-8.616h5.952v1.344H96.9v2.16h3.756v1.344H96.9v2.424h4.44v1.344h-5.952Z" fill="#000"/></svg>